<svg version="1.1" xmlns="http://www.w3.org/2000/svg" viewBox="0 0 1946.2198049214012 3046.8994399527382" width="1946.2198049214012" height="3046.8994399527382">
  <!-- svg-source:excalidraw -->
  
  <defs>
    <style class="style-fonts">
      @font-face {
        font-family: "Virgil";
        src: url("https://excalidraw.com/Virgil.woff2");
      }
      @font-face {
        font-family: "Cascadia";
        src: url("https://excalidraw.com/Cascadia.woff2");
      }
    </style>
  </defs>
  <rect x="0" y="0" width="1946.2198049214012" height="3046.8994399527382" fill="#ffffff"></rect><g transform="translate(80.48424991265995 778.6650184075315) rotate(0 256.49999999999994 23)"><text x="0" y="32" font-family="Virgil, Segoe UI Emoji" font-size="36px" fill="#000000" text-anchor="start" style="white-space: pre;" direction="ltr">FE80:0123:4567:8900:: /56 </text></g><g transform="translate(95.314553898996 10) rotate(0 526.5 23)"><text x="0" y="32" font-family="Virgil, Segoe UI Emoji" font-size="36px" fill="#000000" text-anchor="start" style="white-space: pre;" direction="ltr">Folgendes IPv6 Netz soll in 16 Subnetze aufgeteilt werden:</text></g><g transform="translate(148.6938536184348 134.09700598389782) rotate(0 573 35)"><text x="0" y="25" font-family="Virgil, Segoe UI Emoji" font-size="28px" fill="#862e9c" text-anchor="start" style="white-space: pre;" direction="ltr">1. Bestimmen des ursprünglichen Netzanteils: 56bit-&gt;56/4=14 Hexadecimal-Stellen</text><text x="0" y="60" font-family="Virgil, Segoe UI Emoji" font-size="28px" fill="#862e9c" text-anchor="start" style="white-space: pre;" direction="ltr">    -&gt; NetzId des ersten Subnetzes ist dieser rest 0s -&gt; FE80:0123:4567:8900::</text></g><g stroke-linecap="round"><g transform="translate(82.66206609403491 752.7628397916545) rotate(0 171.345498645419 0)"><path d="M0 0 C130.71 0, 261.43 0, 342.69 0 M0 0 C69.37 0, 138.75 0, 342.69 0" stroke="#862e9c" stroke-width="2" fill="none"></path></g></g><g stroke-linecap="round"><g transform="translate(424.8678935828282 752.7628397916545) rotate(0 0 16.05937288135263)"><path d="M0 0 C0 6.7, 0 13.4, 0 32.12 M0 0 C0 12.4, 0 24.8, 0 32.12" stroke="#862e9c" stroke-width="2" fill="none"></path></g></g><g stroke-linecap="round"><g transform="translate(80.84361620234301 750.1439427013138) rotate(0 0 14.40388404556694)"><path d="M0 0 C0 5.14, 0 10.28, 0 13.99 M0 0 C0 4.3, 0 8.59, 0 13.99 M0 13.99 C0 18.63, 0 23.26, 0 28.81 M0 13.99 C0 17.54, 0 21.09, 0 28.81" stroke="#862e9c" stroke-width="2" fill="none"></path></g></g><g transform="translate(113.76091423839182 720.3362330298754) rotate(0 148.49999999999994 17.5)"><text x="0" y="25" font-family="Virgil, Segoe UI Emoji" font-size="28px" fill="#862e9c" text-anchor="start" style="white-space: pre;" direction="ltr">Netzanteil urspr. /56</text></g><g stroke-linecap="round"><g transform="translate(77.53868510192251 781.1085337011571) rotate(0 0 -33.04474794800993)"><path d="M0 0 C0 -21.12, 0 -42.24, 0 -66.09 M0 0 C0 -20.21, 0 -40.42, 0 -66.09" stroke="#5f3dc4" stroke-width="2" fill="none"></path></g></g><g stroke-linecap="round"><g transform="translate(76.95292985707829 715.0190378051371) rotate(0 185.9792925404745 0)"><path d="M0 0 C148.08 0, 296.16 0, 371.96 0 M0 0 C88.54 0, 177.07 0, 371.96 0" stroke="#5f3dc4" stroke-width="2" fill="none"></path></g></g><g stroke-linecap="round"><g transform="translate(449.645978918365 715.2468371717697) rotate(0 0 37.24674924702376)"><path d="M0 0 C0 26.31, 0 52.62, 0 74.49 M0 0 C0 18.79, 0 37.58, 0 74.49" stroke="#5f3dc4" stroke-width="2" fill="none"></path></g></g><g transform="translate(109.43205467402652 681.3678753461775) rotate(0 163.99999999999994 17.5)"><text x="0" y="25" font-family="Virgil, Segoe UI Emoji" font-size="28px" fill="#5f3dc4" text-anchor="start" style="white-space: pre;" direction="ltr">Netzanteil subnets /60</text></g><g transform="translate(73.34298332179071 1008.4809314879132) rotate(0 236.49999999999994 17.5)"><text x="0" y="25" font-family="Virgil, Segoe UI Emoji" font-size="28px" fill="#862e9c" text-anchor="start" style="white-space: pre;" direction="ltr">1. Subnetz FE80:0123:4567:8900::</text></g><g transform="translate(68.80640444451717 1054.8222862603702) rotate(0 237.00000000000006 17.5)"><text x="0" y="25" font-family="Virgil, Segoe UI Emoji" font-size="28px" fill="#1864ab" text-anchor="start" style="white-space: pre;" direction="ltr">2. Subnetz FE80:0123:4567:8910::</text></g><g transform="translate(72.74942726344091 1098.740693045161) rotate(0 242.49999999999994 17.5)"><text x="0" y="25" font-family="Virgil, Segoe UI Emoji" font-size="28px" fill="#1864ab" text-anchor="start" style="white-space: pre;" direction="ltr">3. Subnetz FE80:0123:4567:8920::</text></g><g transform="translate(74.26973314651661 1210.496283082441) rotate(0 243.99999999999994 17.5)"><text x="0" y="25" font-family="Virgil, Segoe UI Emoji" font-size="28px" fill="#1864ab" text-anchor="start" style="white-space: pre;" direction="ltr">16. Subnetz FE80:0123:4567:89F0::</text></g><g transform="translate(154.57262007608688 254.43886475819193) rotate(0 662.5 53)"><text x="0" y="24.333333333333336" font-family="Virgil, Segoe UI Emoji" font-size="28px" fill="#5f3dc4" text-anchor="start" style="white-space: pre;" direction="ltr">2. 2^(4)=16 &gt;= 16 gewünschte subnets. -&gt; also +4 -&gt; /60 ist der neue Netzanteil (=56+4)</text><text x="0" y="59.66666666666667" font-family="Virgil, Segoe UI Emoji" font-size="28px" fill="#5f3dc4" text-anchor="start" style="white-space: pre;" direction="ltr">    -&gt; da eine hexadecimal Stelle genau 4 bits hat wird also auf genau einem Bit gesubnettet.</text><text x="0" y="95" font-family="Virgil, Segoe UI Emoji" font-size="28px" fill="#5f3dc4" text-anchor="start" style="white-space: pre;" direction="ltr">  </text></g><g transform="translate(277.00445692809706 1159.4983363032848) rotate(0 33.5 17.5)"><text x="0" y="25" font-family="Virgil, Segoe UI Emoji" font-size="28px" fill="#364fc7" text-anchor="start" style="white-space: pre;" direction="ltr">. . . </text></g><g transform="translate(224.30953178684354 938.7248128519855) rotate(0 52 17.5)"><text x="0" y="25" font-family="Virgil, Segoe UI Emoji" font-size="28px" fill="#000000" text-anchor="start" style="white-space: pre;" direction="ltr">NetzID</text></g><g transform="translate(647.080152753706 933.8793327699244) rotate(0 246 17.5)"><text x="0" y="25" font-family="Virgil, Segoe UI Emoji" font-size="28px" fill="#000000" text-anchor="start" style="white-space: pre;" direction="ltr">Letzte verfügbare ID/ letzer Host</text></g><g transform="translate(75.31012971396945 942.3589806764858) rotate(0 54.5 17.5)"><text x="0" y="25" font-family="Virgil, Segoe UI Emoji" font-size="28px" fill="#000000" text-anchor="start" style="white-space: pre;" direction="ltr">Subnetz</text></g><g transform="translate(132.83500152200293 440.74655476648525) rotate(0 709.5 70.5)"><text x="0" y="24.25" font-family="Virgil, Segoe UI Emoji" font-size="28px" fill="#0b7285" text-anchor="start" style="white-space: pre;" direction="ltr">3. Die Adressbereiche gehen immer bis zum nächsten Subnetz -1. </text><text x="0" y="59.5" font-family="Virgil, Segoe UI Emoji" font-size="28px" fill="#0b7285" text-anchor="start" style="white-space: pre;" direction="ltr">(im ipv6 wäre hier die Broadcastadresse, die es ja in ipv6 nicht gibt, ist also hier direkt letzer Host.)</text><text x="0" y="94.75" font-family="Virgil, Segoe UI Emoji" font-size="28px" fill="#0b7285" text-anchor="start" style="white-space: pre;" direction="ltr">    -&gt; für 1.Subnetz z.B. FE80:0123:4567:890F:FFFF:FFFF:FFFF:FFFF</text><text x="0" y="130" font-family="Virgil, Segoe UI Emoji" font-size="28px" fill="#0b7285" text-anchor="start" style="white-space: pre;" direction="ltr">  </text></g><g transform="translate(637.3889153274031 1005.3505221106421) rotate(0 295 17.5)"><text x="0" y="25" font-family="Virgil, Segoe UI Emoji" font-size="28px" fill="#0b7285" text-anchor="start" style="white-space: pre;" direction="ltr">FE80:0123:4567:890F:FFFF:FFFF:FFFF:FFFF</text></g><g transform="translate(641.9315788976646 1051.1633882925612) rotate(0 289 17.5)"><text x="0" y="25" font-family="Virgil, Segoe UI Emoji" font-size="28px" fill="#0b7285" text-anchor="start" style="white-space: pre;" direction="ltr">FE80:0123:4567:891F:FFFF:FFFF:FFFF:FFFF</text></g><g transform="translate(633.4518847807399 1092.9558561706776) rotate(0 295.5 17.5)"><text x="0" y="25" font-family="Virgil, Segoe UI Emoji" font-size="28px" fill="#0b7285" text-anchor="start" style="white-space: pre;" direction="ltr">FE80:0123:4567:892F:FFFF:FFFF:FFFF:FFFF</text></g><g transform="translate(634.9661059708274 1207.1281708715455) rotate(0 293.5 17.5)"><text x="0" y="25" font-family="Virgil, Segoe UI Emoji" font-size="28px" fill="#0b7285" text-anchor="start" style="white-space: pre;" direction="ltr">FE80:0123:4567:89FF:FFFF:FFFF:FFFF:FFFF</text></g><g transform="translate(127.25870894333059 587.1556959470338) rotate(0 534.5 35)"><text x="0" y="25" font-family="Virgil, Segoe UI Emoji" font-size="28px" fill="#5c940d" text-anchor="start" style="white-space: pre;" direction="ltr">4. Die Subnetzmaske ist die Anzahl der /56 in binären 1en: 111111111111....1 0000 ::</text><text x="0" y="60" font-family="Virgil, Segoe UI Emoji" font-size="28px" fill="#5c940d" text-anchor="start" style="white-space: pre;" direction="ltr">    -&gt; hier also FFFF:FFFF:FFFF:FFF0:: </text></g><g stroke-linecap="round"><g transform="translate(449.0756293671975 823.6310274556179) rotate(0 0 12.847834231615764)"><path d="M0 0 C0 7.59, 0 15.17, 0 25.7 M0 0 C0 9.19, 0 18.37, 0 25.7" stroke="#5f3dc4" stroke-width="2" fill="none"></path></g></g><g stroke-linecap="round"><g transform="translate(448.22171220929954 849.3266959188494) rotate(0 22.377848804729638 0)"><path d="M0 0 C10.16 0, 20.31 0, 44.76 0 M0 0 C13.7 0, 27.4 0, 44.76 0" stroke="#5f3dc4" stroke-width="2" fill="none"></path></g></g><g stroke-linecap="round"><g transform="translate(494.7567935435011 849.3266959188494) rotate(0 0 -14.275377419155632)"><path d="M0 0 C0 -6.03, 0 -12.06, 0 -28.55 M0 0 C0 -5.74, 0 -11.47, 0 -28.55" stroke="#5f3dc4" stroke-width="2" fill="none"></path></g></g><g transform="translate(396.25677648131614 861.0947939664195) rotate(0 70 17.5)"><text x="0" y="25" font-family="Virgil, Segoe UI Emoji" font-size="28px" fill="#5f3dc4" text-anchor="start" style="white-space: pre;" direction="ltr">Hostanteil</text></g><g transform="translate(14.723328044873597 2101.4651870975313) rotate(0 326.5 23)"><text x="0" y="32" font-family="Virgil, Segoe UI Emoji" font-size="36px" fill="#000000" text-anchor="start" style="white-space: pre;" direction="ltr">FE80 : 1234 : 5678 : 4444  ::  /55</text></g><g transform="translate(46.425306205428114 1283.71882568826) rotate(0 535.5 23)"><text x="0" y="32" font-family="Virgil, Segoe UI Emoji" font-size="36px" fill="#000000" text-anchor="start" style="white-space: pre;" direction="ltr">Folgendes IPv6 Netz soll in 23 Subnetze aufgeteilt werden:</text></g><g transform="translate(69.12879214667237 1394.0117213229178) rotate(0 568.5 35)"><text x="0" y="25" font-family="Virgil, Segoe UI Emoji" font-size="28px" fill="#862e9c" text-anchor="start" style="white-space: pre;" direction="ltr">1. Bestimmen des ursprünglichen Netzanteils: 55bit-&gt;55/4=13.75 Hexadecimal-Stellen</text><text x="0" y="60" font-family="Virgil, Segoe UI Emoji" font-size="28px" fill="#862e9c" text-anchor="start" style="white-space: pre;" direction="ltr">    -&gt; NetzId des ersten Subnetzes ist also 55 binäre 1s dann 0s.</text></g><g stroke-linecap="round"><g transform="translate(16.90114422624856 2075.563008481655) rotate(0 220.99280309608298 0)"><path d="M0 0 C108.82 0, 217.65 0, 441.99 0 M0 0 C159.36 0, 318.73 0, 441.99 0" stroke="#862e9c" stroke-width="2" fill="none"></path></g></g><g stroke-linecap="round"><g transform="translate(459.10697171504194 2075.563008481655) rotate(0 0 16.0593728813526)"><path d="M0 0 C0 12.52, 0 25.04, 0 32.12 M0 0 C0 6.62, 0 13.24, 0 32.12" stroke="#862e9c" stroke-width="2" fill="none"></path></g></g><g stroke-linecap="round"><g transform="translate(15.082694334556436 2072.9441113913135) rotate(0 0 14.403884045566997)"><path d="M0 0 C0 3.32, 0 6.64, 0 13.99 M0 0 C0 3.81, 0 7.62, 0 13.99 M0 13.99 C0 17.67, 0 21.35, 0 28.81 M0 13.99 C0 19.67, 0 25.36, 0 28.81" stroke="#862e9c" stroke-width="2" fill="none"></path></g></g><g transform="translate(10 2035.1364093492698) rotate(0 155.5 17.5)"><text x="0" y="25" font-family="Virgil, Segoe UI Emoji" font-size="28px" fill="#862e9c" text-anchor="start" style="white-space: pre;" direction="ltr">Netzanteil urspr. /55 </text></g><g transform="translate(60.236532877668196 2679.644631154778) rotate(0 236.5 17.5)"><text x="0" y="25" font-family="Virgil, Segoe UI Emoji" font-size="28px" fill="#862e9c" text-anchor="start" style="white-space: pre;" direction="ltr">1. Subnetz FE80:1234:5678:4400::</text></g><g transform="translate(55.69995400039443 2725.985985927235) rotate(0 236.5 17.5)"><text x="0" y="25" font-family="Virgil, Segoe UI Emoji" font-size="28px" fill="#1864ab" text-anchor="start" style="white-space: pre;" direction="ltr">2. Subnetz FE80:1234:5678:4410::</text></g><g transform="translate(59.64297681931839 2768.854408544829) rotate(0 242.5 17.5)"><text x="0" y="25" font-family="Virgil, Segoe UI Emoji" font-size="28px" fill="#1864ab" text-anchor="start" style="white-space: pre;" direction="ltr">3. Subnetz FE80:1234:5678:4420::</text></g><g transform="translate(61.1632827023941 2881.6599827493073) rotate(0 243.5 17.5)"><text x="0" y="25" font-family="Virgil, Segoe UI Emoji" font-size="28px" fill="#1864ab" text-anchor="start" style="white-space: pre;" direction="ltr">16. Subnetz FE80:1234:5678:45F0::</text></g><g transform="translate(72.79024700532273 1518.1874852545461) rotate(0 640.5 70.5)"><text x="0" y="24.25" font-family="Virgil, Segoe UI Emoji" font-size="28px" fill="#5f3dc4" text-anchor="start" style="white-space: pre;" direction="ltr">2. 2^(5)=32 &gt;= 23 gewünschte subnets. -&gt; also +5 -&gt; /60 ist der neue Netzanteil (=55+5)</text><text x="0" y="59.5" font-family="Virgil, Segoe UI Emoji" font-size="28px" fill="#5f3dc4" text-anchor="start" style="white-space: pre;" direction="ltr"> </text><text x="0" y="94.75" font-family="Virgil, Segoe UI Emoji" font-size="28px" fill="#5f3dc4" text-anchor="start" style="white-space: pre;" direction="ltr"> </text><text x="0" y="130" font-family="Virgil, Segoe UI Emoji" font-size="28px" fill="#5f3dc4" text-anchor="start" style="white-space: pre;" direction="ltr">  </text></g><g transform="translate(263.8980064839743 2830.662035970151) rotate(0 33.5 17.5)"><text x="0" y="25" font-family="Virgil, Segoe UI Emoji" font-size="28px" fill="#364fc7" text-anchor="start" style="white-space: pre;" direction="ltr">. . . </text></g><g transform="translate(211.2030813427209 2609.8885125188503) rotate(0 52 17.5)"><text x="0" y="25" font-family="Virgil, Segoe UI Emoji" font-size="28px" fill="#000000" text-anchor="start" style="white-space: pre;" direction="ltr">NetzID</text></g><g transform="translate(633.9737023095834 2605.0430324367894) rotate(0 246 17.5)"><text x="0" y="25" font-family="Virgil, Segoe UI Emoji" font-size="28px" fill="#000000" text-anchor="start" style="white-space: pre;" direction="ltr">Letzte verfügbare ID/ letzer Host</text></g><g transform="translate(62.203679269846816 2613.52268034335) rotate(0 54.5 17.5)"><text x="0" y="25" font-family="Virgil, Segoe UI Emoji" font-size="28px" fill="#000000" text-anchor="start" style="white-space: pre;" direction="ltr">Subnetz</text></g><g transform="translate(67.07407965421635 1763.5467234564856) rotate(0 709.5 70.5)"><text x="0" y="24.25" font-family="Virgil, Segoe UI Emoji" font-size="28px" fill="#0b7285" text-anchor="start" style="white-space: pre;" direction="ltr">3. Die Adressbereiche gehen immer bis zum nächsten Subnetz -1. </text><text x="0" y="59.5" font-family="Virgil, Segoe UI Emoji" font-size="28px" fill="#0b7285" text-anchor="start" style="white-space: pre;" direction="ltr">(im ipv6 wäre hier die Broadcastadresse, die es ja in ipv6 nicht gibt, ist also hier direkt letzer Host.)</text><text x="0" y="94.75" font-family="Virgil, Segoe UI Emoji" font-size="28px" fill="#0b7285" text-anchor="start" style="white-space: pre;" direction="ltr">    -&gt; für 1.Subnetz z.B. FE80:0123:4567:890F:FFFF:FFFF:FFFF:FFFF</text><text x="0" y="130" font-family="Virgil, Segoe UI Emoji" font-size="28px" fill="#0b7285" text-anchor="start" style="white-space: pre;" direction="ltr">  </text></g><g transform="translate(624.2824648832805 2676.5142217775065) rotate(0 298 17.5)"><text x="0" y="25" font-family="Virgil, Segoe UI Emoji" font-size="28px" fill="#0b7285" text-anchor="start" style="white-space: pre;" direction="ltr">FE80:1234:5678:440F::FFFF:FFFF:FFFF:FFFF</text></g><g transform="translate(628.825128453542 2722.3270879594256) rotate(0 292.5 17.5)"><text x="0" y="25" font-family="Virgil, Segoe UI Emoji" font-size="28px" fill="#0b7285" text-anchor="start" style="white-space: pre;" direction="ltr">FE80:1234:5678:441F::FFFF:FFFF:FFFF:FFFF</text></g><g transform="translate(620.3454343366172 2764.1195558375434) rotate(0 310 17.5)"><text x="0" y="25" font-family="Virgil, Segoe UI Emoji" font-size="28px" fill="#0b7285" text-anchor="start" style="white-space: pre;" direction="ltr">FE80:1234:5678:442F::F:FFFF:FFFF:FFFF:FFFF</text></g><g transform="translate(621.8596555267047 2878.291870538412) rotate(0 292 17.5)"><text x="0" y="25" font-family="Virgil, Segoe UI Emoji" font-size="28px" fill="#0b7285" text-anchor="start" style="white-space: pre;" direction="ltr">FE80:1234:5678:45FF: FFFF:FFFF:FFFF:FFF</text></g><g transform="translate(63.54005146544068 1909.9558646370338) rotate(0 627 35)"><text x="0" y="25" font-family="Virgil, Segoe UI Emoji" font-size="28px" fill="#5c940d" text-anchor="start" style="white-space: pre;" direction="ltr">4. Die Subnetzmaske ist die Anzahl der /60 in binären 1en: 111111111111.... 1111 1110 0000 0000 ::</text><text x="0" y="60" font-family="Virgil, Segoe UI Emoji" font-size="28px" fill="#5c940d" text-anchor="start" style="white-space: pre;" direction="ltr">    -&gt; hier also FFFF:FFFF:FFFF:FE00:: </text></g><g transform="translate(48.435203931250044 1339.5015364499454) rotate(0 324.5 23)"><text x="0" y="32" font-family="Virgil, Segoe UI Emoji" font-size="36px" fill="#000000" text-anchor="start" style="white-space: pre;" direction="ltr">- FE80 : 1234 : 5678 : 4444 :: /55</text></g><g transform="translate(345.857576313623 2022.2275757964965) rotate(0 153 12.5)"><text x="0" y="18" font-family="Virgil, Segoe UI Emoji" font-size="20px" fill="#e67700" text-anchor="start" style="white-space: pre;" direction="ltr">Hier jedoch mitten in dem 4X44</text></g><g transform="translate(338.8867885653872 2300.975326603899) rotate(0 153 17.5)"><text x="0" y="25" font-family="Virgil, Segoe UI Emoji" font-size="28px" fill="#000000" text-anchor="start" style="white-space: pre;" direction="ltr">0100 0100 0100 0100</text></g><g stroke-linecap="round" transform="translate(405.8867961947817 2098.9752655687425) rotate(0 60 24.50000762939453)"><path d="M120 24.5 C120 25.66, 119.79 26.84, 119.39 27.99 C118.98 29.14, 118.37 30.29, 117.57 31.4 C116.77 32.52, 115.76 33.62, 114.58 34.68 C113.4 35.73, 112.01 36.77, 110.48 37.75 C108.94 38.72, 107.21 39.67, 105.34 40.54 C103.48 41.42, 101.44 42.25, 99.29 43.02 C97.14 43.78, 94.83 44.48, 92.44 45.11 C90.04 45.74, 87.51 46.3, 84.92 46.79 C82.34 47.27, 79.63 47.68, 76.9 48.01 C74.17 48.34, 71.36 48.59, 68.54 48.75 C65.72 48.92, 62.85 49, 60 49 C57.15 49, 54.28 48.92, 51.46 48.75 C48.64 48.59, 45.83 48.34, 43.1 48.01 C40.37 47.68, 37.66 47.27, 35.08 46.79 C32.49 46.3, 29.96 45.74, 27.56 45.11 C25.17 44.48, 22.86 43.78, 20.71 43.02 C18.56 42.25, 16.52 41.42, 14.66 40.54 C12.79 39.67, 11.06 38.72, 9.52 37.75 C7.99 36.77, 6.6 35.73, 5.42 34.68 C4.24 33.62, 3.23 32.52, 2.43 31.4 C1.63 30.29, 1.02 29.14, 0.61 27.99 C0.21 26.84, 0 25.66, 0 24.5 C0 23.34, 0.21 22.16, 0.61 21.01 C1.02 19.86, 1.63 18.71, 2.43 17.6 C3.23 16.48, 4.24 15.38, 5.42 14.32 C6.6 13.27, 7.99 12.23, 9.52 11.25 C11.06 10.28, 12.79 9.33, 14.66 8.46 C16.52 7.58, 18.56 6.75, 20.71 5.98 C22.86 5.22, 25.17 4.52, 27.56 3.89 C29.96 3.26, 32.49 2.7, 35.08 2.21 C37.66 1.73, 40.37 1.32, 43.1 0.99 C45.83 0.66, 48.64 0.41, 51.46 0.25 C54.28 0.08, 57.15 0, 60 0 C62.85 0, 65.72 0.08, 68.54 0.25 C71.36 0.41, 74.17 0.66, 76.9 0.99 C79.63 1.32, 82.34 1.73, 84.92 2.21 C87.51 2.7, 90.04 3.26, 92.44 3.89 C94.83 4.52, 97.14 5.22, 99.29 5.98 C101.44 6.75, 103.48 7.58, 105.34 8.46 C107.21 9.33, 108.94 10.28, 110.48 11.25 C112.01 12.23, 113.4 13.27, 114.58 14.32 C115.76 15.38, 116.77 16.48, 117.57 17.6 C118.37 18.71, 118.98 19.86, 119.39 21.01 C119.79 22.16, 119.9 23.92, 120 24.5 C120.1 25.08, 120.1 23.92, 120 24.5" stroke="#e67700" stroke-width="2" fill="none"></path></g><g stroke-linecap="round"><g transform="translate(407.8867656772036 2140.975273198137) rotate(0 -32.5 71.00000381469727)"><path d="M0 0 C-21.32 46.58, -42.64 93.16, -65 142 M0 0 C-16.99 37.11, -33.98 74.23, -65 142" stroke="#e67700" stroke-width="2" fill="none"></path></g><g transform="translate(407.8867656772036 2140.975273198137) rotate(0 -32.5 71.00000381469727)"><path d="M-62.6 112.1 C-63.38 121.91, -64.17 131.71, -65 142 M-62.6 112.1 C-63.22 119.91, -63.85 127.73, -65 142" stroke="#e67700" stroke-width="2" fill="none"></path></g><g transform="translate(407.8867656772036 2140.975273198137) rotate(0 -32.5 71.00000381469727)"><path d="M-43.94 120.64 C-50.85 127.64, -57.76 134.65, -65 142 M-43.94 120.64 C-49.44 126.22, -54.95 131.8, -65 142" stroke="#e67700" stroke-width="2" fill="none"></path></g></g><g stroke-linecap="round"><g transform="translate(520.8867961947817 2136.7830713153817) rotate(0 60.50622475771445 75.09611238546938)"><path d="M0 0 C37.42 46.45, 74.85 92.89, 121.01 150.19 M0 0 C41.28 51.23, 82.56 102.47, 121.01 150.19" stroke="#e67700" stroke-width="2" fill="none"></path></g><g transform="translate(520.8867961947817 2136.7830713153817) rotate(0 60.50622475771445 75.09611238546938)"><path d="M95.34 134.68 C103.28 139.48, 111.22 144.27, 121.01 150.19 M95.34 134.68 C104.09 139.97, 112.85 145.26, 121.01 150.19" stroke="#e67700" stroke-width="2" fill="none"></path></g><g transform="translate(520.8867961947817 2136.7830713153817) rotate(0 60.50622475771445 75.09611238546938)"><path d="M111.32 121.8 C114.31 130.58, 117.31 139.36, 121.01 150.19 M111.32 121.8 C114.62 131.49, 117.93 141.17, 121.01 150.19" stroke="#e67700" stroke-width="2" fill="none"></path></g></g><g transform="translate(367.8868419711489 2265.4752808275316) rotate(0 10 17.5)"><text x="0" y="25" font-family="Virgil, Segoe UI Emoji" font-size="28px" fill="#e67700" text-anchor="start" style="white-space: pre;" direction="ltr">4</text></g><g transform="translate(436.88678093599265 2265.4752808275316) rotate(0 10 17.5)"><text x="0" y="25" font-family="Virgil, Segoe UI Emoji" font-size="28px" fill="#e67700" text-anchor="start" style="white-space: pre;" direction="ltr">4</text></g><g transform="translate(519.8867351596255 2267.4752503099535) rotate(0 10 17.5)"><text x="0" y="25" font-family="Virgil, Segoe UI Emoji" font-size="28px" fill="#e67700" text-anchor="start" style="white-space: pre;" direction="ltr">4</text></g><g transform="translate(585.8867199008364 2269.4752960863207) rotate(0 10 17.5)"><text x="0" y="25" font-family="Virgil, Segoe UI Emoji" font-size="28px" fill="#e67700" text-anchor="start" style="white-space: pre;" direction="ltr">4</text></g><g transform="translate(422.3868114535708 2101.4753342332933) rotate(0 47 23)"><text x="0" y="32" font-family="Virgil, Segoe UI Emoji" font-size="36px" fill="#e67700" text-anchor="start" style="white-space: pre;" direction="ltr">4444</text></g><g stroke-linecap="round"><g transform="translate(14.886658865680033 2105.975330418596) rotate(0 0 130.00000953674316)"><path d="M0 0 C0 65.77, 0 131.53, 0 260 M0 0 C0 98.39, 0 196.79, 0 260" stroke="#862e9c" stroke-width="2" fill="none"></path></g></g><g stroke-linecap="round"><g transform="translate(14.886658865680033 2366.9753342332933) rotate(0 224.00336291216598 0)"><path d="M0 0 C110.34 0, 220.68 0, 448.01 0 M0 0 C134.34 0, 268.67 0, 448.01 0" stroke="#862e9c" stroke-width="2" fill="none"></path></g></g><g stroke-linecap="round"><g transform="translate(462.66308053332114 2366.643015178777) rotate(0 0 -17.380272944371654)"><path d="M0 0 C0 -10.52, 0 -21.05, 0 -34.76 M0 0 C0 -13.81, 0 -27.63, 0 -34.76" stroke="#862e9c" stroke-width="2" fill="none"></path></g></g><g transform="translate(31.148345028756466 2334.6430583272895) rotate(0 168 12.5)"><text x="0" y="18" font-family="Virgil, Segoe UI Emoji" font-size="20px" fill="#e67700" text-anchor="start" style="white-space: pre;" direction="ltr">55-(4*4*3) = 5bits übrig, rest 0s</text></g><g stroke-linecap="round"><g transform="translate(199.1098189826855 2316.383845717152) rotate(0 59.27895011852934 0)"><path d="M0 0 C34.83 0, 69.65 0, 118.56 0 M0 0 C30.84 0, 61.68 0, 118.56 0" stroke="#e67700" stroke-width="2" fill="none"></path></g><g transform="translate(199.1098189826855 2316.383845717152) rotate(0 59.27895011852934 0)"><path d="M90.37 10.26 C98.65 7.25, 106.93 4.23, 118.56 0 M90.37 10.26 C97.7 7.59, 105.03 4.92, 118.56 0" stroke="#e67700" stroke-width="2" fill="none"></path></g><g transform="translate(199.1098189826855 2316.383845717152) rotate(0 59.27895011852934 0)"><path d="M90.37 -10.26 C98.65 -7.25, 106.93 -4.23, 118.56 0 M90.37 -10.26 C97.7 -7.59, 105.03 -4.92, 118.56 0" stroke="#e67700" stroke-width="2" fill="none"></path></g></g><g transform="translate(325.1650746711548 2369.3964807694583) rotate(0 171.5 17.5)"><text x="0" y="25" font-family="Virgil, Segoe UI Emoji" font-size="28px" fill="#e67700" text-anchor="start" style="white-space: pre;" direction="ltr"> 0100 0100 0000 0000</text></g><g transform="translate(366.85758380313473 2419.793105929873) rotate(0 10 17.5)"><text x="0" y="25" font-family="Virgil, Segoe UI Emoji" font-size="28px" fill="#e67700" text-anchor="start" style="white-space: pre;" direction="ltr">4</text></g><g transform="translate(455.75326035370995 2424.294164797701) rotate(0 10 17.5)"><text x="0" y="25" font-family="Virgil, Segoe UI Emoji" font-size="28px" fill="#e67700" text-anchor="start" style="white-space: pre;" direction="ltr">4</text></g><g transform="translate(534.5214042131963 2423.1688786181053) rotate(0 10.5 17.5)"><text x="0" y="25" font-family="Virgil, Segoe UI Emoji" font-size="28px" fill="#e67700" text-anchor="start" style="white-space: pre;" direction="ltr">0</text></g><g transform="translate(620.0412651502609 2423.1688786181053) rotate(0 10.5 17.5)"><text x="0" y="25" font-family="Virgil, Segoe UI Emoji" font-size="28px" fill="#e67700" text-anchor="start" style="white-space: pre;" direction="ltr">0</text></g><g stroke-linecap="round"><g transform="translate(266.7094747093822 2440.169937485933) rotate(0 29.819375492206518 1.687886344116123)"><path d="M0 0 C12.5 0.71, 24.99 1.41, 59.64 3.38 M0 0 C12.6 0.71, 25.2 1.43, 59.64 3.38" stroke="#e67700" stroke-width="2" fill="none"></path></g><g transform="translate(266.7094747093822 2440.169937485933) rotate(0 29.819375492206518 1.687886344116123)"><path d="M31.04 11.99 C37.03 10.18, 43.03 8.38, 59.64 3.38 M31.04 11.99 C37.08 10.17, 43.12 8.35, 59.64 3.38" stroke="#e67700" stroke-width="2" fill="none"></path></g><g transform="translate(266.7094747093822 2440.169937485933) rotate(0 29.819375492206518 1.687886344116123)"><path d="M32.19 -8.41 C37.95 -5.94, 43.7 -3.47, 59.64 3.38 M32.19 -8.41 C37.99 -5.92, 43.79 -3.43, 59.64 3.38" stroke="#e67700" stroke-width="2" fill="none"></path></g></g><g stroke-linecap="round"><g transform="translate(571.669190242319 2304.86003953174) rotate(0 1.5621972214231619 110.91770115015402)"><path d="M0 0 C1.25 88.44, 2.49 176.88, 3.12 221.84 M0 0 C0.7 49.95, 1.41 99.89, 3.12 221.84" stroke="#5f3dc4" stroke-width="2" fill="none"></path></g></g><g stroke-linecap="round"><g transform="translate(573.7521198708832 2526.2358427827107) rotate(0 -281.510930243741 0)"><path d="M0 0 C-183.89 0, -367.77 0, -563.02 0 M0 0 C-166.45 0, -332.91 0, -563.02 0" stroke="#5f3dc4" stroke-width="2" fill="none"></path></g></g><g transform="translate(58.327711585909356 2373.8511406146563) rotate(0 140 12.5)"><text x="0" y="18" font-family="Virgil, Segoe UI Emoji" font-size="20px" fill="#e67700" text-anchor="start" style="white-space: pre;" direction="ltr">Teil des 1. Subnetz NEtzID:</text></g><g stroke-linecap="round"><g transform="translate(11.638532301087935 2526.8602033627144) rotate(0 0 -208.36807783257564)"><path d="M0 0 C0 -161.6, 0 -323.2, 0 -416.74 M0 0 C0 -130.94, 0 -261.88, 0 -416.74" stroke="#5f3dc4" stroke-width="2" fill="none"></path></g></g><g transform="translate(141.37332828734998 1556.4685897339396) rotate(0 428 17.5)"><text x="0" y="25" font-family="Virgil, Segoe UI Emoji" font-size="28px" fill="#e67700" text-anchor="start" style="white-space: pre;" direction="ltr">-&gt; daraus ergeben sich die 5 bits auf denen gesubnettet wird</text></g><g transform="translate(142.21980492140142 350.6710518006687) rotate(0 896.9999999999999 35)"><text x="0" y="25" font-family="Virgil, Segoe UI Emoji" font-size="28px" fill="#1864ab" text-anchor="start" style="white-space: pre;" direction="ltr">3. Die 4bits (/60-/56)  auf denen gesubnettet wird bedeuten hier jeweils +1bit pro Subnetz. also 1-F da hier genau 1 hexa-stelle.</text><text x="0" y="60" font-family="Virgil, Segoe UI Emoji" font-size="28px" fill="#1864ab" text-anchor="start" style="white-space: pre;" direction="ltr">    -&gt; 2. NetzID FE80:0123:4567:8900:: -&gt;+1-&gt; FE80:0123:4567:8910:: -&gt;+1-&gt; FE80:0123:4567:8920::</text></g><g transform="translate(1087.2699320344107 386.0176601048622) rotate(0 5 17.5)"><text x="0" y="25" font-family="Virgil, Segoe UI Emoji" font-size="28px" fill="#d9480f" text-anchor="start" style="white-space: pre;" direction="ltr">1</text></g><g transform="translate(1500.247310415245 385.4986461917322) rotate(0 11 17.5)"><text x="0" y="25" font-family="Virgil, Segoe UI Emoji" font-size="28px" fill="#d9480f" text-anchor="start" style="white-space: pre;" direction="ltr">2</text></g><g transform="translate(663.2702877623176 385.968791244798) rotate(0 10.5 17.5)"><text x="0" y="25" font-family="Virgil, Segoe UI Emoji" font-size="28px" fill="#d9480f" text-anchor="start" style="white-space: pre;" direction="ltr">0</text></g><g transform="translate(51.225384583707296 1617.7949477835523) rotate(0 896.5 35)"><text x="0" y="25" font-family="Virgil, Segoe UI Emoji" font-size="28px" fill="#1864ab" text-anchor="start" style="white-space: pre;" direction="ltr">3. Die 5bits (/60-/55)  auf denen gesubnettet wird bedeuten hier jeweils +1bit pro Subnetz. also 1-F da hier genau 1 hexa-stelle.</text><text x="0" y="60" font-family="Virgil, Segoe UI Emoji" font-size="28px" fill="#1864ab" text-anchor="start" style="white-space: pre;" direction="ltr">    -&gt; 2. NetzID FE80:0123:4567:8900:: -&gt;+1-&gt; FE80:0123:4567:8910:: -&gt;+1-&gt; FE80:0123:4567:8920::</text></g><g transform="translate(996.2755116967166 1653.1415560877458) rotate(0 5 17.5)"><text x="0" y="25" font-family="Virgil, Segoe UI Emoji" font-size="28px" fill="#d9480f" text-anchor="start" style="white-space: pre;" direction="ltr">1</text></g><g transform="translate(1409.252890077551 1652.6225421746158) rotate(0 11 17.5)"><text x="0" y="25" font-family="Virgil, Segoe UI Emoji" font-size="28px" fill="#d9480f" text-anchor="start" style="white-space: pre;" direction="ltr">2</text></g><g transform="translate(572.2758674246236 1653.0926872276818) rotate(0 10.5 17.5)"><text x="0" y="25" font-family="Virgil, Segoe UI Emoji" font-size="28px" fill="#d9480f" text-anchor="start" style="white-space: pre;" direction="ltr">0</text></g><g transform="translate(102.33967922727334 74.05471490840694) rotate(0 264 23)"><text x="0" y="32" font-family="Virgil, Segoe UI Emoji" font-size="36px" fill="#000000" text-anchor="start" style="white-space: pre;" direction="ltr">- FE80:0123:4567:8900:: /56</text></g><g transform="translate(11.958752301347658 2489.322638822091) rotate(0 164 17.5)"><text x="0" y="25" font-family="Virgil, Segoe UI Emoji" font-size="28px" fill="#5f3dc4" text-anchor="start" style="white-space: pre;" direction="ltr">Netzanteil subnets /60</text></g><g transform="translate(504.0145066038933 2962.9774550789416) rotate(0 85.5 17.5)"><text x="0" y="25" font-family="Virgil, Segoe UI Emoji" font-size="28px" fill="#e67700" text-anchor="start" style="white-space: pre;" direction="ltr">...:0100 010 </text></g><g transform="translate(661.8559589131446 2961.3430354511524) rotate(0 34 17.5)"><text x="0" y="25" font-family="Virgil, Segoe UI Emoji" font-size="28px" fill="#c92a2a" text-anchor="start" style="white-space: pre;" direction="ltr">1 1111 </text></g><g transform="translate(556.3958810563709 2996.655932037983) rotate(0 10 17.5)"><text x="0" y="25" font-family="Virgil, Segoe UI Emoji" font-size="28px" fill="#c92a2a" text-anchor="start" style="white-space: pre;" direction="ltr">4</text></g><g transform="translate(634.2643982212894 2994.353891484726) rotate(0 9.5 17.5)"><text x="0" y="25" font-family="Virgil, Segoe UI Emoji" font-size="28px" fill="#c92a2a" text-anchor="start" style="white-space: pre;" direction="ltr">5</text></g><g transform="translate(462.3275970132506 2882.642435486877) rotate(0 26.5 17.5)"><text x="0" y="25" font-family="Virgil, Segoe UI Emoji" font-size="28px" fill="#c92a2a" text-anchor="start" style="white-space: pre;" direction="ltr">45F</text></g><g transform="translate(692.6956580492713 2992.818581383738) rotate(0 9 17.5)"><text x="0" y="25" font-family="Virgil, Segoe UI Emoji" font-size="28px" fill="#c92a2a" text-anchor="start" style="white-space: pre;" direction="ltr">F</text></g><g transform="translate(142.55628433760705 2960.2598564688083) rotate(0 167.99999999999994 12.5)"><text x="0" y="18" font-family="Virgil, Segoe UI Emoji" font-size="20px" fill="#e67700" text-anchor="start" style="white-space: pre;" direction="ltr">Das letze Subnetzt liegt hier bei:</text></g><g stroke-linecap="round" transform="translate(503.1902921748158 2950.763741800629) rotate(0 118.79150265939325 43.0678490760547)"><path d="M237.58 43.07 C237.58 44.47, 237.39 45.89, 237.01 47.29 C236.63 48.69, 236.06 50.09, 235.3 51.47 C234.54 52.85, 233.59 54.22, 232.47 55.57 C231.34 56.92, 230.03 58.25, 228.54 59.55 C227.06 60.85, 225.39 62.13, 223.56 63.37 C221.73 64.61, 219.72 65.83, 217.56 67 C215.41 68.17, 213.08 69.3, 210.62 70.39 C208.16 71.48, 205.53 72.53, 202.79 73.52 C200.05 74.52, 197.15 75.47, 194.15 76.36 C191.15 77.25, 188.02 78.1, 184.79 78.88 C181.56 79.66, 178.21 80.39, 174.79 81.05 C171.37 81.71, 167.84 82.32, 164.25 82.86 C160.67 83.4, 156.99 83.87, 153.27 84.28 C149.56 84.69, 145.77 85.03, 141.97 85.31 C138.16 85.58, 134.3 85.79, 130.44 85.93 C126.57 86.07, 122.67 86.14, 118.79 86.14 C114.91 86.14, 111.01 86.07, 107.15 85.93 C103.29 85.79, 99.42 85.58, 95.62 85.31 C91.81 85.03, 88.02 84.69, 84.31 84.28 C80.59 83.87, 76.92 83.4, 73.33 82.86 C69.75 82.32, 66.22 81.71, 62.79 81.05 C59.37 80.39, 56.02 79.66, 52.79 78.88 C49.57 78.1, 46.43 77.25, 43.43 76.36 C40.43 75.47, 37.54 74.52, 34.79 73.52 C32.05 72.53, 29.43 71.48, 26.96 70.39 C24.5 69.3, 22.18 68.17, 20.02 67 C17.86 65.83, 15.86 64.61, 14.03 63.37 C12.2 62.13, 10.53 60.85, 9.04 59.55 C7.56 58.25, 6.24 56.92, 5.12 55.57 C3.99 54.22, 3.04 52.85, 2.28 51.47 C1.53 50.09, 0.95 48.69, 0.57 47.29 C0.19 45.89, 0 44.47, 0 43.07 C0 41.66, 0.19 40.25, 0.57 38.85 C0.95 37.45, 1.53 36.05, 2.28 34.67 C3.04 33.29, 3.99 31.91, 5.12 30.57 C6.24 29.22, 7.56 27.89, 9.04 26.59 C10.53 25.29, 12.2 24.01, 14.03 22.77 C15.86 21.52, 17.86 20.31, 20.02 19.14 C22.18 17.97, 24.5 16.83, 26.96 15.75 C29.43 14.66, 32.05 13.61, 34.79 12.61 C37.54 11.62, 40.43 10.67, 43.43 9.78 C46.43 8.88, 49.57 8.04, 52.79 7.26 C56.02 6.48, 59.37 5.75, 62.79 5.09 C66.22 4.42, 69.75 3.82, 73.33 3.28 C76.92 2.74, 80.59 2.26, 84.31 1.85 C88.02 1.45, 91.81 1.1, 95.62 0.83 C99.42 0.55, 103.29 0.35, 107.15 0.21 C111.01 0.07, 114.91 0, 118.79 0 C122.67 0, 126.57 0.07, 130.44 0.21 C134.3 0.35, 138.16 0.55, 141.97 0.83 C145.77 1.1, 149.56 1.45, 153.27 1.85 C156.99 2.26, 160.67 2.74, 164.25 3.28 C167.84 3.82, 171.37 4.42, 174.79 5.09 C178.21 5.75, 181.56 6.48, 184.79 7.26 C188.02 8.04, 191.15 8.88, 194.15 9.78 C197.15 10.67, 200.05 11.62, 202.79 12.61 C205.53 13.61, 208.16 14.66, 210.62 15.75 C213.08 16.83, 215.41 17.97, 217.56 19.14 C219.72 20.31, 221.73 21.52, 223.56 22.77 C225.39 24.01, 227.06 25.29, 228.54 26.59 C230.03 27.89, 231.34 29.22, 232.47 30.57 C233.59 31.91, 234.54 33.29, 235.3 34.67 C236.06 36.05, 236.63 37.45, 237.01 38.85 C237.39 40.25, 237.49 42.36, 237.58 43.07 C237.68 43.77, 237.68 42.36, 237.58 43.07" stroke="#e67700" stroke-width="2" fill="none"></path></g><g stroke-linecap="round"><g transform="translate(503.1902921748158 2989.572145179445) rotate(0 -14.671454158148777 -31.709309162822592)"><path d="M0 0 C-9.92 -21.43, -19.83 -42.86, -29.34 -63.42 M0 0 C-10.59 -22.88, -21.17 -45.76, -29.34 -63.42" stroke="#e67700" stroke-width="2" fill="none"></path></g><g transform="translate(503.1902921748158 2989.572145179445) rotate(0 -14.671454158148777 -31.709309162822592)"><path d="M-8.19 -42.14 C-15.34 -49.33, -22.49 -56.52, -29.34 -63.42 M-8.19 -42.14 C-15.82 -49.82, -23.45 -57.5, -29.34 -63.42" stroke="#e67700" stroke-width="2" fill="none"></path></g><g transform="translate(503.1902921748158 2989.572145179445) rotate(0 -14.671454158148777 -31.709309162822592)"><path d="M-26.82 -33.53 C-27.67 -43.63, -28.52 -53.73, -29.34 -63.42 M-26.82 -33.53 C-27.73 -44.31, -28.64 -55.1, -29.34 -63.42" stroke="#e67700" stroke-width="2" fill="none"></path></g></g><g stroke-linecap="round"><g transform="translate(670.7289590017053 2956.4430027302797) rotate(0 -78.56333820995462 -20.35073314172996)"><path d="M0 0 C-42.18 -10.93, -84.37 -21.85, -157.13 -40.7 M0 0 C-31.68 -8.21, -63.35 -16.41, -157.13 -40.7" stroke="#e67700" stroke-width="2" fill="none"></path></g><g transform="translate(670.7289590017053 2956.4430027302797) rotate(0 -78.56333820995462 -20.35073314172996)"><path d="M-127.26 -43.57 C-135.28 -42.8, -143.3 -42.03, -157.13 -40.7 M-127.26 -43.57 C-133.28 -42.99, -139.3 -42.41, -157.13 -40.7" stroke="#e67700" stroke-width="2" fill="none"></path></g><g transform="translate(670.7289590017053 2956.4430027302797) rotate(0 -78.56333820995462 -20.35073314172996)"><path d="M-132.41 -23.7 C-139.05 -28.26, -145.68 -32.83, -157.13 -40.7 M-132.41 -23.7 C-137.39 -27.13, -142.38 -30.55, -157.13 -40.7" stroke="#e67700" stroke-width="2" fill="none"></path></g></g><g transform="translate(496.49820749282594 2075.912037767478) rotate(0 50.5 12.5)"><text x="0" y="18" font-family="Virgil, Segoe UI Emoji" font-size="20px" fill="#5f3dc4" text-anchor="start" style="white-space: pre;" direction="ltr">Hostanteil</text></g><g stroke-linecap="round"><g transform="translate(491.8005472017253 2076.1675748039115) rotate(0 -0.1988545763182401 15.253971225354462)"><path d="M0 0 C-0.12 9.03, -0.24 18.05, -0.4 30.51 M0 0 C-0.13 9.93, -0.26 19.86, -0.4 30.51" stroke="#5f3dc4" stroke-width="2" fill="none"></path></g></g><g stroke-linecap="round"><g transform="translate(492.6170314115477 2076.6963309986936) rotate(0 51.775892404407045 0)"><path d="M0 0 C24.81 0, 49.63 0, 103.55 0 M0 0 C27.67 0, 55.35 0, 103.55 0" stroke="#5f3dc4" stroke-width="2" fill="none"></path></g></g><g stroke-linecap="round"><g transform="translate(596.77509679679 2131.9869706996396) rotate(0 0 -27.349155464276123)"><path d="M0 0 C0 -17.29, 0 -34.57, 0 -54.7 M0 0 C0 -11.81, 0 -23.61, 0 -54.7" stroke="#5f3dc4" stroke-width="2" fill="none"></path></g></g><g transform="translate(594.5331680783554 2490.0525223171) rotate(0 50.5 12.5)"><text x="0" y="18" font-family="Virgil, Segoe UI Emoji" font-size="20px" fill="#5f3dc4" text-anchor="start" style="white-space: pre;" direction="ltr">Hostanteil</text></g><g stroke-linecap="round"><g transform="translate(577.2007219703528 2525.3090938881032) rotate(0 58.791272951456676 0)"><path d="M0 0 C30.61 0, 61.22 0, 117.58 0 M0 0 C30.25 0, 60.49 0, 117.58 0" stroke="#5f3dc4" stroke-width="2" fill="none"></path></g></g><g transform="translate(698.9108210039101 2507.2679207315578) rotate(0 9 12.5)"><text x="0" y="18" font-family="Virgil, Segoe UI Emoji" font-size="20px" fill="#5f3dc4" text-anchor="start" style="white-space: pre;" direction="ltr">...</text></g><g stroke-linecap="round"><g transform="translate(465.6373726686577 2047.2092448196963) rotate(0 0 19.712412861841017)"><path d="M0 0 C0 8, 0 15.99, 0 39.42 M0 0 C0 15.38, 0 30.76, 0 39.42" stroke="#e67700" stroke-width="2" fill="none"></path></g><g transform="translate(465.6373726686577 2047.2092448196963) rotate(0 0 19.712412861841017)"><path d="M-6.74 20.9 C-5.37 24.66, -4.01 28.42, 0 39.42 M-6.74 20.9 C-4.11 28.13, -1.48 35.35, 0 39.42" stroke="#e67700" stroke-width="2" fill="none"></path></g><g transform="translate(465.6373726686577 2047.2092448196963) rotate(0 0 19.712412861841017)"><path d="M6.74 20.9 C5.37 24.66, 4.01 28.42, 0 39.42 M6.74 20.9 C4.11 28.13, 1.48 35.35, 0 39.42" stroke="#e67700" stroke-width="2" fill="none"></path></g></g><g transform="translate(1020.5480178271425 1909.3494399794622) rotate(0 44 17.5)"><text x="0" y="25" font-family="Virgil, Segoe UI Emoji" font-size="28px" fill="#d9480f" text-anchor="start" style="white-space: pre;" direction="ltr">1111 1110</text></g><g transform="translate(503.93485079459765 1946.0501481256733) rotate(0 37.5 17.5)"><text x="0" y="25" font-family="Virgil, Segoe UI Emoji" font-size="28px" fill="#d9480f" text-anchor="start" style="white-space: pre;" direction="ltr">FE00</text></g></svg>