<svg version="1.1" xmlns="http://www.w3.org/2000/svg" viewBox="0 0 2624.86298001037 499.5292135992627" width="2624.86298001037" height="499.5292135992627">
  <!-- svg-source:excalidraw -->
  
  <defs>
    <style class="style-fonts">
      @font-face {
        font-family: "Virgil";
        src: url("https://excalidraw.com/Virgil.woff2");
      }
      @font-face {
        font-family: "Cascadia";
        src: url("https://excalidraw.com/Cascadia.woff2");
      }
    </style>
  </defs>
  <rect x="0" y="0" width="2624.86298001037" height="499.5292135992627" fill="#ffffff"></rect><g stroke-linecap="round"><g transform="translate(10.841772225126533 160.25875501373542) rotate(0 75.25614776539703 -0.1552419386057977)"><path d="M-0.84 -1.19 C24.35 -1.39, 126.22 -0.82, 151.35 -0.49 M0.92 0.8 C26.02 0.7, 126.22 1.12, 150.88 0.8" stroke="#5f3dc4" stroke-width="4" fill="none"></path></g></g><mask></mask><g stroke-linecap="round"><g transform="translate(162.49403285207768 160.25875501373542) rotate(0 -0.4123083990863279 -72.90470055118226)"><path d="M0.91 -0.49 C0.96 -24.22, -0.43 -119.46, -0.51 -143.62 M-0.08 -1.79 C-0.15 -25.76, -1.72 -121.51, -1.73 -145.32" stroke="#5f3dc4" stroke-width="4" fill="none"></path></g></g><mask></mask><g stroke-linecap="round"><g transform="translate(162.78994461486923 15.827990159687488) rotate(0 80.44193446852421 -0.10386464418496644)"><path d="M-0.51 0.81 C26.23 0.72, 134.56 -1.02, 161.4 -1.01 M1.42 0.18 C27.96 0.25, 134.32 0.21, 160.67 -0.01" stroke="#5f3dc4" stroke-width="4" fill="none"></path></g></g><mask></mask><g stroke-linecap="round"><g transform="translate(323.7750463361592 11.013636687770486) rotate(0 -0.662031111475244 74.5236293312243)"><path d="M0.41 -1.01 C0.42 23.86, -0.25 124.88, -0.46 150.06 M-0.83 1.07 C-0.97 25.54, -2.05 123.85, -1.64 148.37" stroke="#5f3dc4" stroke-width="4" fill="none"></path></g></g><mask></mask><g stroke-linecap="round"><g transform="translate(321.36790403517284 160.25875501373542) rotate(0 72.7122830854762 0.04878592684454475)"><path d="M-0.46 0.82 C23.41 1.12, 119.64 0.86, 143.6 0.83 M1.5 0.2 C25.71 0.26, 121.85 -0.6, 145.88 -0.86" stroke="#5f3dc4" stroke-width="4" fill="none"></path></g></g><mask></mask><g stroke-linecap="round"><g transform="translate(25.237083974824372 336.5756564734654) rotate(0 213.72004362083965 2.4665632772144335)"><path d="M-0.83 0.83 C10.8 19.44, 34.81 130.77, 69.32 112.5 C103.82 94.22, 163.9 -108.78, 206.2 -108.83 C248.51 -108.88, 286.14 92.39, 323.15 112.19 C360.16 131.99, 411.04 27, 428.27 9.96 M0.94 0.21 C12.97 18.4, 37.39 129.21, 71.46 110.71 C105.52 92.2, 163.35 -111.28, 205.33 -110.83 C247.32 -110.39, 286.36 93.7, 323.37 113.39 C360.37 133.08, 409.98 24.63, 427.36 7.31" stroke="#c92a2a" stroke-width="4" fill="none"></path></g></g><mask></mask><g stroke-linecap="round"><g transform="translate(1798.4629555963072 187.8341758473975) rotate(0 221.40696414868353 44.123322255163046)"><path d="M-1.08 0.63 C8.09 26.2, 36.7 135.38, 54.2 154.24 C71.71 173.1, 88.27 151.02, 103.95 113.78 C119.63 76.53, 134.24 -45.64, 148.27 -69.22 C162.3 -92.79, 173.8 -32.39, 188.14 -27.67 C202.48 -22.94, 215.97 -71.75, 234.3 -40.85 C252.63 -9.95, 276.83 130.24, 298.14 157.72 C319.45 185.19, 344.44 128.22, 362.18 123.98 C379.92 119.75, 391.07 154.71, 404.57 132.29 C418.06 109.87, 436.58 13.29, 443.15 -10.54 M0.55 -0.09 C9.62 25.06, 36.05 133.24, 53.15 152.45 C70.25 171.67, 87.78 152.46, 103.16 115.19 C118.53 77.92, 130.94 -46.9, 145.41 -71.15 C159.89 -95.41, 175.01 -35.75, 189.98 -30.34 C204.95 -24.93, 217.2 -69.87, 235.24 -38.67 C253.28 -7.48, 277.19 129.73, 298.23 156.85 C319.26 183.97, 343.43 128.28, 361.46 124.05 C379.5 119.82, 392.7 153.45, 406.44 131.48 C420.17 109.5, 437.52 15.79, 443.9 -7.82" stroke="#087f5b" stroke-width="4" fill="none"></path></g></g><mask></mask><g transform="translate(2324.86298001037 233.7340781911475) rotate(0 145 21)"><text x="0" y="33" font-family="Helvetica, Segoe UI Emoji" font-size="36px" fill="#087f5b" text-anchor="start" style="white-space: pre;" direction="ltr">Modulationssignal</text></g><g transform="translate(572.4367910060744 364.22934787660654) rotate(0 100.5 21)"><text x="0" y="33" font-family="Helvetica, Segoe UI Emoji" font-size="36px" fill="#c92a2a" text-anchor="start" style="white-space: pre;" direction="ltr">Trägersignal</text></g><g transform="translate(542.0366445216994 79.42936008363779) rotate(0 146.5 41.5)"><text x="0" y="32.5" font-family="Helvetica, Segoe UI Emoji" font-size="36px" fill="#5f3dc4" text-anchor="start" style="white-space: pre;" direction="ltr">Informationssignal</text><text x="0" y="74" font-family="Helvetica, Segoe UI Emoji" font-size="36px" fill="#5f3dc4" text-anchor="start" style="white-space: pre;" direction="ltr">/Datensignal</text></g><g stroke-linecap="round" transform="translate(1081.2367177638869 39.92920749574705) rotate(0 240.800048828125 224.8000030517578)"><path d="M32 0 M32 0 C180 3.89, 332.41 2.5, 449.6 0 M32 0 C144.61 3.77, 258.12 4.1, 449.6 0 M449.6 0 C468.98 3.73, 482.38 9.21, 481.6 32 M449.6 0 C469.25 -1.38, 484.24 12.55, 481.6 32 M481.6 32 C481.71 185.67, 481.18 337.16, 481.6 417.6 M481.6 32 C485.6 116.51, 485.72 202.47, 481.6 417.6 M481.6 417.6 C483.87 437.25, 472.23 446.73, 449.6 449.6 M481.6 417.6 C484.61 442.46, 473.53 451.65, 449.6 449.6 M449.6 449.6 C337.01 450.71, 222.72 447.03, 32 449.6 M449.6 449.6 C358.77 446.75, 268.45 445.26, 32 449.6 M32 449.6 C10.26 450.77, -1.23 441.46, 0 417.6 M32 449.6 C13.37 450.8, -4.55 439.2, 0 417.6 M0 417.6 C-4.25 282, -5.18 144.75, 0 32 M0 417.6 C-0.13 323.46, -0.29 228.88, 0 32 M0 32 C0.45 12.23, 8.07 -0.69, 32 0 M0 32 C2.97 14.93, 10.73 -2.88, 32 0" stroke="#000000" stroke-width="4" fill="none"></path></g><g transform="translate(1241.0367665920119 243.72921054750486) rotate(0 81 21)"><text x="81" y="33" font-family="Helvetica, Segoe UI Emoji" font-size="36px" fill="#000000" text-anchor="middle" style="white-space: pre;" direction="ltr">Modulator</text></g><g stroke-linecap="round"><g transform="translate(905.2369619045119 131.12931125551268) rotate(0 86.37251960299909 -0.20879177724901865)"><path d="M-0.89 -1.12 C27.98 -1.22, 144.58 -1.5, 173.64 -1.15 M0.84 0.9 C29.6 0.96, 144.44 0.07, 173.13 -0.22" stroke="#5f3dc4" stroke-width="4" fill="none"></path></g><g transform="translate(905.2369619045119 131.12931125551268) rotate(0 86.37251960299909 -0.20879177724901865)"><path d="M143.16 11.68 C152.48 8.07, 165.34 4.52, 174.06 0.44 M144.86 11.03 C153.57 5.87, 163.64 4.06, 174.06 0.06" stroke="#5f3dc4" stroke-width="4" fill="none"></path></g><g transform="translate(905.2369619045119 131.12931125551268) rotate(0 86.37251960299909 -0.20879177724901865)"><path d="M142.98 -8.84 C152.26 -5.65, 165.18 -2.38, 174.06 0.44 M144.68 -9.49 C153.62 -8.06, 163.74 -3.29, 174.06 0.06" stroke="#5f3dc4" stroke-width="4" fill="none"></path></g></g><mask></mask><g stroke-linecap="round"><g transform="translate(895.6368642482619 387.1293112555127) rotate(0 90.57472039273011 0.2003661810094286)"><path d="M0.94 -0.87 C31.09 -1, 151.35 -0.55, 181.18 -0.59 M-0.03 1.29 C29.97 1.29, 150.04 0.91, 180.43 0.63" stroke="#c92a2a" stroke-width="4" fill="none"></path></g><g transform="translate(895.6368642482619 387.1293112555127) rotate(0 90.57472039273011 0.2003661810094286)"><path d="M150.86 11.69 C160.38 5.98, 168.58 5.5, 178.51 1.69 M152.63 11.26 C163.76 7.71, 173.51 3.73, 180.04 -0.19" stroke="#c92a2a" stroke-width="4" fill="none"></path></g><g transform="translate(895.6368642482619 387.1293112555127) rotate(0 90.57472039273011 0.2003661810094286)"><path d="M150.74 -8.84 C160.34 -7.92, 168.58 -1.77, 178.51 1.69 M152.51 -9.26 C163.79 -5, 173.58 -1.15, 180.04 -0.19" stroke="#c92a2a" stroke-width="4" fill="none"></path></g></g><mask></mask><g stroke-linecap="round"><g transform="translate(1562.8369374904494 263.9292990484814) rotate(0 85.6556143270991 -0.11774055836144726)"><path d="M0.64 0.97 C29.13 1.26, 143.31 0.68, 171.8 0.56 M-0.49 0.44 C27.83 0.47, 142.58 -1.48, 171.17 -1.27" stroke="#087f5b" stroke-width="4" fill="none"></path></g><g transform="translate(1562.8369374904494 263.9292990484814) rotate(0 85.6556143270991 -0.11774055836144726)"><path d="M144.66 10.17 C154.48 5.82, 164.37 2.89, 172.68 -1.61 M143.7 9.9 C154.57 5.76, 164.1 1.79, 170.85 -0.33" stroke="#087f5b" stroke-width="4" fill="none"></path></g><g transform="translate(1562.8369374904494 263.9292990484814) rotate(0 85.6556143270991 -0.11774055836144726)"><path d="M144.53 -10.35 C154.2 -7.11, 164.14 -2.45, 172.68 -1.61 M143.57 -10.62 C154.41 -7.05, 163.99 -3.32, 170.85 -0.33" stroke="#087f5b" stroke-width="4" fill="none"></path></g></g><mask></mask></svg>