<svg version="1.1" xmlns="http://www.w3.org/2000/svg" viewBox="0 0 1781.9773178012529 594.2770127079098" width="1781.9773178012529" height="594.2770127079098">
  <!-- svg-source:excalidraw -->
  
  <defs>
    <style class="style-fonts">
      @font-face {
        font-family: "Virgil";
        src: url("https://excalidraw.com/Virgil.woff2");
      }
      @font-face {
        font-family: "Cascadia";
        src: url("https://excalidraw.com/Cascadia.woff2");
      }
    </style>
  </defs>
  <rect x="0" y="0" width="1781.9773178012529" height="594.2770127079098" fill="#ffffff"></rect><g stroke-linecap="round" transform="translate(10.270321144979562 89.3273071968973) rotate(0 98.64293713983977 74.12473737613698)"><path d="M32 0 M32 0 C80.47 -0.62, 130.35 -2.65, 165.29 0 M32 0 C58.93 1.19, 86.08 0.06, 165.29 0 M165.29 0 C184.73 0.58, 198.51 11.53, 197.29 32 M165.29 0 C187.21 1.93, 199.31 11.64, 197.29 32 M197.29 32 C198.92 61.36, 199 86.61, 197.29 116.25 M197.29 32 C197.6 49.19, 197.83 66.12, 197.29 116.25 M197.29 116.25 C196.72 136.05, 186.64 147.96, 165.29 148.25 M197.29 116.25 C195.53 136.46, 188.69 146.97, 165.29 148.25 M165.29 148.25 C121.27 148.99, 78.17 150.2, 32 148.25 M165.29 148.25 C128.56 148.59, 92.03 147.01, 32 148.25 M32 148.25 C12.53 147.32, -0.59 137.56, 0 116.25 M32 148.25 C9.91 149.37, -0.23 135.57, 0 116.25 M0 116.25 C0.35 97.92, -1.78 78.04, 0 32 M0 116.25 C1.14 93.36, 0.71 69.82, 0 32 M0 32 C-1.69 11.92, 10.49 -1.88, 32 0 M0 32 C-1.86 9.79, 9.72 1.81, 32 0" stroke="#000000" stroke-width="4" fill="none"></path></g><g stroke-linecap="round" transform="translate(10 354.08008987214896) rotate(0 98.64293713983977 74.12473737613696)"><path d="M32 0 M32 0 C83.71 1.13, 134.58 0.04, 165.29 0 M32 0 C66.18 -0.65, 99.29 -0.87, 165.29 0 M165.29 0 C184.83 1.14, 196.02 11.97, 197.29 32 M165.29 0 C186.29 -1.38, 196.3 10.22, 197.29 32 M197.29 32 C197.98 64.39, 198.47 95.46, 197.29 116.25 M197.29 32 C196.86 53.49, 196.89 74.62, 197.29 116.25 M197.29 116.25 C196.05 136.96, 185.71 149.87, 165.29 148.25 M197.29 116.25 C197.44 138.6, 188.4 149.58, 165.29 148.25 M165.29 148.25 C118.05 149.03, 73.52 147.51, 32 148.25 M165.29 148.25 C132.47 146.78, 100.17 148.15, 32 148.25 M32 148.25 C10.6 148.47, -0.32 138.04, 0 116.25 M32 148.25 C10.54 147.26, -1.25 135.52, 0 116.25 M0 116.25 C-2.52 100.56, -0.62 81.74, 0 32 M0 116.25 C-0.43 85.62, -0.51 54.79, 0 32 M0 32 C-0.45 11.31, 11.59 0.6, 32 0 M0 32 C-0.41 10.1, 10.47 -0.95, 32 0" stroke="#000000" stroke-width="4" fill="none"></path></g><g transform="translate(42.913258284819335 142.45204457303427) rotate(0 66 21)"><text x="66" y="33" font-family="Helvetica, Segoe UI Emoji" font-size="36px" fill="#000000" text-anchor="middle" style="white-space: pre;" direction="ltr">10.1.1.1</text></g><g transform="translate(42.64293713983977 407.2048272482859) rotate(0 66 21)"><text x="66" y="33" font-family="Helvetica, Segoe UI Emoji" font-size="36px" fill="#000000" text-anchor="middle" style="white-space: pre;" direction="ltr">10.1.1.2</text></g><g stroke-linecap="round" transform="translate(572.4779359281897 199.9442969271073) rotate(0 85.52854312631189 85.52854312631192)"><path d="M117.38 5.78 C128.19 8.82, 138.38 17.69, 146.51 25.9 C154.64 34.11, 162.05 44.27, 166.14 55.02 C170.23 65.77, 171.8 78.8, 171.05 90.4 C170.3 102.01, 167.01 114.3, 161.65 124.65 C156.29 135, 147.87 145.18, 138.91 152.49 C129.94 159.8, 119.06 165.64, 107.86 168.51 C96.65 171.38, 83.23 171.68, 71.69 169.71 C60.16 167.74, 48.31 163.07, 38.63 156.69 C28.94 150.31, 19.86 141.28, 13.59 131.44 C7.32 121.59, 2.8 108.93, 1.02 97.63 C-0.76 86.34, -0.29 74.55, 2.9 63.65 C6.1 52.76, 12.74 41.32, 20.18 32.26 C27.63 23.19, 37.3 14.76, 47.59 9.28 C57.87 3.79, 70.25 -0.06, 81.89 -0.64 C93.54 -1.21, 111.29 4.23, 117.44 5.82 C123.6 7.41, 119.29 7.49, 118.8 8.89 M48.54 8.96 C57.83 3.15, 72.85 -0.27, 84.43 -0.47 C96.01 -0.66, 107.14 3.04, 118 7.81 C128.86 12.59, 141.69 20, 149.6 28.19 C157.51 36.39, 162.11 45.98, 165.45 56.99 C168.79 68.01, 170.51 82.7, 169.62 94.26 C168.73 105.81, 165.7 116.19, 160.12 126.33 C154.54 136.47, 145.61 148.04, 136.12 155.08 C126.64 162.13, 114.61 166.1, 103.21 168.62 C91.81 171.14, 79.03 172.57, 67.75 170.21 C56.47 167.85, 44.85 161.25, 35.51 154.45 C26.16 147.66, 17.68 139.34, 11.67 129.42 C5.66 119.49, 0.81 106.33, -0.57 94.91 C-1.95 83.48, -0.51 72.01, 3.36 60.85 C7.23 49.7, 15 36.64, 22.65 27.98 C30.31 19.32, 44.37 12.03, 49.28 8.9 C54.19 5.77, 51.52 7.86, 52.12 9.2" stroke="#000000" stroke-width="4" fill="none"></path></g><g stroke-linecap="round"><g transform="translate(656.8661158803106 283.1920702029709) rotate(0 28.030390324535006 -0.18627973878756166)"><path d="M0.68 -0.38 C9.74 -0.29, 45.05 -0.1, 54.11 -0.19 M-0.43 -1.62 C9.06 -1.29, 47.35 0.99, 56.49 1.25" stroke="#000000" stroke-width="4" fill="none"></path></g><g transform="translate(656.8661158803106 283.1920702029709) rotate(0 28.030390324535006 -0.18627973878756166)"><path d="M29.74 8.36 C37.27 7.5, 43.25 4.19, 55.75 2.46 M31.13 10.39 C40.4 5.94, 51.45 3.98, 57.06 0.92" stroke="#000000" stroke-width="4" fill="none"></path></g><g transform="translate(656.8661158803106 283.1920702029709) rotate(0 28.030390324535006 -0.18627973878756166)"><path d="M30.6 -10.34 C37.79 -6.06, 43.53 -4.24, 55.75 2.46 M31.99 -8.31 C40.81 -5.56, 51.52 -0.32, 57.06 0.92" stroke="#000000" stroke-width="4" fill="none"></path></g></g><mask></mask><g stroke-linecap="round"><g transform="translate(655.7257527061199 280.9113003525226) rotate(0 -26.89040073636147 -0.04127530639114241)"><path d="M-1.14 -1.08 C-9.85 -1.09, -44.59 0.98, -53 0.99 M0.45 0.97 C-8.39 1.16, -45.5 -0.42, -54.24 -0.61" stroke="#000000" stroke-width="4" fill="none"></path></g><g transform="translate(655.7257527061199 280.9113003525226) rotate(0 -26.89040073636147 -0.04127530639114241)"><path d="M-31.1 -9.67 C-33.46 -5.7, -42.64 -3.16, -55.1 -1.67 M-28.35 -9.41 C-37.36 -5.98, -46.86 -3.21, -53.32 -0.01" stroke="#000000" stroke-width="4" fill="none"></path></g><g transform="translate(655.7257527061199 280.9113003525226) rotate(0 -26.89040073636147 -0.04127530639114241)"><path d="M-31.69 8.26 C-34.07 8.01, -43.11 6.32, -55.1 -1.67 M-28.94 8.52 C-37.81 5.86, -47.12 2.55, -53.32 -0.01" stroke="#000000" stroke-width="4" fill="none"></path></g></g><mask></mask><g stroke-linecap="round"><g transform="translate(656.8661158803106 278.6305740041409) rotate(0 -0.48161035409134456 -25.961271228038378)"><path d="M0.26 0.31 C0.12 -8.31, -0.01 -43.45, 0.06 -52.23 M-1.06 -0.58 C-1.44 -9.03, -1.08 -42.67, -0.85 -51.17" stroke="#000000" stroke-width="4" fill="none"></path></g><g transform="translate(656.8661158803106 278.6305740041409) rotate(0 -0.48161035409134456 -25.961271228038378)"><path d="M8.04 -26.82 C2.96 -34.9, -0.39 -44.59, -0.61 -49.83 M6.95 -27.42 C4.43 -36.42, 1.29 -44.12, -1.69 -51.43" stroke="#000000" stroke-width="4" fill="none"></path></g><g transform="translate(656.8661158803106 278.6305740041409) rotate(0 -0.48161035409134456 -25.961271228038378)"><path d="M-9.51 -27.1 C-7.99 -35.11, -4.74 -44.7, -0.61 -49.83 M-10.6 -27.7 C-6.71 -36.48, -3.45 -44.07, -1.69 -51.43" stroke="#000000" stroke-width="4" fill="none"></path></g></g><mask></mask><g stroke-linecap="round"><g transform="translate(655.7257527061199 285.47284005341913) rotate(0 -0.16227091893563284 22.603008269620176)"><path d="M-1 -0.31 C-0.95 7.14, -0.21 37.84, 0.14 45.33 M0.68 -1.51 C0.6 6.05, -0.77 38.89, -0.73 46.72" stroke="#000000" stroke-width="4" fill="none"></path></g><g transform="translate(655.7257527061199 285.47284005341913) rotate(0 -0.16227091893563284 22.603008269620176)"><path d="M-8.58 25.36 C-6.33 33.21, -5.37 38.57, -2.36 47.2 M-7.34 24.13 C-6.59 29.46, -4.98 35, 0.07 46.77" stroke="#000000" stroke-width="4" fill="none"></path></g><g transform="translate(655.7257527061199 285.47284005341913) rotate(0 -0.16227091893563284 22.603008269620176)"><path d="M7.02 25.7 C4.82 33.33, 1.32 38.58, -2.36 47.2 M8.26 24.46 C5.51 29.73, 3.61 35.19, 0.07 46.77" stroke="#000000" stroke-width="4" fill="none"></path></g></g><mask></mask><g transform="translate(630.6373278532553 138.96941534956517) rotate(0 29 21)"><text x="0" y="33" font-family="Helvetica, Segoe UI Emoji" font-size="36px" fill="#000000" text-anchor="start" style="white-space: pre;" direction="ltr">Nat</text></g><g stroke-linecap="round"><g transform="translate(569.0568464056171 282.05162002464675) rotate(0 -107.13585969680878 0.21164342049979723)"><path d="M-0.61 -0.83 C-36.4 -1.05, -179.86 -0.81, -215.55 -0.61 M1.28 1.34 C-34.09 1.22, -177.29 1.12, -213.44 0.61" stroke="#000000" stroke-width="4" fill="none"></path></g></g><mask></mask><g stroke-linecap="round"><g transform="translate(354.66526350067556 282.05162002464675) rotate(0 -0.14182242028687142 73.50040695581141)"><path d="M0.37 -0.46 C0.32 24.01, 0.73 122.48, 0.62 147.18 M-0.89 -1.75 C-1.13 22.9, 0.05 124.17, 0 148.75" stroke="#000000" stroke-width="4" fill="none"></path></g></g><mask></mask><g stroke-linecap="round"><g transform="translate(354.66526350067556 429.16073160272987) rotate(0 -74.51685071631641 -0.15341562090188177)"><path d="M0.32 -0.76 C-24.34 -0.93, -123.87 -1.43, -148.75 -1.76 M-0.96 1.45 C-25.67 1.55, -124.61 0.27, -149.36 -0.31" stroke="#000000" stroke-width="4" fill="none"></path></g></g><mask></mask><g stroke-linecap="round"><g transform="translate(354.66526350067556 279.7708936762651) rotate(0 0.5057878833162022 -60.10239797119927)"><path d="M-0.49 -0.71 C-0.19 -20.69, 0.71 -99.94, 0.83 -120.05 M1.45 1.53 C1.76 -18.76, 0.62 -101.42, 0.31 -121.74" stroke="#000000" stroke-width="4" fill="none"></path></g></g><mask></mask><g stroke-linecap="round"><g transform="translate(358.0864400273813 158.89052662317096) rotate(0 -73.55748108992844 -0.3939217897600944)"><path d="M-0.89 0.41 C-25.4 0.59, -123.6 0.58, -147.95 0.55 M0.84 -0.42 C-23.21 -0.55, -120.92 -1.63, -145.69 -1.29" stroke="#000000" stroke-width="4" fill="none"></path></g></g><mask></mask><g transform="translate(898.6406594324594 105.79198570229588) rotate(0 47 21)"><text x="0" y="33" font-family="Helvetica, Segoe UI Emoji" font-size="36px" fill="#000000" text-anchor="start" style="white-space: pre;" direction="ltr">Privat</text></g><g transform="translate(1193.9992457628168 100.09008282720848) rotate(0 76.5 21)"><text x="0" y="33" font-family="Helvetica, Segoe UI Emoji" font-size="36px" fill="#000000" text-anchor="start" style="white-space: pre;" direction="ltr">Öffentlich</text></g><g transform="translate(888.3771298523423 10) rotate(0 97 21)"><text x="0" y="33" font-family="Helvetica, Segoe UI Emoji" font-size="36px" fill="#000000" text-anchor="start" style="white-space: pre;" direction="ltr">Nat-Tabelle:</text></g><g stroke-linecap="round" transform="translate(874.0208413383639 165.6195602835517) rotate(0 297.06917459370993 149.96004126459354)"><path d="M0.67 -0.44 C218.14 1.64, 437.74 2.34, 593.39 -0.31 M-0.25 0.16 C131.23 -0.75, 262.42 -1.28, 594.24 0.37 M593.67 0.49 C595.82 70.83, 593.18 141.77, 593.11 301.06 M594.79 -0.67 C594.34 62.61, 594.62 126.24, 594.11 299.93 M594.27 300.58 C377.46 298.26, 161.17 298.18, -0.73 299.13 M594.17 300.27 C372.66 299.02, 151.28 298.9, -0.39 300.23 M0.86 299.64 C-0.99 191.62, 0.34 86.4, -0.61 -0.84 M0.35 299.51 C1.42 192.45, 1.34 85.41, 0.04 -0.05" stroke="#000000" stroke-width="4" fill="none"></path></g><g stroke-linecap="round"><g transform="translate(875.1612045125546 239.7442976596887) rotate(0 295.2550007559645 0.08874576042369142)"><path d="M-0.66 -0.7 C182.81 0.72, 365.15 -0.01, 591.17 -0.25 M0.39 -0.27 C198.3 1.01, 395.91 1.29, 590.46 0.22" stroke="#000000" stroke-width="4" fill="none"></path></g></g><mask></mask><g stroke-linecap="round"><g transform="translate(877.4419308609363 311.58826518537734) rotate(0 294.17231095801355 0.15441444348543598)"><path d="M0.24 0.69 C126.38 -0.45, 252.01 0.64, 588.73 0.12 M-0.38 -0.38 C178.51 1.2, 357.19 0.65, 588.3 0.22" stroke="#000000" stroke-width="4" fill="none"></path></g></g><mask></mask><g stroke-linecap="round"><g transform="translate(876.3015676867456 383.43227621313264) rotate(0 294.8156350140382 0.3277182099785705)"><path d="M-0.31 -0.4 C140.89 -1, 283.88 -1.3, 589.91 0.02 M-0.01 -0.36 C184.35 2.17, 368.82 2.16, 589.95 -0.14" stroke="#000000" stroke-width="4" fill="none"></path></g></g><mask></mask><g stroke-linecap="round"><g transform="translate(1173.2554015082344 166.75992345774264) rotate(0 -0.7535730439662984 147.29437206341515)"><path d="M0.24 1.37 C-0.8 102.54, -1.78 202.04, -1.1 294.07 M-0.11 0.52 C-1.7 117.03, -2.52 232.67, -0.74 292.87" stroke="#000000" stroke-width="4" fill="none"></path></g></g><mask></mask><g transform="translate(913.7377686760212 183.56179812689643) rotate(0 101 21)"><text x="0" y="33" font-family="Helvetica, Segoe UI Emoji" font-size="36px" fill="#000000" text-anchor="start" style="white-space: pre;" direction="ltr">10.1.1.1 : 80</text></g><g transform="translate(907.7863890673707 255.77267757185032) rotate(0 111 21)"><text x="0" y="33" font-family="Helvetica, Segoe UI Emoji" font-size="36px" fill="#000000" text-anchor="start" style="white-space: pre;" direction="ltr">10.1.1.1 : 443</text></g><g transform="translate(1208.6693153701458 187.43087604933297) rotate(0 121 21)"><text x="0" y="33" font-family="Helvetica, Segoe UI Emoji" font-size="36px" fill="#000000" text-anchor="start" style="white-space: pre;" direction="ltr">1.2.3.4 : 80001</text></g><g transform="translate(913.2761968827085 329.6922334171209) rotate(0 101 21)"><text x="0" y="33" font-family="Helvetica, Segoe UI Emoji" font-size="36px" fill="#000000" text-anchor="start" style="white-space: pre;" direction="ltr">10.1.1.2 : 80</text></g><g transform="translate(908.9199430648937 405.093425293894) rotate(0 101 21)"><text x="0" y="33" font-family="Helvetica, Segoe UI Emoji" font-size="36px" fill="#000000" text-anchor="start" style="white-space: pre;" direction="ltr">10.1.1.2 : 22</text></g><g transform="translate(1211.8594799476834 257.45564965711344) rotate(0 120.99999999999989 21)"><text x="0" y="33" font-family="Helvetica, Segoe UI Emoji" font-size="36px" fill="#000000" text-anchor="start" style="white-space: pre;" direction="ltr">1.2.3.4 : 80002</text></g><g transform="translate(1212.2886035023746 326.4762166702483) rotate(0 121.00000000000011 21)"><text x="0" y="33" font-family="Helvetica, Segoe UI Emoji" font-size="36px" fill="#000000" text-anchor="start" style="white-space: pre;" direction="ltr">1.2.3.4 : 80003</text></g><g transform="translate(1211.1224795659334 406.66284676967587) rotate(0 121.00000000000011 21)"><text x="0" y="33" font-family="Helvetica, Segoe UI Emoji" font-size="36px" fill="#000000" text-anchor="start" style="white-space: pre;" direction="ltr">1.2.3.5 : 80001</text></g><g transform="translate(1651.9773178012529 267.2643296164531) rotate(0 60 21)"><text x="0" y="33" font-family="Helvetica, Segoe UI Emoji" font-size="36px" fill="#000000" text-anchor="start" style="white-space: pre;" direction="ltr">IP-Pool</text></g><g stroke-linecap="round"><g transform="translate(1631.4918780715243 283.66062953028546) rotate(0 -65.57725772186268 -61.214101173555264)"><path d="M-1.37 0.73 C-29.42 -27.93, -56.57 -52.38, -128.99 -121.32 M0.32 0.71 C-45.13 -40.03, -87.36 -82.4, -131.48 -123.16" stroke="#000000" stroke-width="4" fill="none"></path></g></g><mask></mask><g stroke-linecap="round"><g transform="translate(1636.2773771443271 290.04119354377536) rotate(0 -66.22574598384472 82.26543199989642)"><path d="M-0.01 0.63 C-42.53 50.9, -84.76 103.87, -132.44 164.28 M-0.12 0.26 C-33.85 40.51, -67.6 82.71, -131.21 163.44" stroke="#000000" stroke-width="4" fill="none"></path></g></g><mask></mask><g transform="translate(33.15167814556685 50.22017521851291) rotate(0 62 21)"><text x="0" y="33" font-family="Helvetica, Segoe UI Emoji" font-size="36px" fill="#000000" text-anchor="start" style="white-space: pre;" direction="ltr">Client 1</text></g><g transform="translate(26.771114132076832 315.01513345712755) rotate(0 62 21)"><text x="0" y="33" font-family="Helvetica, Segoe UI Emoji" font-size="36px" fill="#000000" text-anchor="start" style="white-space: pre;" direction="ltr">Client 2</text></g><g stroke-linecap="round" transform="translate(386.0678635559325 444.80706547152937) rotate(0 235.10646728316635 69.73497361819022)"><path d="M245.93 0.02 C267.03 -1.02, 290.5 1.12, 311.37 3.36 C332.23 5.6, 353.27 9.5, 371.15 13.46 C389.03 17.42, 405.18 21.99, 418.64 27.13 C432.09 32.26, 443.38 38.51, 451.89 44.27 C460.41 50.04, 467.27 55.41, 469.73 61.72 C472.19 68.04, 470.82 75.44, 466.64 82.15 C462.46 88.86, 454.76 95.96, 444.64 101.98 C434.53 107.99, 420.97 113.48, 405.96 118.26 C390.96 123.03, 373.8 127.31, 354.61 130.62 C335.43 133.93, 312.53 136.71, 290.87 138.14 C269.2 139.56, 246.48 139.49, 224.63 139.18 C202.77 138.87, 180.63 138.5, 159.74 136.28 C138.85 134.06, 117.27 129.73, 99.29 125.86 C81.3 122, 65.58 118.15, 51.84 113.09 C38.1 108.03, 25.32 101.39, 16.84 95.5 C8.35 89.61, 3.15 84.13, 0.93 77.76 C-1.28 71.39, -0.54 63.76, 3.53 57.29 C7.61 50.82, 15.25 44.72, 25.38 38.95 C35.51 33.18, 49.19 27.48, 64.31 22.68 C79.43 17.88, 97.08 13.52, 116.11 10.14 C135.13 6.77, 154.67 3.95, 178.46 2.44 C202.25 0.93, 243 1.02, 258.85 1.08 C274.7 1.14, 273.86 1.82, 273.59 2.79 M289.03 3.15 C310.35 3.75, 332.86 6.65, 351.87 9.69 C370.88 12.73, 388.16 16.87, 403.08 21.37 C418 25.87, 431.11 30.98, 441.39 36.69 C451.67 42.4, 459.94 49.26, 464.76 55.64 C469.58 62.01, 471.83 68.59, 470.32 74.94 C468.81 81.28, 463.8 87.58, 455.69 93.7 C447.59 99.82, 435.41 106.3, 421.7 111.66 C407.98 117.03, 391.42 122, 373.4 125.88 C355.39 129.75, 334.23 132.8, 313.61 134.9 C292.99 137, 271.8 137.85, 249.67 138.48 C227.54 139.11, 202.46 140.01, 180.83 138.68 C159.2 137.35, 139.12 133.95, 119.9 130.48 C100.69 127.01, 81.03 122.71, 65.56 117.85 C50.08 112.99, 37.05 106.8, 27.05 101.29 C17.05 95.79, 9.88 91.13, 5.56 84.83 C1.23 78.52, -0.49 70.07, 1.09 63.46 C2.67 56.85, 7.18 51.35, 15.04 45.15 C22.9 38.94, 34.44 31.53, 48.25 26.24 C62.06 20.96, 79.98 16.95, 97.9 13.45 C115.82 9.96, 135.37 7.69, 155.79 5.29 C176.2 2.89, 198.11 -0.45, 220.37 -0.93 C242.63 -1.41, 278.19 1.51, 289.32 2.42 C300.46 3.33, 288.49 3.71, 287.17 4.52" stroke="#000000" stroke-width="4" fill="none"></path></g><g transform="translate(559.174330839099 493.5420390897196) rotate(0 62 21)"><text x="62" y="33" font-family="Helvetica, Segoe UI Emoji" font-size="36px" fill="#000000" text-anchor="middle" style="white-space: pre;" direction="ltr">Internet</text></g><g stroke-linecap="round"><g transform="translate(655.0456189403806 373.07954242753345) rotate(0 -14.449620364575367 34.07529536204336)"><path d="M-1 1.3 C-7.11 16.24, -15.57 35.13, -29.78 67.77 M0.88 -0.04 C-7.89 20.06, -15.64 39.93, -27.91 68.19" stroke="#000000" stroke-width="4" fill="none"></path></g></g><mask></mask></svg>