<svg version="1.1" xmlns="http://www.w3.org/2000/svg" viewBox="0 0 1046.9984807356054 245.51426472530892" width="1046.9984807356054" height="245.51426472530892">
  <!-- svg-source:excalidraw -->
  
  <defs>
    <style class="style-fonts">
      @font-face {
        font-family: "Virgil";
        src: url("https://excalidraw.com/Virgil.woff2");
      }
      @font-face {
        font-family: "Cascadia";
        src: url("https://excalidraw.com/Cascadia.woff2");
      }
    </style>
  </defs>
  <rect x="0" y="0" width="1046.9984807356054" height="245.51426472530892" fill="#ffffff"></rect><g stroke-linecap="round" transform="translate(857.1528675901454 68.0316165929504) rotate(0 79.64052036763337 70.98394158822065)"><path d="M0.13 1.32 C48.8 -1, 98.07 0.9, 157.89 1.39 M-0.74 0.64 C37.4 -1.44, 74.4 -1.43, 160.27 -0.89 M160.96 -1.78 C156.84 34.5, 158.32 64.69, 157.58 140.72 M158.71 0.34 C158.08 32, 157.88 62.21, 159.17 142.56 M157.77 141.5 C121.36 142.6, 85.51 144.68, 1.73 142.65 M158.44 142.8 C109.14 141.55, 59.76 140.74, -0.54 142.81 M-0.34 142.1 C-1.89 102.38, 1.31 59.24, -0.68 -0.05 M0.06 142.57 C1.43 109.27, 0.65 78.77, 0.09 -0.83" stroke="#000000" stroke-width="4" fill="none"></path></g><g stroke-linecap="round" transform="translate(876.7744989923781 78.41952874010033) rotate(0 58.86474010297013 47.89974251719587)"><path d="M23.95 0 M23.95 0 C39.78 0.03, 52.67 0.58, 93.78 0 M23.95 0 C49.8 0.33, 77.32 -1.22, 93.78 0 M93.78 0 C111.03 1.35, 115.75 9.9, 117.73 23.95 M93.78 0 C107.5 2.27, 115.69 6.47, 117.73 23.95 M117.73 23.95 C115.95 33.41, 118.98 45.76, 117.73 71.85 M117.73 23.95 C116.51 33.31, 117.28 43.51, 117.73 71.85 M117.73 71.85 C118.41 87.42, 111.73 95, 93.78 95.8 M117.73 71.85 C118.17 87.57, 111.12 94.3, 93.78 95.8 M93.78 95.8 C79.16 94.77, 64.59 96.33, 23.95 95.8 M93.78 95.8 C68.85 95.23, 43.17 95.19, 23.95 95.8 M23.95 95.8 C9.65 94.99, 0.76 87.73, 0 71.85 M23.95 95.8 C7 94.55, 1.93 87.46, 0 71.85 M0 71.85 C0.57 54.39, 1.22 41.54, 0 23.95 M0 71.85 C-0.6 61.43, 0.93 52.7, 0 23.95 M0 23.95 C1.2 8.54, 6.15 -1, 23.95 0 M0 23.95 C0.86 8.18, 6.08 1.84, 23.95 0" stroke="#000000" stroke-width="4" fill="none"></path></g><g stroke-linecap="round"><g transform="translate(879.2493210936223 192.68634221056624) rotate(0 56.33786450265541 -0.5916203187066088)"><path d="M0.79 0.05 C19.52 0.1, 94.05 0.52, 112.93 0.38 M-0.25 -0.97 C18.26 -1.3, 92.87 -1.72, 111.89 -1.55" stroke="#000000" stroke-width="4" fill="none"></path></g></g><mask></mask><g stroke-linecap="round" transform="translate(11.769684924377088 70.90344304265852) rotate(0 79.64052036763337 70.98394158822065)"><path d="M-0.89 0.5 C35.09 0.31, 73.1 -0.49, 159.14 -0.22 M0.34 0.24 C46.51 -0.57, 91.98 -0.43, 159.1 0.89 M158.31 -0.36 C158.74 49.87, 160.77 100.76, 159.29 141.08 M159.08 0.62 C159.53 55.73, 159.78 111.38, 159.56 141.7 M159.53 141.93 C118.27 141.2, 76.19 140.95, 1.09 141.69 M159.68 142.25 C103.03 140.73, 47.83 140.94, 0.75 141.99 M1.6 141.16 C0.18 107.69, -1.56 69.23, -1.11 -0.45 M0.48 142.18 C1.16 96.56, 1.47 49.21, -0.46 -0.59" stroke="#000000" stroke-width="4" fill="none"></path></g><g stroke-linecap="round" transform="translate(31.39131632660974 81.29135518980846) rotate(0 58.864740102970075 47.89974251719587)"><path d="M23.95 0 M23.95 0 C45.3 -1.26, 67.34 0.09, 93.78 0 M23.95 0 C47.91 0.88, 72.35 0.42, 93.78 0 M93.78 0 C110.24 1.73, 117.26 9.38, 117.73 23.95 M93.78 0 C109.53 -0.41, 119.79 9.36, 117.73 23.95 M117.73 23.95 C117.13 40.61, 116.24 61.02, 117.73 71.85 M117.73 23.95 C118.67 34.82, 118.49 45.47, 117.73 71.85 M117.73 71.85 C118.98 88.28, 109.39 96.77, 93.78 95.8 M117.73 71.85 C116.71 88.47, 109.12 95.01, 93.78 95.8 M93.78 95.8 C67.86 97.17, 41.82 97.39, 23.95 95.8 M93.78 95.8 C74.84 95.71, 54.13 96.1, 23.95 95.8 M23.95 95.8 C8.56 94.3, 0.05 86.92, 0 71.85 M23.95 95.8 C8.53 97.53, 0.04 86.69, 0 71.85 M0 71.85 C-0.52 55.86, 1.65 37.2, 0 23.95 M0 71.85 C0.51 60.13, 0.26 50.63, 0 23.95 M0 23.95 C0.41 7.83, 9.45 0.46, 23.95 0 M0 23.95 C-1.09 6.92, 6.62 -2.06, 23.95 0" stroke="#000000" stroke-width="4" fill="none"></path></g><g stroke-linecap="round"><g transform="translate(33.86613842785391 195.55816866027436) rotate(0 56.56810365705388 0.21661103094323453)"><path d="M0.3 -0.94 C19.15 -0.87, 95.24 -0.27, 114.14 -0.13 M-1 1.18 C17.69 1.49, 94.7 1.34, 113.72 1.34" stroke="#000000" stroke-width="4" fill="none"></path></g></g><mask></mask><g transform="translate(833.9984807356054 10) rotate(0 101.5 21)"><text x="0" y="33" font-family="Helvetica, Segoe UI Emoji" font-size="36px" fill="#000000" text-anchor="start" style="white-space: pre;" direction="ltr">Webbrowser</text></g><g transform="translate(10 10.495889452469783) rotate(0 87.5 21)"><text x="0" y="33" font-family="Helvetica, Segoe UI Emoji" font-size="36px" fill="#000000" text-anchor="start" style="white-space: pre;" direction="ltr">Webserver</text></g><g transform="translate(278.94216415999904 46.24019428900402) rotate(0 219.5 16)"><text x="0" y="26" font-family="Helvetica, Segoe UI Emoji" font-size="28px" fill="#000000" text-anchor="start" style="white-space: pre;" direction="ltr">1000 Byte Daten, Sequence =1000</text></g><g stroke-linecap="round"><g transform="translate(208.35620468000945 78.37300556619618) rotate(0 298.08191253523046 0.2887866941001249)"><path d="M0.68 -0.81 C99.57 -0.73, 495.29 0.92, 594.29 1.07 M-0.42 1.38 C98.77 1.1, 497.56 -0.51, 596.58 -0.5" stroke="#000000" stroke-width="4" fill="none"></path></g><g transform="translate(208.35620468000945 78.37300556619618) rotate(0 298.08191253523046 0.2887866941001249)"><path d="M567.07 8.49 C580.84 5.09, 589.92 2.89, 598.43 -0.52 M568.72 9.64 C577.83 5.64, 587.66 1.8, 596.86 -0.01" stroke="#000000" stroke-width="4" fill="none"></path></g><g transform="translate(208.35620468000945 78.37300556619618) rotate(0 298.08191253523046 0.2887866941001249)"><path d="M567.02 -12.03 C580.91 -7.63, 590.01 -2.03, 598.43 -0.52 M568.67 -10.88 C577.6 -8.09, 587.45 -5.13, 596.86 -0.01" stroke="#000000" stroke-width="4" fill="none"></path></g></g><mask></mask><g transform="translate(279.1687185181306 92.07609260053408) rotate(0 219.5 16)"><text x="0" y="26" font-family="Helvetica, Segoe UI Emoji" font-size="28px" fill="#000000" text-anchor="start" style="white-space: pre;" direction="ltr">1000 Byte Daten, Sequence =2000</text></g><g stroke-linecap="round"><g transform="translate(208.58275903814103 124.20890387772624) rotate(0 296.6623070870403 -0.22420905586704976)"><path d="M0.09 -1.15 C99 -1.36, 495.31 -1.37, 594.65 -1.08 M-1.32 0.85 C97.28 0.75, 493.93 0.27, 593.46 -0.1" stroke="#000000" stroke-width="4" fill="none"></path></g><g transform="translate(208.58275903814103 124.20890387772624) rotate(0 296.6623070870403 -0.22420905586704976)"><path d="M563.37 9.48 C574.76 7.79, 588.83 2.34, 593.47 -0.03 M565.05 10.16 C573.3 7.66, 580.45 5.56, 594.17 -0.88" stroke="#000000" stroke-width="4" fill="none"></path></g><g transform="translate(208.58275903814103 124.20890387772624) rotate(0 296.6623070870403 -0.22420905586704976)"><path d="M563.32 -11.05 C574.75 -4.53, 588.85 -1.76, 593.47 -0.03 M565 -10.36 C573.35 -7.43, 580.51 -4.09, 594.17 -0.88" stroke="#000000" stroke-width="4" fill="none"></path></g></g><mask></mask><g transform="translate(283.7390357004688 142.25571231107818) rotate(0 219.5 16)"><text x="0" y="26" font-family="Helvetica, Segoe UI Emoji" font-size="28px" fill="#000000" text-anchor="start" style="white-space: pre;" direction="ltr">1000 Byte Daten, Sequence =3000</text></g><g stroke-linecap="round"><g transform="translate(213.1530762204792 174.38852358827035) rotate(0 296.6940609440363 0.1964438002556559)"><path d="M-0.21 1.16 C98.85 1.06, 495.92 -0.55, 595.17 -0.77 M-1.79 0.73 C97.06 0.78, 494.87 0.31, 594.27 0.36" stroke="#000000" stroke-width="4" fill="none"></path></g><g transform="translate(213.1530762204792 174.38852358827035) rotate(0 296.6940609440363 0.1964438002556559)"><path d="M568.02 10.77 C575.07 7.27, 586.31 5.19, 595.6 1 M565.71 11.58 C572.54 8.34, 578.44 6.46, 594.7 -0.24" stroke="#000000" stroke-width="4" fill="none"></path></g><g transform="translate(213.1530762204792 174.38852358827035) rotate(0 296.6940609440363 0.1964438002556559)"><path d="M568.01 -9.75 C575.03 -5.78, 586.28 -0.4, 595.6 1 M565.71 -8.94 C572.65 -7.87, 578.55 -5.43, 594.7 -0.24" stroke="#000000" stroke-width="4" fill="none"></path></g></g><mask></mask><g transform="translate(281.7938329220742 200.03693767657984) rotate(0 239 16)"><text x="0" y="26" font-family="Helvetica, Segoe UI Emoji" font-size="28px" fill="#000000" text-anchor="start" style="white-space: pre;" direction="ltr">Keine Daten, Acknowledgment = 4000</text></g><g stroke-linecap="round"><g transform="translate(794.7620318378792 234.74784585974345) rotate(0 -292.66430387306303 -0.175043339476467)"><path d="M0.7 0.07 C-96.78 0.18, -488.48 0.89, -586.03 0.75 M-0.39 -0.94 C-97.38 -1.18, -486.26 -1.16, -583.69 -0.98" stroke="#000000" stroke-width="4" fill="none"></path></g><g transform="translate(794.7620318378792 234.74784585974345) rotate(0 -292.66430387306303 -0.175043339476467)"><path d="M-555.4 -12.45 C-560.05 -7.77, -568.43 -7.27, -584.33 -1.12 M-556.45 -11.32 C-566.9 -7.2, -576.73 -3.66, -583.34 -0.03" stroke="#000000" stroke-width="4" fill="none"></path></g><g transform="translate(794.7620318378792 234.74784585974345) rotate(0 -292.66430387306303 -0.175043339476467)"><path d="M-555.38 8.07 C-560.05 8.53, -568.43 4.82, -584.33 -1.12 M-556.44 9.2 C-566.69 5.43, -576.53 1.07, -583.34 -0.03" stroke="#000000" stroke-width="4" fill="none"></path></g></g><mask></mask></svg>