<svg version="1.1" xmlns="http://www.w3.org/2000/svg" viewBox="0 0 427.1428571428571 1000" width="427.1428571428571" height="1000">
  <!-- svg-source:excalidraw -->
  
  <defs>
    <style class="style-fonts">
      @font-face {
        font-family: "Virgil";
        src: url("https://excalidraw.com/Virgil.woff2");
      }
      @font-face {
        font-family: "Cascadia";
        src: url("https://excalidraw.com/Cascadia.woff2");
      }
    </style>
  </defs>
  <rect x="0" y="0" width="427.1428571428571" height="1000" fill="#ffffff"></rect><g stroke-linecap="round" transform="translate(37.14285714285711 10) rotate(0 115.71428571428578 33.57142857142844)"><path d="M231.43 33.57 C231.43 34.74, 231.22 35.92, 230.79 37.08 C230.37 38.24, 229.74 39.41, 228.9 40.55 C228.06 41.7, 227.01 42.83, 225.77 43.95 C224.52 45.06, 223.06 46.16, 221.42 47.23 C219.78 48.29, 217.94 49.34, 215.93 50.36 C213.91 51.37, 211.7 52.36, 209.33 53.3 C206.96 54.25, 204.4 55.17, 201.71 56.04 C199.01 56.9, 196.14 57.74, 193.14 58.52 C190.15 59.3, 186.99 60.04, 183.73 60.73 C180.47 61.42, 177.06 62.06, 173.57 62.65 C170.08 63.23, 166.46 63.76, 162.78 64.24 C159.1 64.72, 155.31 65.14, 151.47 65.5 C147.64 65.86, 143.72 66.17, 139.77 66.41 C135.83 66.65, 131.82 66.84, 127.81 66.96 C123.8 67.08, 119.75 67.14, 115.71 67.14 C111.68 67.14, 107.63 67.08, 103.62 66.96 C99.61 66.84, 95.6 66.65, 91.66 66.41 C87.71 66.17, 83.79 65.86, 79.96 65.5 C76.12 65.14, 72.33 64.72, 68.65 64.24 C64.97 63.76, 61.35 63.23, 57.86 62.65 C54.37 62.06, 50.96 61.42, 47.7 60.73 C44.44 60.04, 41.28 59.3, 38.29 58.52 C35.29 57.74, 32.42 56.9, 29.72 56.04 C27.02 55.17, 24.47 54.25, 22.1 53.3 C19.73 52.36, 17.52 51.37, 15.5 50.36 C13.49 49.34, 11.64 48.29, 10 47.23 C8.36 46.16, 6.91 45.06, 5.66 43.95 C4.42 42.83, 3.37 41.7, 2.53 40.55 C1.69 39.41, 1.06 38.24, 0.63 37.08 C0.21 35.92, 0 34.74, 0 33.57 C0 32.4, 0.21 31.23, 0.63 30.06 C1.06 28.9, 1.69 27.74, 2.53 26.59 C3.37 25.45, 4.42 24.31, 5.66 23.2 C6.91 22.08, 8.36 20.99, 10 19.92 C11.64 18.85, 13.49 17.8, 15.5 16.79 C17.52 15.77, 19.73 14.78, 22.1 13.84 C24.47 12.89, 27.02 11.98, 29.72 11.11 C32.42 10.24, 35.29 9.41, 38.29 8.62 C41.28 7.84, 44.44 7.1, 47.7 6.41 C50.96 5.72, 54.37 5.08, 57.86 4.5 C61.35 3.91, 64.97 3.38, 68.65 2.9 C72.33 2.43, 76.12 2, 79.96 1.64 C83.79 1.28, 87.71 0.98, 91.66 0.73 C95.6 0.49, 99.61 0.31, 103.62 0.18 C107.63 0.06, 111.68 0, 115.71 0 C119.75 0, 123.8 0.06, 127.81 0.18 C131.82 0.31, 135.83 0.49, 139.77 0.73 C143.72 0.98, 147.64 1.28, 151.47 1.64 C155.31 2, 159.1 2.43, 162.78 2.9 C166.46 3.38, 170.08 3.91, 173.57 4.5 C177.06 5.08, 180.47 5.72, 183.73 6.41 C186.99 7.1, 190.15 7.84, 193.14 8.62 C196.14 9.41, 199.01 10.24, 201.71 11.11 C204.4 11.98, 206.96 12.89, 209.33 13.84 C211.7 14.78, 213.91 15.77, 215.93 16.79 C217.94 17.8, 219.78 18.85, 221.42 19.92 C223.06 20.99, 224.52 22.08, 225.77 23.2 C227.01 24.31, 228.06 25.45, 228.9 26.59 C229.74 27.74, 230.37 28.9, 230.79 30.06 C231.22 31.23, 231.32 32.99, 231.43 33.57 C231.53 34.16, 231.53 32.99, 231.43 33.57" stroke="#000000" stroke-width="4" fill="none"></path></g><g transform="translate(122.35714285714289 27.57142857142844) rotate(0 30.5 16)"><text x="30.5" y="25" font-family="Helvetica, Segoe UI Emoji" font-size="28px" fill="#000000" text-anchor="middle" style="white-space: pre;" direction="ltr">Start</text></g><g stroke-linecap="round" transform="translate(31.42857142857156 131.4285714285711) rotate(0 122.14285714285711 49.28571428571445)"><path d="M0 0 C52.2 0, 104.4 0, 244.29 0 M0 0 C59.8 0, 119.6 0, 244.29 0 M244.29 0 C244.29 33.07, 244.29 66.15, 244.29 98.57 M244.29 0 C244.29 23.88, 244.29 47.75, 244.29 98.57 M244.29 98.57 C179.82 98.57, 115.35 98.57, 0 98.57 M244.29 98.57 C165.81 98.57, 87.34 98.57, 0 98.57 M0 98.57 C0 65.49, 0 32.42, 0 0 M0 98.57 C0 67.27, 0 35.97, 0 0" stroke="#000000" stroke-width="4" fill="none"></path></g><g transform="translate(94.57142857142867 164.71428571428532) rotate(0 59 16)"><text x="59" y="25" font-family="Helvetica, Segoe UI Emoji" font-size="28px" fill="#000000" text-anchor="middle" style="white-space: pre;" direction="ltr">count = 0</text></g><g stroke-linecap="round" transform="translate(22.85714285714289 504.2857142857142) rotate(0 122.14285714285711 49.28571428571445)"><path d="M0 0 C63.54 0, 127.08 0, 244.29 0 M0 0 C52.84 0, 105.68 0, 244.29 0 M244.29 0 C244.29 29.71, 244.29 59.43, 244.29 98.57 M244.29 0 C244.29 28.15, 244.29 56.29, 244.29 98.57 M244.29 98.57 C186.02 98.57, 127.76 98.57, 0 98.57 M244.29 98.57 C193.29 98.57, 142.3 98.57, 0 98.57 M0 98.57 C0 69.2, 0 39.82, 0 0 M0 98.57 C0 60.76, 0 22.95, 0 0" stroke="#000000" stroke-width="4" fill="none"></path></g><g transform="translate(30 537.5714285714284) rotate(0 115 16)"><text x="115" y="25" font-family="Helvetica, Segoe UI Emoji" font-size="28px" fill="#000000" text-anchor="middle" style="white-space: pre;" direction="ltr">rng = ZufallsZahl()</text></g><g stroke-linecap="round" transform="translate(10 891.4285714285711) rotate(0 122.14285714285711 49.28571428571445)"><path d="M0 0 C72.09 0, 144.18 0, 244.29 0 M0 0 C51.93 0, 103.87 0, 244.29 0 M244.29 0 C244.29 20.82, 244.29 41.64, 244.29 98.57 M244.29 0 C244.29 20.98, 244.29 41.96, 244.29 98.57 M244.29 98.57 C167.81 98.57, 91.33 98.57, 0 98.57 M244.29 98.57 C183.49 98.57, 122.69 98.57, 0 98.57 M0 98.57 C0 65.68, 0 32.79, 0 0 M0 98.57 C0 67.8, 0 37.04, 0 0" stroke="#000000" stroke-width="4" fill="none"></path></g><g transform="translate(37.64285714285711 924.7142857142853) rotate(0 94.5 16)"><text x="94.5" y="25" font-family="Helvetica, Segoe UI Emoji" font-size="28px" fill="#000000" text-anchor="middle" style="white-space: pre;" direction="ltr">Ausgabe count</text></g><g stroke-linecap="round" transform="translate(28.57142857142867 317.1428571428569) rotate(0 122.14285714285711 49.28571428571445)"><path d="M0 0 C57.26 0, 114.52 0, 244.29 0 M0 0 C55.22 0, 110.45 0, 244.29 0 M244.29 0 C244.29 38.74, 244.29 77.49, 244.29 98.57 M244.29 0 C244.29 29.95, 244.29 59.9, 244.29 98.57 M244.29 98.57 C172.72 98.57, 101.15 98.57, 0 98.57 M244.29 98.57 C155.3 98.57, 66.32 98.57, 0 98.57 M0 98.57 C0 61.61, 0 24.65, 0 0 M0 98.57 C0 72.36, 0 46.15, 0 0" stroke="#000000" stroke-width="4" fill="none"></path></g><g transform="translate(95.21428571428578 350.4285714285711) rotate(0 55.5 16)"><text x="55.5" y="25" font-family="Helvetica, Segoe UI Emoji" font-size="28px" fill="#000000" text-anchor="middle" style="white-space: pre;" direction="ltr">count ++</text></g><g stroke-linecap="round"><g transform="translate(161.42857142857156 80) rotate(0 0 27.857142857142662)"><path d="M0 0 C0 13.78, 0 27.57, 0 55.71 M0 0 C0 22.11, 0 44.21, 0 55.71" stroke="#000000" stroke-width="4" fill="none"></path></g><g transform="translate(161.42857142857156 80) rotate(0 0 27.857142857142662)"><path d="M-9.53 29.54 C-7.17 36.01, -4.81 42.49, 0 55.71 M-9.53 29.54 C-5.75 39.92, -1.97 50.31, 0 55.71" stroke="#000000" stroke-width="4" fill="none"></path></g><g transform="translate(161.42857142857156 80) rotate(0 0 27.857142857142662)"><path d="M9.53 29.54 C7.17 36.01, 4.81 42.49, 0 55.71 M9.53 29.54 C5.75 39.92, 1.97 50.31, 0 55.71" stroke="#000000" stroke-width="4" fill="none"></path></g></g><mask></mask><g stroke-linecap="round"><g transform="translate(154.28571428571445 231.4285714285711) rotate(0 0 42.14285714285711)"><path d="M0 0 C0 18.75, 0 37.51, 0 84.29 M0 0 C0 27.14, 0 54.29, 0 84.29" stroke="#000000" stroke-width="4" fill="none"></path></g><g transform="translate(154.28571428571445 231.4285714285711) rotate(0 0 42.14285714285711)"><path d="M-10.26 56.09 C-7.98 62.37, -5.69 68.64, 0 84.29 M-10.26 56.09 C-6.96 65.17, -3.65 74.25, 0 84.29" stroke="#000000" stroke-width="4" fill="none"></path></g><g transform="translate(154.28571428571445 231.4285714285711) rotate(0 0 42.14285714285711)"><path d="M10.26 56.09 C7.98 62.37, 5.69 68.64, 0 84.29 M10.26 56.09 C6.96 65.17, 3.65 74.25, 0 84.29" stroke="#000000" stroke-width="4" fill="none"></path></g></g><mask></mask><g stroke-linecap="round"><g transform="translate(155.71428571428578 420) rotate(0 0 40.00000000000023)"><path d="M0 0 C0 17.87, 0 35.73, 0 80 M0 0 C0 21.93, 0 43.85, 0 80" stroke="#000000" stroke-width="4" fill="none"></path></g><g transform="translate(155.71428571428578 420) rotate(0 0 40.00000000000023)"><path d="M-10.26 51.81 C-7.97 58.11, -5.68 64.4, 0 80 M-10.26 51.81 C-7.45 59.54, -4.64 67.26, 0 80" stroke="#000000" stroke-width="4" fill="none"></path></g><g transform="translate(155.71428571428578 420) rotate(0 0 40.00000000000023)"><path d="M10.26 51.81 C7.97 58.11, 5.68 64.4, 0 80 M10.26 51.81 C7.45 59.54, 4.64 67.26, 0 80" stroke="#000000" stroke-width="4" fill="none"></path></g></g><mask></mask><g stroke-linecap="round" transform="translate(10 664.8571428571427) rotate(0 129.5 79)"><path d="M130 0 C161.79 19.72, 193.58 39.43, 259 80 M130 0 C161.28 19.4, 192.57 38.8, 259 80 M259 80 C223.79 101.29, 188.58 122.58, 130 158 M259 80 C214.61 106.84, 170.23 133.68, 130 158 M130 158 C93.58 136.15, 57.16 114.29, 0 80 M130 158 C94.16 136.49, 58.31 114.99, 0 80 M0 80 C32.11 60.24, 64.22 40.48, 130 0 M0 80 C33.28 59.52, 66.56 39.04, 130 0" stroke="#000000" stroke-width="4" fill="none"></path></g><g transform="translate(68 711.8571428571427) rotate(0 71.5 32)"><text x="71.5" y="25" font-family="Helvetica, Segoe UI Emoji" font-size="28px" fill="#000000" text-anchor="middle" style="white-space: pre;" direction="ltr">while </text><text x="71.5" y="57" font-family="Helvetica, Segoe UI Emoji" font-size="28px" fill="#000000" text-anchor="middle" style="white-space: pre;" direction="ltr">zahl NOT 6</text></g><g stroke-linecap="round"><g transform="translate(135.71428571428578 602.8571428571427) rotate(0 0 32.85714285714289)"><path d="M0 0 C0 16.5, 0 33, 0 65.71 M0 0 C0 24.63, 0 49.27, 0 65.71" stroke="#000000" stroke-width="4" fill="none"></path></g><g transform="translate(135.71428571428578 602.8571428571427) rotate(0 0 32.85714285714289)"><path d="M-10.26 37.52 C-7.68 44.6, -5.11 51.68, 0 65.71 M-10.26 37.52 C-6.41 48.09, -2.57 58.66, 0 65.71" stroke="#000000" stroke-width="4" fill="none"></path></g><g transform="translate(135.71428571428578 602.8571428571427) rotate(0 0 32.85714285714289)"><path d="M10.26 37.52 C7.68 44.6, 5.11 51.68, 0 65.71 M10.26 37.52 C6.41 48.09, 2.57 58.66, 0 65.71" stroke="#000000" stroke-width="4" fill="none"></path></g></g><mask></mask><g stroke-linecap="round"><g transform="translate(140 822.8571428571427) rotate(0 0 37.14285714285711)"><path d="M0 0 C0 19.1, 0 38.19, 0 74.29 M0 0 C0 24.75, 0 49.51, 0 74.29" stroke="#000000" stroke-width="4" fill="none"></path></g><g transform="translate(140 822.8571428571427) rotate(0 0 37.14285714285711)"><path d="M-10.26 46.09 C-7.62 53.34, -4.99 60.59, 0 74.29 M-10.26 46.09 C-6.84 55.49, -3.42 64.88, 0 74.29" stroke="#000000" stroke-width="4" fill="none"></path></g><g transform="translate(140 822.8571428571427) rotate(0 0 37.14285714285711)"><path d="M10.26 46.09 C7.62 53.34, 4.99 60.59, 0 74.29 M10.26 46.09 C6.84 55.49, 3.42 64.88, 0 74.29" stroke="#000000" stroke-width="4" fill="none"></path></g></g><mask></mask><g stroke-linecap="round"><g transform="translate(271.42857142857156 741.4285714285716) rotate(0 71.42857142857133 -101.42857142857156)"><path d="M0 0 C32.97 0, 65.94 0, 145.71 0 M0 0 C57.14 0, 114.28 0, 145.71 0 M145.71 0 C145.71 -72.49, 145.71 -144.97, 145.71 -202.86 M145.71 0 C145.71 -76.75, 145.71 -153.5, 145.71 -202.86 M145.71 -202.86 C114.6 -202.86, 83.48 -202.86, -2.86 -202.86 M145.71 -202.86 C105.29 -202.86, 64.87 -202.86, -2.86 -202.86" stroke="#000000" stroke-width="4" fill="none"></path></g><g transform="translate(271.42857142857156 741.4285714285716) rotate(0 71.42857142857133 -101.42857142857156)"><path d="M25.33 -213.12 C18.95 -210.8, 12.58 -208.47, -2.86 -202.86 M25.33 -213.12 C14.28 -209.09, 3.22 -205.07, -2.86 -202.86" stroke="#000000" stroke-width="4" fill="none"></path></g><g transform="translate(271.42857142857156 741.4285714285716) rotate(0 71.42857142857133 -101.42857142857156)"><path d="M25.33 -192.6 C18.95 -194.92, 12.58 -197.24, -2.86 -202.86 M25.33 -192.6 C14.28 -196.62, 3.22 -200.64, -2.86 -202.86" stroke="#000000" stroke-width="4" fill="none"></path></g></g><mask></mask><g transform="translate(314.28571428571445 703.2142857142853) rotate(0 25 16)"><text x="0" y="25" font-family="Helvetica, Segoe UI Emoji" font-size="28px" fill="#000000" text-anchor="start" style="white-space: pre;" direction="ltr">true</text></g><g transform="translate(157.14285714285734 827.4999999999995) rotate(0 30.5 16)"><text x="0" y="25" font-family="Helvetica, Segoe UI Emoji" font-size="28px" fill="#000000" text-anchor="start" style="white-space: pre;" direction="ltr">false</text></g></svg>