<svg version="1.1" xmlns="http://www.w3.org/2000/svg" viewBox="0 0 1540.4902194495955 379.78310070129936" width="1540.4902194495955" height="379.78310070129936">
  <!-- svg-source:excalidraw -->
  
  <defs>
    <style class="style-fonts">
      @font-face {
        font-family: "Virgil";
        src: url("https://excalidraw.com/Virgil.woff2");
      }
      @font-face {
        font-family: "Cascadia";
        src: url("https://excalidraw.com/Cascadia.woff2");
      }
    </style>
  </defs>
  <rect x="0" y="0" width="1540.4902194495955" height="379.78310070129936" fill="#ffffff"></rect><g stroke-linecap="round" transform="translate(653.1421734888047 10) rotate(0 107.5 69)"><path d="M-1.11 0.32 C49.75 -0.16, 97.09 -1.18, 213.99 -1.47 M0.24 0.77 C76.67 0.44, 151.92 1.23, 214.4 0.33 M213.66 -0.49 C216.96 33.22, 215.66 63.33, 214.07 138.99 M215.84 -0.02 C213.57 54.05, 213.82 107.17, 214.93 137.81 M216.52 138.37 C163.01 138.29, 112.58 138.97, 0.23 139.54 M215.06 137.29 C138.2 136.14, 62.6 136.26, 0.45 138.29 M-1.64 138.3 C-1.6 111.73, 0.1 83.31, 1.78 -1.37 M0.28 137.07 C0.8 83.4, 1.65 27.23, 0.95 0.82" stroke="#000000" stroke-width="2" fill="none"></path></g><g stroke-linecap="round" transform="translate(1013.4237245093129 230.80298729443706) rotate(0 108 69)"><path d="M-1.68 1.65 C45.81 -0.65, 88.31 -0.41, 215.86 1.53 M0.71 0.2 C52.32 -0.33, 104.11 0.18, 216.12 0.17 M216.65 0.93 C217.95 45.01, 216.79 88.21, 215.7 136.62 M216.66 0.91 C217.19 52.31, 215.79 103.49, 216.62 137.09 M214.42 137.62 C145.32 137.31, 76.2 137.24, 0.86 139.32 M216.61 138.27 C153.7 137.52, 89.75 137.41, 0.85 138.3 M1.66 138.42 C-0.7 85.66, -1.55 35.16, 1.93 -0.47 M-0.26 138.27 C1.57 98.66, 1.94 57.67, -0.41 0.59" stroke="#000000" stroke-width="2" fill="none"></path></g><g stroke-linecap="round" transform="translate(654.1224078203873 228.12306289901193) rotate(0 108 69)"><path d="M-0.05 0.86 C75.78 -0.66, 151.37 0.97, 214.82 1.15 M0 0.28 C73.24 1.92, 147.62 1.21, 215.4 -0.01 M214.14 -0.4 C216.66 28.99, 215.01 59.57, 214.76 139.19 M216.09 0.23 C216.5 30.76, 216.65 60.56, 215.01 138.07 M217.06 139.07 C166.38 138.79, 112.9 136.83, 0.97 139.64 M215.28 137.4 C134.59 137.95, 53.61 138.99, -0.75 138.35 M1.64 138.74 C0.52 90.19, 0.47 38.49, -0.05 -0.72 M-0.43 138.99 C-1.07 105.01, -0.63 73.93, 0.69 -0.9" stroke="#000000" stroke-width="2" fill="none"></path></g><g stroke-linecap="round" transform="translate(345.5405468637203 231.78310070129936) rotate(0 108 69)"><path d="M1.51 0.58 C69.67 -0.74, 137.51 0.42, 216.12 0.28 M0.02 0.73 C53.3 -0.71, 105.76 -1.04, 215.38 -0.19 M215.7 -0.22 C215.74 34.64, 214.58 66.88, 215.7 139.74 M215.2 -0.86 C216.52 43.27, 216.15 85.92, 216.55 138.82 M216.87 138.44 C167.93 137.23, 122.83 138.64, 1.07 136.82 M215.57 138.56 C168.88 139.37, 122.19 139.18, -0.46 137.14 M0.2 138.48 C-2.54 107.37, -2.77 76.46, 0.79 0.94 M-0.62 137.22 C0.44 84.44, -0.47 31.31, 0.95 0.17" stroke="#000000" stroke-width="2" fill="none"></path></g><g transform="translate(657.6421734888047 31) rotate(0 103 48)"><text x="103" y="26" font-family="Helvetica, Segoe UI Emoji" font-size="28px" fill="#000000" text-anchor="middle" style="white-space: pre;" direction="ltr">Wait for </text><text x="103" y="58" font-family="Helvetica, Segoe UI Emoji" font-size="28px" fill="#000000" text-anchor="middle" style="white-space: pre;" direction="ltr">Ramdom </text><text x="103" y="90" font-family="Helvetica, Segoe UI Emoji" font-size="28px" fill="#000000" text-anchor="middle" style="white-space: pre;" direction="ltr">Backoff Time</text></g><g transform="translate(1017.9237245093129 267.80298729443706) rotate(0 103.5 32)"><text x="103.5" y="26" font-family="Helvetica, Segoe UI Emoji" font-size="28px" fill="#000000" text-anchor="middle" style="white-space: pre;" direction="ltr">Transmit </text><text x="103.5" y="58" font-family="Helvetica, Segoe UI Emoji" font-size="28px" fill="#000000" text-anchor="middle" style="white-space: pre;" direction="ltr">Application Data</text></g><g transform="translate(668.1224078203873 265.1230628990119) rotate(0 94 32)"><text x="94" y="26" font-family="Helvetica, Segoe UI Emoji" font-size="28px" fill="#000000" text-anchor="middle" style="white-space: pre;" direction="ltr">is the Channel </text><text x="94" y="58" font-family="Helvetica, Segoe UI Emoji" font-size="28px" fill="#000000" text-anchor="middle" style="white-space: pre;" direction="ltr">Idle</text></g><g transform="translate(376.0405468637203 268.78310070129936) rotate(0 77.5 32)"><text x="77.5" y="26" font-family="Helvetica, Segoe UI Emoji" font-size="28px" fill="#000000" text-anchor="middle" style="white-space: pre;" direction="ltr">Assemble a </text><text x="77.5" y="58" font-family="Helvetica, Segoe UI Emoji" font-size="28px" fill="#000000" text-anchor="middle" style="white-space: pre;" direction="ltr">Frame</text></g><g stroke-linecap="round" transform="translate(10.000000000000057 247.47656191362717) rotate(0 110.9489152234467 61.0219094191317)"><path d="M134.01 0.45 C147.34 1.09, 161.92 6.86, 173.5 11.44 C185.07 16.03, 195.77 21.46, 203.46 27.95 C211.15 34.45, 217.05 42.74, 219.63 50.39 C222.21 58.05, 221.7 66.45, 218.93 73.91 C216.17 81.37, 211.09 88.78, 203.05 95.15 C195 101.52, 182.79 107.83, 170.65 112.14 C158.51 116.46, 144.06 119.76, 130.19 121.04 C116.32 122.32, 101.18 121.53, 87.43 119.81 C73.67 118.09, 59.41 115.08, 47.68 110.7 C35.95 106.32, 24.87 100.02, 17.05 93.52 C9.24 87.03, 3.17 79.43, 0.76 71.72 C-1.64 64, -0.57 54.8, 2.61 47.22 C5.8 39.65, 11.73 32.45, 19.88 26.25 C28.04 20.06, 39.54 14.31, 51.54 10.03 C63.55 5.74, 76.64 1.79, 91.89 0.54 C107.15 -0.71, 133.76 1.91, 143.08 2.53 C152.41 3.15, 148.6 3.45, 147.85 4.29 M82.85 0.59 C95.25 -2.43, 112.26 -2.14, 126.09 -0.6 C139.93 0.94, 153.66 5.67, 165.88 9.81 C178.11 13.95, 190.75 18.07, 199.42 24.25 C208.09 30.43, 214.53 39.21, 217.9 46.87 C221.27 54.53, 221.55 62.6, 219.66 70.22 C217.77 77.83, 213.42 85.97, 206.55 92.57 C199.67 99.17, 189.88 105.12, 178.39 109.83 C166.91 114.54, 151.52 118.78, 137.61 120.83 C123.71 122.88, 108.64 123.43, 94.95 122.14 C81.26 120.84, 67.79 116.91, 55.48 113.05 C43.16 109.2, 29.76 105.32, 21.06 99.02 C12.36 92.72, 6.43 82.81, 3.28 75.26 C0.12 67.7, -0.07 61.01, 2.14 53.69 C4.36 46.37, 9.47 38.44, 16.57 31.32 C23.67 24.21, 33.61 15.77, 44.75 11 C55.88 6.22, 76.97 4.2, 83.36 2.69 C89.75 1.18, 82.57 1.01, 83.06 1.95" stroke="#000000" stroke-width="2" fill="none"></path></g><g stroke-linecap="round" transform="translate(1308.592389002702 243.2116469687739) rotate(0 110.94891522344676 61.0219094191317)"><path d="M126.17 0.63 C139.49 0.62, 154.1 4.86, 166.31 8.72 C178.51 12.58, 190.89 17.63, 199.4 23.8 C207.92 29.97, 214.01 38.34, 217.42 45.77 C220.84 53.21, 221.52 60.86, 219.89 68.41 C218.26 75.95, 214.77 84.22, 207.64 91.05 C200.51 97.87, 188.49 104.69, 177.12 109.37 C165.74 114.05, 152.95 117.23, 139.37 119.14 C125.79 121.05, 109.58 121.84, 95.64 120.83 C81.71 119.83, 67.8 117.07, 55.77 113.1 C43.73 109.13, 31.97 103.01, 23.43 97.01 C14.88 91.01, 8.31 84.4, 4.51 77.1 C0.71 69.81, -1.28 61.21, 0.62 53.24 C2.53 45.28, 8.81 36.04, 15.94 29.32 C23.08 22.6, 32.35 17.47, 43.43 12.94 C54.52 8.41, 67.58 3.99, 82.45 2.11 C97.32 0.24, 123.12 1.37, 132.67 1.71 C142.22 2.05, 140.19 3.37, 139.75 4.15 M59.98 5.26 C71.23 0.73, 87.23 0.11, 101.54 -0.5 C115.84 -1.11, 132.15 -0.83, 145.79 1.59 C159.43 4.01, 172.61 8.86, 183.37 14.02 C194.13 19.18, 203.93 25.56, 210.34 32.55 C216.76 39.53, 220.89 48.14, 221.88 55.93 C222.86 63.72, 220.4 71.77, 216.23 79.27 C212.06 86.78, 206.13 94.82, 196.84 100.97 C187.56 107.13, 173.37 112.9, 160.54 116.2 C147.71 119.5, 134.02 120.23, 119.88 120.78 C105.73 121.33, 89.17 121.52, 75.66 119.49 C62.16 117.46, 49.49 113.56, 38.86 108.61 C28.23 103.65, 18.1 96.68, 11.87 89.77 C5.65 82.86, 2.38 74.95, 1.53 67.13 C0.69 59.31, 2.67 50.71, 6.79 42.85 C10.91 35, 17.11 25.99, 26.26 19.99 C35.41 13.99, 55.79 9.1, 61.69 6.87 C67.58 4.63, 61.21 5.91, 61.62 6.58" stroke="#000000" stroke-width="2" fill="none"></path></g><g transform="translate(90.44891522344659 292.49847133275887) rotate(0 30.5 16)"><text x="30.5" y="26" font-family="Helvetica, Segoe UI Emoji" font-size="28px" fill="#000000" text-anchor="middle" style="white-space: pre;" direction="ltr">Start</text></g><g transform="translate(1393.541304226149 288.2335563879056) rotate(0 26 16)"><text x="26" y="26" font-family="Helvetica, Segoe UI Emoji" font-size="28px" fill="#000000" text-anchor="middle" style="white-space: pre;" direction="ltr">End</text></g><g stroke-linecap="round"><g transform="translate(235.0676906210286 310.87591181013073) rotate(0 56.434428659460195 -0.8060554353387346)"><path d="M0.63 -0.25 C19.38 -0.38, 94.69 0, 113.37 0.21 M-0.5 -1.42 C18.09 -1.42, 94.11 -1.9, 112.87 -1.81" stroke="#000000" stroke-width="2" fill="none"></path></g><g transform="translate(235.0676906210286 310.87591181013073) rotate(0 56.434428659460195 -0.8060554353387346)"><path d="M84.28 9.89 C95.44 4.78, 107.24 1.51, 111.7 -3.66 M84.22 8.85 C94.1 4.97, 105.09 0.15, 112.67 -1.14" stroke="#000000" stroke-width="2" fill="none"></path></g><g transform="translate(235.0676906210286 310.87591181013073) rotate(0 56.434428659460195 -0.8060554353387346)"><path d="M84.25 -10.63 C95.6 -8.1, 107.41 -3.72, 111.7 -3.66 M84.19 -11.67 C94.03 -7.99, 105.03 -5.25, 112.67 -1.14" stroke="#000000" stroke-width="2" fill="none"></path></g></g><mask></mask><g stroke-linecap="round"><g transform="translate(559.9895742377685 304.53594961241816) rotate(0 44.724895067275384 -0.4269074879027954)"><path d="M-0.38 -0.23 C14.63 -0.27, 74.89 -0.85, 89.83 -0.65 M1.61 -1.4 C16.58 -1.25, 74.92 0.45, 89.45 0.54" stroke="#000000" stroke-width="2" fill="none"></path></g><g transform="translate(559.9895742377685 304.53594961241816) rotate(0 44.724895067275384 -0.4269074879027954)"><path d="M60.69 12.05 C67.96 8.54, 78.62 3.56, 88.23 -0.04 M61.83 9.51 C66.93 8.82, 73.36 5.93, 89.47 1.27" stroke="#000000" stroke-width="2" fill="none"></path></g><g transform="translate(559.9895742377685 304.53594961241816) rotate(0 44.724895067275384 -0.4269074879027954)"><path d="M61.08 -8.46 C68.17 -6.23, 78.72 -5.47, 88.23 -0.04 M62.22 -11 C67.1 -7.2, 73.44 -5.59, 89.47 1.27" stroke="#000000" stroke-width="2" fill="none"></path></g></g><mask></mask><g stroke-linecap="round"><g transform="translate(761.2825577732763 225.28672445281342) rotate(0 -0.4404954616665009 -31.794181132488248)"><path d="M0.87 1 C0.54 -9.77, -1.68 -54.02, -1.76 -64.59 M-0.13 0.49 C-0.12 -10.19, 0.34 -52.89, 0.4 -63.68" stroke="#000000" stroke-width="2" fill="none"></path></g><g transform="translate(761.2825577732763 225.28672445281342) rotate(0 -0.4404954616665009 -31.794181132488248)"><path d="M12.1 -37.18 C5.23 -42.52, 5.6 -53.42, 0.86 -62.5 M10.59 -36.09 C6.8 -46.06, 3.87 -53.76, 0.94 -63.9" stroke="#000000" stroke-width="2" fill="none"></path></g><g transform="translate(761.2825577732763 225.28672445281342) rotate(0 -0.4404954616665009 -31.794181132488248)"><path d="M-8.42 -37.35 C-8.74 -42.78, -1.82 -53.63, 0.86 -62.5 M-9.93 -36.26 C-6.72 -46.13, -2.63 -53.76, 0.94 -63.9" stroke="#000000" stroke-width="2" fill="none"></path></g></g><mask></mask><g stroke-linecap="round"><g transform="translate(872.2314729967229 299.781008195314) rotate(0 72.19893911906786 0.10656200490294054)"><path d="M-0.02 0.78 C24.1 0.78, 121.45 -0.63, 145.89 -0.56 M-1.49 0.14 C22.37 0.34, 120.35 0.79, 144.98 0.68" stroke="#000000" stroke-width="2" fill="none"></path></g><g transform="translate(872.2314729967229 299.781008195314) rotate(0 72.19893911906786 0.10656200490294054)"><path d="M118.07 11.03 C127.11 8.14, 141.24 1.09, 143.12 1.15 M116.35 10.53 C127.11 7.56, 136.07 4.41, 144.03 1.48" stroke="#000000" stroke-width="2" fill="none"></path></g><g transform="translate(872.2314729967229 299.781008195314) rotate(0 72.19893911906786 0.10656200490294054)"><path d="M118.09 -9.49 C127.03 -4.21, 141.15 -3.09, 143.12 1.15 M116.36 -9.99 C127.13 -6.05, 136.09 -2.3, 144.03 1.48" stroke="#000000" stroke-width="2" fill="none"></path></g></g><mask></mask><g stroke-linecap="round"><g transform="translate(1233.607988094409 298.19604787706606) rotate(0 38.10732373584244 1.0231452924521847)"><path d="M-0.32 1.19 C12.46 1.4, 63.87 0.57, 76.53 0.19 M1.72 0.76 C14.39 1.29, 63.67 2.01, 75.82 1.83" stroke="#000000" stroke-width="2" fill="none"></path></g><g transform="translate(1233.607988094409 298.19604787706606) rotate(0 38.10732373584244 1.0231452924521847)"><path d="M49.58 12.77 C56.17 8.4, 62.18 5.57, 75.98 2.69 M48.21 12.65 C57.22 7.51, 67.83 5.44, 75.16 0.86" stroke="#000000" stroke-width="2" fill="none"></path></g><g transform="translate(1233.607988094409 298.19604787706606) rotate(0 38.10732373584244 1.0231452924521847)"><path d="M49.64 -7.75 C56.02 -6.19, 62.02 -3.09, 75.98 2.69 M48.26 -7.87 C57.2 -5.84, 67.79 -0.74, 75.16 0.86" stroke="#000000" stroke-width="2" fill="none"></path></g></g><mask></mask><g stroke-linecap="round"><g transform="translate(653.5036841110464 90.56307191266558) rotate(0 -41.20992277263099 100.516304596877)"><path d="M1.12 0.2 C-12.78 13.97, -81.43 48.55, -82.53 81.98 C-83.62 115.4, -18.07 181.05, -5.45 200.74 M0.25 -0.74 C-13.9 12.78, -82.53 46.7, -83.53 80.45 C-84.53 114.2, -18.54 181.75, -5.75 201.77" stroke="#000000" stroke-width="2" fill="none"></path></g><g transform="translate(653.5036841110464 90.56307191266558) rotate(0 -41.20992277263099 100.516304596877)"><path d="M-30.94 185.83 C-19.86 193.17, -13.1 196.86, -7.72 200.03 M-30.83 186.95 C-23.09 191.69, -15.46 196.18, -6.47 201.68" stroke="#000000" stroke-width="2" fill="none"></path></g><g transform="translate(653.5036841110464 90.56307191266558) rotate(0 -41.20992277263099 100.516304596877)"><path d="M-14.83 173.11 C-9.88 185.38, -9.16 193.85, -7.72 200.03 M-14.72 174.23 C-11.93 182.99, -9.29 191.42, -6.47 201.68" stroke="#000000" stroke-width="2" fill="none"></path></g></g><mask></mask></svg>