<svg version="1.1" xmlns="http://www.w3.org/2000/svg" viewBox="0 0 1046.9984807356054 559.4853263929745" width="1046.9984807356054" height="559.4853263929745">
  <!-- svg-source:excalidraw -->
  
  <defs>
    <style class="style-fonts">
      @font-face {
        font-family: "Virgil";
        src: url("https://excalidraw.com/Virgil.woff2");
      }
      @font-face {
        font-family: "Cascadia";
        src: url("https://excalidraw.com/Cascadia.woff2");
      }
    </style>
  </defs>
  <g stroke-linecap="round" transform="translate(857.1528675901455 112.5006013275949) rotate(0 79.64052036763337 70.98394158822063)"><path d="M0.76 -1.15 C36.27 2.41, 68.11 0.76, 158.38 0.1 M-0.8 0.73 C46.51 -0.22, 91.05 0.77, 158.89 -0.67 M158.28 0.59 C158.72 31.76, 159.98 63.79, 159.45 140.58 M159.76 0.04 C159.63 37.92, 158.57 77.59, 159.03 141.99 M161.1 140.58 C101.44 143.19, 38.42 143.45, -1.53 140.95 M158.33 141.11 C109.31 140.55, 58.28 140.35, 0.12 141.68 M-1.94 142.59 C1.72 88.27, 2.46 37.38, 0.85 1.17 M0.87 141.34 C1.07 103.92, 0.9 66.2, 0.48 -0.47" stroke="#000000" stroke-width="4" fill="none"></path></g><g stroke-linecap="round" transform="translate(876.7744989923782 122.88851347474485) rotate(0 58.86474010297013 47.899742517195875)"><path d="M23.95 0 M23.95 0 C43.91 1.72, 67.51 -0.73, 93.78 0 M23.95 0 C43.69 0.44, 63.3 -0.84, 93.78 0 M93.78 0 C111.22 1.93, 115.98 7.92, 117.73 23.95 M93.78 0 C110.01 -0.9, 116.18 6.4, 117.73 23.95 M117.73 23.95 C118.45 38.96, 116.82 56.3, 117.73 71.85 M117.73 23.95 C117.47 33.95, 118.26 44.46, 117.73 71.85 M117.73 71.85 C117.8 88.56, 108.98 94.42, 93.78 95.8 M117.73 71.85 C119.98 87.23, 109.8 97.5, 93.78 95.8 M93.78 95.8 C74.68 98.15, 58.42 94.69, 23.95 95.8 M93.78 95.8 C71.84 95.51, 48.67 94.49, 23.95 95.8 M23.95 95.8 C6.26 96.59, 0.04 87.3, 0 71.85 M23.95 95.8 C7.58 96.07, -0.66 89.52, 0 71.85 M0 71.85 C0.23 60.46, -0.98 48.61, 0 23.95 M0 71.85 C-0.55 53.29, -0.77 36.04, 0 23.95 M0 23.95 C-1.26 9.5, 7.18 1.17, 23.95 0 M0 23.95 C-1.09 9.08, 6.91 -1.46, 23.95 0" stroke="#000000" stroke-width="4" fill="none"></path></g><g stroke-linecap="round"><g transform="translate(879.2493210936224 237.15532694521073) rotate(0 56.61528395793039 0.4552860181778726)"><path d="M-0.69 1.19 C18.43 1.07, 94.98 0.01, 113.92 -0.28 M1.15 0.77 C20.25 0.79, 94.91 1.16, 113.39 1.11" stroke="#000000" stroke-width="4" fill="none"></path></g></g><mask></mask><g stroke-linecap="round" transform="translate(11.769684924377088 115.37242777730302) rotate(0 79.64052036763337 70.98394158822063)"><path d="M1.34 -0.47 C53.5 -2.48, 107.7 -1.86, 160.22 -0.83 M-0.88 -0.03 C35.12 -1.93, 69.33 -2.23, 159.64 0.28 M158.24 0.19 C157.88 35.67, 158.31 70.4, 159.25 142.96 M158.9 -0.69 C160.31 49.07, 159.36 99.39, 158.82 142.69 M159.34 140.23 C97.32 141.8, 33.68 143.66, 0.14 140.16 M159.3 141.71 C126.55 142.71, 93.88 143.34, -0.37 142.79 M-0.58 143.9 C1.22 114.02, 0.73 83.68, -0.44 -1.13 M-0.4 142.55 C0.43 87.51, 0.43 31.47, -0.31 -0.26" stroke="#000000" stroke-width="4" fill="none"></path></g><g stroke-linecap="round" transform="translate(31.39131632660974 125.76033992445298) rotate(0 58.864740102970075 47.899742517195875)"><path d="M23.95 0 M23.95 0 C40.43 -0.78, 56.94 -0.37, 93.78 0 M23.95 0 C43.11 1.02, 64.85 -0.59, 93.78 0 M93.78 0 C109.68 0.23, 116.95 6.63, 117.73 23.95 M93.78 0 C108.16 0.82, 118.37 6.83, 117.73 23.95 M117.73 23.95 C117.66 37.91, 117.64 54.12, 117.73 71.85 M117.73 23.95 C118.2 36.91, 118.09 49.42, 117.73 71.85 M117.73 71.85 C116.35 89.77, 109.24 95.84, 93.78 95.8 M117.73 71.85 C119.43 86.75, 111.42 97.89, 93.78 95.8 M93.78 95.8 C75.92 96.15, 60.02 94.8, 23.95 95.8 M93.78 95.8 C70.74 94.31, 50.01 95.19, 23.95 95.8 M23.95 95.8 C7.47 95.45, 0.23 87.24, 0 71.85 M23.95 95.8 C9.69 94.94, 1.89 85.58, 0 71.85 M0 71.85 C1.64 57.64, 0.56 41.3, 0 23.95 M0 71.85 C0.97 58.51, 0.87 46.04, 0 23.95 M0 23.95 C1.17 7.04, 8.93 -0.93, 23.95 0 M0 23.95 C-1.46 7.27, 7.39 -1.19, 23.95 0" stroke="#000000" stroke-width="4" fill="none"></path></g><g stroke-linecap="round"><g transform="translate(33.86613842785391 240.02715339491886) rotate(0 56.14751411086519 0.14991542416910875)"><path d="M-0.28 -0.18 C18.28 -0.31, 93.7 -0.07, 112.57 0.06 M1.77 -1.33 C20.03 -1.31, 92.96 1.65, 111.34 1.63" stroke="#000000" stroke-width="4" fill="none"></path></g></g><mask></mask><g transform="translate(833.9984807356055 54.46898473464449) rotate(0 101.5 21)"><text x="0" y="33" font-family="Helvetica, Segoe UI Emoji" font-size="36px" fill="#000000" text-anchor="start" style="white-space: pre;" direction="ltr">Webbrowser</text></g><g transform="translate(10 54.964874187114276) rotate(0 87.5 21)"><text x="0" y="33" font-family="Helvetica, Segoe UI Emoji" font-size="36px" fill="#000000" text-anchor="start" style="white-space: pre;" direction="ltr">Webserver</text></g><g transform="translate(427.55293722280805 71.18108264223997) rotate(0 77.5 16)"><text x="77.5" y="26" font-family="Helvetica, Segoe UI Emoji" font-size="28px" fill="#000000" text-anchor="middle" style="white-space: pre;" direction="ltr">SEQ = 1000</text></g><g stroke-linecap="round"><g transform="translate(210.87726832927422 103.31389391943219) rotate(0 296.4405215174023 -0.20073671232080414)"><path d="M-0.17 0.57 C99.02 0.4, 495.24 -1.06, 594.6 -0.96 M-1.72 -0.18 C97.32 -0.24, 493.82 0.13, 593.39 0.07" stroke="#000000" stroke-width="4" fill="none"></path></g><g transform="translate(210.87726832927422 103.31389391943219) rotate(0 296.4405215174023 -0.20073671232080414)"><path d="M566.14 9.5 C570.78 9.22, 581.51 3.38, 593.32 0.3 M565.55 10.6 C572.12 8.14, 579.44 4.65, 593.49 -0.84" stroke="#000000" stroke-width="4" fill="none"></path></g><g transform="translate(210.87726832927422 103.31389391943219) rotate(0 296.4405215174023 -0.20073671232080414)"><path d="M566.14 -11.02 C570.79 -6.07, 581.53 -6.67, 593.32 0.3 M565.56 -9.92 C571.98 -7.03, 579.3 -5.17, 593.49 -0.84" stroke="#000000" stroke-width="4" fill="none"></path></g></g><mask></mask><g transform="translate(441.6710355363349 370.2715716843776) rotate(0 77.5 16)"><text x="77.5" y="26" font-family="Helvetica, Segoe UI Emoji" font-size="28px" fill="#000000" text-anchor="middle" style="white-space: pre;" direction="ltr">SEQ = 4000</text></g><g stroke-linecap="round"><g transform="translate(224.99536664280106 402.4043829615699) rotate(0 296.9096512871298 -0.7597283143133495)"><path d="M-1 0.1 C98.03 -0.02, 495.31 0.43, 594.82 0.22 M0.68 -0.89 C99.47 -1.48, 494.54 -1.86, 593.72 -1.79" stroke="#000000" stroke-width="4" fill="none"></path></g><g transform="translate(224.99536664280106 402.4043829615699) rotate(0 296.9096512871298 -0.7597283143133495)"><path d="M565.71 8.02 C575.79 6.64, 583.44 0.81, 593.69 -2.23 M565.06 8.91 C572.9 5.6, 579.95 2.38, 593.12 -1.71" stroke="#000000" stroke-width="4" fill="none"></path></g><g transform="translate(224.99536664280106 402.4043829615699) rotate(0 296.9096512871298 -0.7597283143133495)"><path d="M565.7 -12.5 C575.95 -6.62, 583.6 -5.18, 593.69 -2.23 M565.05 -11.61 C572.89 -9.49, 579.94 -7.28, 593.12 -1.71" stroke="#000000" stroke-width="4" fill="none"></path></g></g><mask></mask><g transform="translate(428.60927082271667 123.31250692236108) rotate(0 77.5 16)"><text x="77.5" y="26" font-family="Helvetica, Segoe UI Emoji" font-size="28px" fill="#000000" text-anchor="middle" style="white-space: pre;" direction="ltr">SEQ = 2000</text></g><g stroke-linecap="round"><g transform="translate(211.93360192918283 155.4453181995533) rotate(0 296.92534404502874 0.3998635139880662)"><path d="M-0.13 -0.97 C98.97 -1.13, 496.11 0.04, 595.5 0.15 M-1.65 1.14 C97.25 1.71, 495.15 1.82, 594.77 1.77" stroke="#000000" stroke-width="4" fill="none"></path></g><g transform="translate(211.93360192918283 155.4453181995533) rotate(0 296.92534404502874 0.3998635139880662)"><path d="M564.97 12.72 C577.32 10.12, 587.12 5.16, 593.19 3.68 M566.77 12.25 C573.48 9.9, 580.96 6.87, 595.29 1.2" stroke="#000000" stroke-width="4" fill="none"></path></g><g transform="translate(211.93360192918283 155.4453181995533) rotate(0 296.92534404502874 0.3998635139880662)"><path d="M564.97 -7.81 C577.51 -2.71, 587.31 0.03, 593.19 3.68 M566.77 -8.27 C573.33 -5.25, 580.81 -2.92, 595.29 1.2" stroke="#000000" stroke-width="4" fill="none"></path></g></g><mask></mask><g transform="translate(439.4328779179833 421.5793888692323) rotate(0 77.5 16)"><text x="77.5" y="26" font-family="Helvetica, Segoe UI Emoji" font-size="28px" fill="#000000" text-anchor="middle" style="white-space: pre;" direction="ltr">SEQ = 5000</text></g><g stroke-linecap="round"><g transform="translate(222.75720902444948 453.7122001464246) rotate(0 297.96800958082713 -0.4278199270884784)"><path d="M-0.48 -0.09 C98.41 -0.15, 495.02 0.67, 594.18 0.63 M1.46 -1.19 C100.66 -1.68, 497.75 -1.49, 596.42 -1.16" stroke="#000000" stroke-width="4" fill="none"></path></g><g transform="translate(222.75720902444948 453.7122001464246) rotate(0 297.96800958082713 -0.4278199270884784)"><path d="M568.06 7.54 C579.6 4.45, 588.4 0.51, 594.86 -1.5 M567.89 9.53 C577.82 6.28, 586.98 2.13, 595.84 -2.07" stroke="#000000" stroke-width="4" fill="none"></path></g><g transform="translate(222.75720902444948 453.7122001464246) rotate(0 297.96800958082713 -0.4278199270884784)"><path d="M568.09 -12.98 C579.79 -8.49, 588.57 -4.84, 594.86 -1.5 M567.92 -10.99 C577.64 -7.58, 586.79 -5.08, 595.84 -2.07" stroke="#000000" stroke-width="4" fill="none"></path></g></g><mask></mask><g transform="translate(428.7258600051297 175.31709715289503) rotate(0 77.5 16)"><text x="77.5" y="26" font-family="Helvetica, Segoe UI Emoji" font-size="28px" fill="#000000" text-anchor="middle" style="white-space: pre;" direction="ltr">SEQ = 3000</text></g><g stroke-linecap="round"><g transform="translate(212.05019111159584 207.44990843008725) rotate(0 297.37148137495547 -0.3560327010011406)"><path d="M0.61 -0.5 C99.85 -0.35, 496.31 0.97, 595.28 1.12 M-0.54 -1.81 C98.58 -1.99, 495.46 -0.43, 594.43 -0.42" stroke="#000000" stroke-width="4" fill="none"></path></g><g transform="translate(212.05019111159584 207.44990843008725) rotate(0 297.37148137495547 -0.3560327010011406)"><path d="M565.37 10.09 C576.11 5.59, 582.94 4.98, 594.41 -0.12 M565.9 8.99 C573.1 7.88, 577.6 5.08, 595.22 -0.35" stroke="#000000" stroke-width="4" fill="none"></path></g><g transform="translate(212.05019111159584 207.44990843008725) rotate(0 297.37148137495547 -0.3560327010011406)"><path d="M565.42 -10.44 C576.18 -9.07, 582.99 -3.83, 594.41 -0.12 M565.95 -11.53 C573.28 -8.19, 577.77 -6.55, 595.22 -0.35" stroke="#000000" stroke-width="4" fill="none"></path></g></g><mask></mask><g transform="translate(439.54946710039655 472.760309167306) rotate(0 77.5 16)"><text x="77.5" y="26" font-family="Helvetica, Segoe UI Emoji" font-size="28px" fill="#000000" text-anchor="middle" style="white-space: pre;" direction="ltr">SEQ = 6000</text></g><g stroke-linecap="round"><g transform="translate(222.87379820686272 504.8931204444981) rotate(0 296.9478754142735 -0.24752262371617917)"><path d="M-1.18 -0.38 C97.96 -0.58, 495.77 -0.32, 595.08 -0.27 M0.4 -1.62 C99.37 -1.73, 495.24 0.65, 594.12 1.13" stroke="#000000" stroke-width="4" fill="none"></path></g><g transform="translate(222.87379820686272 504.8931204444981) rotate(0 296.9478754142735 -0.24752262371617917)"><path d="M565.24 11.21 C574.34 7.59, 583.7 5.97, 593.17 1.99 M565.33 10.64 C574.15 8.7, 581.75 5.48, 594.59 1.64" stroke="#000000" stroke-width="4" fill="none"></path></g><g transform="translate(222.87379820686272 504.8931204444981) rotate(0 296.9478754142735 -0.24752262371617917)"><path d="M565.35 -9.31 C574.57 -6.4, 583.9 -1.49, 593.17 1.99 M565.44 -9.88 C574.22 -5.86, 581.78 -3.13, 594.59 1.64" stroke="#000000" stroke-width="4" fill="none"></path></g></g><mask></mask><g transform="translate(441.3133333105362 515.7050956755196) rotate(0 77.5 16)"><text x="77.5" y="26" font-family="Helvetica, Segoe UI Emoji" font-size="28px" fill="#000000" text-anchor="middle" style="white-space: pre;" direction="ltr">SEQ = 7000</text></g><g stroke-linecap="round"><g transform="translate(224.63766441700238 547.8379069527117) rotate(0 297.0161594847653 0.41109740544339957)"><path d="M-0.78 -0.74 C98.21 -0.99, 495.51 -0.65, 594.81 -0.43 M1.02 1.49 C99.74 1.92, 494.85 1.36, 593.71 0.88" stroke="#000000" stroke-width="4" fill="none"></path></g><g transform="translate(224.63766441700238 547.8379069527117) rotate(0 297.0161594847653 0.41109740544339957)"><path d="M564.32 10.75 C575.28 7.41, 587.56 5.18, 595.15 2.35 M565.25 10.7 C573.19 7.69, 580.04 5.88, 594.64 0.13" stroke="#000000" stroke-width="4" fill="none"></path></g><g transform="translate(224.63766441700238 547.8379069527117) rotate(0 297.0161594847653 0.41109740544339957)"><path d="M564.27 -9.77 C575.42 -5.43, 587.73 0.01, 595.15 2.35 M565.19 -9.82 C573.1 -7.54, 579.96 -4.06, 594.64 0.13" stroke="#000000" stroke-width="4" fill="none"></path></g></g><mask></mask><g transform="translate(334.17233110132895 10) rotate(0 185.5 16)"><text x="185.5" y="26" font-family="Helvetica, Segoe UI Emoji" font-size="28px" fill="#000000" text-anchor="middle" style="white-space: pre;" direction="ltr">ACK = 1000 , Window = 3000</text></g><g stroke-linecap="round"><g transform="translate(805.4032685168573 44.71090818316361) rotate(0 -292.7323629634389 -0.14287689395249004)"><path d="M-1.05 -0.04 C-98.73 -0.31, -487.67 -0.34, -585.18 -0.47 M0.6 -1.11 C-97.3 -0.71, -488.68 0.63, -586.06 0.82" stroke="#000000" stroke-width="4" fill="none"></path></g><g transform="translate(805.4032685168573 44.71090818316361) rotate(0 -292.7323629634389 -0.14287689395249004)"><path d="M-557.97 -9.29 C-569.1 -7.25, -580.21 -1.33, -585.5 -0.18 M-557.8 -10.43 C-567.15 -6.95, -576.81 -2.87, -585.57 1.3" stroke="#000000" stroke-width="4" fill="none"></path></g><g transform="translate(805.4032685168573 44.71090818316361) rotate(0 -292.7323629634389 -0.14287689395249004)"><path d="M-557.91 11.23 C-569.26 5.6, -580.4 3.86, -585.5 -0.18 M-557.75 10.09 C-567 6.81, -576.68 4.13, -585.57 1.3" stroke="#000000" stroke-width="4" fill="none"></path></g></g><mask></mask><g transform="translate(336.7597415695419 278.61655523832076) rotate(0 185.5 16)"><text x="185.5" y="26" font-family="Helvetica, Segoe UI Emoji" font-size="28px" fill="#000000" text-anchor="middle" style="white-space: pre;" direction="ltr">ACK = 4000 , Window = 3000</text></g><g stroke-linecap="round"><g transform="translate(807.9906789850703 313.32746342148437) rotate(0 -292.0872672570803 0.33491249439413195)"><path d="M-0.28 -0.69 C-98.13 -0.92, -488.29 -0.93, -585.95 -0.86 M1.78 1.57 C-95.77 1.41, -485.98 0.34, -583.57 0.22" stroke="#000000" stroke-width="4" fill="none"></path></g><g transform="translate(807.9906789850703 313.32746342148437) rotate(0 -292.0872672570803 0.33491249439413195)"><path d="M-556.5 -11.04 C-567.91 -7.53, -578.14 -1.43, -582.01 -0.82 M-555.32 -10.59 C-565.64 -5.66, -575.48 -2.94, -583.8 -0.77" stroke="#000000" stroke-width="4" fill="none"></path></g><g transform="translate(807.9906789850703 313.32746342148437) rotate(0 -292.0872672570803 0.33491249439413195)"><path d="M-556.55 9.48 C-568.03 4.88, -578.24 2.86, -582.01 -0.82 M-555.36 9.93 C-565.71 7.85, -575.54 3.55, -583.8 -0.77" stroke="#000000" stroke-width="4" fill="none"></path></g></g><mask></mask></svg>