<svg version="1.1" xmlns="http://www.w3.org/2000/svg" viewBox="0 0 1193.714425223214 479.5433591790911" width="1193.714425223214" height="479.5433591790911">
  <!-- svg-source:excalidraw -->
  
  <defs>
    <style class="style-fonts">
      @font-face {
        font-family: "Virgil";
        src: url("https://excalidraw.com/Virgil.woff2");
      }
      @font-face {
        font-family: "Cascadia";
        src: url("https://excalidraw.com/Cascadia.woff2");
      }
    </style>
  </defs>
  <rect x="0" y="0" width="1193.714425223214" height="479.5433591790911" fill="#ffffff"></rect><g stroke-linecap="round" transform="translate(170.4635426354787 265.8322921004857) rotate(0 107.20001220703125 40)"><path d="M-0.77 -1.09 C56.14 -1.22, 111.13 1.54, 212.92 -1.25 M-0.8 0.46 C67.09 -2.24, 134.21 -1.59, 214.35 0.39 M213.42 1.55 C213.55 23.08, 214.9 44.76, 212.65 79.74 M213.72 0.08 C215.57 22.85, 215.26 46.86, 215.09 80.81 M214.88 81.33 C139.18 79.4, 67.69 79.22, 1.22 80.84 M214.33 79.69 C133.46 80.09, 52.85 79.7, 0.02 80.76 M0.28 80.74 C1.75 54.36, -1.17 31.41, -1.41 0.76 M-0.96 79.19 C-0.88 55.26, 0.23 30.67, 0.51 -0.46" stroke="#000000" stroke-width="1" fill="none"></path></g><g stroke-linecap="round" transform="translate(542.8635670495412 263.03230430751694) rotate(0 107.20001220703125 40)"><path d="M-0.35 -1.15 C78.95 1.19, 156.92 3.25, 214.03 -0.06 M0.67 -0.51 C63.15 1.32, 124.13 1.1, 214.31 -0.51 M214.02 -0.37 C211.84 31.65, 214.4 58.47, 214.24 78.91 M213.72 -0.53 C213.39 17.74, 213.97 37.59, 213.72 80.39 M213.08 80.78 C132.7 79.24, 48.24 80.61, -1.75 78.94 M213.82 80.74 C131.54 81.75, 49.44 80.26, 0.26 79.8 M0.85 81.41 C-0.67 53.34, 0.25 29.09, -1.38 -0.68 M-0.61 79.9 C1.06 59.98, 0.74 40.13, -0.84 -0.92" stroke="#000000" stroke-width="1" fill="none"></path></g><g stroke-linecap="round" transform="translate(904.0635792565724 261.8322921004857) rotate(0 107.20001220703125 40)"><path d="M-0.32 -1.73 C51.61 -0.3, 107.19 0.35, 213.84 -1.53 M-0.01 0.41 C74.04 -0.96, 148.82 -0.29, 214.99 -0.35 M214.5 1.47 C214.92 17.6, 212.12 31.06, 212.71 80.38 M213.51 0.19 C213.48 16.29, 214.94 32.91, 215.03 80.05 M215.23 78.98 C168.74 78.87, 123.53 79.41, -0.06 78.79 M215 79.42 C133.47 79.15, 53.26 78.17, -0.23 80.51 M-0.44 80.91 C1.41 52.48, -0.68 25.2, 1.52 0.65 M-0.44 79.89 C-0.83 62.36, -0.88 43.5, -0.54 0.96" stroke="#000000" stroke-width="1" fill="none"></path></g><g transform="translate(222.66355484250994 282.8322921004857) rotate(0 55 23)"><text x="55" y="32" font-family="Virgil, Segoe UI Emoji" font-size="36px" fill="#000000" text-anchor="middle" style="white-space: pre;" direction="ltr">Switch</text></g><g transform="translate(595.0635792565724 280.03230430751694) rotate(0 55 23)"><text x="55" y="32" font-family="Virgil, Segoe UI Emoji" font-size="36px" fill="#000000" text-anchor="middle" style="white-space: pre;" direction="ltr">Switch</text></g><g transform="translate(980.7635914636037 278.8322921004857) rotate(0 30.5 23)"><text x="30.5" y="32" font-family="Virgil, Segoe UI Emoji" font-size="36px" fill="#000000" text-anchor="middle" style="white-space: pre;" direction="ltr">Hub</text></g><g stroke-linecap="round"><g transform="translate(384.0635182214162 304.2323012557591) rotate(0 80.03853228993717 -0.1876652602468596)"><path d="M0.27 -0.21 C26.94 -0.17, 134.21 1, 161.12 1.08 M-1.04 -1.36 C25.4 -1.7, 133.25 -0.99, 160.34 -0.48" stroke="#000000" stroke-width="1" fill="none"></path></g></g><mask></mask><g stroke-linecap="round"><g transform="translate(756.8635060143849 302.6322951522435) rotate(0 73.808649180457 -0.36477675135452614)"><path d="M-0.69 -0.1 C24 -0.4, 123.31 -0.81, 148.3 -0.7 M1.15 -1.2 C25.62 -0.85, 122.49 0.51, 147.1 0.47" stroke="#000000" stroke-width="1" fill="none"></path></g></g><mask></mask><g stroke-linecap="round"><g transform="translate(169.6635243249318 301.0322890487279) rotate(0 -49.08824185109697 -0.07144295888582519)"><path d="M0.42 -0.02 C-16.08 0.16, -81.41 0.8, -98.19 0.95 M-0.81 -1.07 C-17.46 -1.2, -82.42 -0.68, -98.6 -0.68" stroke="#000000" stroke-width="1" fill="none"></path></g></g><mask></mask><g stroke-linecap="round"><g transform="translate(960.8572387695312 260.40053255381224) rotate(0 -0.3130096010180523 -57.189534917569574)"><path d="M0.63 -0.97 C0.52 -20.07, -0.2 -94.62, -0.19 -113.7 M-0.5 1.13 C-0.83 -18.4, -1.37 -96.21, -1.23 -115.51" stroke="#000000" stroke-width="1" fill="none"></path></g></g><mask></mask><g stroke-linecap="round"><g transform="translate(1051.1428833007812 260.40053255381224) rotate(0 -0.006764967131744015 -56.759473524934464)"><path d="M-0.87 0.43 C-0.99 -18.55, 0.19 -94.83, 0.36 -113.94 M0.87 -0.4 C0.53 -19.22, -0.16 -93.98, -0.4 -112.83" stroke="#000000" stroke-width="1" fill="none"></path></g></g><mask></mask><g stroke-linecap="round"><g transform="translate(971.1428833007812 341.5434158545935) rotate(0 0.45811522134238203 46.2370253842231)"><path d="M0.77 0.28 C0.65 15.91, -0.56 77.64, -0.71 93.09 M-0.28 -0.62 C-0.01 14.71, 1.74 76, 1.62 91.24" stroke="#000000" stroke-width="1" fill="none"></path></g></g><mask></mask><g stroke-linecap="round"><g transform="translate(640.857195172991 343.8291388596158) rotate(0 -0.35715395305271613 41.35998708278069)"><path d="M0.31 -0.14 C0.3 13.66, 0.21 70.24, 0.22 83.97 M-0.98 -1.25 C-1.16 12.69, -0.74 68.1, -0.61 82.14" stroke="#000000" stroke-width="1" fill="none"></path></g></g><mask></mask><g stroke-linecap="round"><g transform="translate(596.2857491629464 261.5434158545935) rotate(0 -0.378570364778966 -50.67333357179804)"><path d="M0.9 -0.43 C0.66 -17.24, -0.2 -84.15, -0.47 -100.92 M-0.09 -1.7 C-0.61 -18.33, -1.37 -83.18, -1.66 -99.56" stroke="#000000" stroke-width="1" fill="none"></path></g></g><mask></mask><g stroke-linecap="round"><g transform="translate(690.0000435965402 262.68625555883455) rotate(0 0.10555958236932383 -50.74726576650781)"><path d="M0.41 0 C0.65 -16.92, 1.08 -84.54, 1.05 -101.5 M-0.84 -1.04 C-0.62 -17.84, 0.58 -83.77, 0.65 -100.45" stroke="#000000" stroke-width="1" fill="none"></path></g></g><mask></mask><g stroke-linecap="round"><g transform="translate(225.99997384207592 263.8290952630756) rotate(0 -0.41184256751083126 -42.88465966171319)"><path d="M0.03 0.12 C-0.06 -13.98, 0.55 -70.1, 0.63 -84.04 M-1.42 -0.86 C-1.71 -15.38, -0.23 -71.81, 0.01 -85.89" stroke="#000000" stroke-width="1" fill="none"></path></g></g><mask></mask><g stroke-linecap="round"><g transform="translate(219.14284842354914 348.4005412731202) rotate(0 -0.0980766334699581 41.83659166709651)"><path d="M0.39 -0.92 C0.67 13.14, 0.75 70.73, 0.6 84.59 M-0.87 1.21 C-0.6 14.94, 0.08 69.46, -0.04 83.08" stroke="#000000" stroke-width="1" fill="none"></path></g></g><mask></mask><g stroke-linecap="round"><g transform="translate(308.2856968470983 346.1148182680979) rotate(0 -0.281477975165501 39.73328296441048)"><path d="M-1.09 -0.52 C-1.03 12.9, -0.25 66.6, -0.08 79.99 M0.53 1.82 C0.48 14.98, -0.83 65.77, -1.07 78.46" stroke="#000000" stroke-width="1" fill="none"></path></g></g><mask></mask><g stroke-linecap="round" transform="translate(10.000000000000057 284.4005151151961) rotate(0 87.42856706891743 23.999993460518965)"><path d="M74.72 0.25 C87.51 -0.41, 104.45 0.51, 117.34 1.91 C130.23 3.31, 143.07 6.07, 152.07 8.65 C161.06 11.22, 167.95 14.01, 171.31 17.37 C174.67 20.73, 175.11 25.15, 172.22 28.79 C169.32 32.44, 162.49 36.45, 153.94 39.22 C145.39 41.99, 133.55 43.88, 120.92 45.44 C108.28 46.99, 91.86 48.68, 78.12 48.54 C64.38 48.39, 49.68 46.68, 38.48 44.56 C27.29 42.45, 17.43 39.08, 10.96 35.84 C4.49 32.6, 0.05 29.04, -0.34 25.12 C-0.74 21.2, 2.47 15.79, 8.57 12.33 C14.66 8.88, 24.83 6.49, 36.23 4.38 C47.62 2.27, 69.61 0.46, 76.96 -0.34 C84.31 -1.14, 80.2 -0.74, 80.33 -0.42 M96.39 1.28 C109.29 1.12, 123.63 2.09, 135.04 3.72 C146.45 5.34, 158.08 7.98, 164.84 11.04 C171.61 14.11, 175.63 18.02, 175.64 22.11 C175.65 26.21, 171.05 32.31, 164.91 35.63 C158.76 38.95, 149.34 40.16, 138.76 42.04 C128.19 43.93, 114.52 45.97, 101.45 46.95 C88.38 47.93, 73.44 49.16, 60.35 47.93 C47.25 46.69, 32.31 42.25, 22.86 39.54 C13.42 36.83, 7.35 35.26, 3.67 31.67 C0 28.08, -1.75 21.8, 0.79 17.97 C3.34 14.15, 10.17 11.38, 18.92 8.71 C27.67 6.05, 40.76 3.18, 53.28 1.97 C65.79 0.76, 86.87 1.82, 94 1.43 C101.13 1.04, 96.15 -0.58, 96.07 -0.38" stroke="#a61e4d" stroke-width="4" fill="none"></path></g><g stroke-linecap="round" transform="translate(379.71429007393976 277.8290887235945) rotate(0 87.42856706891746 23.999993460518965)"><path d="M85.9 -0.94 C98.89 -1.49, 115.48 -0.09, 127.78 1.69 C140.09 3.46, 151.92 6.52, 159.73 9.68 C167.53 12.85, 173.11 16.86, 174.63 20.7 C176.14 24.54, 173.39 29.03, 168.8 32.71 C164.21 36.39, 156.9 40.41, 147.08 42.78 C137.25 45.16, 123.01 46.27, 109.84 46.94 C96.67 47.62, 81.25 47.78, 68.06 46.83 C54.87 45.89, 40.92 43.67, 30.68 41.26 C20.45 38.86, 11.72 35.82, 6.67 32.41 C1.61 28.99, -0.94 24.36, 0.35 20.77 C1.65 17.19, 7 14.03, 14.44 10.9 C21.88 7.77, 32.02 3.88, 45.01 2 C58 0.13, 83.64 -0.08, 92.39 -0.34 C101.15 -0.6, 97.56 -0.03, 97.55 0.45 M118.7 2.43 C131.05 3.7, 144.58 6.42, 153.76 9.33 C162.95 12.25, 170.59 16.32, 173.8 19.92 C177 23.52, 176.77 27.35, 173.01 30.94 C169.25 34.53, 160.27 38.63, 151.22 41.45 C142.18 44.28, 131.01 47.05, 118.71 47.87 C106.42 48.69, 91.22 47.24, 77.47 46.4 C63.72 45.55, 47.71 44.46, 36.23 42.8 C24.75 41.13, 14.5 39.64, 8.61 36.38 C2.73 33.12, 0.52 27.18, 0.91 23.22 C1.31 19.25, 4.71 15.99, 10.97 12.59 C17.23 9.2, 27.5 4.83, 38.49 2.85 C49.49 0.87, 63.39 1.14, 76.93 0.71 C90.48 0.28, 112.76 -0.03, 119.78 0.29 C126.81 0.6, 119.66 1.77, 119.06 2.61" stroke="#a61e4d" stroke-width="4" fill="none"></path></g><g stroke-linecap="round" transform="translate(189.42858014787953 139.257671051301) rotate(0 32.57141113281244 68.57142857142856)"><path d="M29.8 0.2 C35.02 -1.83, 41.47 2.24, 46.31 6.96 C51.14 11.68, 55.63 19.53, 58.82 28.52 C62.02 37.5, 65.02 49.42, 65.45 60.86 C65.88 72.29, 63.86 86.4, 61.41 97.13 C58.95 107.86, 54.9 118.67, 50.72 125.25 C46.53 131.83, 41.68 135.6, 36.31 136.61 C30.95 137.62, 23.54 135.87, 18.54 131.3 C13.55 126.74, 9.55 118.62, 6.32 109.21 C3.1 99.79, -0.19 86.38, -0.78 74.81 C-1.37 63.24, 0.41 50.28, 2.78 39.8 C5.15 29.31, 8.34 18.48, 13.43 11.9 C18.52 5.32, 29.14 1.86, 33.29 0.31 C37.45 -1.25, 38.18 1.6, 38.34 2.58 M48.13 6.36 C52.62 10.1, 55.84 20.69, 58.56 30.52 C61.28 40.34, 63.81 53.84, 64.46 65.29 C65.11 76.74, 64.73 89.25, 62.46 99.23 C60.19 109.21, 55.57 118.84, 50.83 125.15 C46.09 131.45, 39.79 136.59, 34.02 137.06 C28.24 137.52, 21.04 133.12, 16.17 127.94 C11.31 122.76, 7.35 115.31, 4.83 105.96 C2.3 96.61, 1.28 83.57, 1.02 71.82 C0.75 60.07, 0.68 45.84, 3.24 35.46 C5.81 25.08, 11.96 15.22, 16.41 9.54 C20.86 3.87, 24.53 1.82, 29.95 1.41 C35.37 1, 45.87 5.79, 48.94 7.1 C52.01 8.41, 48.82 7.99, 48.38 9.25" stroke="#a61e4d" stroke-width="4" fill="none"></path></g><g stroke-linecap="round" transform="translate(179.7143118722098 331.82908218411353) rotate(0 32.57141113281244 68.57142857142856)"><path d="M41.92 3.52 C47.18 5.31, 52.92 12.3, 56.47 20.3 C60.02 28.31, 62.08 40.34, 63.23 51.57 C64.38 62.79, 64.64 76.67, 63.39 87.66 C62.14 98.65, 59.49 109.72, 55.72 117.5 C51.95 125.28, 46.15 131.55, 40.77 134.36 C35.39 137.17, 28.87 137.59, 23.43 134.35 C17.98 131.12, 11.89 123.14, 8.11 114.94 C4.33 106.74, 1.77 96.05, 0.74 85.13 C-0.28 74.22, 0.47 60.65, 1.98 49.46 C3.48 38.27, 5.83 26.06, 9.79 18.01 C13.76 9.95, 19.88 2.99, 25.77 1.15 C31.66 -0.69, 41.03 5.27, 45.14 6.95 C49.25 8.63, 50.4 10.31, 50.43 11.23 M34 -0.56 C39.12 -0.99, 46.34 4.94, 51.2 11.5 C56.06 18.05, 61.09 28.51, 63.15 38.76 C65.22 49.02, 64.01 61.92, 63.59 73.05 C63.18 84.17, 63.58 95.85, 60.67 105.51 C57.76 115.17, 51.02 125.95, 46.11 131.01 C41.21 136.06, 36.43 136.8, 31.25 135.83 C26.06 134.85, 19.52 131.14, 15.01 125.19 C10.5 119.23, 6.82 110.23, 4.18 100.07 C1.55 89.91, -1.06 75.65, -0.81 64.24 C-0.56 52.83, 2.51 41.05, 5.69 31.62 C8.88 22.19, 13.68 13.06, 18.28 7.66 C22.88 2.26, 30.4 0.21, 33.3 -0.78 C36.2 -1.77, 35.35 0.6, 35.66 1.7" stroke="#a61e4d" stroke-width="4" fill="none"></path></g><g stroke-linecap="round" transform="translate(270.2857317243304 328.68620760264037) rotate(0 32.57141113281244 68.57142857142856)"><path d="M16.36 7.61 C20.79 1.57, 28.74 0.08, 34.17 0.58 C39.6 1.08, 44.45 4.6, 48.92 10.61 C53.39 16.62, 58.17 26.74, 61 36.65 C63.83 46.56, 66.03 58.71, 65.92 70.06 C65.82 81.41, 63.25 94.94, 60.39 104.77 C57.53 114.6, 53.51 123.8, 48.77 129.04 C44.04 134.27, 37.64 136.42, 31.98 136.17 C26.33 135.92, 19.49 133.33, 14.82 127.55 C10.16 121.78, 6.61 111.8, 4.01 101.52 C1.41 91.24, -1.02 77.4, -0.75 65.88 C-0.49 54.36, 1.68 42.92, 5.6 32.38 C9.53 21.84, 18.95 7.7, 22.81 2.65 C26.68 -2.39, 28.83 1.02, 28.79 2.11 M28.12 -0.3 C32.95 -2.39, 39.79 -0.38, 45.07 4.68 C50.36 9.73, 56.53 20.51, 59.82 30.04 C63.1 39.58, 64.42 50.84, 64.78 61.89 C65.15 72.95, 64.14 85.96, 61.99 96.39 C59.84 106.82, 56.37 117.83, 51.87 124.46 C47.38 131.09, 40.7 134.91, 35.02 136.17 C29.34 137.42, 22.44 136.75, 17.81 131.97 C13.17 127.2, 10.01 117.09, 7.21 107.5 C4.41 97.9, 1.58 85.71, 1.02 74.4 C0.45 63.08, 1.49 49.96, 3.82 39.59 C6.15 29.23, 10.5 18.83, 15.01 12.21 C19.52 5.59, 28.51 1.47, 30.9 -0.12 C33.28 -1.72, 29.61 1.69, 29.34 2.66" stroke="#a61e4d" stroke-width="4" fill="none"></path></g><g stroke-linecap="round" transform="translate(562.857142857143 138.1148095487899) rotate(0 32.57141113281244 68.57142857142856)"><path d="M20.22 5.34 C24.81 0.32, 30.95 -0.15, 36.36 1.22 C41.78 2.59, 48.44 6.67, 52.72 13.57 C57 20.48, 59.95 32.02, 62.04 42.64 C64.13 53.27, 66.02 66.02, 65.24 77.31 C64.47 88.59, 60.91 101.36, 57.39 110.34 C53.88 119.31, 48.95 126.64, 44.15 131.15 C39.34 135.66, 33.85 138.81, 28.56 137.38 C23.27 135.96, 16.79 129.86, 12.4 122.62 C8.01 115.38, 4.2 104.52, 2.22 93.94 C0.25 83.36, -0.15 70.48, 0.55 59.15 C1.25 47.82, 2.49 35.39, 6.42 25.96 C10.34 16.52, 20.08 6.71, 24.1 2.55 C28.13 -1.61, 30.19 0.08, 30.56 0.99 M41.62 4.55 C46.71 6.56, 52.08 13.78, 56.02 21.84 C59.97 29.91, 64.27 41.86, 65.3 52.94 C66.34 64.01, 64.13 77.45, 62.23 88.29 C60.33 99.13, 57.69 110.24, 53.91 117.99 C50.12 125.73, 44.82 131.91, 39.51 134.74 C34.19 137.56, 27.11 138.35, 22.02 134.94 C16.92 131.54, 12.7 122.69, 8.93 114.31 C5.17 105.93, 0.9 95.55, -0.57 84.67 C-2.03 73.79, -1.61 59.94, 0.14 49.05 C1.89 38.15, 5.82 27.14, 9.91 19.32 C14.01 11.49, 19.43 4.57, 24.7 2.1 C29.98 -0.37, 38.83 4.23, 41.54 4.51 C44.25 4.8, 41.09 3.12, 40.96 3.8" stroke="#a61e4d" stroke-width="4" fill="none"></path></g><g stroke-linecap="round" transform="translate(655.7142857142857 140.97193060766259) rotate(0 32.57141113281244 68.57142857142856)"><path d="M29.96 0.4 C35.09 -1.39, 42.08 1.66, 46.95 6.49 C51.81 11.33, 56.03 19.73, 59.16 29.42 C62.28 39.1, 65.38 52.97, 65.72 64.61 C66.06 76.25, 63.78 89.02, 61.2 99.26 C58.61 109.5, 54.68 119.62, 50.21 126.05 C45.75 132.49, 39.8 137.05, 34.41 137.9 C29.02 138.75, 22.74 136.35, 17.88 131.16 C13.02 125.98, 8.11 116.46, 5.25 106.77 C2.39 97.08, 1.21 84.45, 0.72 73 C0.24 61.55, 0.15 48.4, 2.34 38.08 C4.53 27.76, 8.07 17.4, 13.85 11.09 C19.64 4.78, 32.18 1.06, 37.05 0.24 C41.92 -0.58, 43.11 5.06, 43.09 6.17 M18.9 6.57 C23.34 0.98, 30.38 -1.22, 35.74 -0.51 C41.1 0.21, 46.47 4.59, 51.05 10.86 C55.63 17.14, 60.98 26.87, 63.22 37.14 C65.46 47.42, 65.26 60.94, 64.5 72.52 C63.73 84.1, 61.62 96.98, 58.65 106.63 C55.69 116.28, 51.24 125.3, 46.69 130.43 C42.14 135.55, 36.86 138.2, 31.35 137.39 C25.84 136.57, 18.43 131.8, 13.62 125.52 C8.81 119.25, 4.9 109.78, 2.5 99.74 C0.1 89.7, -1.09 76.79, -0.76 65.3 C-0.43 53.8, 1.28 40.68, 4.48 30.78 C7.69 20.87, 16.2 9.5, 18.46 5.87 C20.72 2.23, 17.74 7.51, 18.02 8.98" stroke="#a61e4d" stroke-width="4" fill="none"></path></g><g stroke-linecap="round" transform="translate(599.1428920200892 326.68621632194834) rotate(0 32.57141113281244 68.57142857142856)"><path d="M22.6 3.23 C27.51 -0.74, 34.63 0, 39.98 2.68 C45.33 5.37, 50.77 11.38, 54.68 19.33 C58.58 27.28, 61.93 39.52, 63.4 50.39 C64.88 61.25, 64.78 73.7, 63.5 84.52 C62.23 95.35, 59.4 107.06, 55.76 115.34 C52.12 123.63, 46.79 130.81, 41.67 134.21 C36.55 137.61, 30.29 138.54, 25.06 135.76 C19.83 132.97, 14.26 125.6, 10.29 117.49 C6.32 109.39, 2.71 98.11, 1.24 87.14 C-0.23 76.17, 0.03 62.79, 1.47 51.68 C2.9 40.57, 5.36 28.93, 9.83 20.46 C14.3 11.99, 24.57 4.09, 28.27 0.86 C31.96 -2.37, 31.86 -0.06, 31.98 1.1 M47.97 8.65 C52.72 12.84, 58.57 21.39, 61.32 31.24 C64.07 41.09, 64.37 55.95, 64.47 67.75 C64.57 79.55, 64.2 92.03, 61.93 102.06 C59.66 112.09, 55.4 121.88, 50.86 127.93 C46.32 133.98, 40.38 138.39, 34.68 138.37 C28.98 138.34, 21.82 133.57, 16.67 127.76 C11.51 121.94, 6.57 113, 3.74 103.47 C0.91 93.94, -0.23 82, -0.33 70.6 C-0.43 59.2, 0.29 45.08, 3.15 35.04 C6.02 25.01, 12.11 16.36, 16.85 10.41 C21.59 4.46, 26.3 -0.09, 31.6 -0.66 C36.91 -1.22, 46.24 5.21, 48.67 7.01 C51.11 8.81, 46.62 8.81, 46.21 10.14" stroke="#a61e4d" stroke-width="4" fill="none"></path></g><g transform="translate(874.0000697544642 250.1148226277518) rotate(0 87.42863246372758 42.85712105887282)" stroke="none"><path fill="#a61e4d" d="M -2.85,-3.48 Q -2.85,-3.48 0.91,-6.25 4.68,-9.01 7.91,-11.71 11.13,-14.40 13.76,-16.91 16.40,-19.43 18.72,-22.27 21.05,-25.12 22.20,-27.07 23.35,-29.03 24.95,-33.04 26.55,-37.05 27.51,-39.36 28.46,-41.68 28.74,-44.21 29.02,-46.74 30.26,-49.68 31.50,-52.61 32.62,-56.77 33.75,-60.93 34.42,-63.66 35.10,-66.39 35.72,-70.46 36.34,-74.52 36.86,-76.62 37.38,-78.71 39.26,-81.82 41.14,-84.92 42.94,-89.25 44.73,-93.58 46.08,-97.44 47.42,-101.29 48.06,-104.53 48.70,-107.76 49.92,-110.07 51.14,-112.39 52.78,-115.61 54.42,-118.83 56.32,-121.49 58.22,-124.16 60.40,-126.52 62.58,-128.89 64.25,-130.68 65.93,-132.47 68.77,-133.95 71.61,-135.42 74.36,-135.68 77.10,-135.93 79.74,-135.96 82.39,-135.99 85.53,-135.38 88.66,-134.77 90.39,-133.51 92.12,-132.24 94.75,-130.77 97.39,-129.30 99.09,-127.76 100.79,-126.22 102.84,-125.55 104.89,-124.88 106.73,-123.59 108.56,-122.30 111.41,-120.09 114.27,-117.88 115.65,-116.23 117.03,-114.58 118.74,-112.73 120.46,-110.89 121.74,-108.21 123.03,-105.53 125.65,-102.44 128.27,-99.35 129.82,-96.06 131.38,-92.76 132.15,-90.20 132.93,-87.65 134.74,-82.80 136.55,-77.95 137.08,-75.67 137.61,-73.39 138.38,-71.16 139.15,-68.94 139.81,-66.53 140.48,-64.13 141.21,-60.90 141.94,-57.66 143.57,-54.76 145.20,-51.85 146.42,-49.93 147.65,-48.00 149.37,-45.68 151.10,-43.36 151.27,-42.59 151.44,-41.82 151.42,-41.04 151.40,-40.25 151.19,-39.49 150.98,-38.73 150.60,-38.05 150.21,-37.36 149.68,-36.79 149.14,-36.21 148.48,-35.78 147.82,-35.35 147.08,-35.09 146.34,-34.83 145.56,-34.76 144.77,-34.68 144.00,-34.80 143.22,-34.91 142.49,-35.21 141.76,-35.51 141.13,-35.97 140.49,-36.44 139.99,-37.04 139.48,-37.64 139.13,-38.35 138.79,-39.05 138.66,-41.86 138.54,-44.67 138.66,-47.25 138.78,-49.83 139.57,-55.06 140.35,-60.28 140.85,-64.64 141.34,-68.99 141.50,-72.50 141.66,-76.02 142.91,-80.31 144.15,-84.60 144.90,-87.79 145.64,-90.99 146.29,-94.27 146.94,-97.56 148.32,-101.02 149.69,-104.48 150.42,-106.98 151.15,-109.49 152.17,-112.12 153.18,-114.74 154.70,-117.40 156.22,-120.07 157.72,-123.35 159.22,-126.64 160.69,-128.50 162.16,-130.36 164.05,-132.60 165.94,-134.85 169.32,-136.81 172.71,-138.78 175.64,-139.20 178.57,-139.63 181.31,-139.79 184.05,-139.96 187.19,-139.15 190.32,-138.33 193.37,-136.78 196.43,-135.22 199.03,-133.98 201.64,-132.73 204.42,-131.00 207.20,-129.27 209.47,-128.00 211.74,-126.72 214.25,-124.44 216.77,-122.16 218.33,-120.72 219.89,-119.27 222.82,-116.26 225.74,-113.25 228.02,-109.45 230.30,-105.66 232.34,-102.41 234.37,-99.16 236.01,-96.00 237.65,-92.83 239.19,-89.17 240.72,-85.51 243.56,-81.42 246.40,-77.32 247.77,-75.67 249.13,-74.02 250.52,-71.27 251.91,-68.53 254.24,-64.40 256.56,-60.27 257.79,-58.31 259.01,-56.34 260.06,-54.21 261.11,-52.08 262.88,-50.05 264.64,-48.03 265.94,-45.47 267.24,-42.90 268.64,-41.26 270.04,-39.63 271.31,-36.95 272.58,-34.28 276.36,-33.73 280.14,-33.17 283.55,-31.54 286.96,-29.91 289.16,-28.00 291.37,-26.09 293.39,-23.57 295.41,-21.05 297.91,-19.60 300.42,-18.14 302.31,-16.77 304.20,-15.40 305.84,-12.50 307.48,-9.60 309.04,-6.72 310.60,-3.85 311.65,-0.76 312.71,2.31 314.00,6.90 315.29,11.49 315.48,13.73 315.66,15.97 315.58,19.30 315.50,22.64 315.37,25.99 315.23,29.34 315.21,32.07 315.19,34.80 315.19,37.28 315.20,39.76 314.43,44.73 313.65,49.70 311.88,52.02 310.12,54.34 310.09,57.46 310.06,60.59 309.59,62.91 309.13,65.23 308.06,67.57 307.00,69.90 304.57,72.58 302.13,75.25 299.55,77.48 296.97,79.72 295.07,81.30 293.17,82.89 290.19,85.36 287.21,87.83 285.67,89.57 284.13,91.30 282.65,93.59 281.17,95.87 277.04,98.79 272.90,101.71 268.96,103.93 265.02,106.15 262.55,107.66 260.07,109.17 256.17,111.13 252.26,113.10 250.04,114.09 247.82,115.07 244.25,117.88 240.68,120.68 235.42,123.37 230.16,126.06 225.29,127.22 220.42,128.38 216.40,129.13 212.38,129.88 208.69,130.52 205.00,131.15 202.61,131.85 200.22,132.55 197.20,132.93 194.17,133.32 190.92,133.72 187.68,134.12 184.89,134.97 182.11,135.82 180.92,138.43 179.72,141.05 177.88,143.90 176.03,146.75 174.45,148.99 172.88,151.24 171.87,153.29 170.87,155.34 169.97,157.56 169.07,159.78 168.04,162.25 167.01,164.71 166.88,167.18 166.76,169.65 166.33,171.82 165.91,173.99 165.35,177.56 164.79,181.13 163.67,185.73 162.55,190.34 161.45,192.64 160.35,194.94 158.58,197.37 156.82,199.79 154.42,203.21 152.02,206.62 149.89,208.93 147.77,211.23 145.10,213.70 142.43,216.17 139.22,218.21 136.00,220.24 134.12,221.41 132.23,222.58 129.82,223.37 127.40,224.17 123.25,224.28 119.10,224.39 116.22,223.31 113.34,222.23 111.17,221.83 109.01,221.43 104.99,220.37 100.96,219.31 98.31,218.23 95.65,217.15 92.07,216.21 88.49,215.28 86.38,214.49 84.27,213.70 81.18,212.58 78.08,211.46 75.06,210.38 72.04,209.30 67.84,207.64 63.63,205.99 60.87,204.38 58.10,202.77 54.82,200.24 51.55,197.72 49.73,196.49 47.92,195.26 45.95,193.00 43.98,190.75 42.50,187.36 41.02,183.96 39.70,179.67 38.37,175.37 37.38,172.14 36.40,168.90 35.64,165.30 34.87,161.69 34.71,159.08 34.56,156.46 34.49,154.31 34.43,152.16 34.41,149.56 34.38,146.96 34.84,144.02 35.31,141.08 34.75,138.94 34.19,136.81 31.13,135.66 28.07,134.51 25.69,133.64 23.30,132.77 20.57,131.63 17.84,130.50 14.63,128.83 11.42,127.17 8.57,126.24 5.71,125.30 0.96,123.21 -3.79,121.13 -7.53,119.16 -11.27,117.19 -13.98,116.25 -16.69,115.30 -20.47,113.70 -24.26,112.09 -27.56,110.81 -30.85,109.54 -34.27,108.69 -37.69,107.84 -41.06,106.81 -44.43,105.78 -47.89,105.03 -51.35,104.27 -53.76,103.73 -56.16,103.19 -59.17,103.15 -62.18,103.11 -66.11,103.24 -70.03,103.36 -74.02,103.49 -78.01,103.62 -80.75,103.76 -83.48,103.91 -86.65,104.01 -89.83,104.11 -92.14,103.77 -94.45,103.43 -96.93,102.82 -99.41,102.22 -101.87,101.70 -104.34,101.18 -106.75,100.10 -109.15,99.02 -111.94,96.77 -114.73,94.52 -118.28,91.65 -121.83,88.77 -122.92,86.66 -124.00,84.55 -125.50,82.01 -126.99,79.46 -128.40,77.66 -129.81,75.86 -131.39,73.52 -132.97,71.19 -135.01,68.94 -137.06,66.69 -138.42,63.46 -139.78,60.23 -140.53,56.13 -141.28,52.03 -141.34,48.82 -141.41,45.60 -140.03,42.42 -138.65,39.25 -136.25,35.82 -133.84,32.39 -132.20,30.95 -130.55,29.51 -128.05,27.97 -125.55,26.42 -122.43,24.54 -119.31,22.66 -115.37,20.88 -111.44,19.09 -107.47,18.43 -103.50,17.77 -98.46,17.36 -93.42,16.94 -89.58,16.15 -85.74,15.35 -83.10,15.10 -80.46,14.85 -77.29,14.61 -74.11,14.38 -71.18,13.99 -68.25,13.60 -66.05,12.86 -63.86,12.12 -60.90,11.41 -57.94,10.69 -54.39,10.41 -50.84,10.12 -47.73,10.03 -44.62,9.93 -42.30,9.56 -39.99,9.18 -36.41,8.10 -32.82,7.03 -30.67,6.42 -28.51,5.81 -24.90,5.01 -21.29,4.22 -17.64,2.30 -14.00,0.38 -13.08,0.11 -12.16,-0.15 -11.20,-0.11 -10.25,-0.08 -9.35,0.25 -8.46,0.59 -7.72,1.20 -6.98,1.81 -6.47,2.62 -5.97,3.43 -5.74,4.36 -5.52,5.29 -5.61,6.24 -5.70,7.20 -6.09,8.07 -6.47,8.95 -7.12,9.65 -7.77,10.36 -8.61,10.82 -9.44,11.28 -10.38,11.45 -11.33,11.62 -12.27,11.48 -13.22,11.34 -14.07,10.91 -14.93,10.48 -15.59,9.79 -16.26,9.11 -16.68,8.25 -17.10,7.38 -17.22,6.44 -17.33,5.49 -17.14,4.55 -16.95,3.61 -16.47,2.78 -15.99,1.95 -15.27,1.32 -14.56,0.69 -13.67,0.32 -12.79,-0.04 -11.83,-0.10 -10.88,-0.17 -9.95,0.06 -9.03,0.30 -8.23,0.83 -7.43,1.35 -6.83,2.10 -6.24,2.85 -5.92,3.76 -5.60,4.66 -5.59,5.61 -5.57,6.57 -5.86,7.48 -6.15,8.39 -6.72,9.17 -7.29,9.94 -8.07,10.49 -8.85,11.04 -8.85,11.04 -8.85,11.04 -13.84,13.18 -18.83,15.32 -22.27,15.86 -25.72,16.40 -29.79,17.41 -33.86,18.42 -36.17,18.90 -38.48,19.37 -41.33,19.76 -44.18,20.15 -47.02,20.30 -49.86,20.46 -52.59,20.77 -55.32,21.08 -57.86,21.76 -60.40,22.44 -63.40,23.45 -66.41,24.46 -69.53,25.08 -72.65,25.71 -77.86,26.48 -83.07,27.25 -85.38,27.79 -87.68,28.33 -90.16,28.79 -92.64,29.25 -94.96,29.46 -97.28,29.67 -101.10,30.21 -104.93,30.75 -107.46,31.43 -110.00,32.12 -111.87,33.22 -113.73,34.32 -116.13,35.75 -118.53,37.17 -120.34,38.44 -122.16,39.71 -123.84,41.32 -125.52,42.92 -126.87,44.63 -128.21,46.33 -128.08,48.46 -127.96,50.59 -127.45,53.22 -126.94,55.85 -126.44,58.06 -125.95,60.27 -123.41,63.30 -120.88,66.33 -118.55,69.28 -116.22,72.23 -114.11,75.79 -112.00,79.35 -110.73,81.25 -109.46,83.15 -107.30,84.76 -105.14,86.37 -102.72,87.66 -100.31,88.95 -97.31,89.97 -94.31,90.99 -92.05,91.72 -89.79,92.45 -86.63,92.55 -83.48,92.65 -80.74,92.80 -77.99,92.96 -73.96,93.11 -69.92,93.26 -67.75,93.37 -65.57,93.47 -61.90,93.90 -58.23,94.33 -56.04,94.82 -53.85,95.30 -51.83,96.07 -49.80,96.84 -45.93,97.61 -42.07,98.38 -39.01,99.40 -35.95,100.42 -31.99,101.31 -28.02,102.20 -24.77,103.46 -21.51,104.71 -17.61,105.97 -13.71,107.24 -10.70,108.41 -7.69,109.57 -4.16,111.03 -0.64,112.49 3.97,113.82 8.58,115.15 12.31,116.07 16.03,116.99 19.03,118.15 22.04,119.31 24.64,120.18 27.24,121.05 29.68,121.79 32.12,122.54 35.66,123.43 39.20,124.32 41.40,125.62 43.61,126.91 45.55,129.61 47.50,132.32 48.62,137.36 49.74,142.39 48.81,145.90 47.87,149.41 47.84,152.80 47.81,156.19 47.81,158.92 47.82,161.64 48.38,164.06 48.93,166.48 49.69,169.13 50.44,171.78 51.09,173.81 51.73,175.84 52.64,178.74 53.55,181.63 55.30,184.46 57.05,187.29 60.42,189.73 63.79,192.17 68.09,194.11 72.40,196.05 76.02,197.37 79.65,198.69 82.76,199.70 85.88,200.71 88.79,201.99 91.71,203.26 94.01,204.09 96.30,204.92 99.87,206.17 103.44,207.43 106.42,207.97 109.39,208.51 112.11,209.40 114.82,210.30 117.61,211.31 120.41,212.33 122.51,212.84 124.61,213.34 127.39,212.28 130.17,211.22 132.29,209.80 134.41,208.38 136.58,205.81 138.75,203.25 140.26,201.44 141.77,199.63 142.97,197.85 144.17,196.07 146.48,192.84 148.78,189.62 150.12,186.63 151.46,183.64 151.93,179.44 152.41,175.24 152.88,172.21 153.36,169.18 153.60,166.45 153.84,163.72 154.94,160.12 156.05,156.52 157.17,154.26 158.29,152.00 159.55,149.65 160.81,147.30 161.85,145.31 162.89,143.33 164.67,141.14 166.46,138.96 168.37,136.39 170.28,133.82 172.72,130.43 175.16,127.05 177.80,125.85 180.43,124.65 183.90,124.33 187.37,124.02 190.32,124.09 193.26,124.16 195.66,124.01 198.05,123.86 200.69,123.30 203.33,122.73 206.82,121.95 210.32,121.16 213.92,120.10 217.52,119.05 221.32,117.51 225.12,115.97 227.89,114.33 230.66,112.68 234.71,109.83 238.76,106.97 242.47,104.66 246.19,102.35 248.69,100.82 251.19,99.30 253.53,98.26 255.87,97.22 259.31,95.35 262.75,93.48 265.99,91.50 269.22,89.53 271.28,86.85 273.34,84.18 274.87,82.18 276.40,80.18 279.36,78.02 282.32,75.85 285.05,73.52 287.78,71.18 289.65,69.23 291.53,67.28 294.28,65.33 297.04,63.38 297.78,60.18 298.51,56.97 298.90,54.40 299.29,51.83 301.21,48.99 303.14,46.15 303.67,42.97 304.20,39.78 304.20,37.32 304.20,34.85 304.15,32.14 304.10,29.43 303.91,26.16 303.72,22.89 303.50,19.92 303.28,16.96 303.00,13.68 302.71,10.40 301.62,8.15 300.54,5.91 299.72,2.38 298.91,-1.14 297.73,-3.64 296.56,-6.15 293.53,-8.04 290.49,-9.93 288.39,-11.44 286.30,-12.95 283.75,-15.73 281.20,-18.50 278.19,-19.92 275.19,-21.34 271.93,-22.58 268.68,-23.82 266.07,-25.00 263.46,-26.18 262.05,-28.04 260.64,-29.90 259.71,-32.21 258.77,-34.51 257.21,-37.05 255.65,-39.58 254.38,-41.43 253.10,-43.27 251.16,-46.74 249.22,-50.20 247.90,-52.28 246.58,-54.36 245.04,-56.79 243.51,-59.23 241.70,-62.77 239.90,-66.32 237.03,-69.99 234.15,-73.66 231.91,-77.07 229.68,-80.49 228.66,-82.71 227.63,-84.93 226.54,-87.85 225.45,-90.78 224.27,-93.45 223.09,-96.13 221.45,-98.33 219.82,-100.54 218.10,-103.61 216.39,-106.67 214.31,-108.98 212.22,-111.29 209.30,-114.19 206.39,-117.09 203.92,-118.40 201.45,-119.70 199.26,-120.96 197.07,-122.22 194.16,-123.36 191.25,-124.50 187.62,-125.97 183.99,-127.44 181.59,-127.53 179.20,-127.62 176.53,-127.38 173.86,-127.14 171.93,-125.33 170.00,-123.53 168.21,-121.55 166.41,-119.58 165.28,-117.43 164.14,-115.27 162.82,-113.24 161.50,-111.21 160.46,-108.99 159.42,-106.76 158.42,-104.03 157.43,-101.30 156.27,-98.62 155.12,-95.94 154.47,-92.51 153.82,-89.08 153.05,-85.76 152.28,-82.44 151.50,-79.12 150.72,-75.80 150.76,-72.24 150.79,-68.68 151.00,-64.12 151.21,-59.56 151.32,-54.64 151.42,-49.72 151.26,-46.54 151.10,-43.36 151.27,-42.59 151.44,-41.82 151.42,-41.04 151.40,-40.25 151.19,-39.49 150.98,-38.73 150.60,-38.05 150.22,-37.36 149.68,-36.79 149.14,-36.21 148.48,-35.78 147.83,-35.35 147.08,-35.09 146.34,-34.83 145.56,-34.76 144.78,-34.68 144.00,-34.80 143.22,-34.91 142.49,-35.21 141.76,-35.51 141.13,-35.97 140.49,-36.44 139.99,-37.04 139.48,-37.64 139.13,-38.35 138.79,-39.05 138.19,-39.62 137.59,-40.20 136.32,-42.01 135.05,-43.82 133.88,-46.49 132.71,-49.17 131.47,-51.30 130.22,-53.43 129.27,-58.23 128.31,-63.04 127.08,-66.77 125.86,-70.50 124.98,-74.29 124.10,-78.09 122.48,-80.88 120.87,-83.67 120.16,-85.69 119.45,-87.70 117.57,-90.37 115.69,-93.04 113.78,-95.22 111.86,-97.40 110.35,-100.42 108.84,-103.44 107.08,-105.54 105.32,-107.64 102.83,-109.46 100.34,-111.28 98.43,-112.42 96.53,-113.56 92.68,-115.80 88.83,-118.04 86.45,-120.16 84.08,-122.29 81.83,-122.27 79.59,-122.25 77.46,-122.64 75.32,-123.02 73.25,-120.91 71.18,-118.81 69.60,-117.35 68.02,-115.90 66.74,-114.16 65.45,-112.41 64.01,-110.74 62.57,-109.07 61.12,-106.77 59.66,-104.47 58.80,-101.21 57.94,-97.95 57.13,-95.54 56.33,-93.12 55.35,-90.92 54.38,-88.72 53.31,-86.59 52.24,-84.45 51.27,-81.86 50.31,-79.26 49.12,-77.47 47.93,-75.67 46.93,-72.01 45.94,-68.34 45.53,-66.22 45.13,-64.10 44.43,-60.80 43.73,-57.49 42.95,-55.28 42.16,-53.07 40.56,-49.12 38.96,-45.17 37.90,-41.55 36.84,-37.93 34.53,-33.70 32.21,-29.47 30.97,-27.04 29.73,-24.61 28.15,-22.65 26.56,-20.70 23.99,-17.44 21.43,-14.18 18.73,-11.60 16.04,-9.02 12.90,-5.91 9.76,-2.80 6.31,0.33 2.85,3.48 2.39,3.77 1.93,4.06 1.42,4.24 0.90,4.41 0.36,4.45 -0.17,4.50 -0.71,4.41 -1.24,4.32 -1.74,4.11 -2.24,3.90 -2.68,3.57 -3.11,3.25 -3.46,2.83 -3.80,2.41 -4.03,1.92 -4.27,1.43 -4.38,0.89 -4.49,0.36 -4.46,-0.17 -4.44,-0.71 -4.29,-1.24 -4.14,-1.76 -3.87,-2.23 -3.60,-2.70 -3.22,-3.09 -2.85,-3.48 -2.85,-3.48 L -2.85,-3.48 Z"></path></g><g transform="translate(864.957501739166 254.7760029897477) rotate(0 2.416260028767283 -1.035540012328795)" stroke="none"><path fill="#a61e4d" d="M -0.56,-4.73 Q -0.56,-4.73 0.40,-4.95 1.38,-5.16 2.10,-5.90 2.83,-6.63 3.61,-6.83 4.39,-7.03 5.20,-6.97 6.00,-6.91 6.74,-6.59 7.48,-6.28 8.09,-5.75 8.69,-5.21 9.09,-4.51 9.49,-3.81 9.65,-3.02 9.81,-2.23 9.70,-1.43 9.60,-0.63 9.25,0.08 8.89,0.80 8.33,1.38 7.76,1.95 7.04,2.31 6.32,2.68 5.52,2.79 4.72,2.90 3.93,2.76 3.14,2.61 2.43,2.22 1.73,1.83 1.19,1.23 0.65,0.63 0.32,-0.10 0.00,-0.83 -0.06,-1.64 -0.13,-2.44 0.05,-3.22 0.24,-4.01 0.67,-4.69 1.10,-5.37 1.72,-5.88 2.35,-6.39 3.10,-6.67 3.86,-6.95 4.66,-6.98 5.47,-7.01 6.24,-6.77 7.01,-6.54 7.67,-6.08 8.33,-5.61 8.80,-4.96 9.28,-4.31 9.52,-3.54 9.76,-2.77 9.74,-1.96 9.73,-1.16 9.45,-0.40 9.18,0.35 8.68,0.98 8.18,1.61 7.50,2.05 6.82,2.49 6.82,2.49 6.82,2.49 4.70,3.59 2.58,4.69 1.57,4.71 0.56,4.73 -0.00,4.73 -0.58,4.73 -1.13,4.59 -1.69,4.45 -2.20,4.18 -2.71,3.92 -3.14,3.53 -3.57,3.15 -3.90,2.68 -4.22,2.21 -4.42,1.67 -4.63,1.13 -4.70,0.56 -4.76,-0.00 -4.69,-0.57 -4.62,-1.14 -4.42,-1.68 -4.22,-2.22 -3.89,-2.69 -3.56,-3.16 -3.13,-3.54 -2.70,-3.92 -2.19,-4.19 -1.68,-4.46 -1.12,-4.59 -0.56,-4.73 -0.56,-4.73 L -0.56,-4.73 Z"></path></g><g transform="translate(424.5691148016426 10) rotate(0 147.5 23)"><text x="147.5" y="32" font-family="Virgil, Segoe UI Emoji" font-size="36px" fill="#a61e4d" text-anchor="middle" style="white-space: pre;" direction="ltr">Kollisionsdomänen</text></g></svg>