<svg version="1.1" xmlns="http://www.w3.org/2000/svg" viewBox="0 0 2228.5714285714294 271.0714285714289" width="2228.5714285714294" height="271.0714285714289">
  <!-- svg-source:excalidraw -->
  
  <defs>
    <style class="style-fonts">
      @font-face {
        font-family: "Virgil";
        src: url("https://excalidraw.com/Virgil.woff2");
      }
      @font-face {
        font-family: "Cascadia";
        src: url("https://excalidraw.com/Cascadia.woff2");
      }
    </style>
  </defs>
  <rect x="0" y="0" width="2228.5714285714294" height="271.0714285714289" fill="#ffffff"></rect><g stroke-linecap="round" transform="translate(10 149.64285714285734) rotate(0 115.71428571428578 33.57142857142844)"><path d="M231.43 33.57 C231.43 34.74, 231.22 35.92, 230.79 37.08 C230.37 38.24, 229.74 39.41, 228.9 40.55 C228.06 41.7, 227.01 42.83, 225.77 43.95 C224.52 45.06, 223.06 46.16, 221.42 47.23 C219.78 48.29, 217.94 49.34, 215.93 50.36 C213.91 51.37, 211.7 52.36, 209.33 53.3 C206.96 54.25, 204.4 55.17, 201.71 56.04 C199.01 56.9, 196.14 57.74, 193.14 58.52 C190.15 59.3, 186.99 60.04, 183.73 60.73 C180.47 61.42, 177.06 62.06, 173.57 62.65 C170.08 63.23, 166.46 63.76, 162.78 64.24 C159.1 64.72, 155.31 65.14, 151.47 65.5 C147.64 65.86, 143.72 66.17, 139.77 66.41 C135.83 66.65, 131.82 66.84, 127.81 66.96 C123.8 67.08, 119.75 67.14, 115.71 67.14 C111.68 67.14, 107.63 67.08, 103.62 66.96 C99.61 66.84, 95.6 66.65, 91.66 66.41 C87.71 66.17, 83.79 65.86, 79.96 65.5 C76.12 65.14, 72.33 64.72, 68.65 64.24 C64.97 63.76, 61.35 63.23, 57.86 62.65 C54.37 62.06, 50.96 61.42, 47.7 60.73 C44.44 60.04, 41.28 59.3, 38.29 58.52 C35.29 57.74, 32.42 56.9, 29.72 56.04 C27.02 55.17, 24.47 54.25, 22.1 53.3 C19.73 52.36, 17.52 51.37, 15.5 50.36 C13.49 49.34, 11.64 48.29, 10 47.23 C8.36 46.16, 6.91 45.06, 5.66 43.95 C4.42 42.83, 3.37 41.7, 2.53 40.55 C1.69 39.41, 1.06 38.24, 0.63 37.08 C0.21 35.92, 0 34.74, 0 33.57 C0 32.4, 0.21 31.23, 0.63 30.06 C1.06 28.9, 1.69 27.74, 2.53 26.59 C3.37 25.45, 4.42 24.31, 5.66 23.2 C6.91 22.08, 8.36 20.99, 10 19.92 C11.64 18.85, 13.49 17.8, 15.5 16.79 C17.52 15.77, 19.73 14.78, 22.1 13.84 C24.47 12.89, 27.02 11.98, 29.72 11.11 C32.42 10.24, 35.29 9.41, 38.29 8.62 C41.28 7.84, 44.44 7.1, 47.7 6.41 C50.96 5.72, 54.37 5.08, 57.86 4.5 C61.35 3.91, 64.97 3.38, 68.65 2.9 C72.33 2.43, 76.12 2, 79.96 1.64 C83.79 1.28, 87.71 0.98, 91.66 0.73 C95.6 0.49, 99.61 0.31, 103.62 0.18 C107.63 0.06, 111.68 0, 115.71 0 C119.75 0, 123.8 0.06, 127.81 0.18 C131.82 0.31, 135.83 0.49, 139.77 0.73 C143.72 0.98, 147.64 1.28, 151.47 1.64 C155.31 2, 159.1 2.43, 162.78 2.9 C166.46 3.38, 170.08 3.91, 173.57 4.5 C177.06 5.08, 180.47 5.72, 183.73 6.41 C186.99 7.1, 190.15 7.84, 193.14 8.62 C196.14 9.41, 199.01 10.24, 201.71 11.11 C204.4 11.98, 206.96 12.89, 209.33 13.84 C211.7 14.78, 213.91 15.77, 215.93 16.79 C217.94 17.8, 219.78 18.85, 221.42 19.92 C223.06 20.99, 224.52 22.08, 225.77 23.2 C227.01 24.31, 228.06 25.45, 228.9 26.59 C229.74 27.74, 230.37 28.9, 230.79 30.06 C231.22 31.23, 231.32 32.99, 231.43 33.57 C231.53 34.16, 231.53 32.99, 231.43 33.57" stroke="#000000" stroke-width="4" fill="none"></path></g><g transform="translate(95.21428571428578 167.21428571428578) rotate(0 30.5 16)"><text x="30.5" y="25" font-family="Helvetica, Segoe UI Emoji" font-size="28px" fill="#000000" text-anchor="middle" style="white-space: pre;" direction="ltr">Start</text></g><g stroke-linecap="round" transform="translate(1987.1428571428578 156.78571428571468) rotate(0 115.71428571428578 33.57142857142844)"><path d="M231.43 33.57 C231.43 34.74, 231.22 35.92, 230.79 37.08 C230.37 38.24, 229.74 39.41, 228.9 40.55 C228.06 41.7, 227.01 42.83, 225.77 43.95 C224.52 45.06, 223.06 46.16, 221.42 47.23 C219.78 48.29, 217.94 49.34, 215.93 50.36 C213.91 51.37, 211.7 52.36, 209.33 53.3 C206.96 54.25, 204.4 55.17, 201.71 56.04 C199.01 56.9, 196.14 57.74, 193.14 58.52 C190.15 59.3, 186.99 60.04, 183.73 60.73 C180.47 61.42, 177.06 62.06, 173.57 62.65 C170.08 63.23, 166.46 63.76, 162.78 64.24 C159.1 64.72, 155.31 65.14, 151.47 65.5 C147.64 65.86, 143.72 66.17, 139.77 66.41 C135.83 66.65, 131.82 66.84, 127.81 66.96 C123.8 67.08, 119.75 67.14, 115.71 67.14 C111.68 67.14, 107.63 67.08, 103.62 66.96 C99.61 66.84, 95.6 66.65, 91.66 66.41 C87.71 66.17, 83.79 65.86, 79.96 65.5 C76.12 65.14, 72.33 64.72, 68.65 64.24 C64.97 63.76, 61.35 63.23, 57.86 62.65 C54.37 62.06, 50.96 61.42, 47.7 60.73 C44.44 60.04, 41.28 59.3, 38.29 58.52 C35.29 57.74, 32.42 56.9, 29.72 56.04 C27.02 55.17, 24.47 54.25, 22.1 53.3 C19.73 52.36, 17.52 51.37, 15.5 50.36 C13.49 49.34, 11.64 48.29, 10 47.23 C8.36 46.16, 6.91 45.06, 5.66 43.95 C4.42 42.83, 3.37 41.7, 2.53 40.55 C1.69 39.41, 1.06 38.24, 0.63 37.08 C0.21 35.92, 0 34.74, 0 33.57 C0 32.4, 0.21 31.23, 0.63 30.06 C1.06 28.9, 1.69 27.74, 2.53 26.59 C3.37 25.45, 4.42 24.31, 5.66 23.2 C6.91 22.08, 8.36 20.99, 10 19.92 C11.64 18.85, 13.49 17.8, 15.5 16.79 C17.52 15.77, 19.73 14.78, 22.1 13.84 C24.47 12.89, 27.02 11.98, 29.72 11.11 C32.42 10.24, 35.29 9.41, 38.29 8.62 C41.28 7.84, 44.44 7.1, 47.7 6.41 C50.96 5.72, 54.37 5.08, 57.86 4.5 C61.35 3.91, 64.97 3.38, 68.65 2.9 C72.33 2.43, 76.12 2, 79.96 1.64 C83.79 1.28, 87.71 0.98, 91.66 0.73 C95.6 0.49, 99.61 0.31, 103.62 0.18 C107.63 0.06, 111.68 0, 115.71 0 C119.75 0, 123.8 0.06, 127.81 0.18 C131.82 0.31, 135.83 0.49, 139.77 0.73 C143.72 0.98, 147.64 1.28, 151.47 1.64 C155.31 2, 159.1 2.43, 162.78 2.9 C166.46 3.38, 170.08 3.91, 173.57 4.5 C177.06 5.08, 180.47 5.72, 183.73 6.41 C186.99 7.1, 190.15 7.84, 193.14 8.62 C196.14 9.41, 199.01 10.24, 201.71 11.11 C204.4 11.98, 206.96 12.89, 209.33 13.84 C211.7 14.78, 213.91 15.77, 215.93 16.79 C217.94 17.8, 219.78 18.85, 221.42 19.92 C223.06 20.99, 224.52 22.08, 225.77 23.2 C227.01 24.31, 228.06 25.45, 228.9 26.59 C229.74 27.74, 230.37 28.9, 230.79 30.06 C231.22 31.23, 231.32 32.99, 231.43 33.57 C231.53 34.16, 231.53 32.99, 231.43 33.57" stroke="#000000" stroke-width="4" fill="none"></path></g><g transform="translate(2070.8571428571436 174.35714285714312) rotate(0 32 16)"><text x="32" y="25" font-family="Helvetica, Segoe UI Emoji" font-size="28px" fill="#000000" text-anchor="middle" style="white-space: pre;" direction="ltr">ende</text></g><g stroke-linecap="round" transform="translate(308.5714285714289 135.35714285714312) rotate(0 122.14285714285711 49.28571428571445)"><path d="M0 0 C52.2 0, 104.4 0, 244.29 0 M0 0 C59.8 0, 119.6 0, 244.29 0 M244.29 0 C244.29 33.07, 244.29 66.15, 244.29 98.57 M244.29 0 C244.29 23.88, 244.29 47.75, 244.29 98.57 M244.29 98.57 C179.82 98.57, 115.35 98.57, 0 98.57 M244.29 98.57 C165.81 98.57, 87.34 98.57, 0 98.57 M0 98.57 C0 65.49, 0 32.42, 0 0 M0 98.57 C0 67.27, 0 35.97, 0 0" stroke="#000000" stroke-width="4" fill="none"></path></g><g transform="translate(371.714285714286 168.64285714285734) rotate(0 59 16)"><text x="59" y="25" font-family="Helvetica, Segoe UI Emoji" font-size="28px" fill="#000000" text-anchor="middle" style="white-space: pre;" direction="ltr">count = 0</text></g><g stroke-linecap="round" transform="translate(1020 136.78571428571468) rotate(0 122.14285714285711 49.28571428571445)"><path d="M0 0 C63.54 0, 127.08 0, 244.29 0 M0 0 C52.84 0, 105.68 0, 244.29 0 M244.29 0 C244.29 29.71, 244.29 59.43, 244.29 98.57 M244.29 0 C244.29 28.15, 244.29 56.29, 244.29 98.57 M244.29 98.57 C186.02 98.57, 127.76 98.57, 0 98.57 M244.29 98.57 C193.29 98.57, 142.3 98.57, 0 98.57 M0 98.57 C0 69.2, 0 39.82, 0 0 M0 98.57 C0 60.76, 0 22.95, 0 0" stroke="#000000" stroke-width="4" fill="none"></path></g><g transform="translate(1027.142857142857 170.0714285714289) rotate(0 115 16)"><text x="115" y="25" font-family="Helvetica, Segoe UI Emoji" font-size="28px" fill="#000000" text-anchor="middle" style="white-space: pre;" direction="ltr">rng = ZufallsZahl()</text></g><g stroke-linecap="round" transform="translate(1692.8571428571427 142.5) rotate(0 122.14285714285711 49.28571428571445)"><path d="M0 0 C72.09 0, 144.18 0, 244.29 0 M0 0 C51.93 0, 103.87 0, 244.29 0 M244.29 0 C244.29 20.82, 244.29 41.64, 244.29 98.57 M244.29 0 C244.29 20.98, 244.29 41.96, 244.29 98.57 M244.29 98.57 C167.81 98.57, 91.33 98.57, 0 98.57 M244.29 98.57 C183.49 98.57, 122.69 98.57, 0 98.57 M0 98.57 C0 65.68, 0 32.79, 0 0 M0 98.57 C0 67.8, 0 37.04, 0 0" stroke="#000000" stroke-width="4" fill="none"></path></g><g transform="translate(1720.4999999999995 175.78571428571422) rotate(0 94.5 16)"><text x="94.5" y="25" font-family="Helvetica, Segoe UI Emoji" font-size="28px" fill="#000000" text-anchor="middle" style="white-space: pre;" direction="ltr">Ausgabe count</text></g><g stroke-linecap="round" transform="translate(664.2857142857144 139.64285714285688) rotate(0 122.14285714285711 49.28571428571445)"><path d="M0 0 C57.26 0, 114.52 0, 244.29 0 M0 0 C55.22 0, 110.45 0, 244.29 0 M244.29 0 C244.29 38.74, 244.29 77.49, 244.29 98.57 M244.29 0 C244.29 29.95, 244.29 59.9, 244.29 98.57 M244.29 98.57 C172.72 98.57, 101.15 98.57, 0 98.57 M244.29 98.57 C155.3 98.57, 66.32 98.57, 0 98.57 M0 98.57 C0 61.61, 0 24.65, 0 0 M0 98.57 C0 72.36, 0 46.15, 0 0" stroke="#000000" stroke-width="4" fill="none"></path></g><g transform="translate(730.9285714285716 172.9285714285711) rotate(0 55.5 16)"><text x="55.5" y="25" font-family="Helvetica, Segoe UI Emoji" font-size="28px" fill="#000000" text-anchor="middle" style="white-space: pre;" direction="ltr">count ++</text></g><g stroke-linecap="round" transform="translate(1331.4285714285716 103.0714285714289) rotate(0 129.5 79)"><path d="M130 0 C161.79 19.72, 193.58 39.43, 259 80 M130 0 C161.28 19.4, 192.57 38.8, 259 80 M259 80 C223.79 101.29, 188.58 122.58, 130 158 M259 80 C214.61 106.84, 170.23 133.68, 130 158 M130 158 C93.58 136.15, 57.16 114.29, 0 80 M130 158 C94.16 136.49, 58.31 114.99, 0 80 M0 80 C32.11 60.24, 64.22 40.48, 130 0 M0 80 C33.28 59.52, 66.56 39.04, 130 0" stroke="#000000" stroke-width="4" fill="none"></path></g><g transform="translate(1395.9285714285716 150.0714285714289) rotate(0 65 32)"><text x="65" y="25" font-family="Helvetica, Segoe UI Emoji" font-size="28px" fill="#000000" text-anchor="middle" style="white-space: pre;" direction="ltr">while zahl</text><text x="65" y="57" font-family="Helvetica, Segoe UI Emoji" font-size="28px" fill="#000000" text-anchor="middle" style="white-space: pre;" direction="ltr">ungleich 6</text></g><g transform="translate(1395.714285714286 10) rotate(0 25 16)"><text x="0" y="25" font-family="Helvetica, Segoe UI Emoji" font-size="28px" fill="#000000" text-anchor="start" style="white-space: pre;" direction="ltr">true</text></g><g transform="translate(1610.0000000000005 130) rotate(0 30.5 16)"><text x="0" y="25" font-family="Helvetica, Segoe UI Emoji" font-size="28px" fill="#000000" text-anchor="start" style="white-space: pre;" direction="ltr">false</text></g><g stroke-linecap="round"><g transform="translate(241.42857142857122 182.49999999999955) rotate(0 33.57142857142861 0)"><path d="M0 0 C24.75 0, 49.5 0, 67.14 0 M0 0 C20.18 0, 40.35 0, 67.14 0" stroke="#000000" stroke-width="4" fill="none"></path></g><g transform="translate(241.42857142857122 182.49999999999955) rotate(0 33.57142857142861 0)"><path d="M38.95 10.26 C49.34 6.48, 59.74 2.7, 67.14 0 M38.95 10.26 C47.42 7.18, 55.9 4.09, 67.14 0" stroke="#000000" stroke-width="4" fill="none"></path></g><g transform="translate(241.42857142857122 182.49999999999955) rotate(0 33.57142857142861 0)"><path d="M38.95 -10.26 C49.34 -6.48, 59.74 -2.7, 67.14 0 M38.95 -10.26 C47.42 -7.18, 55.9 -4.09, 67.14 0" stroke="#000000" stroke-width="4" fill="none"></path></g></g><mask></mask><g stroke-linecap="round"><g transform="translate(554.2857142857142 211.071428571428) rotate(0 50.714285714285666 0)"><path d="M0 0 C37.38 0, 74.77 0, 101.43 0 M0 0 C28.97 0, 57.93 0, 101.43 0" stroke="#000000" stroke-width="4" fill="none"></path></g><g transform="translate(554.2857142857142 211.071428571428) rotate(0 50.714285714285666 0)"><path d="M73.24 10.26 C83.63 6.48, 94.02 2.7, 101.43 0 M73.24 10.26 C81.29 7.33, 89.34 4.4, 101.43 0" stroke="#000000" stroke-width="4" fill="none"></path></g><g transform="translate(554.2857142857142 211.071428571428) rotate(0 50.714285714285666 0)"><path d="M73.24 -10.26 C83.63 -6.48, 94.02 -2.7, 101.43 0 M73.24 -10.26 C81.29 -7.33, 89.34 -4.4, 101.43 0" stroke="#000000" stroke-width="4" fill="none"></path></g></g><mask></mask><g stroke-linecap="round"><g transform="translate(912.8571428571427 179.64285714285643) rotate(0 51.428571428571445 0)"><path d="M0 0 C39.92 0, 79.83 0, 102.86 0 M0 0 C34.76 0, 69.52 0, 102.86 0" stroke="#000000" stroke-width="4" fill="none"></path></g><g transform="translate(912.8571428571427 179.64285714285643) rotate(0 51.428571428571445 0)"><path d="M74.67 10.26 C85.61 6.28, 96.55 2.3, 102.86 0 M74.67 10.26 C84.19 6.79, 93.72 3.33, 102.86 0" stroke="#000000" stroke-width="4" fill="none"></path></g><g transform="translate(912.8571428571427 179.64285714285643) rotate(0 51.428571428571445 0)"><path d="M74.67 -10.26 C85.61 -6.28, 96.55 -2.3, 102.86 0 M74.67 -10.26 C84.19 -6.79, 93.72 -3.33, 102.86 0" stroke="#000000" stroke-width="4" fill="none"></path></g></g><mask></mask><g stroke-linecap="round"><g transform="translate(1267.142857142857 185.3571428571422) rotate(0 30.714285714285666 0)"><path d="M0 0 C19.94 0, 39.89 0, 61.43 0 M0 0 C15.49 0, 30.98 0, 61.43 0" stroke="#000000" stroke-width="4" fill="none"></path></g><g transform="translate(1267.142857142857 185.3571428571422) rotate(0 30.714285714285666 0)"><path d="M33.24 10.26 C42.39 6.93, 51.54 3.6, 61.43 0 M33.24 10.26 C40.35 7.67, 47.45 5.09, 61.43 0" stroke="#000000" stroke-width="4" fill="none"></path></g><g transform="translate(1267.142857142857 185.3571428571422) rotate(0 30.714285714285666 0)"><path d="M33.24 -10.26 C42.39 -6.93, 51.54 -3.6, 61.43 0 M33.24 -10.26 C40.35 -7.67, 47.45 -5.09, 61.43 0" stroke="#000000" stroke-width="4" fill="none"></path></g></g><mask></mask><g stroke-linecap="round"><g transform="translate(1591.424836374495 182.15777761615163) rotate(0 46.43043895560959 -0.25600982957098495)"><path d="M0 0 C22.72 -0.13, 45.44 -0.25, 92.86 -0.51 M0 0 C32.28 -0.18, 64.55 -0.36, 92.86 -0.51" stroke="#000000" stroke-width="4" fill="none"></path></g><g transform="translate(1591.424836374495 182.15777761615163) rotate(0 46.43043895560959 -0.25600982957098495)"><path d="M64.73 9.9 C71.61 7.36, 78.49 4.81, 92.86 -0.51 M64.73 9.9 C74.51 6.28, 84.28 2.66, 92.86 -0.51" stroke="#000000" stroke-width="4" fill="none"></path></g><g transform="translate(1591.424836374495 182.15777761615163) rotate(0 46.43043895560959 -0.25600982957098495)"><path d="M64.61 -10.62 C71.53 -8.14, 78.44 -5.67, 92.86 -0.51 M64.61 -10.62 C74.43 -7.1, 84.25 -3.59, 92.86 -0.51" stroke="#000000" stroke-width="4" fill="none"></path></g></g><mask></mask><g stroke-linecap="round"><g transform="translate(1464.2857142857142 101.07142857142799) rotate(0 -424.28571428571433 1.4285714285711038)"><path d="M0 0 C0 -21.6, 0 -43.2, 0 -57.14 M0 0 C0 -14.23, 0 -28.45, 0 -57.14 M0 -57.14 C-222.17 -57.14, -444.33 -57.14, -848.57 -57.14 M0 -57.14 C-197.16 -57.14, -394.32 -57.14, -848.57 -57.14 M-848.57 -57.14 C-848.57 -18.41, -848.57 20.33, -848.57 60 M-848.57 -57.14 C-848.57 -25.86, -848.57 5.42, -848.57 60 M-848.57 60 C-833.12 60, -817.66 60, -805.71 60 M-848.57 60 C-838.13 60, -827.69 60, -805.71 60" stroke="#000000" stroke-width="4" fill="none"></path></g><g transform="translate(1464.2857142857142 101.07142857142799) rotate(0 -424.28571428571433 1.4285714285711038)"><path d="M-825.85 67.33 C-818.24 64.56, -810.63 61.79, -805.71 60 M-825.85 67.33 C-820.84 65.5, -815.82 63.68, -805.71 60" stroke="#000000" stroke-width="4" fill="none"></path></g><g transform="translate(1464.2857142857142 101.07142857142799) rotate(0 -424.28571428571433 1.4285714285711038)"><path d="M-825.85 52.67 C-818.24 55.44, -810.63 58.21, -805.71 60 M-825.85 52.67 C-820.84 54.5, -815.82 56.32, -805.71 60" stroke="#000000" stroke-width="4" fill="none"></path></g></g><mask></mask></svg>