<svg version="1.1" xmlns="http://www.w3.org/2000/svg" viewBox="0 0 1857.9999999999995 970" width="1857.9999999999995" height="970">
  <!-- svg-source:excalidraw -->
  
  <defs>
    <style class="style-fonts">
      @font-face {
        font-family: "Virgil";
        src: url("https://excalidraw.com/Virgil.woff2");
      }
      @font-face {
        font-family: "Cascadia";
        src: url("https://excalidraw.com/Cascadia.woff2");
      }
    </style>
  </defs>
  <rect x="0" y="0" width="1857.9999999999995" height="970" fill="#ffffff"></rect><g stroke-linecap="round" transform="translate(731.9999999999998 10) rotate(0 241.9999999999999 164)"><path d="M32 0 M32 0 C168.46 0, 304.92 0, 452 0 M32 0 C132.9 0, 233.81 0, 452 0 M452 0 C473.33 0, 484 10.67, 484 32 M452 0 C473.33 0, 484 10.67, 484 32 M484 32 C484 137.41, 484 242.81, 484 296 M484 32 C484 100.78, 484 169.55, 484 296 M484 296 C484 317.33, 473.33 328, 452 328 M484 296 C484 317.33, 473.33 328, 452 328 M452 328 C360.84 328, 269.69 328, 32 328 M452 328 C326.94 328, 201.88 328, 32 328 M32 328 C10.67 328, 0 317.33, 0 296 M32 328 C10.67 328, 0 317.33, 0 296 M0 296 C0 242.8, 0 189.61, 0 32 M0 296 C0 194.25, 0 92.49, 0 32 M0 32 C0 10.67, 10.67 0, 32 0 M0 32 C0 10.67, 10.67 0, 32 0" stroke="#000000" stroke-width="4" fill="none"></path></g><g stroke-linecap="round" transform="translate(10 622) rotate(0 241.9999999999999 164)"><path d="M32 0 M32 0 C157.71 0, 283.42 0, 452 0 M32 0 C173.9 0, 315.8 0, 452 0 M452 0 C473.33 0, 484 10.67, 484 32 M452 0 C473.33 0, 484 10.67, 484 32 M484 32 C484 129.9, 484 227.8, 484 296 M484 32 C484 130.22, 484 228.44, 484 296 M484 296 C484 317.33, 473.33 328, 452 328 M484 296 C484 317.33, 473.33 328, 452 328 M452 328 C336.91 328, 221.83 328, 32 328 M452 328 C323.83 328, 195.66 328, 32 328 M32 328 C10.67 328, 0 317.33, 0 296 M32 328 C10.67 328, 0 317.33, 0 296 M0 296 C0 241.76, 0 187.52, 0 32 M0 296 C0 203.91, 0 111.82, 0 32 M0 32 C0 10.67, 10.67 0, 32 0 M0 32 C0 10.67, 10.67 0, 32 0" stroke="#000000" stroke-width="4" fill="none"></path></g><g stroke-linecap="round" transform="translate(701.9999999999998 628) rotate(0 241.9999999999999 164)"><path d="M32 0 M32 0 C124.64 0, 217.27 0, 452 0 M32 0 C178.51 0, 325.02 0, 452 0 M452 0 C473.33 0, 484 10.67, 484 32 M452 0 C473.33 0, 484 10.67, 484 32 M484 32 C484 99.46, 484 166.92, 484 296 M484 32 C484 112.22, 484 192.44, 484 296 M484 296 C484 317.33, 473.33 328, 452 328 M484 296 C484 317.33, 473.33 328, 452 328 M452 328 C336.99 328, 221.97 328, 32 328 M452 328 C297.8 328, 143.6 328, 32 328 M32 328 C10.67 328, 0 317.33, 0 296 M32 328 C10.67 328, 0 317.33, 0 296 M0 296 C0 237.93, 0 179.86, 0 32 M0 296 C0 225.67, 0 155.34, 0 32 M0 32 C0 10.67, 10.67 0, 32 0 M0 32 C0 10.67, 10.67 0, 32 0" stroke="#000000" stroke-width="4" fill="none"></path></g><g stroke-linecap="round" transform="translate(1363.9999999999998 632) rotate(0 241.9999999999999 164)"><path d="M32 0 M32 0 C143.98 0, 255.96 0, 452 0 M32 0 C164.37 0, 296.74 0, 452 0 M452 0 C473.33 0, 484 10.67, 484 32 M452 0 C473.33 0, 484 10.67, 484 32 M484 32 C484 89.33, 484 146.65, 484 296 M484 32 C484 113.43, 484 194.86, 484 296 M484 296 C484 317.33, 473.33 328, 452 328 M484 296 C484 317.33, 473.33 328, 452 328 M452 328 C332.75 328, 213.51 328, 32 328 M452 328 C337.71 328, 223.41 328, 32 328 M32 328 C10.67 328, 0 317.33, 0 296 M32 328 C10.67 328, 0 317.33, 0 296 M0 296 C0 242.41, 0 188.82, 0 32 M0 296 C0 204.36, 0 112.71, 0 32 M0 32 C0 10.67, 10.67 0, 32 0 M0 32 C0 10.67, 10.67 0, 32 0" stroke="#000000" stroke-width="4" fill="none"></path></g><g transform="translate(801.9999999999998 52) rotate(0 151.0927734375 108)"><text x="0" y="0" font-family="Helvetica, Segoe UI Emoji" font-size="36px" fill="#000000" text-anchor="start" style="white-space: pre;" direction="ltr" dominant-baseline="text-before-edge">Person</text><text x="0" y="43.199999999999996" font-family="Helvetica, Segoe UI Emoji" font-size="36px" fill="#000000" text-anchor="start" style="white-space: pre;" direction="ltr" dominant-baseline="text-before-edge"></text><text x="0" y="86.39999999999999" font-family="Helvetica, Segoe UI Emoji" font-size="36px" fill="#000000" text-anchor="start" style="white-space: pre;" direction="ltr" dominant-baseline="text-before-edge">#nachname: String</text><text x="0" y="129.6" font-family="Helvetica, Segoe UI Emoji" font-size="36px" fill="#000000" text-anchor="start" style="white-space: pre;" direction="ltr" dominant-baseline="text-before-edge"></text><text x="0" y="172.79999999999998" font-family="Helvetica, Segoe UI Emoji" font-size="36px" fill="#000000" text-anchor="start" style="white-space: pre;" direction="ltr" dominant-baseline="text-before-edge">+echoName()</text></g><g transform="translate(80 664) rotate(0 145.0810546875 64.79999999999995)"><text x="0" y="0" font-family="Helvetica, Segoe UI Emoji" font-size="36px" fill="#000000" text-anchor="start" style="white-space: pre;" direction="ltr" dominant-baseline="text-before-edge">Kunde</text><text x="0" y="43.199999999999996" font-family="Helvetica, Segoe UI Emoji" font-size="36px" fill="#000000" text-anchor="start" style="white-space: pre;" direction="ltr" dominant-baseline="text-before-edge"></text><text x="0" y="86.39999999999999" font-family="Helvetica, Segoe UI Emoji" font-size="36px" fill="#000000" text-anchor="start" style="white-space: pre;" direction="ltr" dominant-baseline="text-before-edge">#kundenNr: String</text></g><g transform="translate(757.9814453124998 672) rotate(0 182.6015625 108)"><text x="0" y="0" font-family="Helvetica, Segoe UI Emoji" font-size="36px" fill="#000000" text-anchor="start" style="white-space: pre;" direction="ltr" dominant-baseline="text-before-edge">Mitarbeiter</text><text x="0" y="43.199999999999996" font-family="Helvetica, Segoe UI Emoji" font-size="36px" fill="#000000" text-anchor="start" style="white-space: pre;" direction="ltr" dominant-baseline="text-before-edge"></text><text x="0" y="86.39999999999999" font-family="Helvetica, Segoe UI Emoji" font-size="36px" fill="#000000" text-anchor="start" style="white-space: pre;" direction="ltr" dominant-baseline="text-before-edge">+steuerKlasse: String</text><text x="0" y="129.6" font-family="Helvetica, Segoe UI Emoji" font-size="36px" fill="#000000" text-anchor="start" style="white-space: pre;" direction="ltr" dominant-baseline="text-before-edge"></text><text x="0" y="172.79999999999998" font-family="Helvetica, Segoe UI Emoji" font-size="36px" fill="#000000" text-anchor="start" style="white-space: pre;" direction="ltr" dominant-baseline="text-before-edge">+changeKlasse(String)</text></g><g transform="translate(1433.9999999999998 674) rotate(0 151.083984375 108)"><text x="0" y="0" font-family="Helvetica, Segoe UI Emoji" font-size="36px" fill="#000000" text-anchor="start" style="white-space: pre;" direction="ltr" dominant-baseline="text-before-edge">Lieferant</text><text x="0" y="43.199999999999996" font-family="Helvetica, Segoe UI Emoji" font-size="36px" fill="#000000" text-anchor="start" style="white-space: pre;" direction="ltr" dominant-baseline="text-before-edge"></text><text x="0" y="86.39999999999999" font-family="Helvetica, Segoe UI Emoji" font-size="36px" fill="#000000" text-anchor="start" style="white-space: pre;" direction="ltr" dominant-baseline="text-before-edge">-lieferantId: Integer</text><text x="0" y="129.6" font-family="Helvetica, Segoe UI Emoji" font-size="36px" fill="#000000" text-anchor="start" style="white-space: pre;" direction="ltr" dominant-baseline="text-before-edge"></text><text x="0" y="172.79999999999998" font-family="Helvetica, Segoe UI Emoji" font-size="36px" fill="#000000" text-anchor="start" style="white-space: pre;" direction="ltr" dominant-baseline="text-before-edge">+echoName()</text></g><g stroke-linecap="round"><g transform="translate(937.9999999999995 622) rotate(0 0 -139)"><path d="M0 0 C0 -46.33, 0 -231.67, 0 -278 M0 0 C0 -46.33, 0 -231.67, 0 -278" stroke="#000000" stroke-width="4" fill="none"></path></g><g transform="translate(937.9999999999995 622) rotate(0 0 -139)"><path d="M10.26 -249.81 C6.25 -260.82, 2.24 -271.84, 0 -278 M10.26 -249.81 C7.26 -258.06, 4.26 -266.3, 0 -278" stroke="#000000" stroke-width="4" fill="none"></path></g><g transform="translate(937.9999999999995 622) rotate(0 0 -139)"><path d="M-10.26 -249.81 C-6.25 -260.82, -2.24 -271.84, 0 -278 M-10.26 -249.81 C-7.26 -258.06, -4.26 -266.3, 0 -278" stroke="#000000" stroke-width="4" fill="none"></path></g></g><mask></mask><g stroke-linecap="round"><g transform="translate(239.99999999999977 622) rotate(0 347.9999999999999 -74)"><path d="M0 0 C0 -40.87, 0 -81.73, 0 -148 M0 0 C0 -49.95, 0 -99.9, 0 -148 M0 -148 C164.62 -148, 329.24 -148, 696 -148 M0 -148 C210.57 -148, 421.14 -148, 696 -148" stroke="#000000" stroke-width="4" fill="none"></path></g></g><mask></mask><g stroke-linecap="round"><g transform="translate(1635.9999999999993 622) rotate(0 -347.9999999999999 -74)"><path d="M0 0 C0 -56.06, 0 -112.12, 0 -148 M0 0 C0 -38.59, 0 -77.18, 0 -148 M0 -148 C-254.81 -148, -509.62 -148, -696 -148 M0 -148 C-217.03 -148, -434.05 -148, -696 -148" stroke="#000000" stroke-width="4" fill="none"></path></g></g><mask></mask><g stroke-linecap="round"><g transform="translate(735.9999999999998 102) rotate(0 240.9999999999999 0)"><path d="M0 0 C119.29 0, 238.57 0, 482 0 M0 0 C175.18 0, 350.36 0, 482 0" stroke="#000000" stroke-width="4" fill="none"></path></g></g><mask></mask><g stroke-linecap="round"><g transform="translate(14 714) rotate(0 240.9999999999999 0)"><path d="M0 0 C103.38 0, 206.76 0, 482 0 M0 0 C150.2 0, 300.39 0, 482 0" stroke="#000000" stroke-width="4" fill="none"></path></g></g><mask></mask><g stroke-linecap="round"><g transform="translate(703.9999999999998 718) rotate(0 240.9999999999999 0)"><path d="M0 0 C166.21 0, 332.42 0, 482 0 M0 0 C164.33 0, 328.67 0, 482 0" stroke="#000000" stroke-width="4" fill="none"></path></g></g><mask></mask><g stroke-linecap="round"><g transform="translate(1365.9999999999998 722) rotate(0 240.9999999999999 0)"><path d="M0 0 C154.18 0, 308.36 0, 482 0 M0 0 C168.64 0, 337.28 0, 482 0" stroke="#000000" stroke-width="4" fill="none"></path></g></g><mask></mask><g transform="translate(1431.9999999999995 92) rotate(0 90.0615234375 86.40000000000009)"><text x="0" y="0" font-family="Helvetica, Segoe UI Emoji" font-size="36px" fill="#000000" text-anchor="start" style="white-space: pre;" direction="ltr" dominant-baseline="text-before-edge">+ public</text><text x="0" y="43.199999999999996" font-family="Helvetica, Segoe UI Emoji" font-size="36px" fill="#000000" text-anchor="start" style="white-space: pre;" direction="ltr" dominant-baseline="text-before-edge">- private</text><text x="0" y="86.39999999999999" font-family="Helvetica, Segoe UI Emoji" font-size="36px" fill="#000000" text-anchor="start" style="white-space: pre;" direction="ltr" dominant-baseline="text-before-edge"># protected</text><text x="0" y="129.6" font-family="Helvetica, Segoe UI Emoji" font-size="36px" fill="#000000" text-anchor="start" style="white-space: pre;" direction="ltr" dominant-baseline="text-before-edge">~ package</text></g></svg>