<svg version="1.1" xmlns="http://www.w3.org/2000/svg" viewBox="0 0 980.8721204127141 1134.9199143135938" width="980.8721204127141" height="1134.9199143135938">
  <!-- svg-source:excalidraw -->
  
  <defs>
    <style class="style-fonts">
      @font-face {
        font-family: "Virgil";
        src: url("https://excalidraw.com/Virgil.woff2");
      }
      @font-face {
        font-family: "Cascadia";
        src: url("https://excalidraw.com/Cascadia.woff2");
      }
    </style>
  </defs>
  <rect x="0" y="0" width="980.8721204127141" height="1134.9199143135938" fill="#ffffff"></rect><g stroke-linecap="round" transform="translate(402.6153232085753 360.45217270643036) rotate(0 177.28201116866876 124.79058594343076)"><path d="M32 0 M32 0 C126.94 -0.75, 223.25 -0.55, 322.56 0 M32 0 C100.94 0.15, 170.65 0.17, 322.56 0 M322.56 0 C343.37 -1.95, 354.94 9.27, 354.56 32 M322.56 0 C342.77 2.04, 355.44 10.79, 354.56 32 M354.56 32 C352.65 71.6, 352.35 115.02, 354.56 217.58 M354.56 32 C355.29 83.89, 356.26 134.62, 354.56 217.58 M354.56 217.58 C355.54 237.24, 342.5 249.09, 322.56 249.58 M354.56 217.58 C355.04 238.47, 345.43 248.63, 322.56 249.58 M322.56 249.58 C216.59 250.16, 113.89 250.15, 32 249.58 M322.56 249.58 C207.75 249.49, 91.92 249.74, 32 249.58 M32 249.58 C10.31 248.5, 0.91 238.34, 0 217.58 M32 249.58 C9.79 247.96, 1.1 238.99, 0 217.58 M0 217.58 C-1.21 153.95, -3.15 93.79, 0 32 M0 217.58 C-1.77 156.95, -1.42 94.46, 0 32 M0 32 C1.04 9.24, 12.09 -0.16, 32 0 M0 32 C0.16 10.62, 9.19 -1.27, 32 0" stroke="#000000" stroke-width="4" fill="none"></path></g><g transform="translate(435.3041905966438 382.3973855335488) rotate(0 114.4921875 105.53654924185844)"><text x="0" y="0" font-family="Cascadia, Segoe UI Emoji" font-size="19.543805415158978px" fill="#000000" text-anchor="start" style="white-space: pre;" direction="ltr" dominant-baseline="text-before-edge">Produkt</text><text x="0" y="23.452566498190773" font-family="Cascadia, Segoe UI Emoji" font-size="19.543805415158978px" fill="#000000" text-anchor="start" style="white-space: pre;" direction="ltr" dominant-baseline="text-before-edge"></text><text x="0" y="46.905132996381546" font-family="Cascadia, Segoe UI Emoji" font-size="19.543805415158978px" fill="#000000" text-anchor="start" style="white-space: pre;" direction="ltr" dominant-baseline="text-before-edge">Bezeichnung: string</text><text x="0" y="70.35769949457232" font-family="Cascadia, Segoe UI Emoji" font-size="19.543805415158978px" fill="#000000" text-anchor="start" style="white-space: pre;" direction="ltr" dominant-baseline="text-before-edge">Preis: double</text><text x="0" y="93.81026599276309" font-family="Cascadia, Segoe UI Emoji" font-size="19.543805415158978px" fill="#000000" text-anchor="start" style="white-space: pre;" direction="ltr" dominant-baseline="text-before-edge">Menge: uint</text><text x="0" y="117.26283249095387" font-family="Cascadia, Segoe UI Emoji" font-size="19.543805415158978px" fill="#000000" text-anchor="start" style="white-space: pre;" direction="ltr" dominant-baseline="text-before-edge"></text><text x="0" y="140.71539898914463" font-family="Cascadia, Segoe UI Emoji" font-size="19.543805415158978px" fill="#000000" text-anchor="start" style="white-space: pre;" direction="ltr" dominant-baseline="text-before-edge"></text><text x="0" y="164.1679654873354" font-family="Cascadia, Segoe UI Emoji" font-size="19.543805415158978px" fill="#000000" text-anchor="start" style="white-space: pre;" direction="ltr" dominant-baseline="text-before-edge">@override ToString()</text><text x="0" y="187.62053198552618" font-family="Cascadia, Segoe UI Emoji" font-size="19.543805415158978px" fill="#000000" text-anchor="start" style="white-space: pre;" direction="ltr" dominant-baseline="text-before-edge">Verkaufen()</text></g><g stroke-linecap="round"><g transform="translate(404.9972370190717 414.93488935107496) rotate(0 175.69391161468388 0.047899456687389375)"><path d="M-0.88 0.78 C57.48 0.69, 291.4 -0.62, 349.93 -0.69 M0.86 0.15 C59.62 0.21, 294.18 0.18, 352.26 0.46" stroke="#000000" stroke-width="4" fill="none"></path></g></g><mask></mask><g stroke-linecap="round"><g transform="translate(407.2483545586929 522.3686356469163) rotate(0 172.67977948949056 0.44381940083280824)"><path d="M0.78 -0.72 C58.03 -0.63, 286.04 -0.36, 343.3 -0.34 M-0.26 1.51 C57.38 1.85, 288.29 1.2, 345.62 1.02" stroke="#000000" stroke-width="4" fill="none"></path></g></g><mask></mask><g stroke-linecap="round" transform="translate(218.92254834177447 762.2734348415614) rotate(0 177.28201116866876 111.4834487388415)"><path d="M32 0 M32 0 C100.1 1.75, 166.43 0.53, 322.56 0 M32 0 C100.85 -1.31, 169.3 -1.22, 322.56 0 M322.56 0 C343.07 -0.15, 354.6 9.61, 354.56 32 M322.56 0 C344.9 -1.38, 354.07 8.58, 354.56 32 M354.56 32 C353.5 83.66, 352.64 135.83, 354.56 190.97 M354.56 32 C354.31 91.57, 355.32 149.85, 354.56 190.97 M354.56 190.97 C354.6 212.74, 344.98 222.12, 322.56 222.97 M354.56 190.97 C354.02 213.76, 345.89 223.08, 322.56 222.97 M322.56 222.97 C263.13 220.25, 200.4 220.45, 32 222.97 M322.56 222.97 C212.78 223.46, 102.31 223.93, 32 222.97 M32 222.97 C10.54 223.75, -0.49 210.31, 0 190.97 M32 222.97 C9.39 223.04, 0 210.66, 0 190.97 M0 190.97 C1.33 138.55, 0.2 87.31, 0 32 M0 190.97 C-1.08 150.79, -0.84 108.6, 0 32 M0 32 C0.69 12.18, 11.22 -1.83, 32 0 M0 32 C0.52 10.4, 9.75 -2.22, 32 0" stroke="#000000" stroke-width="4" fill="none"></path></g><g transform="translate(251.61141572984297 784.2186476686799) rotate(0 120.216796875 105.53654924185844)"><text x="0" y="0" font-family="Cascadia, Segoe UI Emoji" font-size="19.543805415158978px" fill="#000000" text-anchor="start" style="white-space: pre;" direction="ltr" dominant-baseline="text-before-edge">Nahrung</text><text x="0" y="23.452566498190773" font-family="Cascadia, Segoe UI Emoji" font-size="19.543805415158978px" fill="#000000" text-anchor="start" style="white-space: pre;" direction="ltr" dominant-baseline="text-before-edge"></text><text x="0" y="46.905132996381546" font-family="Cascadia, Segoe UI Emoji" font-size="19.543805415158978px" fill="#000000" text-anchor="start" style="white-space: pre;" direction="ltr" dominant-baseline="text-before-edge">MHD</text><text x="0" y="70.35769949457232" font-family="Cascadia, Segoe UI Emoji" font-size="19.543805415158978px" fill="#000000" text-anchor="start" style="white-space: pre;" direction="ltr" dominant-baseline="text-before-edge"></text><text x="0" y="93.81026599276309" font-family="Cascadia, Segoe UI Emoji" font-size="19.543805415158978px" fill="#000000" text-anchor="start" style="white-space: pre;" direction="ltr" dominant-baseline="text-before-edge"></text><text x="0" y="117.26283249095387" font-family="Cascadia, Segoe UI Emoji" font-size="19.543805415158978px" fill="#000000" text-anchor="start" style="white-space: pre;" direction="ltr" dominant-baseline="text-before-edge">@override Verkaufen()</text><text x="0" y="140.71539898914463" font-family="Cascadia, Segoe UI Emoji" font-size="19.543805415158978px" fill="#000000" text-anchor="start" style="white-space: pre;" direction="ltr" dominant-baseline="text-before-edge">@override ToString()</text><text x="0" y="164.1679654873354" font-family="Cascadia, Segoe UI Emoji" font-size="19.543805415158978px" fill="#000000" text-anchor="start" style="white-space: pre;" direction="ltr" dominant-baseline="text-before-edge"></text><text x="0" y="187.62053198552618" font-family="Cascadia, Segoe UI Emoji" font-size="19.543805415158978px" fill="#000000" text-anchor="start" style="white-space: pre;" direction="ltr" dominant-baseline="text-before-edge"></text></g><g stroke-linecap="round"><g transform="translate(221.30446215227084 816.756151486206) rotate(0 175.09004707919007 -0.15022333299407364)"><path d="M-0.08 0.36 C58.36 0.09, 291.33 -0.8, 349.6 -0.72 M-1.58 -0.5 C57.31 -0.71, 292.86 0.51, 351.76 0.42" stroke="#000000" stroke-width="4" fill="none"></path></g></g><mask></mask><g stroke-linecap="round"><g transform="translate(223.55557969189204 884.2684861682793) rotate(0 172.33189080173474 -0.12699723797470597)"><path d="M0.36 -1.06 C57.42 -1.23, 285.85 -1.37, 343.27 -1.13 M-0.92 1.01 C56.46 0.94, 288.01 0.27, 345.58 -0.18" stroke="#000000" stroke-width="4" fill="none"></path></g></g><mask></mask><g stroke-linecap="round" transform="translate(616.3080980753766 763.4020100385015) rotate(0 177.28201116866876 111.4834487388415)"><path d="M32 0 M32 0 C93.71 -0.39, 159.64 -0.55, 322.56 0 M32 0 C90.49 -0.39, 148.77 -0.9, 322.56 0 M322.56 0 C342.7 0.12, 353.18 10.36, 354.56 32 M322.56 0 C342.16 -0.25, 354.09 9.74, 354.56 32 M354.56 32 C353.64 85.25, 356.47 135.5, 354.56 190.97 M354.56 32 C352.89 83.19, 353.04 133.09, 354.56 190.97 M354.56 190.97 C353.65 211.84, 344.73 223.02, 322.56 222.97 M354.56 190.97 C355.6 210.76, 346.06 221.57, 322.56 222.97 M322.56 222.97 C246.37 221.72, 167.78 221.83, 32 222.97 M322.56 222.97 C228.87 224.72, 135.04 224.46, 32 222.97 M32 222.97 C9.4 222.03, -0.33 211.45, 0 190.97 M32 222.97 C8.87 221.1, 0.21 210.62, 0 190.97 M0 190.97 C0.96 137.6, -0.07 85.53, 0 32 M0 190.97 C-1.54 136.07, -2.23 81.11, 0 32 M0 32 C-1.57 10.83, 11.17 -1.97, 32 0 M0 32 C0.2 12.33, 11.07 -1.8, 32 0" stroke="#000000" stroke-width="4" fill="none"></path></g><g transform="translate(648.9969654634451 785.34722286562) rotate(0 114.4921875 82.08398274366766)"><text x="0" y="0" font-family="Cascadia, Segoe UI Emoji" font-size="19.543805415158978px" fill="#000000" text-anchor="start" style="white-space: pre;" direction="ltr" dominant-baseline="text-before-edge">Technik</text><text x="0" y="23.452566498190773" font-family="Cascadia, Segoe UI Emoji" font-size="19.543805415158978px" fill="#000000" text-anchor="start" style="white-space: pre;" direction="ltr" dominant-baseline="text-before-edge"></text><text x="0" y="46.905132996381546" font-family="Cascadia, Segoe UI Emoji" font-size="19.543805415158978px" fill="#000000" text-anchor="start" style="white-space: pre;" direction="ltr" dominant-baseline="text-before-edge">EEK</text><text x="0" y="70.35769949457232" font-family="Cascadia, Segoe UI Emoji" font-size="19.543805415158978px" fill="#000000" text-anchor="start" style="white-space: pre;" direction="ltr" dominant-baseline="text-before-edge"></text><text x="0" y="93.81026599276309" font-family="Cascadia, Segoe UI Emoji" font-size="19.543805415158978px" fill="#000000" text-anchor="start" style="white-space: pre;" direction="ltr" dominant-baseline="text-before-edge"></text><text x="0" y="117.26283249095387" font-family="Cascadia, Segoe UI Emoji" font-size="19.543805415158978px" fill="#000000" text-anchor="start" style="white-space: pre;" direction="ltr" dominant-baseline="text-before-edge">@override ToString()</text><text x="0" y="140.71539898914463" font-family="Cascadia, Segoe UI Emoji" font-size="19.543805415158978px" fill="#000000" text-anchor="start" style="white-space: pre;" direction="ltr" dominant-baseline="text-before-edge"></text></g><g stroke-linecap="round"><g transform="translate(618.690011885873 817.8847266831461) rotate(0 174.36429534285844 0.008285775400736384)"><path d="M-0.13 1.14 C58.24 1.14, 291.86 -1.04, 350.39 -1.13 M-1.66 0.7 C56.52 0.9, 290.61 0.14, 349.31 -0.21" stroke="#000000" stroke-width="4" fill="none"></path></g></g><mask></mask><g stroke-linecap="round" transform="translate(448.159752511192 91.80886814734254) rotate(0 132.71080084313076 89.494204826307)"><path d="M32 0 M32 0 C106.2 -2.92, 178.3 -2.42, 233.42 0 M32 0 C112.68 0.27, 192.16 0.43, 233.42 0 M233.42 0 C256.32 1.69, 264.59 9.11, 265.42 32 M233.42 0 C252.47 -0.72, 265.19 9.26, 265.42 32 M265.42 32 C267.13 72.91, 263.87 114.53, 265.42 146.99 M265.42 32 C264.52 72.99, 265.28 115.97, 265.42 146.99 M265.42 146.99 C267.1 167.25, 256.7 180.46, 233.42 178.99 M265.42 146.99 C263.76 166.91, 256.45 178.51, 233.42 178.99 M233.42 178.99 C193.58 181.31, 151.41 178.07, 32 178.99 M233.42 178.99 C176.79 177.8, 120.77 178.55, 32 178.99 M32 178.99 C9.46 180.52, 0.49 168.99, 0 146.99 M32 178.99 C8.79 177.41, -2.05 167.3, 0 146.99 M0 146.99 C1.82 101.43, 2.23 56.98, 0 32 M0 146.99 C-0.13 114.65, -0.44 82.42, 0 32 M0 32 C-1.15 11.08, 12.32 -1.23, 32 0 M0 32 C-0.28 9.51, 8.65 0.28, 32 0" stroke="#000000" stroke-width="4" fill="none"></path></g><g transform="translate(472.59485043477616 114.48230841542056) rotate(0 76.171875 72)"><text x="0" y="0" font-family="Cascadia, Segoe UI Emoji" font-size="20px" fill="#000000" text-anchor="start" style="white-space: pre;" direction="ltr" dominant-baseline="text-before-edge">object</text><text x="0" y="24" font-family="Cascadia, Segoe UI Emoji" font-size="20px" fill="#000000" text-anchor="start" style="white-space: pre;" direction="ltr" dominant-baseline="text-before-edge"></text><text x="0" y="48" font-family="Cascadia, Segoe UI Emoji" font-size="20px" fill="#000000" text-anchor="start" style="white-space: pre;" direction="ltr" dominant-baseline="text-before-edge">ToString()</text><text x="0" y="72" font-family="Cascadia, Segoe UI Emoji" font-size="20px" fill="#000000" text-anchor="start" style="white-space: pre;" direction="ltr" dominant-baseline="text-before-edge">Equals()</text><text x="0" y="96" font-family="Cascadia, Segoe UI Emoji" font-size="20px" fill="#000000" text-anchor="start" style="white-space: pre;" direction="ltr" dominant-baseline="text-before-edge">GetHashCode()</text><text x="0" y="120" font-family="Cascadia, Segoe UI Emoji" font-size="20px" fill="#000000" text-anchor="start" style="white-space: pre;" direction="ltr" dominant-baseline="text-before-edge">GetType()</text></g><g stroke-linecap="round"><g transform="translate(449.4995060629785 155.24764380963347) rotate(0 130.49758772926134 0.10414223654703392)"><path d="M-0.95 0.09 C42.14 0.17, 215.92 1.27, 259.55 1.19 M0.75 -0.9 C44.16 -1.2, 218.66 -0.59, 261.94 -0.31" stroke="#000000" stroke-width="4" fill="none"></path></g></g><mask></mask><g transform="translate(464.07943297392876 10) rotate(0 116.6943359375 57.5)"><text x="0" y="0" font-family="Helvetica, Segoe UI Emoji" font-size="20px" fill="#000000" text-anchor="start" style="white-space: pre;" direction="ltr" dominant-baseline="text-before-edge">Oberklasse objekt,</text><text x="0" y="23" font-family="Helvetica, Segoe UI Emoji" font-size="20px" fill="#000000" text-anchor="start" style="white-space: pre;" direction="ltr" dominant-baseline="text-before-edge">aus dem .NET Framework</text><text x="0" y="46" font-family="Helvetica, Segoe UI Emoji" font-size="20px" fill="#000000" text-anchor="start" style="white-space: pre;" direction="ltr" dominant-baseline="text-before-edge">Automatische vererbung</text><text x="0" y="69" font-family="Helvetica, Segoe UI Emoji" font-size="20px" fill="#000000" text-anchor="start" style="white-space: pre;" direction="ltr" dominant-baseline="text-before-edge"></text><text x="0" y="92" font-family="Helvetica, Segoe UI Emoji" font-size="20px" fill="#000000" text-anchor="start" style="white-space: pre;" direction="ltr" dominant-baseline="text-before-edge"></text></g><g transform="translate(62.071962194399475 562.5147049555327) rotate(0 124.4970703125 57.5)"><text x="0" y="0" font-family="Helvetica, Segoe UI Emoji" font-size="20px" fill="#862e9c" text-anchor="start" style="white-space: pre;" direction="ltr" dominant-baseline="text-before-edge"></text><text x="0" y="23" font-family="Helvetica, Segoe UI Emoji" font-size="20px" fill="#862e9c" text-anchor="start" style="white-space: pre;" direction="ltr" dominant-baseline="text-before-edge"></text><text x="0" y="46" font-family="Helvetica, Segoe UI Emoji" font-size="20px" fill="#862e9c" text-anchor="start" style="white-space: pre;" direction="ltr" dominant-baseline="text-before-edge">Wir 端berladen die ToString()</text><text x="0" y="69" font-family="Helvetica, Segoe UI Emoji" font-size="20px" fill="#862e9c" text-anchor="start" style="white-space: pre;" direction="ltr" dominant-baseline="text-before-edge">Methode.</text><text x="0" y="92" font-family="Helvetica, Segoe UI Emoji" font-size="20px" fill="#862e9c" text-anchor="start" style="white-space: pre;" direction="ltr" dominant-baseline="text-before-edge"></text></g><g stroke-linecap="round"><g transform="translate(379.4607254421876 757.5986082141579) rotate(0 101.179943321059 -70.83659674591024)"><path d="M-1.06 -0.75 C2.58 -11.71, -8.95 -52.28, 21.66 -64.83 C52.28 -77.38, 152.83 -63, 182.64 -76.05 C212.45 -89.1, 197.59 -131.95, 200.51 -143.14 M0.59 1.47 C4.16 -9.95, -9.61 -54.07, 21.14 -66.83 C51.89 -79.58, 155.11 -62.44, 185.08 -75.07 C215.05 -87.7, 198.7 -131.21, 200.97 -142.6" stroke="#000000" stroke-width="4" fill="none"></path></g><g transform="translate(379.4607254421876 757.5986082141579) rotate(0 101.179943321059 -70.83659674591024)"><path d="M199.43 -144.5 L209.18 -131.22 L193.8 -128.37 L199 -144.25" stroke="none" stroke-width="0" fill="#000000" fill-rule="evenodd"></path><path d="M200.03 -141.59 C203.44 -139.88, 204.42 -134.55, 206.92 -129.44 M200.81 -141.94 C202.15 -140.08, 204.33 -136.54, 208.18 -129.19 M208.33 -128.75 C204.89 -128.99, 199.48 -128.82, 195.07 -129.42 M208.83 -129.35 C204.16 -128.95, 199.88 -128.8, 195.61 -128.22 M196.25 -128.2 C198.54 -134.44, 200.59 -140.26, 199.61 -141.98 M196.02 -128.23 C197.77 -132.89, 198.31 -136.69, 200.26 -141.85 M200.97 -142.6 C200.97 -142.6, 200.97 -142.6, 200.97 -142.6 M200.97 -142.6 C200.97 -142.6, 200.97 -142.6, 200.97 -142.6" stroke="#000000" stroke-width="4" fill="none"></path></g></g><mask></mask><g stroke-linecap="round"><g transform="translate(823.1874307549515 762.034320615688) rotate(0 -107.97386096155014 -73.48065725739843)"><path d="M-1.07 0.03 C-4.18 -12.25, 12.6 -61.08, -19.81 -74.43 C-52.21 -87.79, -162.69 -68.34, -195.49 -80.11 C-228.3 -91.87, -213.38 -134.1, -216.64 -145.04 M0.57 -1 C-2.52 -13.06, 12.41 -60.17, -20.29 -73.16 C-52.99 -86.15, -162.91 -66.62, -195.65 -78.93 C-228.39 -91.23, -213.33 -135.97, -216.71 -146.99" stroke="#000000" stroke-width="4" fill="none"></path></g><g transform="translate(823.1874307549515 762.034320615688) rotate(0 -107.97386096155014 -73.48065725739843)"><path d="M-215.18 -148.45 L-211.01 -131.86 L-224.28 -134.64 L-215.19 -148.6" stroke="none" stroke-width="0" fill="#000000" fill-rule="evenodd"></path><path d="M-216.68 -145.88 C-216.15 -142.7, -214.58 -142.13, -209.06 -132.08 M-216.41 -147.68 C-215.19 -141.74, -212.76 -138.17, -210.68 -134.03 M-210.22 -133.36 C-213.88 -133.12, -219.19 -133.13, -224.16 -133.28 M-210.06 -132.94 C-213.55 -133.4, -217.09 -133.77, -223.34 -133.2 M-222.3 -134.34 C-221.92 -137.86, -219.06 -140.15, -215.73 -146.12 M-223.64 -133.64 C-220.76 -136.69, -219.25 -140.39, -216.01 -146.92 M-216.71 -146.99 C-216.71 -146.99, -216.71 -146.99, -216.71 -146.99 M-216.71 -146.99 C-216.71 -146.99, -216.71 -146.99, -216.71 -146.99" stroke="#000000" stroke-width="4" fill="none"></path></g></g><mask></mask><g stroke-linecap="round"><g transform="translate(197.96334538103974 891.1921697544491) rotate(0 23.890064539509694 10.68587293657231)"><path d="M-0.44 -0.36 C7.17 3.48, 37.95 18.07, 46.06 22.01 M1.53 -1.59 C9.46 2.44, 40.48 18.58, 48.22 22.96" stroke="#862e9c" stroke-width="4" fill="none"></path></g></g><mask></mask><g stroke-linecap="round"><g transform="translate(965.1302276039069 886.2342678585213) rotate(0 -173.89104379721766 0.44485562715681226)"><path d="M0.7 0.34 C-57.34 0.42, -290.5 -0.02, -348.48 -0.08 M-0.39 -0.52 C-58.04 -0.2, -288.4 1.11, -346.31 1.41" stroke="#000000" stroke-width="4" fill="none"></path></g></g><mask></mask><g transform="translate(10 832.1139807054889) rotate(0 93.388671875 23)"><text x="0" y="0" font-family="Helvetica, Segoe UI Emoji" font-size="20px" fill="#862e9c" text-anchor="start" style="white-space: pre;" direction="ltr" dominant-baseline="text-before-edge">Wir 端berladen die </text><text x="0" y="23" font-family="Helvetica, Segoe UI Emoji" font-size="20px" fill="#862e9c" text-anchor="start" style="white-space: pre;" direction="ltr" dominant-baseline="text-before-edge">Verkaufen() Methode</text></g><g transform="translate(550.78040785756 1055.9199143135938) rotate(0 161.19140625 34.5)"><text x="0" y="0" font-family="Helvetica, Segoe UI Emoji" font-size="20px" fill="#862e9c" text-anchor="start" style="white-space: pre;" direction="ltr" dominant-baseline="text-before-edge">Wir 端berladen die ToSTring()</text><text x="0" y="23" font-family="Helvetica, Segoe UI Emoji" font-size="20px" fill="#862e9c" text-anchor="start" style="white-space: pre;" direction="ltr" dominant-baseline="text-before-edge">Methode der ToString() von Produkt </text><text x="0" y="46" font-family="Helvetica, Segoe UI Emoji" font-size="20px" fill="#862e9c" text-anchor="start" style="white-space: pre;" direction="ltr" dominant-baseline="text-before-edge">Quasi doppelt / ein weiteres mal</text></g><g stroke-linecap="round"><g transform="translate(691.5946295095719 937.9842458763691) rotate(0 -12.553622059102963 49.04631935548457)"><path d="M-1.02 -0.71 C-5.1 15.77, -20.75 81.32, -24.92 97.89 M0.65 1.53 C-3.54 18.2, -21.71 82.42, -25.75 98.81" stroke="#862e9c" stroke-width="4" fill="none"></path></g></g><mask></mask><g stroke-linecap="round"><g transform="translate(610.2732354815257 1037.0484895105342) rotate(0 -59.242785143212586 -47.965186732794905)"><path d="M-0.76 -0.52 C-20.49 -16.52, -99.15 -79.7, -118.99 -95.79 M1.05 1.82 C-18.72 -14.57, -99.26 -81.4, -119.53 -97.75" stroke="#862e9c" stroke-width="4" fill="none"></path></g></g><mask></mask><g transform="translate(94.677927192889 360.7768265986364) rotate(0 138.041015625 41.39999999999998)"><text x="0" y="0" font-family="Helvetica, Segoe UI Emoji" font-size="36px" fill="#862e9c" text-anchor="start" style="white-space: pre;" direction="ltr" dominant-baseline="text-before-edge">Beispiel f端r</text><text x="0" y="41.4" font-family="Helvetica, Segoe UI Emoji" font-size="36px" fill="#862e9c" text-anchor="start" style="white-space: pre;" direction="ltr" dominant-baseline="text-before-edge">Polymorphismus:</text></g><g stroke-linecap="round"><g transform="translate(430.4331673197212 557.4324018552716) rotate(0 -84.35715215651226 21.351967112363866)"><path d="M1.2 1.13 C-26.99 8.21, -140.5 35.44, -168.94 42.03 M0.37 0.68 C-27.99 7.48, -141.44 33.56, -169.91 40.4" stroke="#862e9c" stroke-width="4" fill="none"></path></g></g><mask></mask><g stroke-linecap="round"><g transform="translate(583.6871467873088 359.87020704529164) rotate(0 0.19313040009706128 -42.03170876676194)"><path d="M1.02 0.06 C0.92 -14.16, -0.92 -70.2, -0.92 -84.12 M0.1 -0.96 C0.39 -14.54, 1.2 -69.47, 1.31 -83.01" stroke="#000000" stroke-width="4" fill="none"></path></g><g transform="translate(583.6871467873088 359.87020704529164) rotate(0 0.19313040009706128 -42.03170876676194)"><path d="M0.95 -82.68 L8.91 -69.48 L-5.96 -69.6 L2.66 -84.78" stroke="none" stroke-width="0" fill="#000000" fill-rule="evenodd"></path><path d="M1.38 -84.16 C2.13 -78.04, 4.66 -76.22, 8.36 -68.85 M1.16 -83.53 C3.17 -79.39, 4.84 -76.64, 6.87 -69.65 M7.25 -68.7 C2.92 -69.75, -0.81 -69.45, -5.04 -68.27 M6.9 -69.07 C3.14 -69.2, -0.72 -69.19, -5.44 -69.27 M-4.45 -68.73 C-3.81 -74.01, -1.57 -79.78, 2.42 -82.53 M-4.85 -69.19 C-3.68 -72.22, -2.43 -75.18, 1.65 -83.46 M1.31 -83.01 C1.31 -83.01, 1.31 -83.01, 1.31 -83.01 M1.31 -83.01 C1.31 -83.01, 1.31 -83.01, 1.31 -83.01" stroke="#000000" stroke-width="4" fill="none"></path></g></g><mask></mask></svg>