<svg version="1.1" xmlns="http://www.w3.org/2000/svg" viewBox="0 0 1040.6666666666663 1695" width="1040.6666666666663" height="1695">
  <!-- svg-source:excalidraw -->
  
  <defs>
    <style class="style-fonts">
      @font-face {
        font-family: "Virgil";
        src: url("https://excalidraw.com/Virgil.woff2");
      }
      @font-face {
        font-family: "Cascadia";
        src: url("https://excalidraw.com/Cascadia.woff2");
      }
    </style>
  </defs>
  <rect x="0" y="0" width="1040.6666666666663" height="1695" fill="#ffffff"></rect><g stroke-linecap="round" transform="translate(10 1167) rotate(0 241.9999999999999 257.3333333333335)"><path d="M32 0 M32 0 C143.98 0, 255.96 0, 452 0 M32 0 C164.37 0, 296.74 0, 452 0 M452 0 C473.33 0, 484 10.67, 484 32 M452 0 C473.33 0, 484 10.67, 484 32 M484 32 C484 129.86, 484 227.72, 484 482.67 M484 32 C484 171.01, 484 310.02, 484 482.67 M484 482.67 C484 504, 473.33 514.67, 452 514.67 M484 482.67 C484 504, 473.33 514.67, 452 514.67 M452 514.67 C332.75 514.67, 213.51 514.67, 32 514.67 M452 514.67 C337.71 514.67, 223.41 514.67, 32 514.67 M32 514.67 C10.67 514.67, 0 504, 0 482.67 M32 514.67 C10.67 514.67, 0 504, 0 482.67 M0 482.67 C0 391.18, 0 299.7, 0 32 M0 482.67 C0 326.22, 0 169.78, 0 32 M0 32 C0 10.67, 10.67 0, 32 0 M0 32 C0 10.67, 10.67 0, 32 0" stroke="#000000" stroke-width="4" fill="none"></path></g><g stroke-linecap="round" transform="translate(546.6666666666667 1170.333333333333) rotate(0 241.99999999999977 257.3333333333335)"><path d="M32 0 M32 0 C192.36 0, 352.71 0, 452 0 M32 0 C156.05 0, 280.1 0, 452 0 M452 0 C473.33 0, 484 10.67, 484 32 M452 0 C473.33 0, 484 10.67, 484 32 M484 32 C484 200.86, 484 369.73, 484 482.67 M484 32 C484 147.97, 484 263.94, 484 482.67 M484 482.67 C484 504, 473.33 514.67, 452 514.67 M484 482.67 C484 504, 473.33 514.67, 452 514.67 M452 514.67 C362.71 514.67, 273.43 514.67, 32 514.67 M452 514.67 C332.94 514.67, 213.89 514.67, 32 514.67 M32 514.67 C10.67 514.67, 0 504, 0 482.67 M32 514.67 C10.67 514.67, 0 504, 0 482.67 M0 482.67 C0 330.24, 0 177.81, 0 32 M0 482.67 C0 330.58, 0 178.5, 0 32 M0 32 C0 10.67, 10.67 0, 32 0 M0 32 C0 10.67, 10.67 0, 32 0" stroke="#000000" stroke-width="4" fill="none"></path></g><g transform="translate(46.66666666666697 1207.333333333333) rotate(0 181.0986328125001 216)"><text x="0" y="0" font-family="Helvetica, Segoe UI Emoji" font-size="36px" fill="#000000" text-anchor="start" style="white-space: pre;" direction="ltr" dominant-baseline="text-before-edge">Getraenk</text><text x="0" y="43.199999999999996" font-family="Helvetica, Segoe UI Emoji" font-size="36px" fill="#000000" text-anchor="start" style="white-space: pre;" direction="ltr" dominant-baseline="text-before-edge"></text><text x="0" y="86.39999999999999" font-family="Helvetica, Segoe UI Emoji" font-size="36px" fill="#000000" text-anchor="start" style="white-space: pre;" direction="ltr" dominant-baseline="text-before-edge"># mengeVerkaufsraum</text><text x="0" y="129.6" font-family="Helvetica, Segoe UI Emoji" font-size="36px" fill="#000000" text-anchor="start" style="white-space: pre;" direction="ltr" dominant-baseline="text-before-edge"># isAlkoholfrei</text><text x="0" y="172.79999999999998" font-family="Helvetica, Segoe UI Emoji" font-size="36px" fill="#000000" text-anchor="start" style="white-space: pre;" direction="ltr" dominant-baseline="text-before-edge"># volumen</text><text x="0" y="215.99999999999997" font-family="Helvetica, Segoe UI Emoji" font-size="36px" fill="#000000" text-anchor="start" style="white-space: pre;" direction="ltr" dominant-baseline="text-before-edge"># pfand</text><text x="0" y="259.2" font-family="Helvetica, Segoe UI Emoji" font-size="36px" fill="#000000" text-anchor="start" style="white-space: pre;" direction="ltr" dominant-baseline="text-before-edge"></text><text x="0" y="302.4" font-family="Helvetica, Segoe UI Emoji" font-size="36px" fill="#000000" text-anchor="start" style="white-space: pre;" direction="ltr" dominant-baseline="text-before-edge">+ echoGesamtPfand()</text><text x="0" y="345.59999999999997" font-family="Helvetica, Segoe UI Emoji" font-size="36px" fill="#000000" text-anchor="start" style="white-space: pre;" direction="ltr" dominant-baseline="text-before-edge"></text><text x="0" y="388.79999999999995" font-family="Helvetica, Segoe UI Emoji" font-size="36px" fill="#000000" text-anchor="start" style="white-space: pre;" direction="ltr" dominant-baseline="text-before-edge"></text></g><g transform="translate(588.3333333333333 1208.9999999999995) rotate(0 194.572265625 172.79999999999995)"><text x="0" y="0" font-family="Helvetica, Segoe UI Emoji" font-size="36px" fill="#000000" text-anchor="start" style="white-space: pre;" direction="ltr" dominant-baseline="text-before-edge">Snack</text><text x="0" y="43.199999999999996" font-family="Helvetica, Segoe UI Emoji" font-size="36px" fill="#000000" text-anchor="start" style="white-space: pre;" direction="ltr" dominant-baseline="text-before-edge"></text><text x="0" y="86.39999999999999" font-family="Helvetica, Segoe UI Emoji" font-size="36px" fill="#000000" text-anchor="start" style="white-space: pre;" direction="ltr" dominant-baseline="text-before-edge"># mengeVerkaufsraum</text><text x="0" y="129.6" font-family="Helvetica, Segoe UI Emoji" font-size="36px" fill="#000000" text-anchor="start" style="white-space: pre;" direction="ltr" dominant-baseline="text-before-edge"># isSalzig</text><text x="0" y="172.79999999999998" font-family="Helvetica, Segoe UI Emoji" font-size="36px" fill="#000000" text-anchor="start" style="white-space: pre;" direction="ltr" dominant-baseline="text-before-edge"># gewicht</text><text x="0" y="215.99999999999997" font-family="Helvetica, Segoe UI Emoji" font-size="36px" fill="#000000" text-anchor="start" style="white-space: pre;" direction="ltr" dominant-baseline="text-before-edge"></text><text x="0" y="259.2" font-family="Helvetica, Segoe UI Emoji" font-size="36px" fill="#000000" text-anchor="start" style="white-space: pre;" direction="ltr" dominant-baseline="text-before-edge">+ echoGesamtGewicht()</text><text x="0" y="302.4" font-family="Helvetica, Segoe UI Emoji" font-size="36px" fill="#000000" text-anchor="start" style="white-space: pre;" direction="ltr" dominant-baseline="text-before-edge"></text></g><g stroke-linecap="round" transform="translate(301.33333333333326 10) rotate(0 242 267.33333333333417)"><path d="M32 0 M32 0 C168.46 0, 304.92 0, 452 0 M32 0 C132.9 0, 233.81 0, 452 0 M452 0 C473.33 0, 484 10.67, 484 32 M452 0 C473.33 0, 484 10.67, 484 32 M484 32 C484 219.92, 484 407.84, 484 502.67 M484 32 C484 154.61, 484 277.23, 484 502.67 M484 502.67 C484 524, 473.33 534.67, 452 534.67 M484 502.67 C484 524, 473.33 534.67, 452 534.67 M452 534.67 C360.84 534.67, 269.69 534.67, 32 534.67 M452 534.67 C326.94 534.67, 201.88 534.67, 32 534.67 M32 534.67 C10.67 534.67, 0 524, 0 502.67 M32 534.67 C10.67 534.67, 0 524, 0 502.67 M0 502.67 C0 407.83, 0 312.99, 0 32 M0 502.67 C0 321.26, 0 139.85, 0 32 M0 32 C0 10.67, 10.67 0, 32 0 M0 32 C0 10.67, 10.67 0, 32 0" stroke="#000000" stroke-width="4" fill="none"></path></g><g transform="translate(362.9999999999998 50.333333333333485) rotate(0 146.5751953125 237.5999999999999)"><text x="0" y="0" font-family="Helvetica, Segoe UI Emoji" font-size="36px" fill="#000000" text-anchor="start" style="white-space: pre;" direction="ltr" dominant-baseline="text-before-edge">Lagerartikel</text><text x="0" y="43.199999999999996" font-family="Helvetica, Segoe UI Emoji" font-size="36px" fill="#000000" text-anchor="start" style="white-space: pre;" direction="ltr" dominant-baseline="text-before-edge"></text><text x="0" y="86.39999999999999" font-family="Helvetica, Segoe UI Emoji" font-size="36px" fill="#000000" text-anchor="start" style="white-space: pre;" direction="ltr" dominant-baseline="text-before-edge"># artikelID</text><text x="0" y="129.6" font-family="Helvetica, Segoe UI Emoji" font-size="36px" fill="#000000" text-anchor="start" style="white-space: pre;" direction="ltr" dominant-baseline="text-before-edge"># name</text><text x="0" y="172.79999999999998" font-family="Helvetica, Segoe UI Emoji" font-size="36px" fill="#000000" text-anchor="start" style="white-space: pre;" direction="ltr" dominant-baseline="text-before-edge"># menge</text><text x="0" y="215.99999999999997" font-family="Helvetica, Segoe UI Emoji" font-size="36px" fill="#000000" text-anchor="start" style="white-space: pre;" direction="ltr" dominant-baseline="text-before-edge"># warenwert</text><text x="0" y="259.2" font-family="Helvetica, Segoe UI Emoji" font-size="36px" fill="#000000" text-anchor="start" style="white-space: pre;" direction="ltr" dominant-baseline="text-before-edge"></text><text x="0" y="302.4" font-family="Helvetica, Segoe UI Emoji" font-size="36px" fill="#000000" text-anchor="start" style="white-space: pre;" direction="ltr" dominant-baseline="text-before-edge">+ einlagern()</text><text x="0" y="345.59999999999997" font-family="Helvetica, Segoe UI Emoji" font-size="36px" fill="#000000" text-anchor="start" style="white-space: pre;" direction="ltr" dominant-baseline="text-before-edge">+ auslagern()</text><text x="0" y="388.79999999999995" font-family="Helvetica, Segoe UI Emoji" font-size="36px" fill="#000000" text-anchor="start" style="white-space: pre;" direction="ltr" dominant-baseline="text-before-edge">+ echoLagerwert()</text><text x="0" y="431.99999999999994" font-family="Helvetica, Segoe UI Emoji" font-size="36px" fill="#000000" text-anchor="start" style="white-space: pre;" direction="ltr" dominant-baseline="text-before-edge">+ getMenge()</text></g><g stroke-linecap="round"><g transform="translate(305.33333333333326 102) rotate(0 241 0)"><path d="M0 0 C119.29 0, 238.57 0, 482 0 M0 0 C175.18 0, 350.36 0, 482 0" stroke="#000000" stroke-width="4" fill="none"></path></g></g><mask></mask><g stroke-linecap="round" transform="translate(299.66666666666674 623.3333333333335) rotate(0 241.99999999999977 166.5000000000009)"><path d="M32 0 M32 0 C181.14 0, 330.28 0, 452 0 M32 0 C153.05 0, 274.11 0, 452 0 M452 0 C473.33 0, 484 10.67, 484 32 M452 0 C473.33 0, 484 10.67, 484 32 M484 32 C484 119.41, 484 206.82, 484 301 M484 32 C484 86.9, 484 141.8, 484 301 M484 301 C484 322.33, 473.33 333, 452 333 M484 301 C484 322.33, 473.33 333, 452 333 M452 333 C303.73 333, 155.46 333, 32 333 M452 333 C299.74 333, 147.48 333, 32 333 M32 333 C10.67 333, 0 322.33, 0 301 M32 333 C10.67 333, 0 322.33, 0 301 M0 301 C0 229.43, 0 157.87, 0 32 M0 301 C0 220.45, 0 139.89, 0 32 M0 32 C0 10.67, 10.67 0, 32 0 M0 32 C0 10.67, 10.67 0, 32 0" stroke="#000000" stroke-width="4" fill="none"></path></g><g transform="translate(317.9999999999993 662.0000000000005) rotate(0 215.2529296875 129.5999999999999)"><text x="0" y="0" font-family="Helvetica, Segoe UI Emoji" font-size="36px" fill="#000000" text-anchor="start" style="white-space: pre;" direction="ltr" dominant-baseline="text-before-edge">KannVerkaufsraum</text><text x="0" y="43.199999999999996" font-family="Helvetica, Segoe UI Emoji" font-size="36px" fill="#000000" text-anchor="start" style="white-space: pre;" direction="ltr" dominant-baseline="text-before-edge"></text><text x="0" y="86.39999999999999" font-family="Helvetica, Segoe UI Emoji" font-size="36px" fill="#000000" text-anchor="start" style="white-space: pre;" direction="ltr" dominant-baseline="text-before-edge"># mengeVerkaufsraum</text><text x="0" y="129.6" font-family="Helvetica, Segoe UI Emoji" font-size="36px" fill="#000000" text-anchor="start" style="white-space: pre;" direction="ltr" dominant-baseline="text-before-edge"></text><text x="0" y="172.79999999999998" font-family="Helvetica, Segoe UI Emoji" font-size="36px" fill="#000000" text-anchor="start" style="white-space: pre;" direction="ltr" dominant-baseline="text-before-edge">+ inVerkaufsraumStellen()</text><text x="0" y="215.99999999999997" font-family="Helvetica, Segoe UI Emoji" font-size="36px" fill="#000000" text-anchor="start" style="white-space: pre;" direction="ltr" dominant-baseline="text-before-edge">+ echoWertVerkaufsraum()</text></g><g stroke-linecap="round"><g transform="translate(303.66666666666674 715.3333333333335) rotate(0 240.99999999999977 0)"><path d="M0 0 C130.64 0, 261.29 0, 482 0 M0 0 C123.04 0, 246.09 0, 482 0" stroke="#000000" stroke-width="4" fill="none"></path></g></g><mask></mask><g stroke-linecap="round"><g transform="translate(12 1257) rotate(0 240.9999999999999 0)"><path d="M0 0 C154.18 0, 308.36 0, 482 0 M0 0 C168.64 0, 337.28 0, 482 0" stroke="#000000" stroke-width="4" fill="none"></path></g></g><mask></mask><g stroke-linecap="round"><g transform="translate(548.6666666666667 1260.333333333333) rotate(0 240.99999999999977 0)"><path d="M0 0 C135.1 0, 270.21 0, 482 0 M0 0 C164.17 0, 328.33 0, 482 0" stroke="#000000" stroke-width="4" fill="none"></path></g></g><mask></mask><g transform="translate(831.3333333333323 768.6666666666661) rotate(0 90.0615234375 86.40000000000009)"><text x="0" y="0" font-family="Helvetica, Segoe UI Emoji" font-size="36px" fill="#000000" text-anchor="start" style="white-space: pre;" direction="ltr" dominant-baseline="text-before-edge">+ public</text><text x="0" y="43.199999999999996" font-family="Helvetica, Segoe UI Emoji" font-size="36px" fill="#000000" text-anchor="start" style="white-space: pre;" direction="ltr" dominant-baseline="text-before-edge">- private</text><text x="0" y="86.39999999999999" font-family="Helvetica, Segoe UI Emoji" font-size="36px" fill="#000000" text-anchor="start" style="white-space: pre;" direction="ltr" dominant-baseline="text-before-edge"># protected</text><text x="0" y="129.6" font-family="Helvetica, Segoe UI Emoji" font-size="36px" fill="#000000" text-anchor="start" style="white-space: pre;" direction="ltr" dominant-baseline="text-before-edge">~ package</text></g><g stroke-linecap="round"><g transform="translate(243.74999999999977 1167.3055555555538) rotate(0 275.83333333333326 -40)"><path d="M0 0 C0 -27.53, 0 -55.06, 0 -80 M0 0 C0 -23.22, 0 -46.44, 0 -80 M0 -80 C196.87 -80, 393.74 -80, 551.67 -80 M0 -80 C175.13 -80, 350.26 -80, 551.67 -80 M551.67 -80 C551.67 -62.12, 551.67 -44.24, 551.67 0 M551.67 -80 C551.67 -61.02, 551.67 -42.03, 551.67 0" stroke="#000000" stroke-width="4" fill="none"></path></g></g><mask></mask><g stroke-linecap="round"><g transform="translate(530.6174975198412 1085.3223171657964) rotate(0 -2.2737367544323206e-13 -59.16666666666674)"><path d="M0 0 C0 -46.1, 0 -92.21, 0 -118.33 M0 0 C0 -45.37, 0 -90.74, 0 -118.33" stroke="#000000" stroke-width="4" fill="none"></path></g><g transform="translate(530.6174975198412 1085.3223171657964) rotate(0 -2.2737367544323206e-13 -59.16666666666674)"><path d="M10.26 -90.14 C6.26 -101.13, 2.27 -112.11, 0 -118.33 M10.26 -90.14 C6.33 -100.95, 2.39 -111.76, 0 -118.33" stroke="#000000" stroke-width="4" fill="none"></path></g><g transform="translate(530.6174975198412 1085.3223171657964) rotate(0 -2.2737367544323206e-13 -59.16666666666674)"><path d="M-10.26 -90.14 C-6.26 -101.13, -2.27 -112.11, 0 -118.33 M-10.26 -90.14 C-6.33 -100.95, -2.39 -111.76, 0 -118.33" stroke="#000000" stroke-width="4" fill="none"></path></g></g><mask></mask><g stroke-linecap="round"><g transform="translate(543.9508308531742 616.988983832463) rotate(0 0 -28.333333333333258)"><path d="M0 0 C0 -14.15, 0 -28.29, 0 -56.67 M0 0 C0 -18.76, 0 -37.52, 0 -56.67" stroke="#000000" stroke-width="4" fill="none"></path></g><g transform="translate(543.9508308531742 616.988983832463) rotate(0 0 -28.333333333333258)"><path d="M9.69 -30.04 C7.27 -36.69, 4.85 -43.34, 0 -56.67 M9.69 -30.04 C6.48 -38.86, 3.27 -47.67, 0 -56.67" stroke="#000000" stroke-width="4" fill="none"></path></g><g transform="translate(543.9508308531742 616.988983832463) rotate(0 0 -28.333333333333258)"><path d="M-9.69 -30.04 C-7.27 -36.69, -4.85 -43.34, 0 -56.67 M-9.69 -30.04 C-6.48 -38.86, -3.27 -47.67, 0 -56.67" stroke="#000000" stroke-width="4" fill="none"></path></g></g><mask></mask></svg>