<svg version="1.1" xmlns="http://www.w3.org/2000/svg" viewBox="0 0 837.714679144789 379.5069838507093" width="837.714679144789" height="379.5069838507093">
  <!-- svg-source:excalidraw -->
  
  <defs>
    <style class="style-fonts">
      @font-face {
        font-family: "Virgil";
        src: url("https://excalidraw.com/Virgil.woff2");
      }
      @font-face {
        font-family: "Cascadia";
        src: url("https://excalidraw.com/Cascadia.woff2");
      }
    </style>
  </defs>
  <rect x="0" y="0" width="837.714679144789" height="379.5069838507093" fill="#ffffff"></rect><g stroke-linecap="round" transform="translate(562.293077458527 81.47451890218099) rotate(0 132.71080084313098 97.86694597182282)"><path d="M32 0 M32 0 C106.2 -2.92, 178.3 -2.42, 233.42 0 M32 0 C112.68 0.27, 192.16 0.43, 233.42 0 M233.42 0 C256.32 1.69, 264.59 9.11, 265.42 32 M233.42 0 C252.47 -0.72, 265.19 9.26, 265.42 32 M265.42 32 C267.16 78.86, 263.89 126.43, 265.42 163.73 M265.42 32 C264.38 79.07, 265.14 128.14, 265.42 163.73 M265.42 163.73 C267.1 183.99, 256.7 197.21, 233.42 195.73 M265.42 163.73 C263.76 183.66, 256.45 195.26, 233.42 195.73 M233.42 195.73 C193.58 198.05, 151.41 194.81, 32 195.73 M233.42 195.73 C176.79 194.54, 120.77 195.3, 32 195.73 M32 195.73 C9.46 197.26, 0.49 185.74, 0 163.73 M32 195.73 C8.79 194.15, -2.05 184.04, 0 163.73 M0 163.73 C1.98 111.72, 2.38 60.82, 0 32 M0 163.73 C-0.28 126.77, -0.58 89.9, 0 32 M0 32 C-1.15 11.08, 12.32 -1.23, 32 0 M0 32 C-0.28 9.51, 8.65 0.28, 32 0" stroke="#000000" stroke-width="4" fill="none"></path></g><g transform="translate(595.7449735388204 102.85984514787197) rotate(0 76.171875 72)"><text x="0" y="0" font-family="Cascadia, Segoe UI Emoji" font-size="20px" fill="#000000" text-anchor="start" style="white-space: pre;" direction="ltr" dominant-baseline="text-before-edge">object</text><text x="0" y="24" font-family="Cascadia, Segoe UI Emoji" font-size="20px" fill="#000000" text-anchor="start" style="white-space: pre;" direction="ltr" dominant-baseline="text-before-edge"></text><text x="0" y="48" font-family="Cascadia, Segoe UI Emoji" font-size="20px" fill="#000000" text-anchor="start" style="white-space: pre;" direction="ltr" dominant-baseline="text-before-edge">ToString()</text><text x="0" y="72" font-family="Cascadia, Segoe UI Emoji" font-size="20px" fill="#000000" text-anchor="start" style="white-space: pre;" direction="ltr" dominant-baseline="text-before-edge">Equals()</text><text x="0" y="96" font-family="Cascadia, Segoe UI Emoji" font-size="20px" fill="#000000" text-anchor="start" style="white-space: pre;" direction="ltr" dominant-baseline="text-before-edge">GetHashCode()</text><text x="0" y="120" font-family="Cascadia, Segoe UI Emoji" font-size="20px" fill="#000000" text-anchor="start" style="white-space: pre;" direction="ltr" dominant-baseline="text-before-edge">GetType()</text></g><g stroke-linecap="round"><g transform="translate(563.6328310103136 144.91329456447193) rotate(0 130.49758772926134 0.10414223654709076)"><path d="M-0.95 0.09 C42.14 0.17, 215.92 1.27, 259.55 1.19 M0.75 -0.9 C44.16 -1.2, 218.66 -0.59, 261.94 -0.31" stroke="#000000" stroke-width="4" fill="none"></path></g></g><mask></mask><g stroke-linecap="round" transform="translate(10 10) rotate(0 177.28201116866876 179.75349192535464)"><path d="M32 0 M32 0 C128.66 -2.44, 224.12 -1.17, 322.56 0 M32 0 C110.97 1.05, 188.85 1.85, 322.56 0 M322.56 0 C344.24 -0.82, 354.46 10.91, 354.56 32 M322.56 0 C345.05 -1.41, 354.18 10.39, 354.56 32 M354.56 32 C352.83 131.61, 354.59 231.12, 354.56 327.51 M354.56 32 C353.78 121.57, 352.84 212.69, 354.56 327.51 M354.56 327.51 C354.74 347.08, 342.82 360.62, 322.56 359.51 M354.56 327.51 C356.56 348.37, 342.66 358.49, 322.56 359.51 M322.56 359.51 C232.7 357.11, 141.73 358.6, 32 359.51 M322.56 359.51 C219.14 357.94, 115.38 358.86, 32 359.51 M32 359.51 C12.44 360.27, -1.73 350.26, 0 327.51 M32 359.51 C10.82 358.72, -0.63 349.81, 0 327.51 M0 327.51 C1.85 265.55, 2.51 203.56, 0 32 M0 327.51 C-2.31 235.86, -2.29 143.68, 0 32 M0 32 C-1 11.38, 9.42 0.98, 32 0 M0 32 C-1.82 11.92, 9.96 1.03, 32 0" stroke="#000000" stroke-width="4" fill="none"></path></g><g transform="translate(42.68886738806873 31.94521282711844) rotate(0 114.4921875 164.16796548733544)"><text x="0" y="0" font-family="Cascadia, Segoe UI Emoji" font-size="19.543805415158978px" fill="#000000" text-anchor="start" style="white-space: pre;" direction="ltr" dominant-baseline="text-before-edge">Taxi</text><text x="0" y="23.452566498190773" font-family="Cascadia, Segoe UI Emoji" font-size="19.543805415158978px" fill="#000000" text-anchor="start" style="white-space: pre;" direction="ltr" dominant-baseline="text-before-edge"></text><text x="0" y="46.905132996381546" font-family="Cascadia, Segoe UI Emoji" font-size="19.543805415158978px" fill="#000000" text-anchor="start" style="white-space: pre;" direction="ltr" dominant-baseline="text-before-edge">Nummer: string</text><text x="0" y="70.35769949457232" font-family="Cascadia, Segoe UI Emoji" font-size="19.543805415158978px" fill="#000000" text-anchor="start" style="white-space: pre;" direction="ltr" dominant-baseline="text-before-edge">Baujahr: uint</text><text x="0" y="93.81026599276309" font-family="Cascadia, Segoe UI Emoji" font-size="19.543805415158978px" fill="#000000" text-anchor="start" style="white-space: pre;" direction="ltr" dominant-baseline="text-before-edge">Km: double</text><text x="0" y="117.26283249095387" font-family="Cascadia, Segoe UI Emoji" font-size="19.543805415158978px" fill="#000000" text-anchor="start" style="white-space: pre;" direction="ltr" dominant-baseline="text-before-edge"></text><text x="0" y="140.71539898914463" font-family="Cascadia, Segoe UI Emoji" font-size="19.543805415158978px" fill="#000000" text-anchor="start" style="white-space: pre;" direction="ltr" dominant-baseline="text-before-edge"></text><text x="0" y="164.1679654873354" font-family="Cascadia, Segoe UI Emoji" font-size="19.543805415158978px" fill="#000000" text-anchor="start" style="white-space: pre;" direction="ltr" dominant-baseline="text-before-edge"></text><text x="0" y="187.62053198552618" font-family="Cascadia, Segoe UI Emoji" font-size="19.543805415158978px" fill="#000000" text-anchor="start" style="white-space: pre;" direction="ltr" dominant-baseline="text-before-edge"></text><text x="0" y="211.07309848371696" font-family="Cascadia, Segoe UI Emoji" font-size="19.543805415158978px" fill="#000000" text-anchor="start" style="white-space: pre;" direction="ltr" dominant-baseline="text-before-edge">Taxi()</text><text x="0" y="234.52566498190774" font-family="Cascadia, Segoe UI Emoji" font-size="19.543805415158978px" fill="#000000" text-anchor="start" style="white-space: pre;" direction="ltr" dominant-baseline="text-before-edge">Taxi(baujahr)</text><text x="0" y="257.9782314800985" font-family="Cascadia, Segoe UI Emoji" font-size="19.543805415158978px" fill="#000000" text-anchor="start" style="white-space: pre;" direction="ltr" dominant-baseline="text-before-edge">Taxi(baujahr, km)</text><text x="0" y="281.43079797828926" font-family="Cascadia, Segoe UI Emoji" font-size="19.543805415158978px" fill="#000000" text-anchor="start" style="white-space: pre;" direction="ltr" dominant-baseline="text-before-edge">GetInfo()</text><text x="0" y="304.88336447648004" font-family="Cascadia, Segoe UI Emoji" font-size="19.543805415158978px" fill="#000000" text-anchor="start" style="white-space: pre;" direction="ltr" dominant-baseline="text-before-edge">@override ToString()</text></g><g stroke-linecap="round"><g transform="translate(12.381913810496599 64.4827166446446) rotate(0 175.47640681443784 1.0052880619128928)"><path d="M1.04 1.05 C59.57 0.95, 292.48 0.18, 350.83 0.19 M0.12 0.55 C58.55 0.61, 291.56 2.01, 349.98 1.8" stroke="#000000" stroke-width="4" fill="none"></path></g></g><mask></mask><g stroke-linecap="round"><g transform="translate(14.63303135011779 236.32216405983877) rotate(0 171.46596185047486 -0.04683187387172438)"><path d="M-0.8 -1.03 C56.37 -1.3, 286.17 -0.98, 343.73 -0.7 M0.98 1.04 C57.9 0.84, 285.44 0.87, 342.62 0.47" stroke="#000000" stroke-width="4" fill="none"></path></g></g><mask></mask><g transform="translate(40.97925373676708 152.47744282223812) rotate(0 111.8603515625 34.5)"><text x="0" y="0" font-family="Helvetica, Segoe UI Emoji" font-size="20px" fill="#000000" text-anchor="start" style="white-space: pre;" direction="ltr" dominant-baseline="text-before-edge">Anzahl: int</text><text x="0" y="23" font-family="Helvetica, Segoe UI Emoji" font-size="20px" fill="#000000" text-anchor="start" style="white-space: pre;" direction="ltr" dominant-baseline="text-before-edge">TYP: string = "Mercedes"</text><text x="0" y="46" font-family="Helvetica, Segoe UI Emoji" font-size="20px" fill="#000000" text-anchor="start" style="white-space: pre;" direction="ltr" dominant-baseline="text-before-edge">Farbe: string</text></g><g stroke-linecap="round"><g transform="translate(43.17477226898791 174.43262814444574) rotate(0 45.55590199689357 -0.014820988048995787)"><path d="M-0.29 0.18 C14.9 0.33, 76.23 0.98, 91.4 0.89 M1.77 -0.77 C16.79 -0.94, 75.93 -1.02, 90.6 -0.76" stroke="#000000" stroke-width="1" fill="none"></path></g></g><mask></mask><g stroke-linecap="round"><g transform="translate(38.90390180955319 197.60573933777027) rotate(0 110.06222895123267 0.4000857725646938)"><path d="M0.83 0.17 C37.54 0.14, 183.76 0.25, 220.32 0.03 M-0.19 -0.79 C36.33 -0.62, 182.69 1.53, 219.26 1.59" stroke="#000000" stroke-width="1" fill="none"></path></g></g><mask></mask><g stroke-linecap="round"><g transform="translate(37.92630914844949 224.07212832942605) rotate(0 59.77500105683919 0.13354113954972036)"><path d="M-0.94 0.54 C18.87 0.65, 98.45 1.07, 118.34 0.97 M0.77 -0.23 C20.99 -0.46, 100.48 -0.88, 120.49 -0.65" stroke="#000000" stroke-width="1" fill="none"></path></g></g><mask></mask><g transform="translate(397.75101522264094 95.39396098449811) rotate(0 71.1279296875 46)"><text x="0" y="0" font-family="Helvetica, Segoe UI Emoji" font-size="20px" fill="#000000" text-anchor="start" style="white-space: pre;" direction="ltr" dominant-baseline="text-before-edge">Taxi erbt implizit</text><text x="0" y="23" font-family="Helvetica, Segoe UI Emoji" font-size="20px" fill="#000000" text-anchor="start" style="white-space: pre;" direction="ltr" dominant-baseline="text-before-edge"> alles was </text><text x="0" y="46" font-family="Helvetica, Segoe UI Emoji" font-size="20px" fill="#000000" text-anchor="start" style="white-space: pre;" direction="ltr" dominant-baseline="text-before-edge">ein obekt</text><text x="0" y="69" font-family="Helvetica, Segoe UI Emoji" font-size="20px" fill="#000000" text-anchor="start" style="white-space: pre;" direction="ltr" dominant-baseline="text-before-edge"> auch kann.</text></g><g stroke-linecap="round"><g transform="translate(365.9159965054396 197.485572732764) rotate(0 96.42578312512296 0.3823034915239987)"><path d="M-0.34 0.99 C31.79 1.33, 161.14 1.2, 193.2 1.1 M1.67 0.46 C33.71 0.58, 161.24 -0.08, 192.82 -0.44" stroke="#000000" stroke-width="1" fill="none"></path></g><g transform="translate(365.9159965054396 197.485572732764) rotate(0 96.42578312512296 0.3823034915239987)"><path d="M194.71 0.08 L180.41 4.26 L177.6 -5.12 L192.98 0.19" stroke="none" stroke-width="0" fill="#000000" fill-rule="evenodd"></path><path d="M194.05 0.92 C189.64 1.5, 184.24 3.34, 179.98 4.68 M192.47 0.04 C187.78 1.37, 182.93 4.64, 179.84 5.69 M180.3 6.99 C178.22 2.36, 179.04 -0.83, 178.15 -7.69 M179.14 5.8 C179.22 3.15, 179.66 1.3, 178.78 -6.81 M180.39 -7.05 C183.91 -4.12, 187.11 -3.96, 192.56 0.08 M179.4 -6.03 C182.7 -5.42, 187.24 -3.01, 193.49 -0.1 M192.82 -0.44 C192.82 -0.44, 192.82 -0.44, 192.82 -0.44 M192.82 -0.44 C192.82 -0.44, 192.82 -0.44, 192.82 -0.44" stroke="#000000" stroke-width="1" fill="none"></path></g></g><mask></mask></svg>