<svg version="1.1" xmlns="http://www.w3.org/2000/svg" viewBox="0 0 1102.6351056968497 669.6666666666661" width="1102.6351056968497" height="669.6666666666661">
  <!-- svg-source:excalidraw -->
  
  <defs>
    <style class="style-fonts">
      @font-face {
        font-family: "Virgil";
        src: url("https://excalidraw.com/Virgil.woff2");
      }
      @font-face {
        font-family: "Cascadia";
        src: url("https://excalidraw.com/Cascadia.woff2");
      }
    </style>
  </defs>
  <rect x="0" y="0" width="1102.6351056968497" height="669.6666666666661" fill="#ffffff"></rect><g stroke-linecap="round" transform="translate(593.9999999999991 603.6666666666661) rotate(0 61.5 28)"><path d="M14 0 M14 0 C46.48 0, 78.96 0, 109 0 M14 0 C43.78 0, 73.56 0, 109 0 M109 0 C118.33 0, 123 4.67, 123 14 M109 0 C118.33 0, 123 4.67, 123 14 M123 14 C123 23.2, 123 32.4, 123 42 M123 14 C123 20.08, 123 26.17, 123 42 M123 42 C123 51.33, 118.33 56, 109 56 M123 42 C123 51.33, 118.33 56, 109 56 M109 56 C83.33 56, 57.67 56, 14 56 M109 56 C73.35 56, 37.69 56, 14 56 M14 56 C4.67 56, 0 51.33, 0 42 M14 56 C4.67 56, 0 51.33, 0 42 M0 42 C0 31.19, 0 20.38, 0 14 M0 42 C0 31.16, 0 20.33, 0 14 M0 14 C0 4.67, 4.67 0, 14 0 M0 14 C0 4.67, 4.67 0, 14 0" stroke="#000000" stroke-width="1" fill="none"></path></g><g transform="translate(610.6600494384759 619.1666666666661) rotate(0 44.83995056152344 12.5)"><text x="44.83995056152344" y="0" font-family="Virgil, Segoe UI Emoji" font-size="20px" fill="#000000" text-anchor="middle" style="white-space: pre;" direction="ltr" dominant-baseline="text-before-edge">Customer</text></g><g stroke-linecap="round" transform="translate(378.99999999999955 110.66666666666652) rotate(0 61.5 28)"><path d="M14 0 M14 0 C42.62 0, 71.25 0, 109 0 M14 0 C49.16 0, 84.32 0, 109 0 M109 0 C118.33 0, 123 4.67, 123 14 M109 0 C118.33 0, 123 4.67, 123 14 M123 14 C123 23.57, 123 33.14, 123 42 M123 14 C123 19.88, 123 25.77, 123 42 M123 42 C123 51.33, 118.33 56, 109 56 M123 42 C123 51.33, 118.33 56, 109 56 M109 56 C83.45 56, 57.91 56, 14 56 M109 56 C74.72 56, 40.44 56, 14 56 M14 56 C4.67 56, 0 51.33, 0 42 M14 56 C4.67 56, 0 51.33, 0 42 M0 42 C0 33.81, 0 25.63, 0 14 M0 42 C0 33.01, 0 24.02, 0 14 M0 14 C0 4.67, 4.67 0, 14 0 M0 14 C0 4.67, 4.67 0, 14 0" stroke="#000000" stroke-width="1" fill="none"></path></g><g transform="translate(425.43000793456986 126.16666666666652) rotate(0 15.069992065429688 12.5)"><text x="15.069992065429688" y="0" font-family="Virgil, Segoe UI Emoji" font-size="20px" fill="#000000" text-anchor="middle" style="white-space: pre;" direction="ltr" dominant-baseline="text-before-edge">DB</text></g><g stroke-linecap="round" transform="translate(382.99999999999955 231.66666666666652) rotate(0 61.5 30)"><path d="M15 0 M15 0 C48.46 0, 81.92 0, 108 0 M15 0 C39.22 0, 63.43 0, 108 0 M108 0 C118 0, 123 5, 123 15 M108 0 C118 0, 123 5, 123 15 M123 15 C123 24.57, 123 34.14, 123 45 M123 15 C123 24.92, 123 34.84, 123 45 M123 45 C123 55, 118 60, 108 60 M123 45 C123 55, 118 60, 108 60 M108 60 C77.42 60, 46.84 60, 15 60 M108 60 C89.06 60, 70.11 60, 15 60 M15 60 C5 60, 0 55, 0 45 M15 60 C5 60, 0 55, 0 45 M0 45 C0 35.51, 0 26.01, 0 15 M0 45 C0 36.02, 0 27.04, 0 15 M0 15 C0 5, 5 0, 15 0 M0 15 C0 5, 5 0, 15 0" stroke="#000000" stroke-width="1" fill="none"></path></g><g transform="translate(397.93003082275345 236.66666666666652) rotate(0 46.569969177246094 25)"><text x="46.569969177246094" y="0" font-family="Virgil, Segoe UI Emoji" font-size="20px" fill="#000000" text-anchor="middle" style="white-space: pre;" direction="ltr" dominant-baseline="text-before-edge">MS Auth </text><text x="46.569969177246094" y="25" font-family="Virgil, Segoe UI Emoji" font-size="20px" fill="#000000" text-anchor="middle" style="white-space: pre;" direction="ltr" dominant-baseline="text-before-edge">Server</text></g><g stroke-linecap="round" transform="translate(388.99999999999955 410.6666666666665) rotate(0 61.5 28)"><path d="M14 0 M14 0 C39.67 0, 65.34 0, 109 0 M14 0 C41.59 0, 69.19 0, 109 0 M109 0 C118.33 0, 123 4.67, 123 14 M109 0 C118.33 0, 123 4.67, 123 14 M123 14 C123 22.29, 123 30.59, 123 42 M123 14 C123 19.71, 123 25.43, 123 42 M123 42 C123 51.33, 118.33 56, 109 56 M123 42 C123 51.33, 118.33 56, 109 56 M109 56 C75.5 56, 42 56, 14 56 M109 56 C79.22 56, 49.45 56, 14 56 M14 56 C4.67 56, 0 51.33, 0 42 M14 56 C4.67 56, 0 51.33, 0 42 M0 42 C0 33.24, 0 24.49, 0 14 M0 42 C0 34.12, 0 26.23, 0 14 M0 14 C0 4.67, 4.67 0, 14 0 M0 14 C0 4.67, 4.67 0, 14 0" stroke="#000000" stroke-width="1" fill="none"></path></g><g transform="translate(406.9900283813472 426.1666666666665) rotate(0 43.509971618652344 12.5)"><text x="43.509971618652344" y="0" font-family="Virgil, Segoe UI Emoji" font-size="20px" fill="#000000" text-anchor="middle" style="white-space: pre;" direction="ltr" dominant-baseline="text-before-edge">Raum PC</text></g><g stroke-linecap="round" transform="translate(246.99999999999977 409.6666666666665) rotate(0 61.5 28)"><path d="M14 0 M14 0 C51.65 0, 89.3 0, 109 0 M14 0 C48.26 0, 82.53 0, 109 0 M109 0 C118.33 0, 123 4.67, 123 14 M109 0 C118.33 0, 123 4.67, 123 14 M123 14 C123 21.64, 123 29.28, 123 42 M123 14 C123 20.9, 123 27.79, 123 42 M123 42 C123 51.33, 118.33 56, 109 56 M123 42 C123 51.33, 118.33 56, 109 56 M109 56 C84.29 56, 59.59 56, 14 56 M109 56 C72.2 56, 35.39 56, 14 56 M14 56 C4.67 56, 0 51.33, 0 42 M14 56 C4.67 56, 0 51.33, 0 42 M0 42 C0 33.45, 0 24.89, 0 14 M0 42 C0 33.27, 0 24.53, 0 14 M0 14 C0 4.67, 4.67 0, 14 0 M0 14 C0 4.67, 4.67 0, 14 0" stroke="#000000" stroke-width="1" fill="none"></path></g><g transform="translate(264.99002838134743 425.1666666666665) rotate(0 43.509971618652344 12.5)"><text x="43.509971618652344" y="0" font-family="Virgil, Segoe UI Emoji" font-size="20px" fill="#000000" text-anchor="middle" style="white-space: pre;" direction="ltr" dominant-baseline="text-before-edge">Raum PC</text></g><g stroke-linecap="round" transform="translate(661.4262596022086 470.23208620534297) rotate(0 61.5 28)"><path d="M14 0 M14 0 C49.31 0, 84.62 0, 109 0 M14 0 C47.82 0, 81.63 0, 109 0 M109 0 C118.33 0, 123 4.67, 123 14 M109 0 C118.33 0, 123 4.67, 123 14 M123 14 C123 24.4, 123 34.8, 123 42 M123 14 C123 23.94, 123 33.88, 123 42 M123 42 C123 51.33, 118.33 56, 109 56 M123 42 C123 51.33, 118.33 56, 109 56 M109 56 C85.53 56, 62.06 56, 14 56 M109 56 C89.87 56, 70.73 56, 14 56 M14 56 C4.67 56, 0 51.33, 0 42 M14 56 C4.67 56, 0 51.33, 0 42 M0 42 C0 35.04, 0 28.09, 0 14 M0 42 C0 36.11, 0 30.23, 0 14 M0 14 C0 4.67, 4.67 0, 14 0 M0 14 C0 4.67, 4.67 0, 14 0" stroke="#000000" stroke-width="1" fill="none"></path></g><g transform="translate(688.0762916456656 485.73208620534297) rotate(0 34.84996795654297 12.5)"><text x="34.84996795654297" y="0" font-family="Virgil, Segoe UI Emoji" font-size="20px" fill="#000000" text-anchor="middle" style="white-space: pre;" direction="ltr" dominant-baseline="text-before-edge">Dozent</text></g><g stroke-linecap="round" transform="translate(931.3019056491908 384.7817818931808) rotate(0 76.5 55)"><path d="M27.5 0 M27.5 0 C49.69 0, 71.89 0, 125.5 0 M27.5 0 C56.27 0, 85.04 0, 125.5 0 M125.5 0 C143.83 0, 153 9.17, 153 27.5 M125.5 0 C143.83 0, 153 9.17, 153 27.5 M153 27.5 C153 47.24, 153 66.98, 153 82.5 M153 27.5 C153 39.73, 153 51.95, 153 82.5 M153 82.5 C153 100.83, 143.83 110, 125.5 110 M153 82.5 C153 100.83, 143.83 110, 125.5 110 M125.5 110 C97.43 110, 69.36 110, 27.5 110 M125.5 110 C96.22 110, 66.93 110, 27.5 110 M27.5 110 C9.17 110, 0 100.83, 0 82.5 M27.5 110 C9.17 110, 0 100.83, 0 82.5 M0 82.5 C0 61.01, 0 39.51, 0 27.5 M0 82.5 C0 67.83, 0 53.17, 0 27.5 M0 27.5 C0 9.17, 9.17 0, 27.5 0 M0 27.5 C0 9.17, 9.17 0, 27.5 0" stroke="#862e9c" stroke-width="1" fill="none"></path></g><g transform="translate(939.071970956808 402.2817818931808) rotate(0 68.72993469238281 37.5)"><text x="68.72993469238281" y="0" font-family="Virgil, Segoe UI Emoji" font-size="20px" fill="#862e9c" text-anchor="middle" style="white-space: pre;" direction="ltr" dominant-baseline="text-before-edge">Angreifer</text><text x="68.72993469238281" y="25" font-family="Virgil, Segoe UI Emoji" font-size="20px" fill="#862e9c" text-anchor="middle" style="white-space: pre;" direction="ltr" dominant-baseline="text-before-edge">mit räumlichem</text><text x="68.72993469238281" y="50" font-family="Virgil, Segoe UI Emoji" font-size="20px" fill="#862e9c" text-anchor="middle" style="white-space: pre;" direction="ltr" dominant-baseline="text-before-edge">Zugang</text></g><g stroke-linecap="round" transform="translate(750.4012970248664 107.03743385724556) rotate(0 76.5 55)"><path d="M27.5 0 M27.5 0 C64.47 0, 101.43 0, 125.5 0 M27.5 0 C58.44 0, 89.37 0, 125.5 0 M125.5 0 C143.83 0, 153 9.17, 153 27.5 M125.5 0 C143.83 0, 153 9.17, 153 27.5 M153 27.5 C153 40.38, 153 53.26, 153 82.5 M153 27.5 C153 43.68, 153 59.86, 153 82.5 M153 82.5 C153 100.83, 143.83 110, 125.5 110 M153 82.5 C153 100.83, 143.83 110, 125.5 110 M125.5 110 C94.99 110, 64.49 110, 27.5 110 M125.5 110 C98.33 110, 71.17 110, 27.5 110 M27.5 110 C9.17 110, 0 100.83, 0 82.5 M27.5 110 C9.17 110, 0 100.83, 0 82.5 M0 82.5 C0 61.94, 0 41.39, 0 27.5 M0 82.5 C0 66.71, 0 50.92, 0 27.5 M0 27.5 C0 9.17, 9.17 0, 27.5 0 M0 27.5 C0 9.17, 9.17 0, 27.5 0" stroke="#862e9c" stroke-width="1" fill="none"></path></g><g transform="translate(772.0513443271125 137.03743385724556) rotate(0 54.849952697753906 25)"><text x="54.849952697753906" y="0" font-family="Virgil, Segoe UI Emoji" font-size="20px" fill="#862e9c" text-anchor="middle" style="white-space: pre;" direction="ltr" dominant-baseline="text-before-edge">Angreifer</text><text x="54.849952697753906" y="25" font-family="Virgil, Segoe UI Emoji" font-size="20px" fill="#862e9c" text-anchor="middle" style="white-space: pre;" direction="ltr" dominant-baseline="text-before-edge">im Internet</text></g><g stroke-linecap="round"><g transform="translate(660.4262596022086 483.5531417740731) rotate(0 -73.21312980110474 -15.270136553444217)"><path d="M0 0 C-24.4 -5.09, -122.02 -25.45, -146.43 -30.54 M0 0 C-24.4 -5.09, -122.02 -25.45, -146.43 -30.54" stroke="#000000" stroke-width="1" fill="none"></path></g><g transform="translate(660.4262596022086 483.5531417740731) rotate(0 -73.21312980110474 -15.270136553444217)"><path d="M-146.43 -30.54 L-131.82 -33.97 L-134.41 -21.56 L-146.43 -30.54" stroke="none" stroke-width="0" fill="#000000" fill-rule="evenodd"></path><path d="M-146.43 -30.54 C-142.64 -31.43, -138.85 -32.32, -131.82 -33.97 M-146.43 -30.54 C-141.83 -31.62, -137.23 -32.7, -131.82 -33.97 M-131.82 -33.97 C-132.59 -30.28, -133.36 -26.6, -134.41 -21.56 M-131.82 -33.97 C-132.81 -29.24, -133.8 -24.52, -134.41 -21.56 M-134.41 -21.56 C-138.56 -24.66, -142.71 -27.76, -146.43 -30.54 M-134.41 -21.56 C-137.06 -23.54, -139.71 -25.52, -146.43 -30.54 M-146.43 -30.54 C-146.43 -30.54, -146.43 -30.54, -146.43 -30.54 M-146.43 -30.54 C-146.43 -30.54, -146.43 -30.54, -146.43 -30.54" stroke="#000000" stroke-width="1" fill="none"></path></g></g><mask></mask><g stroke-linecap="round"><g transform="translate(447.97215379845716 407.6666666666665) rotate(0 -1.8825061812494823 -55)"><path d="M0 0 C-0.63 -18.33, -3.14 -91.67, -3.77 -110 M0 0 C-0.63 -18.33, -3.14 -91.67, -3.77 -110" stroke="#000000" stroke-width="1" fill="none"></path></g><g transform="translate(447.97215379845716 407.6666666666665) rotate(0 -1.8825061812494823 -55)"><path d="M-3.77 -110 L3.04 -96.63 L-9.64 -96.2 L-3.77 -110" stroke="none" stroke-width="0" fill="#000000" fill-rule="evenodd"></path><path d="M-3.77 -110 C-1.79 -106.12, 0.19 -102.23, 3.04 -96.63 M-3.77 -110 C-1.44 -105.43, 0.88 -100.86, 3.04 -96.63 M3.04 -96.63 C0.45 -96.54, -2.14 -96.45, -9.64 -96.2 M3.04 -96.63 C-0.37 -96.51, -3.78 -96.4, -9.64 -96.2 M-9.64 -96.2 C-7.8 -100.52, -5.96 -104.85, -3.77 -110 M-9.64 -96.2 C-7.92 -100.23, -6.2 -104.27, -3.77 -110 M-3.77 -110 C-3.77 -110, -3.77 -110, -3.77 -110 M-3.77 -110 C-3.77 -110, -3.77 -110, -3.77 -110" stroke="#000000" stroke-width="1" fill="none"></path></g></g><mask></mask><g stroke-linecap="round"><g transform="translate(440.99999999999955 228.66666666666652) rotate(0 -0.5 -29.5)"><path d="M0 0 C-0.17 -9.83, -0.83 -49.17, -1 -59 M0 0 C-0.17 -9.83, -0.83 -49.17, -1 -59" stroke="#000000" stroke-width="1" fill="none"></path></g><g transform="translate(440.99999999999955 228.66666666666652) rotate(0 -0.5 -29.5)"><path d="M-1 -59 L5.57 -45.51 L-7.11 -45.3 L-1 -59" stroke="none" stroke-width="0" fill="#000000" fill-rule="evenodd"></path><path d="M-1 -59 C0.39 -56.15, 1.78 -53.3, 5.57 -45.51 M-1 -59 C0.48 -55.96, 1.96 -52.92, 5.57 -45.51 M5.57 -45.51 C1.8 -45.45, -1.96 -45.39, -7.11 -45.3 M5.57 -45.51 C1.35 -45.44, -2.88 -45.37, -7.11 -45.3 M-7.11 -45.3 C-5.39 -49.15, -3.67 -53.01, -1 -59 M-7.11 -45.3 C-4.71 -50.68, -2.31 -56.06, -1 -59 M-1 -59 C-1 -59, -1 -59, -1 -59 M-1 -59 C-1 -59, -1 -59, -1 -59" stroke="#000000" stroke-width="1" fill="none"></path></g></g><mask></mask><g stroke-linecap="round"><g transform="translate(201 329.6666666666665) rotate(0 247.5 1)"><path d="M0 0 C82.5 0.33, 412.5 1.67, 495 2" stroke="#d9480f" stroke-width="1.5" fill="none" stroke-dasharray="8 9"></path></g></g><mask></mask><g transform="translate(107.03603703862382 315.96994911694264) rotate(0 41.32996368408203 12.5)"><text x="0" y="0" font-family="Virgil, Segoe UI Emoji" font-size="20px" fill="#d9480f" text-anchor="start" style="white-space: pre;" direction="ltr" dominant-baseline="text-before-edge">Internet</text></g><g stroke-linecap="round" transform="translate(10 385.6666666666665) rotate(0 288.5 60.5)"><path d="M30.25 0 M30.25 0 C214.11 0, 397.96 0, 546.75 0 M546.75 0 C566.92 0, 577 10.08, 577 30.25 M577 30.25 C577 48.17, 577 66.09, 577 90.75 M577 90.75 C577 110.92, 566.92 121, 546.75 121 M546.75 121 C363.43 121, 180.12 121, 30.25 121 M30.25 121 C10.08 121, 0 110.92, 0 90.75 M0 90.75 C0 69.42, 0 48.08, 0 30.25 M0 30.25 C0 10.08, 10.08 0, 30.25 0" stroke="#d9480f" stroke-width="1.5" fill="none" stroke-dasharray="8 9"></path></g><g transform="translate(55 424.6666666666665) rotate(0 73.5799331665039 12.5)"><text x="0" y="0" font-family="Virgil, Segoe UI Emoji" font-size="20px" fill="#d9480f" text-anchor="start" style="white-space: pre;" direction="ltr" dominant-baseline="text-before-edge">Raum-Netzwerk</text></g><g stroke-linecap="round"><g transform="translate(305.1709099634443 408.6666666666665) rotate(0 58.91829486001507 -57.5)"><path d="M0 0 C19.64 -19.17, 98.2 -95.83, 117.84 -115 M0 0 C19.64 -19.17, 98.2 -95.83, 117.84 -115" stroke="#000000" stroke-width="1" fill="none"></path></g><g transform="translate(305.1709099634443 408.6666666666665) rotate(0 58.91829486001507 -57.5)"><path d="M117.84 -115 L112.53 -100.97 L103.68 -110.04 L117.84 -115" stroke="none" stroke-width="0" fill="#000000" fill-rule="evenodd"></path><path d="M117.84 -115 C116.58 -111.68, 115.33 -108.36, 112.53 -100.97 M117.84 -115 C116.39 -111.17, 114.94 -107.34, 112.53 -100.97 M112.53 -100.97 C109.88 -103.69, 107.23 -106.41, 103.68 -110.04 M112.53 -100.97 C110.23 -103.33, 107.93 -105.69, 103.68 -110.04 M103.68 -110.04 C107.93 -111.53, 112.18 -113.02, 117.84 -115 M103.68 -110.04 C108 -111.56, 112.33 -113.07, 117.84 -115 M117.84 -115 C117.84 -115, 117.84 -115, 117.84 -115 M117.84 -115 C117.84 -115, 117.84 -115, 117.84 -115" stroke="#000000" stroke-width="1" fill="none"></path></g></g><mask></mask><g stroke-linecap="round"><g transform="translate(650.9999999999991 602.6666666666661) rotate(0 -168.5 -67.5)"><path d="M0 0 C-56.17 -22.5, -280.83 -112.5, -337 -135 M0 0 C-56.17 -22.5, -280.83 -112.5, -337 -135" stroke="#000000" stroke-width="1" fill="none"></path></g><g transform="translate(650.9999999999991 602.6666666666661) rotate(0 -168.5 -67.5)"><path d="M-337 -135 L-322.02 -135.83 L-326.74 -124.06 L-337 -135" stroke="none" stroke-width="0" fill="#000000" fill-rule="evenodd"></path><path d="M-337 -135 C-331.78 -135.29, -326.56 -135.58, -322.02 -135.83 M-337 -135 C-333.85 -135.17, -330.71 -135.35, -322.02 -135.83 M-322.02 -135.83 C-323.38 -132.45, -324.73 -129.07, -326.74 -124.06 M-322.02 -135.83 C-323.72 -131.58, -325.43 -127.34, -326.74 -124.06 M-326.74 -124.06 C-329.35 -126.84, -331.96 -129.62, -337 -135 M-326.74 -124.06 C-330.03 -127.57, -333.33 -131.09, -337 -135 M-337 -135 C-337 -135, -337 -135, -337 -135 M-337 -135 C-337 -135, -337 -135, -337 -135" stroke="#000000" stroke-width="1" fill="none"></path></g></g><mask></mask><g transform="translate(12 10) rotate(0 280.55029296875 32)"><text x="0" y="0" font-family="Virgil, Segoe UI Emoji" font-size="51.19999999999997px" fill="#000000" text-anchor="start" style="white-space: pre;" direction="ltr" dominant-baseline="text-before-edge">Datenfluss Diagramm </text></g><g transform="translate(565.7808691406235 30) rotate(0 196.89947509765625 15.5)"><text x="0" y="0" font-family="Virgil, Segoe UI Emoji" font-size="24.800000000000008px" fill="#000000" text-anchor="start" style="white-space: pre;" direction="ltr" dominant-baseline="text-before-edge">- login/connection with office365</text></g><g stroke-linecap="round"><g transform="translate(927.9197488216355 487.72037074088894) rotate(0 -104.33621401609173 61.532400337616764)"><path d="M1.07 0.26 C-33.82 20.63, -174.1 101.96, -209.19 122.46 M0.18 -0.66 C-34.83 19.86, -174.73 102.83, -209.75 123.72" stroke="#862e9c" stroke-width="1" fill="none"></path></g><g transform="translate(927.9197488216355 487.72037074088894) rotate(0 -104.33621401609173 61.532400337616764)"><path d="M-211.43 122.07 L-201.48 110.6 L-195.97 122.11 L-211.52 122.44" stroke="none" stroke-width="0" fill="#862e9c" fill-rule="evenodd"></path><path d="M-209.43 124.64 C-207.76 120.32, -204.1 116.56, -199.88 110.19 M-209.28 123.19 C-206.29 118.96, -203.45 113.37, -201.26 111.38 M-200.76 112 C-199.52 114.77, -196.51 119.75, -195.03 123.44 M-200.79 111.83 C-199.02 115.08, -197.68 117.46, -194.23 122.72 M-195.17 122.47 C-197.38 123.17, -202.57 122.89, -210.09 123.69 M-194.69 122.66 C-199.91 122.11, -203.95 122.92, -209.62 123 M-209.75 123.72 C-209.75 123.72, -209.75 123.72, -209.75 123.72 M-209.75 123.72 C-209.75 123.72, -209.75 123.72, -209.75 123.72" stroke="#862e9c" stroke-width="1" fill="none"></path></g></g><mask></mask><g stroke-linecap="round"><g transform="translate(929.3252957686782 487.78990312312) rotate(0 -71.23762028220312 10.848626454275973)"><path d="M-1.03 -0.05 C-24.79 3.58, -118.74 18, -142.15 21.79 M0.64 -1.11 C-23.32 2.62, -119.35 18.63, -143.11 22.81" stroke="#862e9c" stroke-width="1" fill="none"></path></g><g transform="translate(929.3252957686782 487.78990312312) rotate(0 -71.23762028220312 10.848626454275973)"><path d="M-141.34 24.71 L-131.81 15.11 L-128.59 25.03 L-143 24.56" stroke="none" stroke-width="0" fill="#862e9c" fill-rule="evenodd"></path><path d="M-143.17 22.78 C-140.21 20.85, -134.94 17.46, -132.17 15.26 M-143.73 22.75 C-138.54 19.16, -133.51 15.6, -131.26 13.83 M-131.84 15.11 C-130.27 18.92, -129.01 22.2, -128.86 26.76 M-130.58 13.67 C-130.03 16.61, -129.79 19.72, -129.22 26.36 M-129.58 28.19 C-133.03 26.1, -137.23 23.43, -142.66 21.61 M-128.64 26.88 C-133.68 26.05, -138.76 24.12, -143.07 22.65 M-143.11 22.81 C-143.11 22.81, -143.11 22.81, -143.11 22.81 M-143.11 22.81 C-143.11 22.81, -143.11 22.81, -143.11 22.81" stroke="#862e9c" stroke-width="1" fill="none"></path></g></g><mask></mask><g stroke-linecap="round"><g transform="translate(917.4810974233737 423.7291001819153) rotate(0 -200.69053736764727 9.484878223859596)"><path d="M-0.67 0.79 C-67.89 3.86, -334.99 14.66, -402.23 17.74 M1.18 0.16 C-66.2 3.41, -335.43 15.96, -402.56 18.81" stroke="#862e9c" stroke-width="1" fill="none"></path></g><g transform="translate(917.4810974233737 423.7291001819153) rotate(0 -200.69053736764727 9.484878223859596)"><path d="M-404.5 17.95 L-388.01 13.33 L-389.24 23.16 L-403.17 19.93" stroke="none" stroke-width="0" fill="#862e9c" fill-rule="evenodd"></path><path d="M-401.57 20.28 C-398.4 15.26, -391.25 13.47, -389.01 10.7 M-402.18 19.3 C-397.84 16.53, -393.94 15.28, -389.27 11.34 M-389.69 12.6 C-389.22 13.6, -388.44 18.63, -387.63 25.21 M-389.02 11.5 C-388.7 15.61, -389.02 19.77, -388.8 24.68 M-389.42 24.5 C-393.36 22.74, -394.55 20.51, -403.54 20.22 M-389.01 24.05 C-392.66 22.44, -396.06 21.51, -403.12 18.61 M-402.56 18.81 C-402.56 18.81, -402.56 18.81, -402.56 18.81 M-402.56 18.81 C-402.56 18.81, -402.56 18.81, -402.56 18.81" stroke="#862e9c" stroke-width="1" fill="none"></path></g></g><mask></mask><g transform="translate(797.6456788708788 243.52564051022182) rotate(0 58.59375 12)"><text x="0" y="0" font-family="Cascadia, Segoe UI Emoji" font-size="20px" fill="#862e9c" text-anchor="start" style="white-space: pre;" direction="ltr" dominant-baseline="text-before-edge">- phishing</text></g><g transform="translate(858.2601056968497 542.2783094052711) rotate(0 117.1875 12)"><text x="0" y="0" font-family="Cascadia, Segoe UI Emoji" font-size="20px" fill="#862e9c" text-anchor="start" style="white-space: pre;" direction="ltr" dominant-baseline="text-before-edge">- social-Engineering</text></g><g transform="translate(833.4242282106593 223.4276259356311) rotate(0 117.1875 12)"><text x="0" y="0" font-family="Cascadia, Segoe UI Emoji" font-size="20px" fill="#862e9c" text-anchor="start" style="white-space: pre;" direction="ltr" dominant-baseline="text-before-edge">- social-Engineering</text></g><g transform="translate(587.0321699122956 124.73968817871537) rotate(0 64.453125 12)"><text x="0" y="0" font-family="Cascadia, Segoe UI Emoji" font-size="20px" fill="#862e9c" text-anchor="start" style="white-space: pre;" direction="ltr" dominant-baseline="text-before-edge">-bruteforce</text></g><g transform="translate(515.5162165946087 150.06747427263963) rotate(0 99.609375 24)"><text x="0" y="0" font-family="Cascadia, Segoe UI Emoji" font-size="20px" fill="#862e9c" text-anchor="start" style="white-space: pre;" direction="ltr" dominant-baseline="text-before-edge">-reused passwords</text><text x="0" y="24" font-family="Cascadia, Segoe UI Emoji" font-size="20px" fill="#862e9c" text-anchor="start" style="white-space: pre;" direction="ltr" dominant-baseline="text-before-edge">/credentials</text></g><g stroke-linecap="round"><g transform="translate(835.0328473140328 219.83724381961247) rotate(0 -159.42211331187332 93.84019145518505)"><path d="M-0.64 0.07 C-54.09 31.7, -266.79 157.44, -320.07 188.62 M1.22 -0.93 C-51.9 30.45, -264.6 155.38, -317.8 186.86" stroke="#862e9c" stroke-width="1" fill="none"></path></g><g transform="translate(835.0328473140328 219.83724381961247) rotate(0 -159.42211331187332 93.84019145518505)"><path d="M-317.49 185.52 L-311.26 174.21 L-301.43 185.34 L-316.15 185.43" stroke="none" stroke-width="0" fill="#862e9c" fill-rule="evenodd"></path><path d="M-317.71 185.8 C-313.81 181.2, -312.72 178.44, -308.43 173.83 M-318.36 187.06 C-315.87 182.19, -312.16 179.09, -309.28 175.24 M-309.63 173.77 C-306.9 178.06, -307.1 179.08, -303.56 184.57 M-309.82 173.98 C-306.79 177.52, -305.26 181.45, -303.02 185.27 M-302.33 184.6 C-306.6 186.81, -310.29 186.01, -316.49 188.06 M-303.54 185.33 C-308.75 186.24, -313.71 186.55, -318.21 187.46 M-317.8 186.86 C-317.8 186.86, -317.8 186.86, -317.8 186.86 M-317.8 186.86 C-317.8 186.86, -317.8 186.86, -317.8 186.86" stroke="#862e9c" stroke-width="1" fill="none"></path></g></g><mask></mask><g transform="translate(765.5966715835832 261.64029680304066) rotate(0 52.734374999999886 12)"><text x="0" y="0" font-family="Cascadia, Segoe UI Emoji" font-size="20px" fill="#862e9c" text-anchor="start" style="white-space: pre;" direction="ltr" dominant-baseline="text-before-edge">- Malware</text></g><g stroke-linecap="round"><g transform="translate(748.1787328404876 160.6162520930875) rotate(0 -120.33808380138169 45.29735221477404)"><path d="M-0.14 0.85 C-40.28 15.81, -200.77 74.63, -240.54 89.42 M-1.67 0.25 C-41.47 15.35, -198.72 75.33, -238.28 90.35" stroke="#862e9c" stroke-width="1" fill="none"></path></g><g transform="translate(748.1787328404876 160.6162520930875) rotate(0 -120.33808380138169 45.29735221477404)"><path d="M-237.91 90.39 L-228.08 80.54 L-222.76 91.37 L-236.41 88.64" stroke="none" stroke-width="0" fill="#862e9c" fill-rule="evenodd"></path><path d="M-237.23 89.26 C-236.26 87.94, -232.65 83.81, -226.98 78.85 M-238.7 89.61 C-235.18 87.42, -231.99 84.14, -228.15 80.29 M-227.72 78.91 C-226.84 83.2, -223.98 87.36, -222.94 90.54 M-228.13 79.25 C-227.19 82.62, -225.5 86.09, -223.5 91.62 M-223.68 92.52 C-227.27 91.91, -233.07 89.69, -239.3 89.44 M-223.43 90.86 C-227.67 91.61, -233.08 90.57, -238.66 90.17 M-238.28 90.35 C-238.28 90.35, -238.28 90.35, -238.28 90.35 M-238.28 90.35 C-238.28 90.35, -238.28 90.35, -238.28 90.35" stroke="#862e9c" stroke-width="1" fill="none"></path></g></g><mask></mask><g transform="translate(711.9494202548492 392.623196151118) rotate(0 64.45312500000011 12)"><text x="0" y="0" font-family="Cascadia, Segoe UI Emoji" font-size="20px" fill="#862e9c" text-anchor="start" style="white-space: pre;" direction="ltr" dominant-baseline="text-before-edge">- keylogger</text></g></svg>