<svg version="1.1" xmlns="http://www.w3.org/2000/svg" viewBox="0 0 1949.1232967122392 1159.916666666666" width="1949.1232967122392" height="1159.916666666666">
  <!-- svg-source:excalidraw -->
  
  <defs>
    <style class="style-fonts">
      @font-face {
        font-family: "Virgil";
        src: url("https://excalidraw.com/Virgil.woff2");
      }
      @font-face {
        font-family: "Cascadia";
        src: url("https://excalidraw.com/Cascadia.woff2");
      }
    </style>
  </defs>
  <rect x="0" y="0" width="1949.1232967122392" height="1159.916666666666" fill="#ffffff"></rect><g transform="translate(10 22.66666666666663) rotate(0 288.8447265625 32)"><text x="0" y="0" font-family="Virgil, Segoe UI Emoji" font-size="51.19999999999997px" fill="#000000" text-anchor="start" style="white-space: pre;" direction="ltr" dominant-baseline="text-before-edge">Prozessfluss Diagramm</text></g><g transform="translate(609 34.66666666666663) rotate(0 116.00635528564453 19)"><text x="0" y="0" font-family="Virgil, Segoe UI Emoji" font-size="30.399999999999984px" fill="#000000" text-anchor="start" style="white-space: pre;" direction="ltr" dominant-baseline="text-before-edge">- Tagesablauf </text></g><g stroke-linecap="round" transform="translate(123 151.66666666666663) rotate(0 233.5 329.5)"><path d="M32 0 M32 0 C187.39 0, 342.79 0, 435 0 M32 0 C180.06 0, 328.12 0, 435 0 M435 0 C456.33 0, 467 10.67, 467 32 M435 0 C456.33 0, 467 10.67, 467 32 M467 32 C467 224.54, 467 417.09, 467 627 M467 32 C467 181.32, 467 330.63, 467 627 M467 627 C467 648.33, 456.33 659, 435 659 M467 627 C467 648.33, 456.33 659, 435 659 M435 659 C312.07 659, 189.13 659, 32 659 M435 659 C293.76 659, 152.52 659, 32 659 M32 659 C10.67 659, 0 648.33, 0 627 M32 659 C10.67 659, 0 648.33, 0 627 M0 627 C0 455.38, 0 283.76, 0 32 M0 627 C0 463.35, 0 299.71, 0 32 M0 32 C0 10.67, 10.67 0, 32 0 M0 32 C0 10.67, 10.67 0, 32 0" stroke="#000000" stroke-width="1" fill="none"></path></g><g stroke-linecap="round" transform="translate(976.3333333333333 10) rotate(0 385.9999999999999 224.5)"><path d="M32 0 M32 0 C253.91 0, 475.82 0, 740 0 M32 0 C264.44 0, 496.87 0, 740 0 M740 0 C761.33 0, 772 10.67, 772 32 M740 0 C761.33 0, 772 10.67, 772 32 M772 32 C772 138.89, 772 245.78, 772 417 M772 32 C772 164.75, 772 297.51, 772 417 M772 417 C772 438.33, 761.33 449, 740 449 M772 417 C772 438.33, 761.33 449, 740 449 M740 449 C581.18 449, 422.37 449, 32 449 M740 449 C507.89 449, 275.78 449, 32 449 M32 449 C10.67 449, 0 438.33, 0 417 M32 449 C10.67 449, 0 438.33, 0 417 M0 417 C0 292.36, 0 167.73, 0 32 M0 417 C0 275.76, 0 134.53, 0 32 M0 32 C0 10.67, 10.67 0, 32 0 M0 32 C0 10.67, 10.67 0, 32 0" stroke="#000000" stroke-width="1" fill="none"></path></g><g transform="translate(226 175.66666666666663) rotate(0 114.71990203857422 12.5)"><text x="0" y="0" font-family="Virgil, Segoe UI Emoji" font-size="20px" fill="#000000" text-anchor="start" style="white-space: pre;" direction="ltr" dominant-baseline="text-before-edge">Schulungs-Raum Zugang</text></g><g transform="translate(1033.3333333333333 33.999999999999886) rotate(0 100.42991638183594 12.5)"><text x="0" y="0" font-family="Virgil, Segoe UI Emoji" font-size="20px" fill="#000000" text-anchor="start" style="white-space: pre;" direction="ltr" dominant-baseline="text-before-edge">Server-Raum Zugang</text></g><g stroke-linecap="round" transform="translate(319 250.66666666666663) rotate(0 122.5 54)"><path d="M75.34 4.49 C88.39 1.48, 107.06 0.4, 122.87 0.44 C138.68 0.47, 155.74 2.2, 170.2 4.7 C184.67 7.2, 198.66 10.8, 209.66 15.45 C220.66 20.09, 230.44 26.06, 236.22 32.57 C242 39.09, 244.47 47.57, 244.35 54.53 C244.24 61.49, 241.53 67.98, 235.53 74.33 C229.53 80.68, 219.4 87.72, 208.35 92.64 C197.29 97.56, 183.66 101.45, 169.2 103.85 C154.75 106.24, 137.12 107.03, 121.61 107.03 C106.1 107.04, 90.53 106.49, 76.14 103.87 C61.75 101.25, 46.43 96.11, 35.27 91.29 C24.12 86.48, 14.94 81.25, 9.21 74.99 C3.47 68.74, 0.7 60.82, 0.85 53.75 C1 46.69, 4.32 39.07, 10.1 32.61 C15.89 26.15, 24.07 19.89, 35.57 14.99 C47.07 10.1, 71.05 5.13, 79.12 3.23 C87.19 1.34, 83.35 2.74, 83.99 3.64 M112.51 -0.78 C127.02 -2.08, 145.8 0.02, 160.66 2.14 C175.52 4.26, 190.05 7.63, 201.65 11.94 C213.26 16.24, 223.18 21.45, 230.29 27.98 C237.39 34.51, 242.69 44.05, 244.29 51.11 C245.89 58.17, 244.86 63.82, 239.91 70.33 C234.96 76.84, 225.12 84.81, 214.6 90.18 C204.08 95.56, 190.43 99.59, 176.79 102.56 C163.14 105.52, 148.27 107.53, 132.72 107.98 C117.17 108.44, 98.21 107.53, 83.48 105.31 C68.74 103.09, 55.82 99.09, 44.31 94.67 C32.81 90.26, 21.92 84.64, 14.44 78.81 C6.95 72.99, 0.92 66.75, -0.57 59.7 C-2.07 52.65, 0.47 43.12, 5.46 36.5 C10.45 29.87, 19.33 24.99, 29.37 19.95 C39.4 14.91, 51.82 9.5, 65.69 6.27 C79.56 3.04, 104.48 1.36, 112.59 0.57 C120.69 -0.23, 114.27 0.5, 114.33 1.51" stroke="#000000" stroke-width="1" fill="none"></path></g><g transform="translate(360.5894946830658 279.4829004825931) rotate(0 80.78992462158203 25)"><text x="80.78992462158203" y="0" font-family="Virgil, Segoe UI Emoji" font-size="20px" fill="#000000" text-anchor="middle" style="white-space: pre;" direction="ltr" dominant-baseline="text-before-edge">Aufschließen des</text><text x="80.78992462158203" y="25" font-family="Virgil, Segoe UI Emoji" font-size="20px" fill="#000000" text-anchor="middle" style="white-space: pre;" direction="ltr" dominant-baseline="text-before-edge">Schulungsraumes</text></g><g stroke-linecap="round" transform="translate(986.3333333333333 120.99999999999989) rotate(0 122.5 42.5)"><path d="M78.8 3.18 C92.04 1, 110.3 0.73, 125.83 0.7 C141.36 0.68, 157.66 0.93, 171.98 3.03 C186.31 5.13, 200.89 9.19, 211.79 13.32 C222.68 17.45, 231.78 22.59, 237.35 27.81 C242.92 33.03, 245.8 39.32, 245.21 44.64 C244.61 49.97, 240.07 54.89, 233.79 59.78 C227.51 64.66, 218.91 70.14, 207.53 73.96 C196.15 77.78, 180.31 80.83, 165.51 82.7 C150.72 84.56, 134.31 85.28, 118.75 85.16 C103.19 85.05, 86.38 84.2, 72.14 82 C57.9 79.8, 43.92 76.06, 33.28 71.97 C22.64 67.88, 13.71 62.64, 8.31 57.45 C2.91 52.27, 0.51 46.13, 0.88 40.86 C1.25 35.59, 4.28 30.72, 10.51 25.83 C16.75 20.95, 25.37 15.73, 38.29 11.54 C51.21 7.34, 77.67 2.4, 88.01 0.66 C98.36 -1.08, 99.62 0.24, 100.36 1.1 M166.4 2.25 C180.93 3.29, 194.81 7.75, 206.22 11.77 C217.63 15.8, 228.34 21.22, 234.86 26.38 C241.39 31.55, 245.15 37.51, 245.37 42.76 C245.59 48.02, 241.7 53.23, 236.18 57.92 C230.65 62.61, 222.89 67.21, 212.22 70.89 C201.55 74.57, 186.42 77.72, 172.16 80 C157.9 82.27, 142.21 84.23, 126.67 84.54 C111.13 84.84, 93.47 83.47, 78.93 81.83 C64.39 80.19, 51.03 78.47, 39.41 74.71 C27.79 70.95, 15.61 64.38, 9.21 59.28 C2.8 54.17, 1.23 49.18, 0.97 44.07 C0.72 38.96, 2.3 33.73, 7.68 28.62 C13.05 23.51, 22.16 17.78, 33.24 13.41 C44.32 9.04, 59.54 4.46, 74.14 2.38 C88.75 0.31, 105.36 0.75, 120.88 0.96 C136.39 1.18, 159.88 3.44, 167.25 3.68 C174.62 3.92, 166.01 1.66, 165.1 2.41" stroke="#000000" stroke-width="1" fill="none"></path></g><g transform="translate(1047.432807264446 138.44796179957177) rotate(0 61.279945373535156 25)"><text x="61.279945373535156" y="0" font-family="Virgil, Segoe UI Emoji" font-size="20px" fill="#000000" text-anchor="middle" style="white-space: pre;" direction="ltr" dominant-baseline="text-before-edge">Schlüssel im </text><text x="61.279945373535156" y="25" font-family="Virgil, Segoe UI Emoji" font-size="20px" fill="#000000" text-anchor="middle" style="white-space: pre;" direction="ltr" dominant-baseline="text-before-edge">Teamraum</text></g><g stroke-linecap="round" transform="translate(977.3333333333333 235.9999999999999) rotate(0 156 42.5)"><path d="M214.2 3.97 C230.91 4.93, 246.46 7.47, 259.74 10.6 C273.02 13.72, 285.36 18.4, 293.9 22.74 C302.44 27.08, 308.58 32, 310.99 36.62 C313.4 41.23, 311.99 45.62, 308.37 50.44 C304.76 55.25, 298.61 61.19, 289.29 65.51 C279.96 69.83, 266.26 73.64, 252.42 76.37 C238.57 79.09, 222.96 80.38, 206.22 81.86 C189.48 83.34, 170.06 85.36, 151.97 85.25 C133.88 85.13, 114.2 83.11, 97.69 81.17 C81.18 79.24, 66.1 76.69, 52.91 73.63 C39.73 70.57, 27.08 66.94, 18.58 62.82 C10.07 58.7, 4.57 53.58, 1.88 48.93 C-0.82 44.27, -1.19 39.7, 2.42 34.88 C6.03 30.07, 14.12 24.38, 23.53 20.05 C32.95 15.72, 45.08 11.79, 58.91 8.91 C72.73 6.04, 89.7 4.19, 106.46 2.81 C123.22 1.43, 139.93 0.45, 159.48 0.65 C179.02 0.85, 211.61 2.89, 223.72 4.02 C235.83 5.14, 233.08 6.77, 232.14 7.4 M183.62 1.32 C200.58 1.21, 218.28 3.29, 233.78 5.53 C249.29 7.77, 265.1 11.13, 276.63 14.76 C288.16 18.38, 296.88 22.47, 302.99 27.25 C309.1 32.03, 313.57 38.57, 313.28 43.43 C312.99 48.29, 307.63 51.8, 301.25 56.43 C294.86 61.06, 286.17 67.26, 274.97 71.23 C263.76 75.21, 249.69 77.89, 234.04 80.26 C218.39 82.63, 198.67 84.52, 181.07 85.43 C163.46 86.35, 145.88 86.95, 128.41 85.73 C110.95 84.51, 91.97 80.91, 76.3 78.12 C60.63 75.33, 45.62 72.52, 34.39 68.98 C23.16 65.43, 14.57 61.56, 8.9 56.87 C3.23 52.18, 0.34 45.81, 0.38 40.84 C0.42 35.88, 3.12 31.2, 9.15 27.09 C15.18 22.98, 24.93 19.57, 36.57 16.16 C48.21 12.75, 63.49 9.27, 78.99 6.61 C94.48 3.96, 111.94 1.38, 129.55 0.25 C147.16 -0.88, 175.79 -0.31, 184.64 -0.16 C193.49 -0.01, 183.17 0.32, 182.63 1.15" stroke="#000000" stroke-width="1" fill="none"></path></g><g transform="translate(1029.4047719037787 253.44796179957177) rotate(0 104.11990356445312 25)"><text x="104.11990356445312" y="0" font-family="Virgil, Segoe UI Emoji" font-size="20px" fill="#000000" text-anchor="middle" style="white-space: pre;" direction="ltr" dominant-baseline="text-before-edge">Ersatz-Schlüssel bei </text><text x="104.11990356445312" y="25" font-family="Virgil, Segoe UI Emoji" font-size="20px" fill="#000000" text-anchor="middle" style="white-space: pre;" direction="ltr" dominant-baseline="text-before-edge">Geschäftsführung </text></g><g stroke-linecap="round" transform="translate(329 377.66666666666663) rotate(0 122.5 54)"><path d="M64.65 6.81 C77.04 3, 95.28 1.6, 110.88 0.77 C126.49 -0.07, 143.32 0.05, 158.27 1.81 C173.22 3.57, 188.64 6.8, 200.58 11.3 C212.52 15.81, 222.58 22.72, 229.89 28.86 C237.2 35.01, 242.88 41.33, 244.45 48.18 C246.01 55.03, 243.78 63.33, 239.28 69.99 C234.79 76.65, 227.36 83.02, 217.45 88.14 C207.54 93.25, 193.49 97.38, 179.82 100.66 C166.16 103.93, 150.98 107.09, 135.46 107.8 C119.93 108.51, 101.76 106.85, 86.66 104.93 C71.56 103.01, 56.74 100.52, 44.85 96.26 C32.96 92.01, 22.59 85.67, 15.31 79.41 C8.04 73.16, 2.97 65.72, 1.19 58.76 C-0.59 51.8, 0.26 44.18, 4.63 37.65 C9 31.11, 16.51 24.99, 27.41 19.54 C38.32 14.1, 62.1 7.34, 70.08 4.97 C78.06 2.6, 74.46 4.34, 75.28 5.33 M91.06 1.36 C104.9 -1.15, 122.82 -1.26, 138.04 -0.53 C153.25 0.2, 168.79 1.9, 182.33 5.73 C195.88 9.56, 209.41 16.81, 219.3 22.46 C229.2 28.12, 237.76 33.04, 241.69 39.65 C245.62 46.26, 245.28 55.18, 242.88 62.14 C240.47 69.1, 234.79 75.61, 227.26 81.42 C219.73 87.22, 210.06 92.86, 197.7 96.97 C185.34 101.08, 168.04 104.4, 153.07 106.09 C138.11 107.79, 123.05 107.98, 107.93 107.14 C92.82 106.3, 76.31 104.2, 62.39 101.06 C48.47 97.93, 34.2 93.99, 24.42 88.35 C14.63 82.7, 7.56 73.9, 3.67 67.18 C-0.21 60.45, -0.84 54.62, 1.09 47.99 C3.01 41.36, 7.46 33.48, 15.22 27.41 C22.97 21.34, 34.81 15.8, 47.6 11.58 C60.4 7.36, 84.86 3.38, 92 2.11 C99.15 0.84, 90.35 2.94, 90.45 3.97" stroke="#000000" stroke-width="1" fill="none"></path></g><g transform="translate(372.99950597456973 418.9829004825931) rotate(0 78.37991333007812 12.5)"><text x="78.37991333007812" y="0" font-family="Virgil, Segoe UI Emoji" font-size="20px" fill="#000000" text-anchor="middle" style="white-space: pre;" direction="ltr" dominant-baseline="text-before-edge">Schulungsbetrieb</text></g><g stroke-linecap="round" transform="translate(327 513.6666666666666) rotate(0 122.5 54)"><path d="M150.89 1.94 C165.83 2.46, 181.53 5.86, 194.22 9.64 C206.9 13.42, 218.91 18.61, 227 24.6 C235.08 30.6, 240.28 38.74, 242.75 45.61 C245.22 52.48, 245.33 59.11, 241.79 65.82 C238.25 72.52, 230.61 80.17, 221.52 85.83 C212.44 91.49, 200.57 96.36, 187.29 99.78 C174.01 103.19, 157.15 105.18, 141.85 106.33 C126.54 107.47, 110.64 108.17, 95.45 106.63 C80.26 105.09, 63.55 101.04, 50.72 97.1 C37.88 93.16, 26.48 88.7, 18.43 82.97 C10.39 77.23, 4.89 69.65, 2.45 62.67 C0.02 55.7, 0.52 47.93, 3.84 41.12 C7.16 34.31, 13.44 27.34, 22.39 21.8 C31.35 16.27, 44.16 11.46, 57.58 7.9 C71 4.34, 87.01 1.44, 102.92 0.44 C118.83 -0.55, 144.13 1.34, 153.03 1.93 C161.93 2.53, 156.79 3.21, 156.32 4.02 M83.86 1.72 C97.09 -1.28, 114.75 -2.24, 130.34 -1.33 C145.92 -0.42, 163.08 3.87, 177.39 7.17 C191.71 10.46, 206.19 13.27, 216.25 18.45 C226.32 23.63, 233.28 31.59, 237.78 38.26 C242.29 44.94, 244.18 51.79, 243.28 58.5 C242.39 65.2, 239.42 72.43, 232.4 78.5 C225.38 84.56, 212.89 90.48, 201.17 94.88 C189.46 99.28, 176.57 102.68, 162.1 104.89 C147.64 107.1, 130.35 108.33, 114.39 108.13 C98.42 107.92, 80.54 106.94, 66.32 103.64 C52.11 100.35, 39.14 93.67, 29.11 88.38 C19.09 83.08, 11.17 78.21, 6.18 71.87 C1.19 65.53, -1.93 57.3, -0.81 50.33 C0.31 43.36, 5.45 36.22, 12.9 30.05 C20.35 23.89, 32.17 17.7, 43.91 13.33 C55.65 8.95, 76.7 5.17, 83.34 3.78 C89.98 2.39, 82.93 4.41, 83.74 4.97" stroke="#000000" stroke-width="1" fill="none"></path></g><g transform="translate(370.1794833915619 542.4829004825931) rotate(0 79.19993591308594 24.999999999999943)"><text x="79.19993591308594" y="0" font-family="Virgil, Segoe UI Emoji" font-size="20px" fill="#000000" text-anchor="middle" style="white-space: pre;" direction="ltr" dominant-baseline="text-before-edge">Abschließen der </text><text x="79.19993591308594" y="25" font-family="Virgil, Segoe UI Emoji" font-size="20px" fill="#000000" text-anchor="middle" style="white-space: pre;" direction="ltr" dominant-baseline="text-before-edge">Räume</text></g><g stroke-linecap="round" transform="translate(311 641.6666666666666) rotate(0 136.5 60)"><path d="M166.4 0.92 C182.1 1.26, 199.16 5, 212.69 9.15 C226.21 13.31, 238.17 19.85, 247.56 25.83 C256.95 31.82, 265.05 38.04, 269.04 45.05 C273.02 52.06, 273.51 60.67, 271.46 67.91 C269.42 75.14, 264.61 82.32, 256.78 88.46 C248.96 94.6, 236.91 100.03, 224.51 104.74 C212.1 109.45, 197.84 114.31, 182.34 116.72 C166.84 119.14, 148.09 119.39, 131.52 119.22 C114.94 119.05, 97.82 118.41, 82.89 115.69 C67.97 112.97, 53.63 108.11, 41.97 102.88 C30.3 97.66, 19.95 91.02, 12.88 84.34 C5.82 77.66, 0.7 69.95, -0.42 62.8 C-1.53 55.64, 1 48.21, 6.18 41.4 C11.36 34.59, 20.38 27.5, 30.66 21.95 C40.94 16.39, 53.66 11.48, 67.87 8.06 C82.08 4.65, 97.85 2.39, 115.9 1.45 C133.95 0.51, 164.6 1.75, 176.17 2.44 C187.73 3.13, 185.93 4.64, 185.29 5.6 M92.09 4.58 C106.55 1.67, 126.65 -0.54, 142.95 -0.28 C159.24 -0.03, 175.17 3.1, 189.87 6.11 C204.56 9.13, 219.16 12.88, 231.12 17.8 C243.08 22.71, 254.87 29.11, 261.62 35.62 C268.37 42.13, 270.62 49.72, 271.6 56.85 C272.58 63.97, 272.25 71.43, 267.49 78.35 C262.73 85.27, 253.86 92.46, 243.05 98.36 C232.24 104.25, 217.2 110.34, 202.62 113.7 C188.04 117.06, 171.67 117.58, 155.57 118.54 C139.47 119.5, 122.15 120.9, 106.02 119.48 C89.9 118.07, 72.48 114.21, 58.82 110.06 C45.16 105.91, 33.01 100.53, 24.06 94.58 C15.11 88.62, 9.05 81.23, 5.1 74.32 C1.14 67.41, -1.44 60.11, 0.32 53.11 C2.07 46.12, 7.55 38.96, 15.64 32.34 C23.73 25.71, 35.83 17.99, 48.87 13.36 C61.9 8.72, 86.21 6.08, 93.85 4.53 C101.5 2.97, 94.16 3.54, 94.72 4.03" stroke="#000000" stroke-width="1" fill="none"></path></g><g transform="translate(363.56000249303634 664.2402597954739) rotate(0 83.919921875 37.5)"><text x="83.919921875" y="0" font-family="Virgil, Segoe UI Emoji" font-size="20px" fill="#000000" text-anchor="middle" style="white-space: pre;" direction="ltr" dominant-baseline="text-before-edge">Reinigungskräfte </text><text x="83.919921875" y="25" font-family="Virgil, Segoe UI Emoji" font-size="20px" fill="#000000" text-anchor="middle" style="white-space: pre;" direction="ltr" dominant-baseline="text-before-edge">hat </text><text x="83.919921875" y="50" font-family="Virgil, Segoe UI Emoji" font-size="20px" fill="#000000" text-anchor="middle" style="white-space: pre;" direction="ltr" dominant-baseline="text-before-edge">Zugang/Schlüssel</text></g><g transform="translate(245 288.66666666666663) rotate(0 21.489990234375 12.5)"><text x="0" y="0" font-family="Virgil, Segoe UI Emoji" font-size="20px" fill="#000000" text-anchor="start" style="white-space: pre;" direction="ltr" dominant-baseline="text-before-edge">7:30</text></g><g transform="translate(243 554.6666666666666) rotate(0 26.53998565673828 12.5)"><text x="0" y="0" font-family="Virgil, Segoe UI Emoji" font-size="20px" fill="#000000" text-anchor="start" style="white-space: pre;" direction="ltr" dominant-baseline="text-before-edge">18:00</text></g><g transform="translate(138 675.6666666666666) rotate(0 81.7099380493164 25)"><text x="0" y="0" font-family="Virgil, Segoe UI Emoji" font-size="20px" fill="#000000" text-anchor="start" style="white-space: pre;" direction="ltr" dominant-baseline="text-before-edge">ganztäglich</text><text x="0" y="25" font-family="Virgil, Segoe UI Emoji" font-size="20px" fill="#000000" text-anchor="start" style="white-space: pre;" direction="ltr" dominant-baseline="text-before-edge">auch Wochenende</text></g><g transform="translate(233 411.66666666666663) rotate(0 29.499977111816406 25)"><text x="0" y="0" font-family="Virgil, Segoe UI Emoji" font-size="20px" fill="#000000" text-anchor="start" style="white-space: pre;" direction="ltr" dominant-baseline="text-before-edge"> 8:00</text><text x="0" y="25" font-family="Virgil, Segoe UI Emoji" font-size="20px" fill="#000000" text-anchor="start" style="white-space: pre;" direction="ltr" dominant-baseline="text-before-edge">-15.00</text></g><g transform="translate(1272.333333333333 98.99999999999989) rotate(0 80.31990814208984 25)"><text x="0" y="0" font-family="Virgil, Segoe UI Emoji" font-size="20px" fill="#000000" text-anchor="start" style="white-space: pre;" direction="ltr" dominant-baseline="text-before-edge">Ausleih-Protokoll</text><text x="0" y="25" font-family="Virgil, Segoe UI Emoji" font-size="20px" fill="#000000" text-anchor="start" style="white-space: pre;" direction="ltr" dominant-baseline="text-before-edge">für Regelbetrieb</text></g><g transform="translate(1311.333333333333 286.9999999999999) rotate(0 39.88996124267578 25)"><text x="0" y="0" font-family="Virgil, Segoe UI Emoji" font-size="20px" fill="#000000" text-anchor="start" style="white-space: pre;" direction="ltr" dominant-baseline="text-before-edge">Notfälle</text><text x="0" y="25" font-family="Virgil, Segoe UI Emoji" font-size="20px" fill="#000000" text-anchor="start" style="white-space: pre;" direction="ltr" dominant-baseline="text-before-edge">/Backup</text></g><g stroke-linecap="round" transform="translate(719 437.66666666666663) rotate(0 101 37)"><path d="M18.5 0 M18.5 0 C53.74 -1.01, 89.31 0.98, 183.5 0 M18.5 0 C73.86 -1.79, 129.82 -1.79, 183.5 0 M183.5 0 C197.54 -0.28, 201.72 7.48, 202 18.5 M183.5 0 C196.23 -0.35, 200.28 5.61, 202 18.5 M202 18.5 C200.24 31.12, 201.85 46.51, 202 55.5 M202 18.5 C202.26 25.54, 201.38 33.85, 202 55.5 M202 55.5 C201.56 66.6, 197.18 73.82, 183.5 74 M202 55.5 C204.21 68.85, 198.06 71.82, 183.5 74 M183.5 74 C137.6 73.57, 93.89 72.85, 18.5 74 M183.5 74 C139.79 74.43, 95.27 73.94, 18.5 74 M18.5 74 C4.74 72.27, -0.18 68.35, 0 55.5 M18.5 74 C5.42 72.95, 1.4 66.61, 0 55.5 M0 55.5 C0.12 46.46, 1.93 41.1, 0 18.5 M0 55.5 C0.34 45.23, 1.04 33.73, 0 18.5 M0 18.5 C0.41 7.75, 6.31 0.88, 18.5 0 M0 18.5 C1.79 4.25, 5.92 -1.13, 18.5 0" stroke="#000000" stroke-width="1" fill="none"></path></g><g transform="translate(775.1600494384766 462.16666666666663) rotate(0 44.83995056152344 12.5)"><text x="44.83995056152344" y="0" font-family="Virgil, Segoe UI Emoji" font-size="20px" fill="#000000" text-anchor="middle" style="white-space: pre;" direction="ltr" dominant-baseline="text-before-edge">Customer</text></g><g stroke-linecap="round" transform="translate(723 316.66666666666663) rotate(0 101 37)"><path d="M18.5 0 M18.5 0 C51.71 0.35, 86.32 1.92, 183.5 0 M18.5 0 C63.32 -0.72, 107.24 -1.39, 183.5 0 M183.5 0 C194.53 -1.42, 200.27 5.98, 202 18.5 M183.5 0 C196.43 -0.75, 200.95 7.57, 202 18.5 M202 18.5 C203.63 27.4, 200.01 38.35, 202 55.5 M202 18.5 C201.81 30.48, 202.76 43.07, 202 55.5 M202 55.5 C202.59 68.24, 197.41 74.15, 183.5 74 M202 55.5 C203.02 69.62, 193.92 73.75, 183.5 74 M183.5 74 C142.49 76.49, 100.45 75.14, 18.5 74 M183.5 74 C149.57 72.93, 113.8 72.38, 18.5 74 M18.5 74 C4.97 74.58, 1.34 69.23, 0 55.5 M18.5 74 C4.42 75.98, -0.52 69.53, 0 55.5 M0 55.5 C1.14 44.57, -0.86 36.37, 0 18.5 M0 55.5 C1.06 42.37, 0.35 30.59, 0 18.5 M0 18.5 C0.92 6.73, 6.6 -1.23, 18.5 0 M0 18.5 C2.21 7.7, 7.91 0.72, 18.5 0" stroke="#000000" stroke-width="1" fill="none"></path></g><g transform="translate(779.0100402832031 341.16666666666663) rotate(0 44.989959716796875 12.5)"><text x="44.989959716796875" y="0" font-family="Virgil, Segoe UI Emoji" font-size="20px" fill="#000000" text-anchor="middle" style="white-space: pre;" direction="ltr" dominant-baseline="text-before-edge">Dozenten</text></g><g stroke-linecap="round" transform="translate(715 662.6666666666666) rotate(0 101 37)"><path d="M18.5 0 M18.5 0 C75.23 2.04, 132.04 0.03, 183.5 0 M18.5 0 C56.67 1.79, 95.2 2.14, 183.5 0 M183.5 0 C196.79 -1.99, 200.43 6.31, 202 18.5 M183.5 0 C197.98 1.42, 203.26 6.6, 202 18.5 M202 18.5 C199.76 33.07, 200.98 45.24, 202 55.5 M202 18.5 C202.51 32.59, 200.95 46.97, 202 55.5 M202 55.5 C203.42 69.65, 195.5 72.03, 183.5 74 M202 55.5 C202.89 69.56, 197.24 74.99, 183.5 74 M183.5 74 C134.2 73.48, 88.11 73.6, 18.5 74 M183.5 74 C146.36 74.95, 111.31 75.39, 18.5 74 M18.5 74 C6.51 75.69, 0.54 68.68, 0 55.5 M18.5 74 C6.3 75.5, 2.21 68.51, 0 55.5 M0 55.5 C0.18 44.41, 1.28 32.72, 0 18.5 M0 55.5 C0.3 43, -0.3 31.31, 0 18.5 M0 18.5 C-1.05 5.12, 5.22 1.56, 18.5 0 M0 18.5 C1.47 5.87, 6.72 1.38, 18.5 0" stroke="#000000" stroke-width="1" fill="none"></path></g><g transform="translate(729.2600860595703 687.1666666666666) rotate(0 86.73991394042969 12.5)"><text x="86.73991394042969" y="0" font-family="Virgil, Segoe UI Emoji" font-size="20px" fill="#000000" text-anchor="middle" style="white-space: pre;" direction="ltr" dominant-baseline="text-before-edge">Reinigungspersonal</text></g><g stroke-linecap="round" transform="translate(724 182.66666666666663) rotate(0 101 37)"><path d="M18.5 0 M18.5 0 C77.44 -0.3, 139.34 2.24, 183.5 0 M18.5 0 C79.33 -0.69, 140.15 -0.81, 183.5 0 M183.5 0 C194.43 1.37, 200.47 5.53, 202 18.5 M183.5 0 C195.44 0.97, 201.54 7.16, 202 18.5 M202 18.5 C202.65 34.19, 202.38 48.47, 202 55.5 M202 18.5 C203.11 27.64, 201.61 35.54, 202 55.5 M202 55.5 C201.13 68.55, 194.17 75.6, 183.5 74 M202 55.5 C201.64 67.58, 197.11 74.08, 183.5 74 M183.5 74 C144.27 73.39, 107.34 73.43, 18.5 74 M183.5 74 C136.91 73.27, 90.67 74.54, 18.5 74 M18.5 74 C5.69 73.09, 0.35 69.68, 0 55.5 M18.5 74 C6.42 75.95, -1.29 68.91, 0 55.5 M0 55.5 C-0.21 43.86, 2.04 31.44, 0 18.5 M0 55.5 C-0.06 41.21, -0.91 27.51, 0 18.5 M0 18.5 C1.99 6.34, 7.99 -1.32, 18.5 0 M0 18.5 C-2.17 4.64, 5.88 1.83, 18.5 0" stroke="#000000" stroke-width="1" fill="none"></path></g><g transform="translate(764.4600601196289 207.16666666666663) rotate(0 60.539939880371094 12.5)"><text x="60.539939880371094" y="0" font-family="Virgil, Segoe UI Emoji" font-size="20px" fill="#000000" text-anchor="middle" style="white-space: pre;" direction="ltr" dominant-baseline="text-before-edge">IT-Abteilung</text></g><g stroke-linecap="round"><g transform="translate(721 220.66666666666663) rotate(0 -64.76079150136559 -0.09656241897494056)"><path d="M-0.91 -0.16 C-22.33 -0.25, -108.1 -0.44, -129.25 -0.29 M0.81 -1.29 C-20.73 -1.22, -108.87 1.08, -130.34 1.09" stroke="#000000" stroke-width="1" fill="none"></path></g><g transform="translate(721 220.66666666666663) rotate(0 -64.76079150136559 -0.09656241897494056)"><path d="M-130.47 1.56 L-115.85 -6.6 L-117.37 8.93 L-130.25 1.01" stroke="none" stroke-width="0" fill="#000000" fill-rule="evenodd"></path><path d="M-130.53 0.78 C-127.48 1.1, -122.95 -2.47, -118.13 -6.8 M-129.89 0.87 C-126.46 -0.56, -123.26 -2.03, -116.37 -4.95 M-116.8 -5.87 C-116.43 -0.72, -116.42 1.91, -116.95 7.61 M-117.44 -5.2 C-116.74 -2.86, -117.34 0.83, -116.81 7.68 M-117.53 6.25 C-122.65 5.3, -125.78 1.48, -130.9 -0.08 M-115.99 7.4 C-121.43 4.72, -125.32 3.76, -130.2 0.69 M-130.34 1.09 C-130.34 1.09, -130.34 1.09, -130.34 1.09 M-130.34 1.09 C-130.34 1.09, -130.34 1.09, -130.34 1.09" stroke="#000000" stroke-width="1" fill="none"></path></g></g><mask></mask><g stroke-linecap="round"><g transform="translate(719 358.66666666666663) rotate(0 -63.15308067169042 1.7160565111786354)"><path d="M-1.1 -0.78 C-22.29 -0.14, -105.21 3.44, -126.26 4.22 M0.52 1.42 C-20.84 1.65, -105.34 1.58, -126.83 2.21" stroke="#000000" stroke-width="1" fill="none"></path></g><g transform="translate(719 358.66666666666663) rotate(0 -63.15308067169042 1.7160565111786354)"><path d="M-126.37 0.7 L-113.21 -5.85 L-112.37 7.51 L-128.38 0.67" stroke="none" stroke-width="0" fill="#000000" fill-rule="evenodd"></path><path d="M-127.81 3.13 C-121.54 -0.6, -116.91 -1.59, -111.84 -3.56 M-126.15 2.03 C-122.79 0.94, -119.19 -2.09, -113.89 -4.6 M-112.6 -3.22 C-113.94 -0.3, -111.97 5.01, -113.86 7.61 M-113.83 -4.63 C-113.37 -0.86, -113.67 1.86, -113.45 8.61 M-111.76 7.48 C-116.53 5.26, -119.87 4.95, -128.29 1.56 M-113.45 8.76 C-116.72 6.53, -118.86 6.28, -126.39 1.93 M-126.83 2.21 C-126.83 2.21, -126.83 2.21, -126.83 2.21 M-126.83 2.21 C-126.83 2.21, -126.83 2.21, -126.83 2.21" stroke="#000000" stroke-width="1" fill="none"></path></g></g><mask></mask><g transform="translate(623 333.66666666666663) rotate(0 42.75995635986328 25)"><text x="0" y="0" font-family="Virgil, Segoe UI Emoji" font-size="20px" fill="#000000" text-anchor="start" style="white-space: pre;" direction="ltr" dominant-baseline="text-before-edge">besitz</text><text x="0" y="25" font-family="Virgil, Segoe UI Emoji" font-size="20px" fill="#000000" text-anchor="start" style="white-space: pre;" direction="ltr" dominant-baseline="text-before-edge">Schlüssel</text></g><g transform="translate(626 195.66666666666663) rotate(0 42.75995635986328 25)"><text x="0" y="0" font-family="Virgil, Segoe UI Emoji" font-size="20px" fill="#000000" text-anchor="start" style="white-space: pre;" direction="ltr" dominant-baseline="text-before-edge">besitz</text><text x="0" y="25" font-family="Virgil, Segoe UI Emoji" font-size="20px" fill="#000000" text-anchor="start" style="white-space: pre;" direction="ltr" dominant-baseline="text-before-edge">Schlüssel</text></g><g transform="translate(623 673.6666666666666) rotate(0 42.75995635986328 25)"><text x="0" y="0" font-family="Virgil, Segoe UI Emoji" font-size="20px" fill="#000000" text-anchor="start" style="white-space: pre;" direction="ltr" dominant-baseline="text-before-edge">besitz</text><text x="0" y="25" font-family="Virgil, Segoe UI Emoji" font-size="20px" fill="#000000" text-anchor="start" style="white-space: pre;" direction="ltr" dominant-baseline="text-before-edge">Schlüssel</text></g><g stroke-linecap="round"><g transform="translate(719 476.66666666666663) rotate(0 -63.710193276079394 0.12194365566620036)"><path d="M0.87 -0.92 C-20.5 -0.95, -106.41 -0.95, -127.91 -0.98 M-0.13 1.21 C-21.6 1.36, -106.9 0.3, -128.29 0.04" stroke="#000000" stroke-width="1" fill="none"></path></g><g transform="translate(719 476.66666666666663) rotate(0 -63.710193276079394 0.12194365566620036)"><path d="M-129.61 -1.08 L-115.96 -6.56 L-112.8 7.61 L-129.01 -0.57" stroke="none" stroke-width="0" fill="#000000" fill-rule="evenodd"></path><path d="M-129.44 1.4 C-125 -1, -120.66 -5.49, -115.69 -6.47 M-127.91 0.36 C-125.57 -2.03, -123.32 -2.93, -114.59 -5.93 M-115.87 -6.18 C-113.68 -1.9, -113.8 0.98, -113.56 5.31 M-114.42 -6.54 C-114.14 -1.67, -114.61 3.7, -114.77 6.16 M-114.62 7.26 C-119.99 3.79, -125.06 1.12, -128.31 -0.41 M-114.69 6.31 C-117.34 5.71, -121.1 3.38, -127.61 -0.22 M-128.29 0.04 C-128.29 0.04, -128.29 0.04, -128.29 0.04 M-128.29 0.04 C-128.29 0.04, -128.29 0.04, -128.29 0.04" stroke="#000000" stroke-width="1" fill="none"></path></g></g><mask></mask><g transform="translate(619 424.66666666666663) rotate(0 49.24994659423828 37.5)"><text x="0" y="0" font-family="Virgil, Segoe UI Emoji" font-size="20px" fill="#000000" text-anchor="start" style="white-space: pre;" direction="ltr" dominant-baseline="text-before-edge">offen im</text><text x="0" y="25" font-family="Virgil, Segoe UI Emoji" font-size="20px" fill="#000000" text-anchor="start" style="white-space: pre;" direction="ltr" dominant-baseline="text-before-edge">Schulungs-</text><text x="0" y="50" font-family="Virgil, Segoe UI Emoji" font-size="20px" fill="#000000" text-anchor="start" style="white-space: pre;" direction="ltr" dominant-baseline="text-before-edge">Betrieb</text></g><g stroke-linecap="round"><g transform="translate(713 701.6666666666666) rotate(0 -59.973155873986 0.3219612648782686)"><path d="M0.61 0.26 C-19.59 0.16, -99.96 -0.21, -120.09 -0.16 M-0.53 -0.65 C-20.91 -0.6, -100.57 1.44, -120.56 1.29" stroke="#000000" stroke-width="1" fill="none"></path></g><g transform="translate(713 701.6666666666666) rotate(0 -59.973155873986 0.3219612648782686)"><path d="M-121.54 2.79 L-107.22 -3.71 L-107.02 9.43 L-120.98 3.18" stroke="none" stroke-width="0" fill="#000000" fill-rule="evenodd"></path><path d="M-120.23 2.43 C-115.45 -0.29, -109.26 -5.16, -107.53 -4.19 M-120.51 0.85 C-115.22 -0.57, -111.74 -3.19, -107.29 -4.5 M-107.65 -5.85 C-107.97 -2.73, -106.82 -0.21, -107.18 6.69 M-107.28 -5.58 C-107.14 -2.51, -107.05 1.56, -107.39 6.87 M-106.5 8.13 C-111.64 4.94, -116.8 2.02, -120.89 0.7 M-107.59 7.36 C-110.43 5.14, -113.73 4.15, -120.82 1.39 M-120.56 1.29 C-120.56 1.29, -120.56 1.29, -120.56 1.29 M-120.56 1.29 C-120.56 1.29, -120.56 1.29, -120.56 1.29" stroke="#000000" stroke-width="1" fill="none"></path></g></g><mask></mask><g stroke-linecap="round"><g transform="translate(934 197.89445402245008) rotate(0 42.13269110345993 0.6315341158354499)"><path d="M-0.68 1.07 C13.63 1.01, 70.61 0.09, 84.95 0.14 M1.16 0.59 C15.41 0.59, 70.17 0.76, 84.13 1.12" stroke="#000000" stroke-width="1" fill="none"></path></g><g transform="translate(934 197.89445402245008) rotate(0 42.13269110345993 0.6315341158354499)"><path d="M82.75 2.35 L70.19 5.61 L69.54 -5.61 L84.85 1.23" stroke="none" stroke-width="0" fill="#000000" fill-rule="evenodd"></path><path d="M85.48 1.44 C79.77 3.25, 78.24 5.02, 69.72 6.76 M84.02 0.41 C79.11 3.6, 73.9 5.58, 71.08 7.7 M69.69 6.16 C70.5 3.67, 70.74 2.59, 70.89 -5.99 M70.16 7.08 C70.14 2.95, 70.71 -0.53, 71.24 -5.9 M71.74 -6.72 C72.45 -2.54, 76.79 -3.3, 84.92 0.58 M71.3 -5.6 C74.23 -3.28, 77.81 -2.57, 83.59 1.79 M84.13 1.12 C84.13 1.12, 84.13 1.12, 84.13 1.12 M84.13 1.12 C84.13 1.12, 84.13 1.12, 84.13 1.12" stroke="#000000" stroke-width="1" fill="none"></path></g></g><mask></mask><g stroke-linecap="round"><g transform="translate(934.0000000000002 224.82228513038604) rotate(0 20.74066467180262 25.530632613956584)"><path d="M0.35 0.94 C7.51 9.17, 35.41 41.39, 42.41 49.34 M-0.93 0.39 C6.08 8.79, 34.13 42.5, 41.16 50.67" stroke="#000000" stroke-width="1" fill="none"></path></g><g transform="translate(934.0000000000002 224.82228513038604) rotate(0 20.74066467180262 25.530632613956584)"><path d="M40.23 50.87 L26.77 45.97 L38.55 38.01 L41.61 48.96" stroke="none" stroke-width="0" fill="#000000" fill-rule="evenodd"></path><path d="M42.33 49.96 C37.23 48.32, 32.96 47.97, 26.94 45.82 M41.37 51.23 C37.55 48.74, 35.95 48.05, 27.18 44.76 M26.49 45.52 C29.78 42.63, 33.27 40.73, 36.22 35.27 M27.55 43.84 C31.65 41.69, 34.86 37.55, 37.64 35.68 M37.42 36.5 C38.52 39.53, 38.94 45.07, 40.58 52.01 M37.14 35.57 C37.52 39.01, 38.99 42.06, 41.24 50.34 M41.16 50.67 C41.16 50.67, 41.16 50.67, 41.16 50.67 M41.16 50.67 C41.16 50.67, 41.16 50.67, 41.16 50.67" stroke="#000000" stroke-width="1" fill="none"></path></g></g><mask></mask><g stroke-linecap="round" transform="translate(1442.333333333333 171.9999999999999) rotate(0 64 60.125)"><path d="M37.41 4.28 C45.54 -0.19, 58.56 -0.32, 68.44 0.34 C78.32 1, 88.18 3.61, 96.7 8.25 C105.22 12.89, 114.46 20.24, 119.56 28.19 C124.66 36.14, 126.88 46.55, 127.3 55.94 C127.72 65.33, 126.07 75.98, 122.08 84.53 C118.08 93.09, 111.11 101.4, 103.35 107.3 C95.59 113.2, 85.1 118.27, 75.49 119.93 C65.88 121.6, 55.21 120.18, 45.7 117.3 C36.18 114.41, 25.58 109, 18.41 102.61 C11.24 96.22, 5.64 87.88, 2.66 78.96 C-0.32 70.05, -1.24 58.31, 0.55 49.13 C2.33 39.95, 6.95 31.33, 13.36 23.86 C19.78 16.38, 34.43 7.5, 39.05 4.28 C43.67 1.05, 40.47 3.37, 41.07 4.51 M92.55 6.01 C101.48 9.25, 110.85 16.95, 116.44 24.38 C122.03 31.81, 124.73 41.56, 126.09 50.61 C127.46 59.66, 127.8 69.99, 124.64 78.68 C121.48 87.38, 114.44 96.12, 107.13 102.77 C99.81 109.42, 90.28 115.71, 80.73 118.58 C71.18 121.44, 59.45 122.13, 49.82 119.97 C40.18 117.8, 30.22 111.71, 22.92 105.59 C15.62 99.48, 9.75 91.84, 6.01 83.29 C2.26 74.73, -0.04 63.44, 0.46 54.27 C0.95 45.11, 3.76 36.18, 8.96 28.31 C14.17 20.43, 22.9 11.93, 31.69 7.04 C40.48 2.15, 51.73 -0.9, 61.69 -1.03 C71.65 -1.17, 86.53 4.67, 91.44 6.23 C96.35 7.78, 91.51 7.33, 91.15 8.29" stroke="#000000" stroke-width="1" fill="none"></path></g><g transform="translate(1471.5685277187422 194.6102047811588) rotate(0 35.009971618652344 37.5)"><text x="35.009971618652344" y="0" font-family="Virgil, Segoe UI Emoji" font-size="20px" fill="#000000" text-anchor="middle" style="white-space: pre;" direction="ltr" dominant-baseline="text-before-edge">Zugang</text><text x="35.009971618652344" y="25" font-family="Virgil, Segoe UI Emoji" font-size="20px" fill="#000000" text-anchor="middle" style="white-space: pre;" direction="ltr" dominant-baseline="text-before-edge">Proto-</text><text x="35.009971618652344" y="50" font-family="Virgil, Segoe UI Emoji" font-size="20px" fill="#000000" text-anchor="middle" style="white-space: pre;" direction="ltr" dominant-baseline="text-before-edge">kolliert</text></g><g stroke-linecap="round"><g transform="translate(1232.333333333333 160.9999999999999) rotate(0 104.87523780344054 33.70106580164281)"><path d="M1.1 -0.37 C35.94 10.86, 174.84 56.38, 209.54 68 M0.21 -1.62 C34.82 9.69, 173.09 57.55, 208.35 69.02" stroke="#000000" stroke-width="1" fill="none"></path></g><g transform="translate(1232.333333333333 160.9999999999999) rotate(0 104.87523780344054 33.70106580164281)"><path d="M209.37 69.28 L194.35 69.65 L199.49 58 L209.65 68.69" stroke="none" stroke-width="0" fill="#000000" fill-rule="evenodd"></path><path d="M207.88 68.44 C202.05 68.81, 198.65 69.82, 192.17 69.28 M208.06 68.63 C205.19 68.67, 200.52 69.53, 193.98 70.72 M193.56 70.15 C195.42 66.95, 195.41 65.06, 198.19 58.07 M192.86 70.67 C194.94 66.31, 196.9 61.99, 197.06 58.08 M196.02 59.6 C202.46 62.26, 205.47 67.14, 208.59 69.1 M197 58.77 C200.89 61.79, 204.38 65.05, 208.95 68.75 M208.35 69.02 C208.35 69.02, 208.35 69.02, 208.35 69.02 M208.35 69.02 C208.35 69.02, 208.35 69.02, 208.35 69.02" stroke="#000000" stroke-width="1" fill="none"></path></g></g><mask></mask><g stroke-linecap="round"><g transform="translate(1291.3333333333335 276.9999999999999) rotate(0 75.18266557785682 -18.476323703303933)"><path d="M0.11 -0.38 C25.22 -6.3, 126.43 -30.47, 151.66 -36.57 M-1.3 -1.63 C23.64 -7.3, 125.68 -29.58, 151.06 -35.33" stroke="#000000" stroke-width="1" fill="none"></path></g><g transform="translate(1291.3333333333335 276.9999999999999) rotate(0 75.18266557785682 -18.476323703303933)"><path d="M149.15 -35.75 L138.17 -25.11 L135.5 -40.45 L150.21 -36.81" stroke="none" stroke-width="0" fill="#000000" fill-rule="evenodd"></path><path d="M150.58 -34.5 C145.76 -31.24, 140.75 -27.69, 137.79 -26.23 M150.5 -35.84 C146.71 -31.74, 143.23 -29.39, 138.43 -25.73 M139.47 -25.99 C138.31 -30.2, 136.96 -33.83, 135.6 -38.4 M138.9 -25.69 C138.19 -29.37, 137.03 -33.35, 136.29 -39.04 M137.49 -39.01 C139.65 -36.25, 144.63 -35.11, 151.97 -35.31 M136.5 -38.78 C141.23 -36.87, 147.34 -35.71, 150.68 -34.58 M151.06 -35.33 C151.06 -35.33, 151.06 -35.33, 151.06 -35.33 M151.06 -35.33 C151.06 -35.33, 151.06 -35.33, 151.06 -35.33" stroke="#000000" stroke-width="1" fill="none"></path></g></g><mask></mask><g stroke-linecap="round" transform="translate(1483.333333333333 46.999999999999886) rotate(0 129 45)"><path d="M82.01 3.68 C95.87 1.07, 115.53 -0.66, 132.27 -0.65 C149.01 -0.65, 167.24 1.17, 182.47 3.72 C197.7 6.28, 212.48 10.36, 223.66 14.68 C234.83 18.99, 243.76 24.51, 249.51 29.63 C255.27 34.74, 258.63 39.81, 258.2 45.38 C257.76 50.96, 253.77 57.62, 246.88 63.09 C239.99 68.56, 228.81 74.13, 216.86 78.2 C204.91 82.26, 190.51 85.36, 175.19 87.49 C159.87 89.62, 141.45 91.11, 124.92 90.98 C108.4 90.86, 90.99 89.14, 76.03 86.73 C61.06 84.32, 46.42 80.92, 35.13 76.52 C23.85 72.12, 14.33 65.8, 8.32 60.33 C2.31 54.87, -1.47 49.44, -0.94 43.73 C-0.41 38.03, 4.48 31.42, 11.5 26.1 C18.52 20.79, 27.99 15.92, 41.17 11.85 C54.36 7.78, 81.18 3.23, 90.61 1.69 C100.04 0.14, 97.24 1.75, 97.75 2.58 M185.18 3.24 C200.19 5.1, 214.67 10.2, 225.82 14.64 C236.96 19.09, 246.96 24.46, 252.04 29.92 C257.12 35.38, 257.73 41.42, 256.3 47.38 C254.88 53.34, 250.8 60.57, 243.49 65.67 C236.17 70.78, 224.42 74.13, 212.42 78.02 C200.42 81.91, 187.01 86.89, 171.48 89.01 C155.96 91.13, 135.93 91.34, 119.26 90.74 C102.59 90.13, 85.98 88.31, 71.45 85.38 C56.92 82.44, 43.11 77.45, 32.08 73.12 C21.05 68.8, 10.67 64.51, 5.28 59.41 C-0.11 54.31, -1.72 48.49, -0.26 42.53 C1.19 36.57, 6.51 28.69, 14.02 23.65 C21.53 18.61, 32.46 15.68, 44.81 12.27 C57.15 8.85, 72.85 5.21, 88.09 3.16 C103.33 1.11, 119.94 -0.23, 136.26 -0.06 C152.58 0.12, 177.75 3.3, 186.03 4.21 C194.32 5.13, 186.65 4.47, 185.96 5.45" stroke="#000000" stroke-width="1" fill="none"></path></g><g transform="translate(1527.0766186798974 67.18019484660533) rotate(0 85.0399398803711 25)"><text x="85.0399398803711" y="0" font-family="Virgil, Segoe UI Emoji" font-size="20px" fill="#000000" text-anchor="middle" style="white-space: pre;" direction="ltr" dominant-baseline="text-before-edge">Abschließen nach </text><text x="85.0399398803711" y="25" font-family="Virgil, Segoe UI Emoji" font-size="20px" fill="#000000" text-anchor="middle" style="white-space: pre;" direction="ltr" dominant-baseline="text-before-edge">Benutzung</text></g><g stroke-linecap="round"><g transform="translate(1569.333333333333 229.9999999999999) rotate(0 23.99010890784666 -44.626975498674426)"><path d="M-0.13 -0.17 C8.04 -14.54, 41.28 -72.86, 49.63 -87.32 M-1.65 -1.31 C6.27 -15.92, 40.01 -74.51, 48.49 -89.08" stroke="#000000" stroke-width="1" fill="none"></path></g><g transform="translate(1569.333333333333 229.9999999999999) rotate(0 23.99010890784666 -44.626975498674426)"><path d="M46.95 -89.91 L48.83 -74.43 L35.67 -79.12 L50.42 -88.35" stroke="none" stroke-width="0" fill="#000000" fill-rule="evenodd"></path><path d="M48.27 -89.54 C48.74 -83.84, 48.76 -77.11, 46.86 -72.94 M49 -88.63 C48.53 -84.97, 47.39 -79.34, 46.97 -73.67 M47.29 -75.29 C43.6 -77.1, 41.34 -77.12, 36.16 -81.22 M47.06 -74.23 C43.05 -76.69, 39.35 -78.83, 35.84 -80.83 M36.77 -80.34 C41 -82.47, 42.87 -85.7, 48.19 -89.42 M36.23 -81.12 C39.97 -83.19, 42.52 -84.93, 47.89 -89.56 M48.49 -89.08 C48.49 -89.08, 48.49 -89.08, 48.49 -89.08 M48.49 -89.08 C48.49 -89.08, 48.49 -89.08, 48.49 -89.08" stroke="#000000" stroke-width="1" fill="none"></path></g></g><mask></mask><g stroke-linecap="round" transform="translate(1573.5434773763018 1093.916666666666) rotate(0 61.5 28)"><path d="M14 0 M14 0 C46.56 0, 79.13 0, 109 0 M14 0 C42.87 0, 71.75 0, 109 0 M109 0 C118.33 0, 123 4.67, 123 14 M109 0 C118.33 0, 123 4.67, 123 14 M123 14 C123 23.73, 123 33.45, 123 42 M123 14 C123 23.66, 123 33.32, 123 42 M123 42 C123 51.33, 118.33 56, 109 56 M123 42 C123 51.33, 118.33 56, 109 56 M109 56 C73.02 56, 37.04 56, 14 56 M109 56 C84.2 56, 59.41 56, 14 56 M14 56 C4.67 56, 0 51.33, 0 42 M14 56 C4.67 56, 0 51.33, 0 42 M0 42 C0 31.54, 0 21.09, 0 14 M0 42 C0 35.48, 0 28.96, 0 14 M0 14 C0 4.67, 4.67 0, 14 0 M0 14 C0 4.67, 4.67 0, 14 0" stroke="#000000" stroke-width="1" fill="none"></path></g><g transform="translate(1590.2035268147783 1109.416666666666) rotate(0 44.83995056152344 12.5)"><text x="44.83995056152344" y="0" font-family="Virgil, Segoe UI Emoji" font-size="20px" fill="#000000" text-anchor="middle" style="white-space: pre;" direction="ltr" dominant-baseline="text-before-edge">Customer</text></g><g stroke-linecap="round" transform="translate(1358.5434773763018 600.9166666666662) rotate(0 61.5 28)"><path d="M14 0 M14 0 C41.47 0, 68.95 0, 109 0 M14 0 C41.83 0, 69.65 0, 109 0 M109 0 C118.33 0, 123 4.67, 123 14 M109 0 C118.33 0, 123 4.67, 123 14 M123 14 C123 22.62, 123 31.25, 123 42 M123 14 C123 23.52, 123 33.04, 123 42 M123 42 C123 51.33, 118.33 56, 109 56 M123 42 C123 51.33, 118.33 56, 109 56 M109 56 C79.63 56, 50.25 56, 14 56 M109 56 C87.35 56, 65.7 56, 14 56 M14 56 C4.67 56, 0 51.33, 0 42 M14 56 C4.67 56, 0 51.33, 0 42 M0 42 C0 32.53, 0 23.07, 0 14 M0 42 C0 31.78, 0 21.57, 0 14 M0 14 C0 4.67, 4.67 0, 14 0 M0 14 C0 4.67, 4.67 0, 14 0" stroke="#000000" stroke-width="1" fill="none"></path></g><g transform="translate(1404.973485310872 616.4166666666662) rotate(0 15.069992065429688 12.5)"><text x="15.069992065429688" y="0" font-family="Virgil, Segoe UI Emoji" font-size="20px" fill="#000000" text-anchor="middle" style="white-space: pre;" direction="ltr" dominant-baseline="text-before-edge">DB</text></g><g stroke-linecap="round" transform="translate(1362.5434773763018 721.9166666666662) rotate(0 61.5 30)"><path d="M15 0 M15 0 C36.85 0, 58.69 0, 108 0 M15 0 C34.93 0, 54.86 0, 108 0 M108 0 C118 0, 123 5, 123 15 M108 0 C118 0, 123 5, 123 15 M123 15 C123 24.66, 123 34.31, 123 45 M123 15 C123 23.53, 123 32.07, 123 45 M123 45 C123 55, 118 60, 108 60 M123 45 C123 55, 118 60, 108 60 M108 60 C88.42 60, 68.85 60, 15 60 M108 60 C79.57 60, 51.14 60, 15 60 M15 60 C5 60, 0 55, 0 45 M15 60 C5 60, 0 55, 0 45 M0 45 C0 33.7, 0 22.41, 0 15 M0 45 C0 37.75, 0 30.51, 0 15 M0 15 C0 5, 5 0, 15 0 M0 15 C0 5, 5 0, 15 0" stroke="#000000" stroke-width="1" fill="none"></path></g><g transform="translate(1377.4735081990557 726.9166666666662) rotate(0 46.569969177246094 25)"><text x="46.569969177246094" y="0" font-family="Virgil, Segoe UI Emoji" font-size="20px" fill="#000000" text-anchor="middle" style="white-space: pre;" direction="ltr" dominant-baseline="text-before-edge">MS Auth </text><text x="46.569969177246094" y="25" font-family="Virgil, Segoe UI Emoji" font-size="20px" fill="#000000" text-anchor="middle" style="white-space: pre;" direction="ltr" dominant-baseline="text-before-edge">Server</text></g><g stroke-linecap="round" transform="translate(1368.5434773763018 900.9166666666662) rotate(0 61.5 28)"><path d="M14 0 M14 0 C47.55 0, 81.11 0, 109 0 M14 0 C35.56 0, 57.13 0, 109 0 M109 0 C118.33 0, 123 4.67, 123 14 M109 0 C118.33 0, 123 4.67, 123 14 M123 14 C123 24.24, 123 34.48, 123 42 M123 14 C123 24.01, 123 34.02, 123 42 M123 42 C123 51.33, 118.33 56, 109 56 M123 42 C123 51.33, 118.33 56, 109 56 M109 56 C87.33 56, 65.67 56, 14 56 M109 56 C82.58 56, 56.16 56, 14 56 M14 56 C4.67 56, 0 51.33, 0 42 M14 56 C4.67 56, 0 51.33, 0 42 M0 42 C0 34.47, 0 26.95, 0 14 M0 42 C0 32.6, 0 23.21, 0 14 M0 14 C0 4.67, 4.67 0, 14 0 M0 14 C0 4.67, 4.67 0, 14 0" stroke="#000000" stroke-width="1" fill="none"></path></g><g transform="translate(1386.5335057576494 916.4166666666662) rotate(0 43.509971618652344 12.5)"><text x="43.509971618652344" y="0" font-family="Virgil, Segoe UI Emoji" font-size="20px" fill="#000000" text-anchor="middle" style="white-space: pre;" direction="ltr" dominant-baseline="text-before-edge">Raum PC</text></g><g stroke-linecap="round" transform="translate(1226.5434773763018 899.9166666666662) rotate(0 61.5 28)"><path d="M14 0 M14 0 C39.14 0, 64.28 0, 109 0 M14 0 C43.73 0, 73.46 0, 109 0 M109 0 C118.33 0, 123 4.67, 123 14 M109 0 C118.33 0, 123 4.67, 123 14 M123 14 C123 24.07, 123 34.15, 123 42 M123 14 C123 22.81, 123 31.62, 123 42 M123 42 C123 51.33, 118.33 56, 109 56 M123 42 C123 51.33, 118.33 56, 109 56 M109 56 C85.42 56, 61.84 56, 14 56 M109 56 C74.98 56, 40.95 56, 14 56 M14 56 C4.67 56, 0 51.33, 0 42 M14 56 C4.67 56, 0 51.33, 0 42 M0 42 C0 35.49, 0 28.98, 0 14 M0 42 C0 33.54, 0 25.08, 0 14 M0 14 C0 4.67, 4.67 0, 14 0 M0 14 C0 4.67, 4.67 0, 14 0" stroke="#000000" stroke-width="1" fill="none"></path></g><g transform="translate(1244.5335057576494 915.4166666666662) rotate(0 43.509971618652344 12.5)"><text x="43.509971618652344" y="0" font-family="Virgil, Segoe UI Emoji" font-size="20px" fill="#000000" text-anchor="middle" style="white-space: pre;" direction="ltr" dominant-baseline="text-before-edge">Raum PC</text></g><g stroke-linecap="round" transform="translate(1646.5434773763018 931.9166666666662) rotate(0 61.5 28)"><path d="M14 0 M14 0 C45.11 0, 76.21 0, 109 0 M14 0 C45.98 0, 77.97 0, 109 0 M109 0 C118.33 0, 123 4.67, 123 14 M109 0 C118.33 0, 123 4.67, 123 14 M123 14 C123 24.07, 123 34.14, 123 42 M123 14 C123 20.91, 123 27.81, 123 42 M123 42 C123 51.33, 118.33 56, 109 56 M123 42 C123 51.33, 118.33 56, 109 56 M109 56 C72.07 56, 35.14 56, 14 56 M109 56 C85.47 56, 61.94 56, 14 56 M14 56 C4.67 56, 0 51.33, 0 42 M14 56 C4.67 56, 0 51.33, 0 42 M0 42 C0 33.22, 0 24.44, 0 14 M0 42 C0 32.53, 0 23.07, 0 14 M0 14 C0 4.67, 4.67 0, 14 0 M0 14 C0 4.67, 4.67 0, 14 0" stroke="#000000" stroke-width="1" fill="none"></path></g><g transform="translate(1673.1935094197588 947.4166666666662) rotate(0 34.84996795654297 12.5)"><text x="34.84996795654297" y="0" font-family="Virgil, Segoe UI Emoji" font-size="20px" fill="#000000" text-anchor="middle" style="white-space: pre;" direction="ltr" dominant-baseline="text-before-edge">Dozent</text></g><g stroke-linecap="round"><g transform="translate(1645.5434773763018 952.134719308484) rotate(0 -76 -7.861194410916028)"><path d="M0 0 C-25.33 -2.62, -126.67 -13.1, -152 -15.72 M0 0 C-25.33 -2.62, -126.67 -13.1, -152 -15.72" stroke="#000000" stroke-width="1" fill="none"></path></g><g transform="translate(1645.5434773763018 952.134719308484) rotate(0 -76 -7.861194410916028)"><path d="M-152 -15.72 L-137.83 -20.63 L-139.13 -8.02 L-152 -15.72" stroke="none" stroke-width="0" fill="#000000" fill-rule="evenodd"></path><path d="M-152 -15.72 C-148.76 -16.84, -145.53 -17.96, -137.83 -20.63 M-152 -15.72 C-146.84 -17.51, -141.67 -19.3, -137.83 -20.63 M-137.83 -20.63 C-138.15 -17.53, -138.47 -14.43, -139.13 -8.02 M-137.83 -20.63 C-138.33 -15.79, -138.83 -10.95, -139.13 -8.02 M-139.13 -8.02 C-144.15 -11.02, -149.16 -14.02, -152 -15.72 M-139.13 -8.02 C-143.89 -10.87, -148.64 -13.71, -152 -15.72 M-152 -15.72 C-152 -15.72, -152 -15.72, -152 -15.72 M-152 -15.72 C-152 -15.72, -152 -15.72, -152 -15.72" stroke="#000000" stroke-width="1" fill="none"></path></g></g><mask></mask><g stroke-linecap="round"><g transform="translate(1427.5156311747596 897.9166666666662) rotate(0 -1.8825061812494823 -55)"><path d="M0 0 C-0.63 -18.33, -3.14 -91.67, -3.77 -110 M0 0 C-0.63 -18.33, -3.14 -91.67, -3.77 -110" stroke="#000000" stroke-width="1" fill="none"></path></g><g transform="translate(1427.5156311747596 897.9166666666662) rotate(0 -1.8825061812494823 -55)"><path d="M-3.77 -110 L3.04 -96.63 L-9.64 -96.2 L-3.77 -110" stroke="none" stroke-width="0" fill="#000000" fill-rule="evenodd"></path><path d="M-3.77 -110 C-1.91 -106.35, -0.05 -102.7, 3.04 -96.63 M-3.77 -110 C-1.64 -105.82, 0.49 -101.64, 3.04 -96.63 M3.04 -96.63 C-0.95 -96.49, -4.94 -96.36, -9.64 -96.2 M3.04 -96.63 C0.29 -96.54, -2.45 -96.44, -9.64 -96.2 M-9.64 -96.2 C-7.85 -100.39, -6.07 -104.59, -3.77 -110 M-9.64 -96.2 C-7.47 -101.29, -5.31 -106.38, -3.77 -110 M-3.77 -110 C-3.77 -110, -3.77 -110, -3.77 -110 M-3.77 -110 C-3.77 -110, -3.77 -110, -3.77 -110" stroke="#000000" stroke-width="1" fill="none"></path></g></g><mask></mask><g stroke-linecap="round"><g transform="translate(1420.5434773763018 718.9166666666662) rotate(0 -0.5 -29.5)"><path d="M0 0 C-0.17 -9.83, -0.83 -49.17, -1 -59 M0 0 C-0.17 -9.83, -0.83 -49.17, -1 -59" stroke="#000000" stroke-width="1" fill="none"></path></g><g transform="translate(1420.5434773763018 718.9166666666662) rotate(0 -0.5 -29.5)"><path d="M-1 -59 L5.57 -45.51 L-7.11 -45.3 L-1 -59" stroke="none" stroke-width="0" fill="#000000" fill-rule="evenodd"></path><path d="M-1 -59 C1.06 -54.78, 3.11 -50.56, 5.57 -45.51 M-1 -59 C1.11 -54.66, 3.23 -50.32, 5.57 -45.51 M5.57 -45.51 C1.58 -45.45, -2.41 -45.38, -7.11 -45.3 M5.57 -45.51 C2.9 -45.47, 0.23 -45.42, -7.11 -45.3 M-7.11 -45.3 C-4.92 -50.21, -2.73 -55.11, -1 -59 M-7.11 -45.3 C-4.81 -50.46, -2.51 -55.62, -1 -59 M-1 -59 C-1 -59, -1 -59, -1 -59 M-1 -59 C-1 -59, -1 -59, -1 -59" stroke="#000000" stroke-width="1" fill="none"></path></g></g><mask></mask><g stroke-linecap="round"><g transform="translate(1180.5434773763018 819.9166666666662) rotate(0 247.5 1)"><path d="M0 0 C82.5 0.33, 412.5 1.67, 495 2" stroke="#d9480f" stroke-width="1.5" fill="none" stroke-dasharray="8 9"></path></g></g><mask></mask><g transform="translate(1688.5434773763018 806.9166666666662) rotate(0 41.32996368408203 12.5)"><text x="0" y="0" font-family="Virgil, Segoe UI Emoji" font-size="20px" fill="#d9480f" text-anchor="start" style="white-space: pre;" direction="ltr" dominant-baseline="text-before-edge">Internet</text></g><g stroke-linecap="round" transform="translate(989.5434773763018 875.9166666666662) rotate(0 288.5 60.5)"><path d="M30.25 0 M30.25 0 C214.25 0, 398.24 0, 546.75 0 M546.75 0 C566.92 0, 577 10.08, 577 30.25 M577 30.25 C577 51.13, 577 72, 577 90.75 M577 90.75 C577 110.92, 566.92 121, 546.75 121 M546.75 121 C386.82 121, 226.9 121, 30.25 121 M30.25 121 C10.08 121, 0 110.92, 0 90.75 M0 90.75 C0 74.96, 0 59.17, 0 30.25 M0 30.25 C0 10.08, 10.08 0, 30.25 0" stroke="#d9480f" stroke-width="1.5" fill="none" stroke-dasharray="8 9"></path></g><g transform="translate(1034.5434773763018 914.9166666666662) rotate(0 73.5799331665039 12.5)"><text x="0" y="0" font-family="Virgil, Segoe UI Emoji" font-size="20px" fill="#d9480f" text-anchor="start" style="white-space: pre;" direction="ltr" dominant-baseline="text-before-edge">Raum-Netzwerk</text></g><g stroke-linecap="round"><g transform="translate(1284.7143873397458 898.9166666666662) rotate(0 58.91829486001507 -57.5)"><path d="M0 0 C19.64 -19.17, 98.2 -95.83, 117.84 -115 M0 0 C19.64 -19.17, 98.2 -95.83, 117.84 -115" stroke="#000000" stroke-width="1" fill="none"></path></g><g transform="translate(1284.7143873397458 898.9166666666662) rotate(0 58.91829486001507 -57.5)"><path d="M117.84 -115 L112.53 -100.97 L103.68 -110.04 L117.84 -115" stroke="none" stroke-width="0" fill="#000000" fill-rule="evenodd"></path><path d="M117.84 -115 C116.16 -110.55, 114.48 -106.11, 112.53 -100.97 M117.84 -115 C116.03 -110.23, 114.23 -105.46, 112.53 -100.97 M112.53 -100.97 C110.55 -103, 108.57 -105.03, 103.68 -110.04 M112.53 -100.97 C110.52 -103.04, 108.5 -105.1, 103.68 -110.04 M103.68 -110.04 C107.22 -111.28, 110.76 -112.52, 117.84 -115 M103.68 -110.04 C108.84 -111.85, 114.01 -113.66, 117.84 -115 M117.84 -115 C117.84 -115, 117.84 -115, 117.84 -115 M117.84 -115 C117.84 -115, 117.84 -115, 117.84 -115" stroke="#000000" stroke-width="1" fill="none"></path></g></g><mask></mask><g stroke-linecap="round"><g transform="translate(1630.5434773763018 1092.916666666666) rotate(0 -168.5 -67.5)"><path d="M0 0 C-56.17 -22.5, -280.83 -112.5, -337 -135 M0 0 C-56.17 -22.5, -280.83 -112.5, -337 -135" stroke="#000000" stroke-width="1" fill="none"></path></g><g transform="translate(1630.5434773763018 1092.916666666666) rotate(0 -168.5 -67.5)"><path d="M-337 -135 L-322.02 -135.83 L-326.74 -124.06 L-337 -135" stroke="none" stroke-width="0" fill="#000000" fill-rule="evenodd"></path><path d="M-337 -135 C-332.14 -135.27, -327.28 -135.54, -322.02 -135.83 M-337 -135 C-331.61 -135.3, -326.23 -135.6, -322.02 -135.83 M-322.02 -135.83 C-323.6 -131.9, -325.17 -127.97, -326.74 -124.06 M-322.02 -135.83 C-323.86 -131.25, -325.69 -126.68, -326.74 -124.06 M-326.74 -124.06 C-330.46 -128.03, -334.18 -131.99, -337 -135 M-326.74 -124.06 C-329.96 -127.49, -333.17 -130.92, -337 -135 M-337 -135 C-337 -135, -337 -135, -337 -135 M-337 -135 C-337 -135, -337 -135, -337 -135" stroke="#000000" stroke-width="1" fill="none"></path></g></g><mask></mask><g transform="translate(991.5434773763018 500.24999999999966) rotate(0 280.55029296875 32)"><text x="0" y="0" font-family="Virgil, Segoe UI Emoji" font-size="51.19999999999997px" fill="#000000" text-anchor="start" style="white-space: pre;" direction="ltr" dominant-baseline="text-before-edge">Datenfluss Diagramm </text></g><g transform="translate(1545.3243465169267 520.2499999999997) rotate(0 196.89947509765625 15.5)"><text x="0" y="0" font-family="Virgil, Segoe UI Emoji" font-size="24.800000000000008px" fill="#000000" text-anchor="start" style="white-space: pre;" direction="ltr" dominant-baseline="text-before-edge">- login/connection with office365</text></g></svg>