<svg version="1.1" xmlns="http://www.w3.org/2000/svg" viewBox="0 0 1668.80947207198 1355.7414648201698" width="1668.80947207198" height="1355.7414648201698">
  <!-- svg-source:excalidraw -->
  
  <defs>
    <style class="style-fonts">
      @font-face {
        font-family: "Virgil";
        src: url("https://excalidraw.com/Virgil.woff2");
      }
      @font-face {
        font-family: "Cascadia";
        src: url("https://excalidraw.com/Cascadia.woff2");
      }
    </style>
  </defs>
  <rect x="0" y="0" width="1668.80947207198" height="1355.7414648201698" fill="#ffffff"></rect><g transform="translate(865.6314504934963 31.60146274852775) rotate(0 125.5 53)"><text x="0" y="24.333333333333336" font-family="Virgil, Segoe UI Emoji" font-size="28px" fill="#000000" text-anchor="start" style="white-space: pre;" direction="ltr">PC 1</text><text x="0" y="59.66666666666667" font-family="Virgil, Segoe UI Emoji" font-size="28px" fill="#000000" text-anchor="start" style="white-space: pre;" direction="ltr">150.150.1.10/24</text><text x="0" y="95" font-family="Virgil, Segoe UI Emoji" font-size="28px" fill="#000000" text-anchor="start" style="white-space: pre;" direction="ltr">SG: 150.150.1.4/24</text></g><g transform="translate(1332.9563115373512 10) rotate(0 125.5 53)"><text x="0" y="24.333333333333336" font-family="Virgil, Segoe UI Emoji" font-size="28px" fill="#000000" text-anchor="start" style="white-space: pre;" direction="ltr">PC 2</text><text x="0" y="59.66666666666667" font-family="Virgil, Segoe UI Emoji" font-size="28px" fill="#000000" text-anchor="start" style="white-space: pre;" direction="ltr">150.150.1.11/24</text><text x="0" y="95" font-family="Virgil, Segoe UI Emoji" font-size="28px" fill="#000000" text-anchor="start" style="white-space: pre;" direction="ltr">SG: 150.150.1.4/24</text></g><g transform="translate(1227.4933376314573 327.85755116402186) rotate(0 95.5 17.5)"><text x="0" y="25" font-family="Virgil, Segoe UI Emoji" font-size="28px" fill="#000000" text-anchor="start" style="white-space: pre;" direction="ltr">150.150.1.4/24</text></g><g stroke-linecap="round"><g transform="translate(940.3128133254218 149.46260493867987) rotate(0 0 22.336006980515776)"><path d="M0 0 C0 17.78, 0 35.56, 0 44.67 M0 0 C0 9.88, 0 19.76, 0 44.67" stroke="#000000" stroke-width="2" fill="none"></path></g></g><g stroke-linecap="round"><g transform="translate(787.4875614124206 194.13461889971143) rotate(0 425.55935932523334 0)"><path d="M0 0 C303.72 0, 607.44 0, 851.12 0 M0 0 C282.69 0, 565.38 0, 851.12 0" stroke="#000000" stroke-width="2" fill="none"></path></g></g><g stroke-linecap="round"><g transform="translate(1419.9493059232786 195.31018051258036) rotate(0 0 -20.572642138812)"><path d="M0 0 C0 -12.75, 0 -25.5, 0 -41.15 M0 0 C0 -14.63, 0 -29.26, 0 -41.15" stroke="#000000" stroke-width="2" fill="none"></path></g></g><g stroke-linecap="round"><g transform="translate(1187.1845189911653 192.9590572868426) rotate(0 0 51.72551817264747)"><path d="M0 0 C0 28.84, 0 57.68, 0 103.45 M0 0 C0 30.33, 0 60.67, 0 103.45" stroke="#000000" stroke-width="2" fill="none"></path></g></g><g stroke-linecap="round"><g transform="translate(1186.0088676886944 378.70066218738543) rotate(0 0 33.50402168197391)"><path d="M0 0 C0 24.31, 0 48.62, 0 67.01 M0 0 C0 17.03, 0 34.06, 0 67.01" stroke="#000000" stroke-width="2" fill="none"></path></g></g><g stroke-linecap="round" transform="translate(1144.577689947137 444.1019901991705) rotate(0 39 41)"><path d="M78 41 C78 42.94, 77.87 44.91, 77.6 46.83 C77.34 48.76, 76.94 50.68, 76.42 52.55 C75.9 54.42, 75.24 56.26, 74.48 58.03 C73.71 59.8, 72.81 61.53, 71.81 63.17 C70.81 64.8, 69.69 66.38, 68.47 67.85 C67.26 69.32, 65.94 70.71, 64.54 71.99 C63.14 73.26, 61.64 74.44, 60.08 75.49 C58.53 76.54, 56.88 77.49, 55.2 78.29 C53.52 79.1, 51.76 79.79, 49.99 80.34 C48.21 80.89, 46.38 81.31, 44.55 81.58 C42.72 81.86, 40.85 82, 39 82 C37.15 82, 35.28 81.86, 33.45 81.58 C31.62 81.31, 29.79 80.89, 28.01 80.34 C26.24 79.79, 24.48 79.1, 22.8 78.29 C21.12 77.49, 19.47 76.54, 17.92 75.49 C16.36 74.44, 14.86 73.26, 13.46 71.99 C12.06 70.71, 10.74 69.32, 9.53 67.85 C8.31 66.38, 7.19 64.8, 6.19 63.17 C5.19 61.53, 4.29 59.8, 3.52 58.03 C2.76 56.26, 2.1 54.42, 1.58 52.55 C1.06 50.68, 0.66 48.76, 0.4 46.83 C0.13 44.91, 0 42.94, 0 41 C0 39.06, 0.13 37.09, 0.4 35.17 C0.66 33.24, 1.06 31.32, 1.58 29.45 C2.1 27.58, 2.76 25.74, 3.52 23.97 C4.29 22.2, 5.19 20.47, 6.19 18.83 C7.19 17.2, 8.31 15.62, 9.53 14.15 C10.74 12.68, 12.06 11.29, 13.46 10.01 C14.86 8.74, 16.36 7.56, 17.92 6.51 C19.47 5.46, 21.12 4.51, 22.8 3.71 C24.48 2.9, 26.24 2.21, 28.01 1.66 C29.79 1.11, 31.62 0.69, 33.45 0.42 C35.28 0.14, 37.15 0, 39 0 C40.85 0, 42.72 0.14, 44.55 0.42 C46.38 0.69, 48.21 1.11, 49.99 1.66 C51.76 2.21, 53.52 2.9, 55.2 3.71 C56.88 4.51, 58.53 5.46, 60.08 6.51 C61.64 7.56, 63.14 8.74, 64.54 10.01 C65.94 11.29, 67.26 12.68, 68.47 14.15 C69.69 15.62, 70.81 17.2, 71.81 18.83 C72.81 20.47, 73.71 22.2, 74.48 23.97 C75.24 25.74, 75.9 27.58, 76.42 29.45 C76.94 31.32, 77.34 33.24, 77.6 35.17 C77.87 37.09, 77.93 40.03, 78 41 C78.07 41.97, 78.07 40.03, 78 41" stroke="#000000" stroke-width="2" fill="none"></path></g><g transform="translate(1157.577689947137 462.1019901991705) rotate(0 26 23)"><text x="26" y="32" font-family="Virgil, Segoe UI Emoji" font-size="36px" fill="#000000" text-anchor="middle" style="white-space: pre;" direction="ltr">R2</text></g><g stroke-linecap="round" transform="translate(1145.5394829398101 296.55533306496056) rotate(0 39 41)"><path d="M78 41 C78 42.94, 77.87 44.91, 77.6 46.83 C77.34 48.76, 76.94 50.68, 76.42 52.55 C75.9 54.42, 75.24 56.26, 74.48 58.03 C73.71 59.8, 72.81 61.53, 71.81 63.17 C70.81 64.8, 69.69 66.38, 68.47 67.85 C67.26 69.32, 65.94 70.71, 64.54 71.99 C63.14 73.26, 61.64 74.44, 60.08 75.49 C58.53 76.54, 56.88 77.49, 55.2 78.29 C53.52 79.1, 51.76 79.79, 49.99 80.34 C48.21 80.89, 46.38 81.31, 44.55 81.58 C42.72 81.86, 40.85 82, 39 82 C37.15 82, 35.28 81.86, 33.45 81.58 C31.62 81.31, 29.79 80.89, 28.01 80.34 C26.24 79.79, 24.48 79.1, 22.8 78.29 C21.12 77.49, 19.47 76.54, 17.92 75.49 C16.36 74.44, 14.86 73.26, 13.46 71.99 C12.06 70.71, 10.74 69.32, 9.53 67.85 C8.31 66.38, 7.19 64.8, 6.19 63.17 C5.19 61.53, 4.29 59.8, 3.52 58.03 C2.76 56.26, 2.1 54.42, 1.58 52.55 C1.06 50.68, 0.66 48.76, 0.4 46.83 C0.13 44.91, 0 42.94, 0 41 C0 39.06, 0.13 37.09, 0.4 35.17 C0.66 33.24, 1.06 31.32, 1.58 29.45 C2.1 27.58, 2.76 25.74, 3.52 23.97 C4.29 22.2, 5.19 20.47, 6.19 18.83 C7.19 17.2, 8.31 15.62, 9.53 14.15 C10.74 12.68, 12.06 11.29, 13.46 10.01 C14.86 8.74, 16.36 7.56, 17.92 6.51 C19.47 5.46, 21.12 4.51, 22.8 3.71 C24.48 2.9, 26.24 2.21, 28.01 1.66 C29.79 1.11, 31.62 0.69, 33.45 0.42 C35.28 0.14, 37.15 0, 39 0 C40.85 0, 42.72 0.14, 44.55 0.42 C46.38 0.69, 48.21 1.11, 49.99 1.66 C51.76 2.21, 53.52 2.9, 55.2 3.71 C56.88 4.51, 58.53 5.46, 60.08 6.51 C61.64 7.56, 63.14 8.74, 64.54 10.01 C65.94 11.29, 67.26 12.68, 68.47 14.15 C69.69 15.62, 70.81 17.2, 71.81 18.83 C72.81 20.47, 73.71 22.2, 74.48 23.97 C75.24 25.74, 75.9 27.58, 76.42 29.45 C76.94 31.32, 77.34 33.24, 77.6 35.17 C77.87 37.09, 77.93 40.03, 78 41 C78.07 41.97, 78.07 40.03, 78 41" stroke="#000000" stroke-width="2" fill="none"></path></g><g transform="translate(1166.5394829398101 314.55533306496056) rotate(0 18 23)"><text x="18" y="32" font-family="Virgil, Segoe UI Emoji" font-size="36px" fill="#000000" text-anchor="middle" style="white-space: pre;" direction="ltr">R1</text></g><g stroke-linecap="round"><g transform="translate(1182.48227253969 524.4725444231735) rotate(0 0 55.78686899327084)"><path d="M0 0 C0 31.37, 0 62.73, 0 111.57 M0 0 C0 28.12, 0 56.24, 0 111.57" stroke="#000000" stroke-width="2" fill="none"></path></g></g><g stroke-linecap="round" transform="translate(1145.8334854550296 635.3771134437332) rotate(0 39 41)"><path d="M78 41 C78 42.94, 77.87 44.91, 77.6 46.83 C77.34 48.76, 76.94 50.68, 76.42 52.55 C75.9 54.42, 75.24 56.26, 74.48 58.03 C73.71 59.8, 72.81 61.53, 71.81 63.17 C70.81 64.8, 69.69 66.38, 68.47 67.85 C67.26 69.32, 65.94 70.71, 64.54 71.99 C63.14 73.26, 61.64 74.44, 60.08 75.49 C58.53 76.54, 56.88 77.49, 55.2 78.29 C53.52 79.1, 51.76 79.79, 49.99 80.34 C48.21 80.89, 46.38 81.31, 44.55 81.58 C42.72 81.86, 40.85 82, 39 82 C37.15 82, 35.28 81.86, 33.45 81.58 C31.62 81.31, 29.79 80.89, 28.01 80.34 C26.24 79.79, 24.48 79.1, 22.8 78.29 C21.12 77.49, 19.47 76.54, 17.92 75.49 C16.36 74.44, 14.86 73.26, 13.46 71.99 C12.06 70.71, 10.74 69.32, 9.53 67.85 C8.31 66.38, 7.19 64.8, 6.19 63.17 C5.19 61.53, 4.29 59.8, 3.52 58.03 C2.76 56.26, 2.1 54.42, 1.58 52.55 C1.06 50.68, 0.66 48.76, 0.4 46.83 C0.13 44.91, 0 42.94, 0 41 C0 39.06, 0.13 37.09, 0.4 35.17 C0.66 33.24, 1.06 31.32, 1.58 29.45 C2.1 27.58, 2.76 25.74, 3.52 23.97 C4.29 22.2, 5.19 20.47, 6.19 18.83 C7.19 17.2, 8.31 15.62, 9.53 14.15 C10.74 12.68, 12.06 11.29, 13.46 10.01 C14.86 8.74, 16.36 7.56, 17.92 6.51 C19.47 5.46, 21.12 4.51, 22.8 3.71 C24.48 2.9, 26.24 2.21, 28.01 1.66 C29.79 1.11, 31.62 0.69, 33.45 0.42 C35.28 0.14, 37.15 0, 39 0 C40.85 0, 42.72 0.14, 44.55 0.42 C46.38 0.69, 48.21 1.11, 49.99 1.66 C51.76 2.21, 53.52 2.9, 55.2 3.71 C56.88 4.51, 58.53 5.46, 60.08 6.51 C61.64 7.56, 63.14 8.74, 64.54 10.01 C65.94 11.29, 67.26 12.68, 68.47 14.15 C69.69 15.62, 70.81 17.2, 71.81 18.83 C72.81 20.47, 73.71 22.2, 74.48 23.97 C75.24 25.74, 75.9 27.58, 76.42 29.45 C76.94 31.32, 77.34 33.24, 77.6 35.17 C77.87 37.09, 77.93 40.03, 78 41 C78.07 41.97, 78.07 40.03, 78 41" stroke="#000000" stroke-width="2" fill="none"></path></g><g transform="translate(1164.8334854550296 658.8771134437332) rotate(0 20 17.5)"><text x="20" y="24" font-family="Virgil, Segoe UI Emoji" font-size="28px" fill="#000000" text-anchor="middle" style="white-space: pre;" direction="ltr">R3</text></g><g stroke-linecap="round"><g transform="translate(1182.4822725396903 719.2117907107802) rotate(0 0 57.60339350419338)"><path d="M0 0 C0 43.22, 0 86.45, 0 115.21 M0 0 C0 36.22, 0 72.43, 0 115.21" stroke="#000000" stroke-width="2" fill="none"></path></g></g><g stroke-linecap="round"><g transform="translate(943.8395878536304 841.472126775584) rotate(0 327.98666776332163 0)"><path d="M0 0 C141.46 0, 282.93 0, 655.97 0 M0 0 C189.8 0, 379.61 0, 655.97 0" stroke="#000000" stroke-width="2" fill="none"></path></g></g><g transform="translate(1230.7840032548766 659.922364917476) rotate(0 96 17.5)"><text x="0" y="25" font-family="Virgil, Segoe UI Emoji" font-size="28px" fill="#000000" text-anchor="start" style="white-space: pre;" direction="ltr">150.150.3.1/24</text></g><g transform="translate(1233.3597562678037 472.4539166317416) rotate(0 100 17.5)"><text x="0" y="25" font-family="Virgil, Segoe UI Emoji" font-size="28px" fill="#000000" text-anchor="start" style="white-space: pre;" direction="ltr">150.150.2.7/24</text></g><g transform="translate(601.1988852482484 168.17790302440733) rotate(0 96 17.5)"><text x="0" y="25" font-family="Virgil, Segoe UI Emoji" font-size="28px" fill="#000000" text-anchor="start" style="white-space: pre;" direction="ltr">150.150.1.0/24</text></g><g transform="translate(1187.1563833841499 518.2855487733679) rotate(0 9.5 17.5)"><text x="0" y="25" font-family="Virgil, Segoe UI Emoji" font-size="28px" fill="#000000" text-anchor="start" style="white-space: pre;" direction="ltr">S</text></g><g transform="translate(1205.9656382588576 525.3390529849839) rotate(0 5 17.5)"><text x="0" y="25" font-family="Virgil, Segoe UI Emoji" font-size="28px" fill="#000000" text-anchor="start" style="white-space: pre;" direction="ltr">1</text></g><g transform="translate(1137.868969699215 600.0562683060544) rotate(0 9.5 17.5)"><text x="0" y="25" font-family="Virgil, Segoe UI Emoji" font-size="28px" fill="#000000" text-anchor="start" style="white-space: pre;" direction="ltr">S</text></g><g transform="translate(1156.6782245739228 607.1097725176705) rotate(0 11 17.5)"><text x="0" y="25" font-family="Virgil, Segoe UI Emoji" font-size="28px" fill="#000000" text-anchor="start" style="white-space: pre;" direction="ltr">2</text></g><g transform="translate(1146.3294413506558 721.1088263919218) rotate(0 10.5 17.5)"><text x="0" y="25" font-family="Virgil, Segoe UI Emoji" font-size="28px" fill="#000000" text-anchor="start" style="white-space: pre;" direction="ltr">E</text></g><g transform="translate(1165.1386962253634 728.1623306035377) rotate(0 10.5 17.5)"><text x="0" y="25" font-family="Virgil, Segoe UI Emoji" font-size="28px" fill="#000000" text-anchor="start" style="white-space: pre;" direction="ltr">0</text></g><g transform="translate(1150.5761754235164 237.72683812585262) rotate(0 10.5 17.5)"><text x="0" y="25" font-family="Virgil, Segoe UI Emoji" font-size="28px" fill="#000000" text-anchor="start" style="white-space: pre;" direction="ltr">E</text></g><g transform="translate(1169.385430298224 244.7803423374686) rotate(0 5 17.5)"><text x="0" y="25" font-family="Virgil, Segoe UI Emoji" font-size="28px" fill="#000000" text-anchor="start" style="white-space: pre;" direction="ltr">1</text></g><g transform="translate(315.0336032991049 504.6645767507814) rotate(0 5 17.5)"><text x="0" y="25" font-family="Virgil, Segoe UI Emoji" font-size="28px" fill="#000000" text-anchor="start" style="white-space: pre;" direction="ltr">1</text></g><g transform="translate(312.37604953908635 544.5824989307959) rotate(0 5 17.5)"><text x="0" y="25" font-family="Virgil, Segoe UI Emoji" font-size="28px" fill="#000000" text-anchor="start" style="white-space: pre;" direction="ltr">1</text></g><g transform="translate(1140.7454912677235 366.145371176204) rotate(0 9.5 17.5)"><text x="0" y="25" font-family="Virgil, Segoe UI Emoji" font-size="28px" fill="#000000" text-anchor="start" style="white-space: pre;" direction="ltr">S</text></g><g transform="translate(1159.5547461424312 373.1988753878202) rotate(0 10.5 17.5)"><text x="0" y="25" font-family="Virgil, Segoe UI Emoji" font-size="28px" fill="#000000" text-anchor="start" style="white-space: pre;" direction="ltr">0</text></g><g transform="translate(1185.91331244891 418.16416323024737) rotate(0 9.5 17.5)"><text x="0" y="25" font-family="Virgil, Segoe UI Emoji" font-size="28px" fill="#000000" text-anchor="start" style="white-space: pre;" direction="ltr">S</text></g><g transform="translate(1204.7225673236176 425.21766744186357) rotate(0 10 17.5)"><text x="0" y="25" font-family="Virgil, Segoe UI Emoji" font-size="28px" fill="#000000" text-anchor="start" style="white-space: pre;" direction="ltr">4</text></g><g stroke-linecap="round"><g transform="translate(1184.0130607859273 630.6796232524493) rotate(0 121.7134675192749 0)"><path d="M0 0 C64.33 0, 128.65 0, 243.43 0 M0 0 C67.9 0, 135.79 0, 243.43 0" stroke="#000000" stroke-width="2" fill="none"></path></g></g><g transform="translate(1225.0578706349975 892.0475439118234) rotate(0 105 35)"><text x="0" y="25" font-family="Virgil, Segoe UI Emoji" font-size="28px" fill="#000000" text-anchor="start" style="white-space: pre;" direction="ltr">PC 3</text><text x="0" y="60" font-family="Virgil, Segoe UI Emoji" font-size="28px" fill="#000000" text-anchor="start" style="white-space: pre;" direction="ltr">150.150.4.10/24</text></g><g stroke-linecap="round"><g transform="translate(1280.0554111310394 842.6476659660519) rotate(0 0 18.809299719508658)"><path d="M0 0 C0 11.69, 0 23.38, 0 37.62 M0 0 C0 11.83, 0 23.67, 0 37.62" stroke="#000000" stroke-width="2" fill="none"></path></g></g><g transform="translate(1454.80947207198 614.795629880261) rotate(0 102 17.5)"><text x="0" y="25" font-family="Virgil, Segoe UI Emoji" font-size="28px" fill="#000000" text-anchor="start" style="white-space: pre;" direction="ltr">150.150.3.0/24</text></g><g transform="translate(24.638671441925112 229.75408885609022) rotate(0 30 17.5)"><text x="0" y="25" font-family="Virgil, Segoe UI Emoji" font-size="28px" fill="#000000" text-anchor="start" style="white-space: pre;" direction="ltr">PC 1</text></g><g transform="translate(149.4637676841936 228.37300742559478) rotate(0 21.5 17.5)"><text x="0" y="25" font-family="Virgil, Segoe UI Emoji" font-size="28px" fill="#000000" text-anchor="start" style="white-space: pre;" direction="ltr">R 1</text></g><g transform="translate(260.0878138812384 225.66976724146912) rotate(0 27.5 17.5)"><text x="0" y="25" font-family="Virgil, Segoe UI Emoji" font-size="28px" fill="#000000" text-anchor="start" style="white-space: pre;" direction="ltr">R 2</text></g><g transform="translate(376.2904499599849 229.40156288732612) rotate(0 27 17.5)"><text x="0" y="25" font-family="Virgil, Segoe UI Emoji" font-size="28px" fill="#000000" text-anchor="start" style="white-space: pre;" direction="ltr">R 3</text></g><g transform="translate(486.53123618874713 227.32738763840712) rotate(0 36 17.5)"><text x="0" y="25" font-family="Virgil, Segoe UI Emoji" font-size="28px" fill="#000000" text-anchor="start" style="white-space: pre;" direction="ltr">PC 3</text></g><g stroke-linecap="round"><g transform="translate(103.27455005637171 246.23897350882362) rotate(0 18.921696096694063 0)"><path d="M0 0 C14.99 0, 29.98 0, 37.84 0 M0 0 C14.38 0, 28.77 0, 37.84 0" stroke="#000000" stroke-width="2" fill="none"></path></g><g transform="translate(103.27455005637171 246.23897350882362) rotate(0 18.921696096694063 0)"><path d="M20.06 6.47 C27.11 3.91, 34.15 1.34, 37.84 0 M20.06 6.47 C26.82 4.01, 33.58 1.55, 37.84 0" stroke="#000000" stroke-width="2" fill="none"></path></g><g transform="translate(103.27455005637171 246.23897350882362) rotate(0 18.921696096694063 0)"><path d="M20.06 -6.47 C27.11 -3.91, 34.15 -1.34, 37.84 0 M20.06 -6.47 C26.82 -4.01, 33.58 -1.55, 37.84 0" stroke="#000000" stroke-width="2" fill="none"></path></g></g><g stroke-linecap="round"><g transform="translate(208.11785735348587 246.175378277331) rotate(0 18.921696096694063 0)"><path d="M0 0 C10.82 0, 21.65 0, 37.84 0 M0 0 C13.9 0, 27.8 0, 37.84 0" stroke="#000000" stroke-width="2" fill="none"></path></g><g transform="translate(208.11785735348587 246.175378277331) rotate(0 18.921696096694063 0)"><path d="M20.06 6.47 C25.15 4.62, 30.23 2.77, 37.84 0 M20.06 6.47 C26.59 4.09, 33.12 1.72, 37.84 0" stroke="#000000" stroke-width="2" fill="none"></path></g><g transform="translate(208.11785735348587 246.175378277331) rotate(0 18.921696096694063 0)"><path d="M20.06 -6.47 C25.15 -4.62, 30.23 -2.77, 37.84 0 M20.06 -6.47 C26.59 -4.09, 33.12 -1.72, 37.84 0" stroke="#000000" stroke-width="2" fill="none"></path></g></g><g stroke-linecap="round"><g transform="translate(328.8704201019282 245.39127535383625) rotate(0 18.921696096694063 0)"><path d="M0 0 C13.64 0, 27.28 0, 37.84 0 M0 0 C11.56 0, 23.13 0, 37.84 0" stroke="#000000" stroke-width="2" fill="none"></path></g><g transform="translate(328.8704201019282 245.39127535383625) rotate(0 18.921696096694063 0)"><path d="M20.06 6.47 C26.47 4.14, 32.88 1.81, 37.84 0 M20.06 6.47 C25.5 4.49, 30.93 2.52, 37.84 0" stroke="#000000" stroke-width="2" fill="none"></path></g><g transform="translate(328.8704201019282 245.39127535383625) rotate(0 18.921696096694063 0)"><path d="M20.06 -6.47 C26.47 -4.14, 32.88 -1.81, 37.84 0 M20.06 -6.47 C25.5 -4.49, 30.93 -2.52, 37.84 0" stroke="#000000" stroke-width="2" fill="none"></path></g></g><g stroke-linecap="round"><g transform="translate(433.71372739904245 245.32768012234385) rotate(0 18.921696096694063 0)"><path d="M0 0 C9.37 0, 18.74 0, 37.84 0 M0 0 C7.79 0, 15.59 0, 37.84 0" stroke="#000000" stroke-width="2" fill="none"></path></g><g transform="translate(433.71372739904245 245.32768012234385) rotate(0 18.921696096694063 0)"><path d="M20.06 6.47 C24.47 4.87, 28.87 3.27, 37.84 0 M20.06 6.47 C23.72 5.14, 27.39 3.81, 37.84 0" stroke="#000000" stroke-width="2" fill="none"></path></g><g transform="translate(433.71372739904245 245.32768012234385) rotate(0 18.921696096694063 0)"><path d="M20.06 -6.47 C24.47 -4.87, 28.87 -3.27, 37.84 0 M20.06 -6.47 C23.72 -5.14, 27.39 -3.81, 37.84 0" stroke="#000000" stroke-width="2" fill="none"></path></g></g><g transform="translate(791.2825215264221 1005.2278458732284) rotate(0 410 105.5)"><text x="0" y="25.166666666666664" font-family="Virgil, Segoe UI Emoji" font-size="28px" fill="#000000" text-anchor="start" style="white-space: pre;" direction="ltr">Vorgehen bei z.B. Bei router 2:</text><text x="0" y="60.33333333333333" font-family="Virgil, Segoe UI Emoji" font-size="28px" fill="#000000" text-anchor="start" style="white-space: pre;" direction="ltr">Prüft FCF feld auf fehler auf checksum-Fehler</text><text x="0" y="95.5" font-family="Virgil, Segoe UI Emoji" font-size="28px" fill="#000000" text-anchor="start" style="white-space: pre;" direction="ltr">Entfernt alten Sicherungs-Schicht header/trailer</text><text x="0" y="130.66666666666666" font-family="Virgil, Segoe UI Emoji" font-size="28px" fill="#000000" text-anchor="start" style="white-space: pre;" direction="ltr">Sucht In Routing Tabelle nach dem nächsten "Weg"</text><text x="0" y="165.83333333333331" font-family="Virgil, Segoe UI Emoji" font-size="28px" fill="#000000" text-anchor="start" style="white-space: pre;" direction="ltr">Hängt neue Sicherungsschicht header/trailer und sendet ab.</text><text x="0" y="201" font-family="Virgil, Segoe UI Emoji" font-size="28px" fill="#000000" text-anchor="start" style="white-space: pre;" direction="ltr"></text></g><g transform="translate(741.0355314186718 823.2086172101472) rotate(0 101 17.5)"><text x="0" y="25" font-family="Virgil, Segoe UI Emoji" font-size="28px" fill="#000000" text-anchor="start" style="white-space: pre;" direction="ltr">150.150.4.0/24</text></g><g transform="translate(794.3757072528219 1198.789183345447) rotate(0 281 53)"><text x="0" y="24.333333333333336" font-family="Virgil, Segoe UI Emoji" font-size="28px" fill="#000000" text-anchor="start" style="white-space: pre;" direction="ltr">Benutzt direkt MAC adresse von PC 3, </text><text x="0" y="59.66666666666667" font-family="Virgil, Segoe UI Emoji" font-size="28px" fill="#000000" text-anchor="start" style="white-space: pre;" direction="ltr">bzw benutzt ARP-Protokoll </text><text x="0" y="95" font-family="Virgil, Segoe UI Emoji" font-size="28px" fill="#000000" text-anchor="start" style="white-space: pre;" direction="ltr">falls er diese gerade nicht im cash hat</text></g><g stroke-linecap="round"><g transform="translate(681.4805399186812 1199.326929438649) rotate(0 48.870616495986354 12.784934754678005)"><path d="M0 0 C30.05 7.86, 60.1 15.72, 97.74 25.57 M0 0 C34.75 9.09, 69.5 18.18, 97.74 25.57" stroke="#000000" stroke-width="2" fill="none"></path></g><g transform="translate(681.4805399186812 1199.326929438649) rotate(0 48.870616495986354 12.784934754678005)"><path d="M67.87 28.36 C77.05 27.5, 86.24 26.64, 97.74 25.57 M67.87 28.36 C78.49 27.37, 89.11 26.38, 97.74 25.57" stroke="#000000" stroke-width="2" fill="none"></path></g><g transform="translate(681.4805399186812 1199.326929438649) rotate(0 48.870616495986354 12.784934754678005)"><path d="M73.07 8.51 C80.65 13.75, 88.24 19, 97.74 25.57 M73.07 8.51 C81.84 14.57, 90.61 20.64, 97.74 25.57" stroke="#000000" stroke-width="2" fill="none"></path></g></g><g stroke-linecap="round" transform="translate(10 1057.717416028975) rotate(0 343.79756408595347 142.34717083146552)"><path d="M0 0 C267.76 0, 535.51 0, 687.6 0 M0 0 C232.04 0, 464.08 0, 687.6 0 M687.6 0 C687.6 62.35, 687.6 124.71, 687.6 284.69 M687.6 0 C687.6 91.49, 687.6 182.98, 687.6 284.69 M687.6 284.69 C490.98 284.69, 294.36 284.69, 0 284.69 M687.6 284.69 C463.89 284.69, 240.18 284.69, 0 284.69 M0 284.69 C0 194.18, 0 103.67, 0 0 M0 284.69 C0 210.56, 0 136.42, 0 0" stroke="#000000" stroke-width="2" fill="none"></path></g><g transform="translate(56.61666191680206 1080.1798489564842) rotate(0 54.5 17.5)"><text x="0" y="25" font-family="Virgil, Segoe UI Emoji" font-size="28px" fill="#000000" text-anchor="start" style="white-space: pre;" direction="ltr">Subnetz</text></g><g transform="translate(234.75872421288886 1073.5203711898644) rotate(0 86 35)"><text x="0" y="25" font-family="Virgil, Segoe UI Emoji" font-size="28px" fill="#000000" text-anchor="start" style="white-space: pre;" direction="ltr">Ausgangs-</text><text x="0" y="60" font-family="Virgil, Segoe UI Emoji" font-size="28px" fill="#000000" text-anchor="start" style="white-space: pre;" direction="ltr">schnittstelle</text></g><g transform="translate(467.84177975652983 1058.5364985823999) rotate(0 90.5 53)"><text x="0" y="24.333333333333336" font-family="Virgil, Segoe UI Emoji" font-size="28px" fill="#000000" text-anchor="start" style="white-space: pre;" direction="ltr">IP-Adresse</text><text x="0" y="59.66666666666667" font-family="Virgil, Segoe UI Emoji" font-size="28px" fill="#000000" text-anchor="start" style="white-space: pre;" direction="ltr">des nächsten</text><text x="0" y="95" font-family="Virgil, Segoe UI Emoji" font-size="28px" fill="#000000" text-anchor="start" style="white-space: pre;" direction="ltr">HOPS</text></g><g stroke-linecap="round"><g transform="translate(228.09918293617648 1059.382269593107) rotate(0 0 141.5147440493996)"><path d="M0 0 C0 82.46, 0 164.92, 0 283.03 M0 0 C0 90.78, 0 181.56, 0 283.03" stroke="#000000" stroke-width="2" fill="none"></path></g></g><g stroke-linecap="round"><g transform="translate(431.2144932648889 1059.382269593107) rotate(0 0 143.17959761353143)"><path d="M0 0 C0 107.42, 0 214.85, 0 286.36 M0 0 C0 98.44, 0 196.88, 0 286.36" stroke="#000000" stroke-width="2" fill="none"></path></g></g><g stroke-linecap="round"><g transform="translate(694.2652940234582 1164.2696318857268) rotate(0 -340.467761692551 0)"><path d="M0 0 C-256.63 0, -513.25 0, -680.94 0 M0 0 C-235.94 0, -471.88 0, -680.94 0" stroke="#000000" stroke-width="2" fill="none"></path></g></g><g transform="translate(18.565607271930503 1183.4023576849722) rotate(0 101 17.5)"><text x="0" y="25" font-family="Virgil, Segoe UI Emoji" font-size="28px" fill="#000000" text-anchor="start" style="white-space: pre;" direction="ltr">150.150.4.0/24</text></g><g transform="translate(20.78719155616284 1228.4053273138488) rotate(0 96 17.5)"><text x="0" y="25" font-family="Virgil, Segoe UI Emoji" font-size="28px" fill="#000000" text-anchor="start" style="white-space: pre;" direction="ltr">150.150.1.0/24</text></g><g transform="translate(469.0861428556615 1224.1447831090322) rotate(0 100 17.5)"><text x="0" y="25" font-family="Virgil, Segoe UI Emoji" font-size="28px" fill="#000000" text-anchor="start" style="white-space: pre;" direction="ltr">150.150.2.7/24</text></g><g transform="translate(464.51200911817364 1185.0671477390117) rotate(0 106 17.5)"><text x="0" y="25" font-family="Virgil, Segoe UI Emoji" font-size="28px" fill="#000000" text-anchor="start" style="white-space: pre;" direction="ltr">nicht Angegeben</text></g><g transform="translate(283.5302271923156 1180.286411417639) rotate(0 10.5 17.5)"><text x="0" y="25" font-family="Virgil, Segoe UI Emoji" font-size="28px" fill="#000000" text-anchor="start" style="white-space: pre;" direction="ltr">E</text></g><g transform="translate(302.33948206702325 1187.3399156292553) rotate(0 10.5 17.5)"><text x="0" y="25" font-family="Virgil, Segoe UI Emoji" font-size="28px" fill="#000000" text-anchor="start" style="white-space: pre;" direction="ltr">0</text></g><g transform="translate(23.31901904333222 1008.5900025171491) rotate(0 180.5 17.5)"><text x="0" y="25" font-family="Virgil, Segoe UI Emoji" font-size="28px" fill="#000000" text-anchor="start" style="white-space: pre;" direction="ltr">Routing Tabelle von R 2 :</text></g><g transform="translate(91.57909484431116 1258.3219112525708) rotate(0 12.5 17.5)"><text x="0" y="25" font-family="Virgil, Segoe UI Emoji" font-size="28px" fill="#000000" text-anchor="start" style="white-space: pre;" direction="ltr">...</text></g><g transform="translate(294.69434166293104 1263.316535455059) rotate(0 12.5 17.5)"><text x="0" y="25" font-family="Virgil, Segoe UI Emoji" font-size="28px" fill="#000000" text-anchor="start" style="white-space: pre;" direction="ltr">...</text></g><g transform="translate(529.4422507707036 1251.6624334859507) rotate(0 12.5 17.5)"><text x="0" y="25" font-family="Virgil, Segoe UI Emoji" font-size="28px" fill="#000000" text-anchor="start" style="white-space: pre;" direction="ltr">...</text></g><g transform="translate(287.1835288215499 1224.529390715078) rotate(0 9.5 17.5)"><text x="0" y="25" font-family="Virgil, Segoe UI Emoji" font-size="28px" fill="#000000" text-anchor="start" style="white-space: pre;" direction="ltr">S</text></g><g transform="translate(305.99278369625756 1231.582894926694) rotate(0 11 17.5)"><text x="0" y="25" font-family="Virgil, Segoe UI Emoji" font-size="28px" fill="#000000" text-anchor="start" style="white-space: pre;" direction="ltr">2</text></g><g stroke-linecap="round" transform="translate(23.969385990877868 691.1027937374223) rotate(0 343.79756408595347 142.34717083146552)"><path d="M0 0 C230.77 0, 461.53 0, 687.6 0 M0 0 C194.73 0, 389.46 0, 687.6 0 M687.6 0 C687.6 89.91, 687.6 179.82, 687.6 284.69 M687.6 0 C687.6 106.34, 687.6 212.68, 687.6 284.69 M687.6 284.69 C450.82 284.69, 214.05 284.69, 0 284.69 M687.6 284.69 C506.99 284.69, 326.39 284.69, 0 284.69 M0 284.69 C0 227.11, 0 169.52, 0 0 M0 284.69 C0 194.26, 0 103.82, 0 0" stroke="#000000" stroke-width="2" fill="none"></path></g><g transform="translate(70.58604790768004 713.5652266649314) rotate(0 54.5 17.5)"><text x="0" y="25" font-family="Virgil, Segoe UI Emoji" font-size="28px" fill="#000000" text-anchor="start" style="white-space: pre;" direction="ltr">Subnetz</text></g><g transform="translate(248.72811020376685 706.9057488983115) rotate(0 86 35)"><text x="0" y="25" font-family="Virgil, Segoe UI Emoji" font-size="28px" fill="#000000" text-anchor="start" style="white-space: pre;" direction="ltr">Ausgangs-</text><text x="0" y="60" font-family="Virgil, Segoe UI Emoji" font-size="28px" fill="#000000" text-anchor="start" style="white-space: pre;" direction="ltr">schnittstelle</text></g><g transform="translate(481.8111657474078 691.9218762908472) rotate(0 90.5 53)"><text x="0" y="24.333333333333336" font-family="Virgil, Segoe UI Emoji" font-size="28px" fill="#000000" text-anchor="start" style="white-space: pre;" direction="ltr">IP-Adresse</text><text x="0" y="59.66666666666667" font-family="Virgil, Segoe UI Emoji" font-size="28px" fill="#000000" text-anchor="start" style="white-space: pre;" direction="ltr">des nächsten</text><text x="0" y="95" font-family="Virgil, Segoe UI Emoji" font-size="28px" fill="#000000" text-anchor="start" style="white-space: pre;" direction="ltr">HOPS</text></g><g stroke-linecap="round"><g transform="translate(242.06856892705446 692.7676473015541) rotate(0 0 141.5147440493996)"><path d="M0 0 C0 103.97, 0 207.94, 0 283.03 M0 0 C0 84.85, 0 169.69, 0 283.03" stroke="#000000" stroke-width="2" fill="none"></path></g></g><g stroke-linecap="round"><g transform="translate(445.1838792557669 692.7676473015541) rotate(0 0 143.17959761353143)"><path d="M0 0 C0 92.51, 0 185.01, 0 286.36 M0 0 C0 109.99, 0 219.99, 0 286.36" stroke="#000000" stroke-width="2" fill="none"></path></g></g><g stroke-linecap="round"><g transform="translate(708.2346800143362 797.655009594174) rotate(0 -340.467761692551 0)"><path d="M0 0 C-207.93 0, -415.87 0, -680.94 0 M0 0 C-157.83 0, -315.65 0, -680.94 0" stroke="#000000" stroke-width="2" fill="none"></path></g></g><g transform="translate(36.55893263672249 816.7877353934194) rotate(0 101 17.5)"><text x="0" y="25" font-family="Virgil, Segoe UI Emoji" font-size="28px" fill="#000000" text-anchor="start" style="white-space: pre;" direction="ltr">150.150.4.0/24</text></g><g transform="translate(478.4813951090516 818.4525254474589) rotate(0 96 17.5)"><text x="0" y="25" font-family="Virgil, Segoe UI Emoji" font-size="28px" fill="#000000" text-anchor="start" style="white-space: pre;" direction="ltr">150.150.3.1/24</text></g><g transform="translate(297.49961318319356 813.6717891260862) rotate(0 9.5 17.5)"><text x="0" y="25" font-family="Virgil, Segoe UI Emoji" font-size="28px" fill="#000000" text-anchor="start" style="white-space: pre;" direction="ltr">S</text></g><g transform="translate(316.30886805790124 820.7252933377024) rotate(0 5 17.5)"><text x="0" y="25" font-family="Virgil, Segoe UI Emoji" font-size="28px" fill="#000000" text-anchor="start" style="white-space: pre;" direction="ltr">1</text></g><g transform="translate(37.2884050342102 641.9753802255963) rotate(0 180.5 17.5)"><text x="0" y="25" font-family="Virgil, Segoe UI Emoji" font-size="28px" fill="#000000" text-anchor="start" style="white-space: pre;" direction="ltr">Routing Tabelle von R 2 :</text></g><g transform="translate(105.54848083518914 891.7072889610182) rotate(0 12.5 17.5)"><text x="0" y="25" font-family="Virgil, Segoe UI Emoji" font-size="28px" fill="#000000" text-anchor="start" style="white-space: pre;" direction="ltr">...</text></g><g transform="translate(308.663727653809 896.7019131635062) rotate(0 12.5 17.5)"><text x="0" y="25" font-family="Virgil, Segoe UI Emoji" font-size="28px" fill="#000000" text-anchor="start" style="white-space: pre;" direction="ltr">...</text></g><g transform="translate(543.4116367615816 885.0478111943982) rotate(0 12.5 17.5)"><text x="0" y="25" font-family="Virgil, Segoe UI Emoji" font-size="28px" fill="#000000" text-anchor="start" style="white-space: pre;" direction="ltr">...</text></g><g transform="translate(40.87642610226112 857.9789590016949) rotate(0 96 17.5)"><text x="0" y="25" font-family="Virgil, Segoe UI Emoji" font-size="28px" fill="#000000" text-anchor="start" style="white-space: pre;" direction="ltr">150.150.1.0/24</text></g><g transform="translate(287.5147591235168 846.4096558649081) rotate(0 9.5 17.5)"><text x="0" y="25" font-family="Virgil, Segoe UI Emoji" font-size="28px" fill="#000000" text-anchor="start" style="white-space: pre;" direction="ltr">S</text></g><g transform="translate(306.3240139982245 853.4631600765242) rotate(0 10 17.5)"><text x="0" y="25" font-family="Virgil, Segoe UI Emoji" font-size="28px" fill="#000000" text-anchor="start" style="white-space: pre;" direction="ltr">4</text></g><g transform="translate(480.56154561970936 859.9785718963303) rotate(0 95.5 17.5)"><text x="0" y="25" font-family="Virgil, Segoe UI Emoji" font-size="28px" fill="#000000" text-anchor="start" style="white-space: pre;" direction="ltr">150.150.1.4/24</text></g><g transform="translate(294.21239792518816 496.6050781018129) rotate(0 10.5 17.5)"><text x="0" y="25" font-family="Virgil, Segoe UI Emoji" font-size="28px" fill="#000000" text-anchor="start" style="white-space: pre;" direction="ltr">E</text></g><g transform="translate(291.5548441651696 536.5230002818273) rotate(0 10.5 17.5)"><text x="0" y="25" font-family="Virgil, Segoe UI Emoji" font-size="28px" fill="#000000" text-anchor="start" style="white-space: pre;" direction="ltr">E</text></g><g stroke-linecap="round" transform="translate(15.418875428464958 338.4847791768093) rotate(0 343.79756408595347 142.34717083146552)"><path d="M0 0 C156.75 0, 313.51 0, 687.6 0 M0 0 C184.82 0, 369.64 0, 687.6 0 M687.6 0 C687.6 85.87, 687.6 171.75, 687.6 284.69 M687.6 0 C687.6 97.04, 687.6 194.09, 687.6 284.69 M687.6 284.69 C509.72 284.69, 331.84 284.69, 0 284.69 M687.6 284.69 C418.06 284.69, 148.52 284.69, 0 284.69 M0 284.69 C0 193.38, 0 102.07, 0 0 M0 284.69 C0 222.35, 0 160.01, 0 0" stroke="#000000" stroke-width="2" fill="none"></path></g><g transform="translate(62.03553734526713 360.9472121043184) rotate(0 54.5 17.5)"><text x="0" y="25" font-family="Virgil, Segoe UI Emoji" font-size="28px" fill="#000000" text-anchor="start" style="white-space: pre;" direction="ltr">Subnetz</text></g><g transform="translate(240.17759964135394 354.28773433769845) rotate(0 86 35)"><text x="0" y="25" font-family="Virgil, Segoe UI Emoji" font-size="28px" fill="#000000" text-anchor="start" style="white-space: pre;" direction="ltr">Ausgangs-</text><text x="0" y="60" font-family="Virgil, Segoe UI Emoji" font-size="28px" fill="#000000" text-anchor="start" style="white-space: pre;" direction="ltr">schnittstelle</text></g><g transform="translate(473.2606551849949 339.3038617302342) rotate(0 90.5 53)"><text x="0" y="24.333333333333336" font-family="Virgil, Segoe UI Emoji" font-size="28px" fill="#000000" text-anchor="start" style="white-space: pre;" direction="ltr">IP-Adresse</text><text x="0" y="59.66666666666667" font-family="Virgil, Segoe UI Emoji" font-size="28px" fill="#000000" text-anchor="start" style="white-space: pre;" direction="ltr">des nächsten</text><text x="0" y="95" font-family="Virgil, Segoe UI Emoji" font-size="28px" fill="#000000" text-anchor="start" style="white-space: pre;" direction="ltr">HOPS</text></g><g stroke-linecap="round"><g transform="translate(233.51805836464155 340.1496327409411) rotate(0 0 141.5147440493996)"><path d="M0 0 C0 103.11, 0 206.23, 0 283.03 M0 0 C0 96.54, 0 193.08, 0 283.03" stroke="#000000" stroke-width="2" fill="none"></path></g></g><g stroke-linecap="round"><g transform="translate(436.633368693354 340.1496327409411) rotate(0 0 143.17959761353143)"><path d="M0 0 C0 109.66, 0 219.32, 0 286.36 M0 0 C0 96.63, 0 193.26, 0 286.36" stroke="#000000" stroke-width="2" fill="none"></path></g></g><g stroke-linecap="round"><g transform="translate(699.6841694519233 445.03699503356097) rotate(0 -340.467761692551 0)"><path d="M0 0 C-260.09 0, -520.18 0, -680.94 0 M0 0 C-139.55 0, -279.1 0, -680.94 0" stroke="#000000" stroke-width="2" fill="none"></path></g></g><g transform="translate(28.00842207430958 465.1757152701589) rotate(0 101 17.5)"><text x="0" y="25" font-family="Virgil, Segoe UI Emoji" font-size="28px" fill="#000000" text-anchor="start" style="white-space: pre;" direction="ltr">150.150.4.0/24</text></g><g transform="translate(27.65220980136712 503.9429228113602) rotate(0 100 17.5)"><text x="0" y="25" font-family="Virgil, Segoe UI Emoji" font-size="28px" fill="#000000" text-anchor="start" style="white-space: pre;" direction="ltr">150.150.1.10/24</text></g><g transform="translate(31.754028903918424 542.7102181431117) rotate(0 94 17.5)"><text x="0" y="25" font-family="Virgil, Segoe UI Emoji" font-size="28px" fill="#000000" text-anchor="start" style="white-space: pre;" direction="ltr">150.150.1.11/24</text></g><g transform="translate(469.9308845466387 465.8345108868459) rotate(0 100 17.5)"><text x="0" y="25" font-family="Virgil, Segoe UI Emoji" font-size="28px" fill="#000000" text-anchor="start" style="white-space: pre;" direction="ltr">150.150.2.7/24</text></g><g transform="translate(288.94910262078065 461.0537745654732) rotate(0 9.5 17.5)"><text x="0" y="25" font-family="Virgil, Segoe UI Emoji" font-size="28px" fill="#000000" text-anchor="start" style="white-space: pre;" direction="ltr">S</text></g><g transform="translate(307.7583574954883 468.1072787770894) rotate(0 10.5 17.5)"><text x="0" y="25" font-family="Virgil, Segoe UI Emoji" font-size="28px" fill="#000000" text-anchor="start" style="white-space: pre;" direction="ltr">0</text></g><g transform="translate(27.073040907665472 289.35736566498326) rotate(0 174.5 17.5)"><text x="0" y="25" font-family="Virgil, Segoe UI Emoji" font-size="28px" fill="#000000" text-anchor="start" style="white-space: pre;" direction="ltr">Routing Tabelle von R 1 :</text></g><g transform="translate(92.39519950807392 577.0619795757359) rotate(0 12.5 17.5)"><text x="0" y="25" font-family="Virgil, Segoe UI Emoji" font-size="28px" fill="#000000" text-anchor="start" style="white-space: pre;" direction="ltr">...</text></g><g transform="translate(302.4145585784721 583.207318417037) rotate(0 12.5 17.5)"><text x="0" y="25" font-family="Virgil, Segoe UI Emoji" font-size="28px" fill="#000000" text-anchor="start" style="white-space: pre;" direction="ltr">...</text></g><g transform="translate(545.2173384721114 587.6628702291117) rotate(0 12.5 17.5)"><text x="0" y="25" font-family="Virgil, Segoe UI Emoji" font-size="28px" fill="#000000" text-anchor="start" style="white-space: pre;" direction="ltr">...</text></g><g transform="translate(465.07026888769076 506.69361615696124) rotate(0 106 17.5)"><text x="0" y="25" font-family="Virgil, Segoe UI Emoji" font-size="28px" fill="#000000" text-anchor="start" style="white-space: pre;" direction="ltr">nicht Angegeben</text></g><g transform="translate(465.86481514883656 552.3649359499407) rotate(0 106 17.5)"><text x="0" y="25" font-family="Virgil, Segoe UI Emoji" font-size="28px" fill="#000000" text-anchor="start" style="white-space: pre;" direction="ltr">nicht Angegeben</text></g><g transform="translate(89.98361778080027 51.19753472752336) rotate(0 215 23)"><text x="0" y="32" font-family="Virgil, Segoe UI Emoji" font-size="36px" fill="#000000" text-anchor="start" style="white-space: pre;" direction="ltr">STATISCHES ROUTING</text></g><g stroke-linecap="round"><g transform="translate(81.85217171023021 119.74074980320518) rotate(0 230.3241691592783 1.3548532222133076)"><path d="M0 0 C104.43 0.61, 208.86 1.23, 460.65 2.71 M0 0 C183.4 1.08, 366.79 2.16, 460.65 2.71" stroke="#000000" stroke-width="2" fill="none"></path></g></g></svg>