<svg version="1.1" xmlns="http://www.w3.org/2000/svg" viewBox="0 0 146.47085960554796 146.47085960554784" width="146.47085960554796" height="146.47085960554784">
  <!-- svg-source:excalidraw -->
  
  <defs>
    <style class="style-fonts">
      @font-face {
        font-family: "Virgil";
        src: url("https://excalidraw.com/Virgil.woff2");
      }
      @font-face {
        font-family: "Cascadia";
        src: url("https://excalidraw.com/Cascadia.woff2");
      }
    </style>
  </defs>
  <g stroke-linecap="round" transform="translate(10.000000000000114 10) rotate(0 63.23542980277392 63.23542980277392)"><path d="M126.47 63.24 C126.47 65.78, 126.32 68.34, 126.01 70.86 C125.7 73.38, 125.24 75.9, 124.63 78.37 C124.03 80.84, 123.26 83.28, 122.36 85.66 C121.46 88.03, 120.41 90.37, 119.23 92.62 C118.05 94.87, 116.72 97.07, 115.28 99.16 C113.83 101.25, 112.25 103.27, 110.57 105.17 C108.88 107.07, 107.07 108.88, 105.17 110.57 C103.27 112.25, 101.25 113.83, 99.16 115.28 C97.07 116.72, 94.87 118.05, 92.62 119.23 C90.37 120.41, 88.03 121.46, 85.66 122.36 C83.28 123.26, 80.84 124.03, 78.37 124.63 C75.9 125.24, 73.38 125.7, 70.86 126.01 C68.34 126.32, 65.78 126.47, 63.24 126.47 C60.69 126.47, 58.14 126.32, 55.61 126.01 C53.09 125.7, 50.57 125.24, 48.1 124.63 C45.64 124.03, 43.19 123.26, 40.81 122.36 C38.44 121.46, 36.1 120.41, 33.85 119.23 C31.6 118.05, 29.4 116.72, 27.31 115.28 C25.22 113.83, 23.2 112.25, 21.3 110.57 C19.4 108.88, 17.59 107.07, 15.9 105.17 C14.22 103.27, 12.64 101.25, 11.19 99.16 C9.75 97.07, 8.42 94.87, 7.24 92.62 C6.06 90.37, 5.01 88.03, 4.11 85.66 C3.21 83.28, 2.45 80.84, 1.84 78.37 C1.23 75.9, 0.77 73.38, 0.46 70.86 C0.15 68.34, 0 65.78, 0 63.24 C0 60.69, 0.15 58.14, 0.46 55.61 C0.77 53.09, 1.23 50.57, 1.84 48.1 C2.45 45.64, 3.21 43.19, 4.11 40.81 C5.01 38.44, 6.06 36.1, 7.24 33.85 C8.42 31.6, 9.75 29.4, 11.19 27.31 C12.64 25.22, 14.22 23.2, 15.9 21.3 C17.59 19.4, 19.4 17.59, 21.3 15.9 C23.2 14.22, 25.22 12.64, 27.31 11.19 C29.4 9.75, 31.6 8.42, 33.85 7.24 C36.1 6.06, 38.44 5.01, 40.81 4.11 C43.19 3.21, 45.64 2.45, 48.1 1.84 C50.57 1.23, 53.09 0.77, 55.61 0.46 C58.14 0.15, 60.69 0, 63.24 0 C65.78 0, 68.34 0.15, 70.86 0.46 C73.38 0.77, 75.9 1.23, 78.37 1.84 C80.84 2.45, 83.28 3.21, 85.66 4.11 C88.03 5.01, 90.37 6.06, 92.62 7.24 C94.87 8.42, 97.07 9.75, 99.16 11.19 C101.25 12.64, 103.27 14.22, 105.17 15.9 C107.07 17.59, 108.88 19.4, 110.57 21.3 C112.25 23.2, 113.83 25.22, 115.28 27.31 C116.72 29.4, 118.05 31.6, 119.23 33.85 C120.41 36.1, 121.46 38.44, 122.36 40.81 C123.26 43.19, 124.03 45.64, 124.63 48.1 C125.24 50.57, 125.7 53.09, 126.01 55.61 C126.32 58.14, 126.47 60.69, 126.47 63.24" stroke="none" stroke-width="0" fill="#868e96"></path><path d="M126.47 63.24 C126.47 65.78, 126.32 68.34, 126.01 70.86 C125.7 73.38, 125.24 75.9, 124.63 78.37 C124.03 80.84, 123.26 83.28, 122.36 85.66 C121.46 88.03, 120.41 90.37, 119.23 92.62 C118.05 94.87, 116.72 97.07, 115.28 99.16 C113.83 101.25, 112.25 103.27, 110.57 105.17 C108.88 107.07, 107.07 108.88, 105.17 110.57 C103.27 112.25, 101.25 113.83, 99.16 115.28 C97.07 116.72, 94.87 118.05, 92.62 119.23 C90.37 120.41, 88.03 121.46, 85.66 122.36 C83.28 123.26, 80.84 124.03, 78.37 124.63 C75.9 125.24, 73.38 125.7, 70.86 126.01 C68.34 126.32, 65.78 126.47, 63.24 126.47 C60.69 126.47, 58.14 126.32, 55.61 126.01 C53.09 125.7, 50.57 125.24, 48.1 124.63 C45.64 124.03, 43.19 123.26, 40.81 122.36 C38.44 121.46, 36.1 120.41, 33.85 119.23 C31.6 118.05, 29.4 116.72, 27.31 115.28 C25.22 113.83, 23.2 112.25, 21.3 110.57 C19.4 108.88, 17.59 107.07, 15.9 105.17 C14.22 103.27, 12.64 101.25, 11.19 99.16 C9.75 97.07, 8.42 94.87, 7.24 92.62 C6.06 90.37, 5.01 88.03, 4.11 85.66 C3.21 83.28, 2.45 80.84, 1.84 78.37 C1.23 75.9, 0.77 73.38, 0.46 70.86 C0.15 68.34, 0 65.78, 0 63.24 C0 60.69, 0.15 58.14, 0.46 55.61 C0.77 53.09, 1.23 50.57, 1.84 48.1 C2.45 45.64, 3.21 43.19, 4.11 40.81 C5.01 38.44, 6.06 36.1, 7.24 33.85 C8.42 31.6, 9.75 29.4, 11.19 27.31 C12.64 25.22, 14.22 23.2, 15.9 21.3 C17.59 19.4, 19.4 17.59, 21.3 15.9 C23.2 14.22, 25.22 12.64, 27.31 11.19 C29.4 9.75, 31.6 8.42, 33.85 7.24 C36.1 6.06, 38.44 5.01, 40.81 4.11 C43.19 3.21, 45.64 2.45, 48.1 1.84 C50.57 1.23, 53.09 0.77, 55.61 0.46 C58.14 0.15, 60.69 0, 63.24 0 C65.78 0, 68.34 0.15, 70.86 0.46 C73.38 0.77, 75.9 1.23, 78.37 1.84 C80.84 2.45, 83.28 3.21, 85.66 4.11 C88.03 5.01, 90.37 6.06, 92.62 7.24 C94.87 8.42, 97.07 9.75, 99.16 11.19 C101.25 12.64, 103.27 14.22, 105.17 15.9 C107.07 17.59, 108.88 19.4, 110.57 21.3 C112.25 23.2, 113.83 25.22, 115.28 27.31 C116.72 29.4, 118.05 31.6, 119.23 33.85 C120.41 36.1, 121.46 38.44, 122.36 40.81 C123.26 43.19, 124.03 45.64, 124.63 48.1 C125.24 50.57, 125.7 53.09, 126.01 55.61 C126.32 58.14, 126.47 60.69, 126.47 63.24" stroke="#000000" stroke-width="4" fill="none"></path></g><g stroke-linecap="round" transform="translate(20.805546876468497 20.000000000000057) rotate(332.3440449456764 52.36054697044972 53.16609384691819)"><path d="M104.72 53.17 C104.72 55.48, 104.57 57.81, 104.27 60.11 C103.98 62.4, 103.53 64.69, 102.94 66.93 C102.35 69.16, 101.61 71.37, 100.74 73.51 C99.86 75.65, 98.85 77.75, 97.71 79.75 C96.57 81.75, 95.29 83.7, 93.9 85.53 C92.51 87.37, 91 89.12, 89.39 90.76 C87.77 92.4, 86.04 93.94, 84.24 95.35 C82.43 96.75, 80.51 98.05, 78.54 99.21 C76.57 100.37, 74.5 101.4, 72.4 102.29 C70.29 103.17, 68.11 103.92, 65.91 104.52 C63.71 105.12, 61.45 105.58, 59.19 105.88 C56.94 106.18, 54.64 106.33, 52.36 106.33 C50.08 106.33, 47.78 106.18, 45.53 105.88 C43.27 105.58, 41.01 105.12, 38.81 104.52 C36.61 103.92, 34.43 103.17, 32.32 102.29 C30.22 101.4, 28.15 100.37, 26.18 99.21 C24.21 98.05, 22.29 96.75, 20.49 95.35 C18.68 93.94, 16.95 92.4, 15.34 90.76 C13.73 89.12, 12.21 87.37, 10.82 85.53 C9.43 83.7, 8.15 81.75, 7.01 79.75 C5.88 77.75, 4.86 75.65, 3.99 73.51 C3.11 71.37, 2.37 69.16, 1.78 66.93 C1.19 64.69, 0.75 62.4, 0.45 60.11 C0.15 57.81, 0 55.48, 0 53.17 C0 50.85, 0.15 48.52, 0.45 46.23 C0.75 43.93, 1.19 41.64, 1.78 39.41 C2.37 37.17, 3.11 34.96, 3.99 32.82 C4.86 30.68, 5.88 28.59, 7.01 26.58 C8.15 24.58, 9.43 22.64, 10.82 20.8 C12.21 18.97, 13.73 17.21, 15.34 15.57 C16.95 13.94, 18.68 12.39, 20.49 10.99 C22.29 9.58, 24.21 8.28, 26.18 7.12 C28.15 5.97, 30.22 4.93, 32.32 4.05 C34.43 3.16, 36.61 2.41, 38.81 1.81 C41.01 1.21, 43.27 0.76, 45.53 0.45 C47.78 0.15, 50.08 0, 52.36 0 C54.64 0, 56.94 0.15, 59.19 0.45 C61.45 0.76, 63.71 1.21, 65.91 1.81 C68.11 2.41, 70.29 3.16, 72.4 4.05 C74.5 4.93, 76.57 5.97, 78.54 7.12 C80.51 8.28, 82.43 9.58, 84.24 10.99 C86.04 12.39, 87.77 13.94, 89.39 15.57 C91 17.21, 92.51 18.97, 93.9 20.8 C95.29 22.64, 96.57 24.58, 97.71 26.58 C98.85 28.59, 99.86 30.68, 100.74 32.82 C101.61 34.96, 102.35 37.17, 102.94 39.41 C103.53 41.64, 103.98 43.93, 104.27 46.23 C104.57 48.52, 104.65 52.01, 104.72 53.17 C104.8 54.32, 104.8 52.01, 104.72 53.17" stroke="none" stroke-width="0" fill="#12b886"></path><path d="M104.72 53.17 C104.72 55.48, 104.57 57.81, 104.27 60.11 C103.98 62.4, 103.53 64.69, 102.94 66.93 C102.35 69.16, 101.61 71.37, 100.74 73.51 C99.86 75.65, 98.85 77.75, 97.71 79.75 C96.57 81.75, 95.29 83.7, 93.9 85.53 C92.51 87.37, 91 89.12, 89.39 90.76 C87.77 92.4, 86.04 93.94, 84.24 95.35 C82.43 96.75, 80.51 98.05, 78.54 99.21 C76.57 100.37, 74.5 101.4, 72.4 102.29 C70.29 103.17, 68.11 103.92, 65.91 104.52 C63.71 105.12, 61.45 105.58, 59.19 105.88 C56.94 106.18, 54.64 106.33, 52.36 106.33 C50.08 106.33, 47.78 106.18, 45.53 105.88 C43.27 105.58, 41.01 105.12, 38.81 104.52 C36.61 103.92, 34.43 103.17, 32.32 102.29 C30.22 101.4, 28.15 100.37, 26.18 99.21 C24.21 98.05, 22.29 96.75, 20.49 95.35 C18.68 93.94, 16.95 92.4, 15.34 90.76 C13.73 89.12, 12.21 87.37, 10.82 85.53 C9.43 83.7, 8.15 81.75, 7.01 79.75 C5.88 77.75, 4.86 75.65, 3.99 73.51 C3.11 71.37, 2.37 69.16, 1.78 66.93 C1.19 64.69, 0.75 62.4, 0.45 60.11 C0.15 57.81, 0 55.48, 0 53.17 C0 50.85, 0.15 48.52, 0.45 46.23 C0.75 43.93, 1.19 41.64, 1.78 39.41 C2.37 37.17, 3.11 34.96, 3.99 32.82 C4.86 30.68, 5.88 28.59, 7.01 26.58 C8.15 24.58, 9.43 22.64, 10.82 20.8 C12.21 18.97, 13.73 17.21, 15.34 15.57 C16.95 13.94, 18.68 12.39, 20.49 10.99 C22.29 9.58, 24.21 8.28, 26.18 7.12 C28.15 5.97, 30.22 4.93, 32.32 4.05 C34.43 3.16, 36.61 2.41, 38.81 1.81 C41.01 1.21, 43.27 0.76, 45.53 0.45 C47.78 0.15, 50.08 0, 52.36 0 C54.64 0, 56.94 0.15, 59.19 0.45 C61.45 0.76, 63.71 1.21, 65.91 1.81 C68.11 2.41, 70.29 3.16, 72.4 4.05 C74.5 4.93, 76.57 5.97, 78.54 7.12 C80.51 8.28, 82.43 9.58, 84.24 10.99 C86.04 12.39, 87.77 13.94, 89.39 15.57 C91 17.21, 92.51 18.97, 93.9 20.8 C95.29 22.64, 96.57 24.58, 97.71 26.58 C98.85 28.59, 99.86 30.68, 100.74 32.82 C101.61 34.96, 102.35 37.17, 102.94 39.41 C103.53 41.64, 103.98 43.93, 104.27 46.23 C104.57 48.52, 104.65 52.01, 104.72 53.17 C104.8 54.32, 104.8 52.01, 104.72 53.17" stroke="#000000" stroke-width="4" fill="none"></path></g><g transform="translate(31.666093846918216 50.666093846918244) rotate(332.3440449456764 41.5 22.5)"><text x="41.5" y="32" font-family="Virgil, Segoe UI Emoji" font-size="36px" fill="#000000" text-anchor="middle" style="white-space: pre;" direction="ltr">vince</text></g><g stroke-opacity="0.5" fill-opacity="0.5" stroke-linecap="round" transform="translate(52.93322506131449 24.96981665961195) rotate(346.1153323147417 16.106802174576387 12.080101630932278)"><path d="M32.21 12.08 C32.21 12.78, 32.13 13.49, 31.97 14.18 C31.81 14.87, 31.56 15.55, 31.24 16.21 C30.92 16.87, 30.52 17.51, 30.06 18.12 C29.59 18.73, 29.04 19.31, 28.45 19.85 C27.85 20.38, 27.17 20.88, 26.46 21.33 C25.75 21.78, 24.97 22.19, 24.16 22.54 C23.35 22.89, 22.49 23.19, 21.62 23.43 C20.74 23.67, 19.82 23.86, 18.9 23.98 C17.99 24.1, 17.04 24.16, 16.11 24.16 C15.17 24.16, 14.23 24.1, 13.31 23.98 C12.39 23.86, 11.47 23.67, 10.6 23.43 C9.72 23.19, 8.86 22.89, 8.05 22.54 C7.25 22.19, 6.47 21.78, 5.75 21.33 C5.04 20.88, 4.37 20.38, 3.77 19.85 C3.17 19.31, 2.62 18.73, 2.16 18.12 C1.69 17.51, 1.29 16.87, 0.97 16.21 C0.65 15.55, 0.41 14.87, 0.24 14.18 C0.08 13.49, 0 12.78, 0 12.08 C0 11.38, 0.08 10.67, 0.24 9.98 C0.41 9.29, 0.65 8.61, 0.97 7.95 C1.29 7.29, 1.69 6.65, 2.16 6.04 C2.62 5.43, 3.17 4.85, 3.77 4.32 C4.37 3.78, 5.04 3.28, 5.75 2.83 C6.47 2.38, 7.25 1.97, 8.05 1.62 C8.86 1.27, 9.72 0.97, 10.6 0.73 C11.47 0.49, 12.39 0.3, 13.31 0.18 C14.23 0.06, 15.17 0, 16.11 0 C17.04 0, 17.99 0.06, 18.9 0.18 C19.82 0.3, 20.74 0.49, 21.62 0.73 C22.49 0.97, 23.35 1.27, 24.16 1.62 C24.97 1.97, 25.75 2.38, 26.46 2.83 C27.17 3.28, 27.85 3.78, 28.45 4.32 C29.04 4.85, 29.59 5.43, 30.06 6.04 C30.52 6.65, 30.92 7.29, 31.24 7.95 C31.56 8.61, 31.81 9.29, 31.97 9.98 C32.13 10.67, 32.17 11.73, 32.21 12.08 C32.25 12.43, 32.25 11.73, 32.21 12.08" stroke="none" stroke-width="0" fill="#ced4da"></path><path d="M32.21 12.08 C32.21 12.78, 32.13 13.49, 31.97 14.18 C31.81 14.87, 31.56 15.55, 31.24 16.21 C30.92 16.87, 30.52 17.51, 30.06 18.12 C29.59 18.73, 29.04 19.31, 28.45 19.85 C27.85 20.38, 27.17 20.88, 26.46 21.33 C25.75 21.78, 24.97 22.19, 24.16 22.54 C23.35 22.89, 22.49 23.19, 21.62 23.43 C20.74 23.67, 19.82 23.86, 18.9 23.98 C17.99 24.1, 17.04 24.16, 16.11 24.16 C15.17 24.16, 14.23 24.1, 13.31 23.98 C12.39 23.86, 11.47 23.67, 10.6 23.43 C9.72 23.19, 8.86 22.89, 8.05 22.54 C7.25 22.19, 6.47 21.78, 5.75 21.33 C5.04 20.88, 4.37 20.38, 3.77 19.85 C3.17 19.31, 2.62 18.73, 2.16 18.12 C1.69 17.51, 1.29 16.87, 0.97 16.21 C0.65 15.55, 0.41 14.87, 0.24 14.18 C0.08 13.49, 0 12.78, 0 12.08 C0 11.38, 0.08 10.67, 0.24 9.98 C0.41 9.29, 0.65 8.61, 0.97 7.95 C1.29 7.29, 1.69 6.65, 2.16 6.04 C2.62 5.43, 3.17 4.85, 3.77 4.32 C4.37 3.78, 5.04 3.28, 5.75 2.83 C6.47 2.38, 7.25 1.97, 8.05 1.62 C8.86 1.27, 9.72 0.97, 10.6 0.73 C11.47 0.49, 12.39 0.3, 13.31 0.18 C14.23 0.06, 15.17 0, 16.11 0 C17.04 0, 17.99 0.06, 18.9 0.18 C19.82 0.3, 20.74 0.49, 21.62 0.73 C22.49 0.97, 23.35 1.27, 24.16 1.62 C24.97 1.97, 25.75 2.38, 26.46 2.83 C27.17 3.28, 27.85 3.78, 28.45 4.32 C29.04 4.85, 29.59 5.43, 30.06 6.04 C30.52 6.65, 30.92 7.29, 31.24 7.95 C31.56 8.61, 31.81 9.29, 31.97 9.98 C32.13 10.67, 32.17 11.73, 32.21 12.08 C32.25 12.43, 32.25 11.73, 32.21 12.08" stroke="#ced4da" stroke-width="1" fill="none"></path></g></svg>